<?xml version="1.0" encoding="UTF-8"?><svg id="Layer_2" xmlns="http://www.w3.org/2000/svg" xmlns:xlink="http://www.w3.org/1999/xlink" viewBox="0 0 661.49 395.4"><defs><style>.cls-1{letter-spacing:.05em;}.cls-2{fill:#b4c5e6;}.cls-2,.cls-3,.cls-4,.cls-5,.cls-6,.cls-7,.cls-8,.cls-9,.cls-10,.cls-11,.cls-12,.cls-13,.cls-14,.cls-15,.cls-16,.cls-17,.cls-18,.cls-19,.cls-20,.cls-21,.cls-22,.cls-23,.cls-24,.cls-25,.cls-26,.cls-27,.cls-28,.cls-29,.cls-30,.cls-31,.cls-32,.cls-33,.cls-34,.cls-35{fill-rule:evenodd;}.cls-3{fill:#1b7154;}.cls-36,.cls-15{fill:#b5b6d3;}.cls-4{fill:url(#GradientFill_1);}.cls-37,.cls-13,.cls-38{fill:#fff;}.cls-5{fill:#ededf6;}.cls-6{fill:#131936;}.cls-7{fill:#00c0c3;}.cls-8{fill:#9fb2d9;}.cls-9{fill:#5f9850;}.cls-10,.cls-39{fill:#00000f;}.cls-11{fill:#101537;}.cls-12,.cls-40{fill:#d58750;}.cls-14{fill:#b32720;}.cls-41{fill:#151d3d;}.cls-16{fill:#c0cdea;}.cls-17{fill:#d0d0e6;}.cls-18{fill:#cdcde2;}.cls-19{fill:#f2d8cd;}.cls-20,.cls-42{fill:#b56b41;}.cls-21{fill:#33385c;}.cls-22{fill:#e1e8f6;}.cls-23{fill:#d64c47;}.cls-24{fill:#9295bc;}.cls-25{fill:#294d3c;}.cls-26,.cls-43{fill:#dcdcee;}.cls-27{fill:#050a25;}.cls-28,.cls-44{fill:#3b405f;}.cls-38{font-family:OpenSans-Bold, 'Open Sans';font-size:23.92px;}.cls-29{fill:#a6c86b;}.cls-45{fill:#fffaf9;}.cls-30{fill:#674834;}.cls-31{fill:#db4141;}.cls-32{fill:#4a9075;}.cls-33{fill:#484e78;}.cls-34{fill:#ea5756;}.cls-35{fill:#f5ac83;}</style><linearGradient id="GradientFill_1" x1="173.64" y1="131.39" x2="152.52" y2="119.92" gradientTransform="matrix(1, 0, 0, 1, 0, 0)" gradientUnits="userSpaceOnUse"><stop offset="0" stop-color="#e1e8f6"/><stop offset="1" stop-color="#fff"/></linearGradient></defs><g id="OBJECTS"><g><path class="cls-22" d="M512.93,275.85h56.74c30.54,0,55.52,24.98,55.52,55.52h0c0,30.54-24.98,55.52-55.52,55.52H89.91C40.46,386.89,0,346.44,0,296.99H0c0-49.45,40.46-89.91,89.91-89.91h0c20.91,0,38.01-17.11,38.01-38.01h0c0-20.91-17.11-38.01-38.01-38.01H44.16c-21.74,0-39.52-17.78-39.52-39.52h0c0-21.74,17.79-39.52,39.52-39.52h57.85c8.46,0,15.39-6.92,15.39-15.39h0c0-8.46-6.92-15.39-15.39-15.39h-10.2c-5.84,0-10.62-4.78-10.62-10.62h0c0-5.84,4.78-10.62,10.62-10.62h66.92c14.09,0,15.66,16.65,51.26,16.65h82.55c7.62,0,13.86,6.24,13.86,13.86h0c0,7.62-6.24,13.86-13.86,13.86h-13.31c-11.04,0-20.08,9.04-20.08,20.08h0c0,11.04,9.03,20.08,20.08,20.08h40.05c54.08,0,61.72,14.13,71.19,42.24,9.47,28.11,58.66,30.37,58.66,30.37h67.26c16.64,0,30.26,13.62,30.26,30.26h0c0,16.64-13.62,30.26-30.26,30.26h-3.46c-16,0-29.1,13.1-29.1,29.1h0c0,16.01,13.1,29.1,29.1,29.1h0ZM62.01,21.24c5.86,0,10.62-4.75,10.62-10.62S67.87,0,62.01,0s-10.62,4.75-10.62,10.62,4.75,10.62,10.62,10.62Z"/><g><path class="cls-2" d="M461.62,387.48c5.75-8.34,17.8-22.2,40.84-36.01,36.44-21.83,64.05-50.77,51.91-67.89-11.91-16.8-65.27,15.65-109.59,96.76,6.52,3.41,12.08,5.71,16.84,7.13Z"/><path class="cls-13" d="M454.5,380.07c1.01-.05,3.68-.05,7.19,.98,.25,.07,.5-.07,.58-.31,.07-.25-.07-.5-.31-.58-3.07-.9-5.56-1.05-6.9-1.03,.79-1.34,1.57-2.66,2.36-3.95,1.61-.04,6.8-.14,8.75-.03,.25,.01,.47-.18,.49-.44,.01-.25-.18-.47-.44-.49-1.79-.1-6.19-.02-8.23,.02,1.48-2.42,2.96-4.77,4.43-7.06,1.56,.03,6.38,.17,11.73,.89,.25,.03,.49-.14,.52-.4,.03-.25-.14-.49-.4-.52-4.84-.65-9.27-.83-11.26-.88,1.49-2.3,2.99-4.53,4.47-6.7,2.14,.04,9.08,.23,16.74,1.26,.25,.03,.49-.14,.52-.4,.03-.25-.14-.49-.4-.52-7.1-.96-13.56-1.2-16.24-1.26,1.96-2.84,3.91-5.56,5.86-8.17,2.23-.1,11.48-.33,18.43,1.89,.24,.08,.5-.05,.58-.3,.08-.24-.05-.5-.3-.58-6.47-2.08-14.87-2.06-18.01-1.96,2.39-3.19,4.77-6.22,7.12-9.1,3.04,.17,15.29,1.1,21.02,5.16,.21,.15,.5,.1,.65-.11,.15-.21,.1-.5-.11-.64-5.56-3.94-16.88-5.02-20.82-5.28,2.5-3.03,4.97-5.89,7.41-8.57,2.22,.5,11.51,2.76,20.25,7.15,.23,.12,.5,.02,.62-.21,.11-.23,.02-.51-.2-.62-8.28-4.16-17.04-6.42-19.96-7.11,1.45-1.58,2.88-3.1,4.3-4.56,2.12,.44,11.18,2.51,23.16,8.3,.23,.11,.51,.02,.62-.21,.11-.23,.01-.51-.21-.62-11.18-5.41-19.86-7.61-22.8-8.25,3.37-3.44,6.65-6.58,9.83-9.41,2.69,.89,16.31,5.5,23.47,10.05,.21,.14,.5,.07,.64-.14,.14-.21,.07-.5-.14-.64-6.88-4.38-19.55-8.77-23.16-9.98,1.85-1.63,3.67-3.17,5.44-4.62,2.31,.78,12.86,4.5,22.49,10.08,.22,.13,.5,.05,.63-.17,.13-.22,.05-.5-.17-.63-9.07-5.26-18.96-8.87-22.1-9.96,4.15-3.34,8.05-6.16,11.65-8.54,2.28,.54,12.56,3.11,20.28,7.59,.22,.13,.5,.05,.63-.17,.13-.22,.05-.5-.17-.63-7.1-4.12-16.31-6.64-19.68-7.49,1.49-.97,2.92-1.85,4.3-2.67,1.84,.19,8.68,1.07,17.52,4.46,.24,.09,.51-.03,.6-.27,.09-.24-.03-.51-.27-.6-7.55-2.89-13.68-3.98-16.53-4.37,11.09-6.4,17.98-8.03,18.04-8.04,.37-.09,.6-.47,.5-.84-.09-.37-.47-.6-.84-.5-.04,0-3.07,.73-8.33,3.05,1.44-1.82,3.48-4.33,4.03-4.66,.22-.13,.29-.42,.15-.64-.13-.22-.42-.29-.64-.15-.84,.51-4.22,4.8-5.38,6.29-2.13,1-4.56,2.23-7.25,3.76l4.57-9.09c.12-.23,.02-.5-.21-.62-.23-.12-.5-.02-.62,.2l-5.2,10.34c-1.84,1.08-3.8,2.29-5.85,3.63l4.93-10.77c.11-.23,0-.51-.23-.61-.23-.11-.51,0-.61,.23l-5.55,12.13c-3.07,2.07-6.35,4.44-9.8,7.18l4.27-11.16c.09-.24-.03-.5-.27-.6-.24-.09-.51,.03-.6,.26l-4.84,12.65c-1.57,1.28-3.18,2.62-4.82,4.05l3.62-10.06c.09-.24-.04-.51-.28-.59-.24-.09-.51,.04-.59,.28l-4.19,11.64c-3.04,2.7-6.17,5.66-9.38,8.9l2.73-9.82c.07-.25-.07-.5-.32-.57-.25-.07-.5,.08-.57,.32l-3.18,11.43c-1.27,1.31-2.56,2.67-3.85,4.07l1.53-7.5c.05-.25-.11-.49-.36-.55-.25-.05-.5,.11-.55,.36l-1.83,9c-2.41,2.64-4.85,5.45-7.32,8.42l1.43-8.36c.04-.25-.13-.49-.38-.54-.25-.04-.49,.13-.53,.38l-1.69,9.94c-2.16,2.64-4.34,5.41-6.54,8.32l.93-7.43c.03-.25-.15-.48-.4-.52-.25-.03-.49,.15-.52,.4l-1.13,9.04c-1.91,2.57-3.84,5.24-5.77,8.02l.05-6.7c0-.25-.2-.47-.46-.47-.25,0-.46,.2-.47,.46l-.06,8.06c-1.4,2.03-2.8,4.12-4.2,6.27l-.72-5.71c-.03-.25-.26-.43-.52-.4-.25,.03-.43,.26-.4,.52l.86,6.8c-1.29,1.99-2.58,4.04-3.87,6.13l-.67-3.69c-.05-.25-.29-.42-.54-.37-.25,.04-.42,.29-.37,.54l.86,4.71c-.96,1.58-1.92,3.18-2.89,4.82l-1.53-3.03c-.12-.23-.39-.32-.62-.2-.23,.12-.32,.39-.2,.62l1.8,3.56c-.78,1.34-1.57,2.7-2.35,4.07,.43,.2,.86,.39,1.27,.57,.75-1.32,1.5-2.61,2.25-3.9Z"/></g><g><path class="cls-8" d="M455.01,392.2c6.16-3.89,17.02-9.11,33.43-11.45,27.85-3.97,52.7-15.38,50.82-30.61-1.81-14.66-41.29-9.02-90.41,30.77l6.14,11.24,.02,.04Z"/><path class="cls-2" d="M531.74,352.42c.53,0,.95-.43,.95-.96,0-.53-.43-.95-.96-.95-.04,0-3.14,0-8.44,.71l4.54-3.07c.29-.2,.37-.59,.17-.88-.2-.29-.59-.37-.88-.17l-6.75,4.56c-2.47,.41-5.28,.95-8.38,1.69l4.77-4.56c.26-.24,.26-.65,.02-.9-.24-.26-.65-.27-.9-.02l-6.39,6.11c-3.22,.84-6.7,1.88-10.4,3.18l3.99-4.11c.25-.25,.24-.66-.01-.9-.25-.25-.65-.24-.9,.01l-5.83,6c-3.86,1.45-7.92,3.17-12.13,5.23l3.38-4.34c.21-.28,.16-.68-.11-.89-.28-.22-.68-.17-.89,.11l-5.01,6.45c-3.94,2.03-7.99,4.34-12.11,6.99l1.38-2.95c.15-.32,.01-.7-.31-.85-.32-.15-.7-.01-.85,.31l-2.26,4.82c-3.12,2.08-6.27,4.34-9.43,6.82l1.27-3c.14-.32-.02-.7-.34-.83-.32-.14-.7,.02-.83,.34l-2.18,5.16c-1.54,1.25-3.08,2.55-4.62,3.91l.94,1.72c1.54-1.36,3.08-2.67,4.62-3.93,1.57,.1,5.34,.42,6.93,1.25,.31,.17,.7,.05,.86-.27,.16-.31,.05-.7-.27-.86-1.4-.74-4.16-1.11-6.08-1.29,1.22-.97,2.43-1.91,3.65-2.82,1.55,.26,5.34,1,7.87,2.44,.31,.17,.69,.06,.87-.24,.17-.31,.07-.7-.24-.87-2.17-1.23-5.17-1.98-7.1-2.36,2.5-1.83,5-3.53,7.47-5.11,2.12,.88,8.83,3.73,11.46,5.89,.27,.22,.67,.18,.9-.09,.22-.27,.18-.67-.09-.9-2.47-2.03-8.23-4.59-10.96-5.74,2.65-1.65,5.26-3.17,7.84-4.56,2.12,.81,9.01,3.61,13.55,7.21,.28,.22,.68,.17,.9-.1,.22-.28,.17-.68-.11-.89-4.09-3.24-10.01-5.84-12.87-6.99,1.27-.67,2.54-1.31,3.79-1.91,2.2,.7,9.63,3.28,16.51,8.27,.28,.21,.68,.14,.89-.14,.21-.28,.14-.68-.14-.89-6.03-4.37-12.47-6.93-15.62-8.03,4.54-2.13,8.89-3.88,12.98-5.32,2.43,1.5,11.85,7.42,15.97,11.34,.25,.24,.66,.23,.9-.02,.24-.25,.23-.66-.02-.9-3.81-3.62-11.96-8.86-15.29-10.95,3.06-1.03,5.96-1.88,8.67-2.58,2.19,1.67,10.25,7.85,12.13,9.46,.26,.23,.66,.2,.9-.06,.23-.26,.2-.67-.06-.9-1.71-1.48-8.47-6.67-11.38-8.9,3.54-.87,6.72-1.49,9.45-1.93,1.96,1.71,6.68,5.83,7.79,6.93,.25,.25,.65,.25,.9,0,.25-.25,.25-.65,0-.9-.98-.98-4.79-4.32-7.04-6.27,5.64-.81,8.96-.8,9-.8Z"/></g><path class="cls-8" d="M363.73,307.35c-.4-5.55-.59-10.93-.57-16.16,.02-5.31,.26-10.42,.7-15.36,1.65-18.44,6.12-34.35,12.8-47.94,7.23-14.71,17.02-26.7,28.58-36.24,10.71-8.84,22.93-15.58,36.02-20.42,14.04-5.19,29.09-8.21,44.35-9.33,5.15-.38,10.34-.54,15.55-.49,5.27,.05,10.53,.31,15.74,.77h0c.59,.05,1.11,.34,1.46,.76,.35,.42,.55,.98,.5,1.57l-.02,.15c-.21,2.03-4.9,45.6-26.13,84.96-21.47,39.82-59.78,75.35-127.31,59.7-.48-.11-.89-.38-1.18-.74-.28-.35-.46-.78-.48-1.25h0Zm152.75-141.74c-2.53,.99-12.91,5.21-27.48,13.43,5.68,1.01,18.56,3.4,24.34,5.25,1.92-9.25,2.82-16.02,3.13-18.68h0Zm-3.56,20.71h-.02c-6.68-2.19-24.1-5.23-26.7-5.67-7.25,4.2-15.41,9.33-24.08,15.48l45.2,11.89c2.41-7.95,4.23-15.34,5.6-21.7h0Zm-6.21,23.67l-46.77-12.3c-8.07,5.83-16.54,12.53-25.09,20.17,9.27,2.83,53.62,16.42,61.13,20.22,4.42-9.57,7.95-19.15,10.73-28.09h0Zm-11.6,29.95c-7.56-3.87-56.51-18.79-62.05-20.47-6.84,6.2-13.72,13.01-20.47,20.45l69.66,22.24c.09,.03,.17,.07,.24,.11,3-4.45,5.74-9.04,8.25-13.69,1.54-2.87,3-5.75,4.37-8.64h0Zm-13.81,24.08l-70.23-22.42c-5.25,5.88-10.43,12.15-15.45,18.82,11.35,3.84,69.49,21.93,69.67,21.98,.16,.05,.3,.14,.41,.25,5.83-5.7,11-12,15.6-18.63h0Zm-17.2,20.17c-6.16-1.92-60.58-18.86-69.77-22.03-4.3,5.81-8.48,11.92-12.49,18.34,13.74,6.78,59.91,18.77,60.05,18.8,.28,.07,.5,.25,.63,.48,8.01-4.26,15.18-9.57,21.59-15.59h0Zm-23.93,16.8c-7.4-1.95-46.9-12.48-59.42-18.73-2.56,4.16-5.05,8.46-7.45,12.89,5.27,2.08,28.89,11.14,44.15,12.71,.43,.04,.78,.35,.89,.75,7.88-1.7,15.14-4.29,21.82-7.61h0Zm-26.33,8.47c-15.63-2.44-37.01-10.71-41.51-12.49-1.81,3.41-3.58,6.89-5.28,10.45,17.55,3.93,33.07,4.33,46.8,2.04h0Zm-48-4.29c1.58-3.26,3.21-6.45,4.89-9.58-2.11-5.85-3.67-15.97-4.43-21.65-.07,.7-.14,1.4-.2,2.1-.43,4.87-.67,9.92-.69,15.16-.02,4.5,.12,9.15,.43,13.97h0Zm1.09-36.54c.46,.06,.84,.43,.9,.91,0,.05,1.64,14.92,4.25,23.56,2.32-4.24,4.72-8.35,7.19-12.35-.83-2.83-5.3-18.69-6.81-36.53-2.47,7.53-4.33,15.66-5.53,24.41h0Zm6.7-27.83c.38,.13,.66,.48,.69,.9,1.11,16.21,4.9,31.2,6.41,36.69,3.89-6.17,7.93-12.04,12.08-17.64-1.21-3.58-8.25-24.94-9.23-40.81-1.75,2.86-3.39,5.84-4.91,8.94-1.86,3.79-3.55,7.76-5.05,11.92h0Zm11.46-23.24c.28,.17,.47,.48,.48,.83,.55,14.36,6.74,34.24,8.75,40.35,4.95-6.56,10.05-12.72,15.23-18.51-9.25-19.61-10.65-35.59-10.86-39.56-5.01,5.05-9.57,10.67-13.6,16.89h0Zm15.33-18.59c.18,.18,.29,.43,.3,.71,0,.05,.19,17.03,10.33,38.9,6.78-7.46,13.68-14.29,20.54-20.52-4.15-9.35-8.16-32.63-8.7-35.82-5.71,3.25-11.14,6.96-16.21,11.15-2.15,1.77-4.23,3.63-6.25,5.58h0Zm24.32-17.76c.05,.1,.1,.21,.12,.34,.01,.07,4.1,24.88,8.35,35.06,8.66-7.75,17.24-14.55,25.4-20.46-3-11.98-2.93-24.98-2.9-27.07-4.64,1.21-9.2,2.64-13.66,4.29-5.98,2.21-11.77,4.82-17.31,7.85h0Zm33-12.66c.02,.09,.03,.18,.03,.27,0,.04-.36,13.47,2.64,26.03,8.83-6.29,17.14-11.53,24.53-15.82-.91-6.66-.39-13.59-.29-14.78-9.11,.72-18.14,2.14-26.9,4.3h0Zm28.97-4.46c0,.05,0,.11,0,.16,0,.02-.65,6.87,.16,13.66,13.42-7.65,23.49-12.02,27.54-13.67-4.4-.34-8.83-.53-13.26-.57-4.79-.04-9.61,.1-14.44,.42Z"/><path class="cls-39" d="M46.63,387.58H613.27c2.16,0,3.91,1.75,3.91,3.91h0c0,2.16-1.75,3.91-3.91,3.91H46.63c-2.16,0-3.91-1.75-3.91-3.91h0c0-2.16,1.75-3.91,3.91-3.91Z"/><rect class="cls-39" x="21.33" y="387.58" width="15.8" height="7.82" rx="3.91" ry="3.91"/><path class="cls-39" d="M633.95,387.58h23.63c2.16,0,3.91,1.75,3.91,3.91h0c0,2.16-1.75,3.91-3.91,3.91h-23.63c-2.16,0-3.91-1.75-3.91-3.91h0c0-2.16,1.75-3.91,3.91-3.91Z"/><g><polygon class="cls-4" points="141.95 127.22 157.33 168.07 192.01 144.4 201.79 106.97 197.05 98.57 157.91 102.31 145.54 112.21 141.95 127.22"/><path class="cls-13" d="M149.86,120.19c2.85,0,5.17-2.32,5.17-5.17s-2.32-5.17-5.17-5.17-5.17,2.32-5.17,5.17,2.32,5.17,5.17,5.17Z"/><g><path class="cls-11" d="M101.36,134.74l29.59-33.72c.19-.22,.53-.24,.75-.05l1.76,1.55c.22,.19,.24,.53,.05,.75l-29.59,33.72c-.19,.22-.53,.25-.75,.05l-1.76-1.55c-.22-.19-.25-.53-.05-.75h0Zm30.04-32.61l-28.88,32.91,.96,.84,28.88-32.91-.96-.84Z"/><path class="cls-10" d="M131.08,100.07c1.63-.21,3.13,.95,3.33,2.58,.21,1.63-.95,3.13-2.58,3.33-1.63,.21-3.13-.95-3.33-2.58-.21-1.63,.95-3.13,2.58-3.33Z"/><path class="cls-11" d="M101.34,134.9l20.8,39.74c.14,.26,.46,.36,.72,.23l2.08-1.09c.26-.14,.36-.46,.23-.72l-20.8-39.74c-.14-.26-.46-.36-.72-.23l-2.08,1.09c-.26,.14-.36,.46-.23,.72h0Zm21.5,38.77l-20.31-38.8,1.13-.59,20.31,38.79-1.13,.59Z"/><path class="cls-10" d="M122.05,175.6c1.54,.59,3.26-.18,3.85-1.72,.59-1.54-.19-3.26-1.72-3.85-1.54-.59-3.26,.19-3.85,1.72-.59,1.54,.19,3.26,1.72,3.85Z"/><path class="cls-10" d="M103.04,132.02c1.63-.21,3.13,.95,3.33,2.58,.21,1.63-.95,3.13-2.58,3.33-1.63,.21-3.13-.95-3.33-2.58-.21-1.63,.95-3.13,2.58-3.33Z"/></g><path class="cls-14" d="M121.3,183.9h38.25c3.05,0,5.54-2.49,5.54-5.54h0c0-3.05-2.5-5.54-5.54-5.54h-38.25c-3.05,0-5.54,2.5-5.54,5.54h0c0,3.05,2.5,5.54,5.54,5.54Z"/><path class="cls-23" d="M95.87,183.9h38.25c3.05,0,5.54-2.49,5.54-5.54h0c0-3.05-2.49-5.54-5.54-5.54h-38.25c-3.05,0-5.54,2.5-5.54,5.54h0c0,3.05,2.5,5.54,5.54,5.54Z"/><g><path class="cls-23" d="M157.78,102.81l-15.83,24.42c-.16,.25-.43,.38-.73,.35-.3-.03-.54-.21-.65-.49l-9.15-23.28c-.1-.24-.07-.49,.07-.71,.14-.22,.36-.34,.62-.36l24.98-1.14c.3-.01,.56,.13,.71,.39,.15,.26,.14,.56-.02,.81Z"/><polygon class="cls-13" points="140.14 126 138.8 122.6 152.28 101.82 155.93 101.66 140.14 126"/><path class="cls-23" d="M133.98,100.09l6.52,4.23c1.79,1.16,2.31,3.58,1.15,5.37h0c-1.16,1.79-3.58,2.31-5.37,1.15l-6.52-4.23c-1.79-1.16-2.31-3.58-1.15-5.37h0c1.16-1.79,3.58-2.31,5.37-1.15Z"/><path class="cls-10" d="M130.93,102.68c.57,.37,.74,1.14,.37,1.72-.37,.57-1.14,.74-1.72,.37-.57-.37-.74-1.14-.37-1.71,.37-.58,1.14-.74,1.72-.37Z"/></g><path class="cls-13" d="M169.33,128.62c0-.6-.48-1.08-1.08-1.08s-1.08,.48-1.08,1.08v2.54h-2.54c-.6,0-1.08,.48-1.08,1.08s.48,1.08,1.08,1.08h2.54v2.54c0,.6,.48,1.08,1.08,1.08s1.08-.48,1.08-1.08v-2.54h2.54c.6,0,1.08-.48,1.08-1.08s-.48-1.08-1.08-1.08h-2.54v-2.54Z"/><path class="cls-13" d="M154.22,123.97c0-.6-.48-1.08-1.08-1.08s-1.08,.48-1.08,1.08v2.54h-2.54c-.6,0-1.08,.48-1.08,1.08s.48,1.08,1.08,1.08h2.54v2.54c0,.6,.48,1.08,1.08,1.08s1.08-.48,1.08-1.08v-2.54h2.54c.6,0,1.08-.48,1.08-1.08s-.48-1.08-1.08-1.08h-2.54v-2.54Z"/><path class="cls-13" d="M190.27,107.01c0-.6-.48-1.08-1.08-1.08s-1.08,.48-1.08,1.08v2.54h-2.54c-.6,0-1.08,.48-1.08,1.08s.48,1.08,1.08,1.08h2.54v2.54c0,.6,.48,1.08,1.08,1.08s1.08-.48,1.08-1.08v-2.54h2.54c.6,0,1.08-.48,1.08-1.08s-.48-1.08-1.08-1.08h-2.54v-2.54Z"/><path class="cls-13" d="M169.8,111.63c0-.26-.21-.47-.47-.47s-.47,.21-.47,.47v1.11h-1.12c-.26,0-.47,.21-.47,.47s.21,.47,.47,.47h1.12v1.11c0,.26,.21,.47,.47,.47s.47-.21,.47-.47v-1.11h1.12c.26,0,.47-.21,.47-.47s-.21-.47-.47-.47h-1.12v-1.11Z"/><path class="cls-13" d="M158.86,136.78c0-.26-.21-.47-.47-.47s-.47,.21-.47,.47v1.11h-1.12c-.26,0-.47,.21-.47,.47s.21,.47,.47,.47h1.12v1.11c0,.26,.21,.47,.47,.47s.47-.21,.47-.47v-1.11h1.12c.26,0,.47-.21,.47-.47s-.21-.47-.47-.47h-1.12v-1.11Z"/><path class="cls-13" d="M181.47,124.56c0-.26-.21-.47-.47-.47s-.47,.21-.47,.47v1.11h-1.11c-.26,0-.47,.21-.47,.47s.21,.47,.47,.47h1.11v1.11c0,.26,.21,.47,.47,.47s.47-.21,.47-.47v-1.11h1.11c.26,0,.47-.21,.47-.47s-.21-.47-.47-.47h-1.11v-1.11Z"/><path class="cls-13" d="M158.1,114.32c0-.26-.21-.47-.47-.47s-.47,.21-.47,.47v1.11h-1.11c-.26,0-.47,.21-.47,.48s.21,.47,.47,.47h1.11v1.11c0,.26,.21,.47,.47,.47s.47-.21,.47-.47v-1.11h1.11c.26,0,.47-.21,.47-.47s-.21-.48-.47-.48h-1.11v-1.11Z"/><path class="cls-13" d="M179.34,103.02c0-.26-.21-.47-.47-.47s-.47,.21-.47,.47v1.11h-1.12c-.26,0-.47,.21-.47,.48s.21,.47,.47,.47h1.12v1.11c0,.26,.21,.47,.47,.47s.47-.21,.47-.47v-1.11h1.11c.26,0,.47-.21,.47-.47s-.21-.48-.47-.48h-1.11v-1.11Z"/><path class="cls-13" d="M198.89,127.46c0-.26-.21-.47-.47-.47s-.47,.21-.47,.47v1.11h-1.11c-.26,0-.47,.21-.47,.47s.21,.47,.47,.47h1.11v1.11c0,.26,.21,.47,.47,.47s.47-.21,.47-.47v-1.11h1.12c.26,0,.47-.21,.47-.47s-.21-.47-.47-.47h-1.12v-1.11Z"/><path class="cls-13" d="M172.46,154.96c0-.26-.21-.47-.47-.47s-.47,.21-.47,.47v1.11h-1.11c-.26,0-.47,.21-.47,.47s.21,.47,.47,.47h1.11v1.11c0,.26,.21,.47,.47,.47s.47-.21,.47-.47v-1.11h1.11c.26,0,.47-.21,.47-.47s-.21-.47-.47-.47h-1.11v-1.11Z"/><path class="cls-13" d="M192.01,143.28c0-.26-.21-.47-.47-.47s-.47,.21-.47,.47v1.12h-1.11c-.26,0-.47,.21-.47,.47s.21,.47,.47,.47h1.11v1.11c0,.26,.21,.47,.47,.47s.47-.21,.47-.47v-1.11h1.12c.26,0,.47-.21,.47-.47s-.21-.47-.47-.47h-1.12v-1.12Z"/></g><g><path class="cls-28" d="M446.07,195.91c-.21-3.15-2.93-5.53-6.08-5.32-3.15,.21-5.53,2.93-5.32,6.08,.83,12.1,2.15,25.55,4.09,40.47h-103.78c2.05-14.84,3.69-28.21,4.98-40.25,.33-3.14-1.94-5.95-5.08-6.29-3.14-.33-5.95,1.94-6.29,5.08-2.55,23.77-6.45,52.76-12.26,87.97-4.95,29.98-11.27,64.43-19.31,103.95h11.65c7.88-38.84,14.07-72.67,18.93-102.12,2.17-13.14,4.07-25.42,5.74-36.89h106.98c1.66,11.5,3.68,23.82,6.09,37,5.41,29.48,12.84,63.28,22.85,102h11.79c-10.32-39.64-17.93-74.11-23.42-104.06-2.71-14.75-4.9-28.41-6.65-41.05-.02-.28-.06-.56-.11-.83-2.35-17.06-3.89-32.25-4.82-45.76Z"/><g><path class="cls-10" d="M209.68,251.66c0-1.67-1.36-3.03-3.03-3.03s-3.03,1.36-3.03,3.03v135.94h6.05v-40.22h46.4v40.22h6.05V251.66c0-1.67-1.36-3.03-3.03-3.03s-3.03,1.36-3.03,3.03v78.59h-46.4v-78.59h0Zm46.4,89.67h-46.4v-7.29h46.4v7.29Z"/><path class="cls-30" d="M157.22,251.66c0-1.67-1.36-3.03-3.03-3.03s-3.03,1.36-3.03,3.03v135.94h6.05v-40.22h46.4v40.22h6.05V251.66c0-1.67-1.36-3.03-3.03-3.03s-3.03,1.36-3.03,3.03v78.59h-46.4v-78.59h0Zm46.4,89.67h-46.4v-7.29h46.4v7.29Z"/><path class="cls-10" d="M267.79,251.66h-118.46c-2.09,0-3.8,1.71-3.8,3.8h0c0,2.09,1.71,3.8,3.8,3.8h118.46c2.09,0,3.8-1.71,3.8-3.8h0c0-2.09-1.71-3.8-3.8-3.8Z"/><path class="cls-20" d="M272.1,247.85h-127.81c-2.09,0-3.8,1.71-3.8,3.8h0c0,2.09,1.71,3.81,3.8,3.81h127.81c2.09,0,3.8-1.71,3.8-3.81h0c0-2.09-1.71-3.8-3.8-3.8Z"/><path class="cls-12" d="M194.64,247.85h-50.36c-2.09,0-3.8,1.71-3.8,3.8h0c0,2.09,1.71,3.81,3.8,3.81h50.36c2.09,0,3.8-1.71,3.8-3.81h0c0-2.09-1.71-3.8-3.8-3.8Z"/></g><path class="cls-23" d="M268.62,149.14c10.98,2.71,33.14,7.13,40.17,16.17,4.6,5.9,5.24,13.05-2.37,13.05h-38.65l.85-29.22Z"/><path class="cls-23" d="M190.68,197.72l-14.85,12.99s-8.57-23.65-.1-44.32c8.46-20.68,40.63-22.24,53.89-23.5,13.26-1.25,30.19,35.46,30.19,35.46l-69.12,19.36Z"/><path class="cls-10" d="M245.13,214.31s28.22,6.41,31.78,7.25c3.56,.84,13.16,10.43,14.86,19.67,1.7,9.24,17.32,126.51,17.32,126.51,0,0-4.03,7-4.56,7.11-.52,.1-8.18-3.5-8.18-3.5,0,0-27.19-99.41-30.33-108.2-3.14-8.79-2.32-15.29-11.93-15.29h-28.88l-7.48-25.44,3.01-2.93c-3.27,.16-5.82,.18-6.25-.08-1.36-.84-22.81-8.68-22.81-8.68,0,0,15.38-4.61,16.74-5.13,1.36-.52,23.49-2.35,23.49-2.35,0,0,.05,6.07,1.15,7.38,1.1,1.31,3.45,1.85,3.45,1.85h0l8.61,1.85Z"/><path class="cls-23" d="M177.55,184.56c-.23,8-.49,16.37-1.77,20.75,.48,2.8,.05,5.4,.05,5.4l-.21,.58c.17,.64,.33,1.04,.33,1.04,3.54,2.71,7.29,2.81,11.61,4.44l-.02-.58-.18-.76,12.59,6.09c4.26-.44,31.36-2.19,38.13-8.72-.6-6.38,26.47-24.26,33.9-25.98l-94.44-2.26Z"/><path class="cls-34" d="M305.88,369.68s1.2-2.7,4.13-1.89c2.93,.81,20.3,10.37,23.01,11.55,2.72,1.18,5.57,5.68,3.43,8.26h-41.29c-2.44-1.46-4.79-6.53-2.27-15.34,2.52-8.81,1.9,.45,13-2.58Z"/><path class="cls-31" d="M305.88,369.68s1.2-2.7,4.13-1.89c1.82,.5,9.24,4.4,15.24,7.55-1.76,1.32-5.49,2.47-6.35,2.29-1.07-.22-13.03-7.96-13.03-7.96Z"/><path class="cls-45" d="M292.48,382.91h44.64c.67,0,1.21,.54,1.21,1.21v2.25c0,.67-.54,1.21-1.21,1.21h-44.64c-.67,0-1.21-.54-1.21-1.21v-2.25c0-.67,.54-1.21,1.21-1.21Z"/><path class="cls-6" d="M184.37,247.8c-16.22,0-16.87-28.33-8.54-37.09,0,0,4.19,3.34,10.86,3.27,11.03-.12,36.83-6.29,44.72,4.24,7.89,10.53,10.77,28.19,6.2,53.88-4.57,25.69-15.85,99.56-15.85,99.56l-13.02-1.12s1.93-104.2,2.13-109.74c.21-5.55-2.72-12.94-8.69-12.94s-17.83-.05-17.83-.05Z"/><path class="cls-34" d="M219.09,370.47s-4.92-6.12-10.93-1.25c0,0-3.28,1.33-4.51,4.42-1.23,3.1-3.55,4.5-3.96,7.89-.41,3.39,.55,6.05,4.85,6.05h6.97c3.08,0,7.65,.51,9.22-3.61,1.57-4.13,0-7.89,.55-10.03,.55-2.14-2.19-3.47-2.19-3.47Z"/><path class="cls-31" d="M219.09,370.47s-4.92-6.12-10.93-1.25c0,0-.63,.26-1.44,.8-.35,2.68-.64,5.54-.38,6.27,.52,1.46,8.29,1.15,9.39,.63,.82-.39,2.68-4.35,3.57-6.34-.13-.07-.2-.11-.2-.11Z"/><rect class="cls-45" x="198.94" y="382.91" width="22.8" height="4.67" rx="1.21" ry="1.21"/><path class="cls-28" d="M254.16,216.36c-.42,.46-.84,.95-1.25,1.49-1.76,1.97-3.52,4.57-4.59,7.79-.07,.21,.04,.43,.25,.5,.21,.07,.43-.04,.5-.25,.13-.4,.28-.79,.43-1.18,.04,.05,.1,.09,.17,.11,.21,.07,.43-.04,.5-.25,.81-2.45,2.04-4.52,3.35-6.22,.58-.65,1.16-1.23,1.71-1.74l-1.07-.24h0Zm2.32,.53l1.36,.31c-.66,.63-1.36,1.35-2.05,2.18-1.31,1.7-2.54,3.77-3.35,6.21-.06,.17-.22,.28-.4,.27-.05,.13-.09,.26-.14,.39-.07,.21-.29,.32-.5,.25-.09-.03-.16-.08-.2-.15l-.02,.07c-.07,.21-.29,.32-.5,.25-.21-.07-.32-.29-.25-.5,1.36-4.11,3.86-7.21,6.04-9.28h0Zm1.71,.39l1.42,.32c-1.9,1.63-4.29,4.17-5.92,7.63-.17,.41-.33,.83-.47,1.26-.03,.08-.08,.16-.15,.2-.09,.25-.18,.5-.27,.75-.07,.21-.29,.32-.5,.25-.21-.07-.32-.29-.25-.5,.26-.8,.57-1.56,.91-2.28,1.34-3.27,3.37-5.81,5.22-7.64h0Zm1.8,.41l1.05,.24c-1.03,.9-2.2,2.07-3.3,3.49-1.18,1.61-2.27,3.53-3.01,5.76-.04,.13-.15,.22-.27,.26-.02,.06-.05,.13-.07,.2-.07,.21-.29,.32-.5,.25-.21-.07-.32-.29-.25-.5,.84-2.53,2.11-4.67,3.46-6.43,.94-1.28,1.94-2.37,2.88-3.27h0Zm2.68,.61c-2.39,2.01-5.62,5.46-7.24,10.36-.07,.21,.04,.43,.25,.5,.21,.07,.43-.04,.5-.25,1.58-4.75,4.72-8.09,7.02-10.03-.94,.86-1.96,1.92-2.92,3.18-1.43,1.8-2.77,4.02-3.65,6.67-.07,.21,.04,.43,.25,.5,.02,0,.05,.01,.07,.02h0v.02c-.03,.09-.07,.19-.1,.28h0c-.07,.22,.04,.44,.25,.51,.21,.07,.43-.04,.5-.25,.04-.12,.08-.24,.12-.36h0v-.03c.05-.11,.09-.22,.13-.33v-.03c.1-.24,.19-.47,.29-.7h0c.05-.12,.1-.24,.15-.35h0c.05-.12,.1-.23,.15-.33h0v-.03c.06-.11,.11-.21,.16-.32h0c.05-.12,.1-.22,.16-.33l.02-.03c.05-.09,.1-.19,.15-.28l.04-.07c.04-.08,.09-.17,.14-.25l.04-.06c.05-.08,.09-.17,.14-.25l.05-.08c.04-.07,.09-.15,.13-.22l.05-.09c.04-.07,.08-.14,.13-.21l.07-.12,.11-.18,.07-.11,.12-.18,.08-.11,.11-.17,.09-.13,.09-.13h.01c-.86,1.35-1.62,2.88-2.19,4.6-.07,.21,.04,.43,.25,.5h0c-.08,.23-.16,.45-.24,.69-.07,.2,.04,.43,.25,.5,.21,.07,.43-.04,.5-.25,.02-.06,.04-.13,.07-.19,.12-.03,.23-.13,.27-.26,.1-.31,.22-.62,.33-.93-.05,.2,.06,.4,.26,.47,.21,.07,.43-.04,.5-.25,1.49-4.5,4.39-7.74,6.66-9.72l.17-.13-1.17-.27c-.14,.11-.28,.23-.42,.35,.14-.12,.28-.24,.41-.35l-3.38-.77h0Zm4.63,1.05c-2.34,2.05-5.34,5.4-6.89,10.06-.07,.21,.04,.43,.25,.5,.21,.07,.43-.04,.5-.25,.03-.09,.06-.18,.09-.27,.04,.1,.13,.19,.24,.23,.21,.07,.43-.04,.5-.25,1.49-4.5,4.39-7.73,6.65-9.71l-1.34-.3h0Zm1.68,.38l3.34,.76c-2.33,1.84-5.91,5.34-7.62,10.52-.07,.21-.29,.32-.5,.25-.09-.03-.16-.09-.21-.16-.1,.1-.25,.14-.4,.09-.21-.07-.32-.29-.25-.5,1.19-3.58,3.23-6.39,5.18-8.42-2,1.99-4.18,4.84-5.41,8.56-.07,.21-.29,.32-.5,.25-.21-.07-.32-.29-.25-.5l.04-.1c-.09,.05-.21,.07-.31,.03-.21-.07-.32-.29-.25-.5,1.6-4.83,4.77-8.26,7.14-10.28h0Zm3.56,.81l.99,.23c-2.3,1.74-6.19,5.34-8.01,10.82-.07,.21-.29,.32-.5,.25-.21-.07-.32-.29-.25-.5,1.75-5.27,5.36-8.87,7.77-10.8Z"/><path class="cls-28" d="M233.01,299.73c-1.04-.26-2.23-.48-3.53-.59-2.62-.43-5.86-.48-9.5,.5-.23,.07-.42,.31-.41,.54,0,.23,.2,.37,.43,.31,.45-.12,.9-.23,1.34-.32-.03,.07-.05,.15-.05,.22,0,.23,.2,.37,.43,.31,2.76-.75,5.29-.88,7.48-.69,1.41,.23,2.64,.58,3.62,.94l.2-1.22h0Zm-.39,2.41l-.22,1.35c-.99-.3-2.16-.56-3.46-.73-2.18-.18-4.71-.05-7.47,.7-.2,.05-.36-.04-.41-.2-.15,.04-.3,.07-.45,.11-.23,.06-.42-.07-.43-.31,0-.1,.03-.2,.08-.29l-.08,.02c-.23,.06-.42-.07-.43-.31,0-.23,.18-.48,.41-.54,5.16-1.4,9.54-.71,12.44,.19h0Zm-.27,1.68c-2.55-.67-6.01-1.08-10.01-.29-.85,.13-1.73,.31-2.63,.55-.23,.06-.42,.3-.41,.54,0,.23,.19,.37,.43,.31,.29-.08,.57-.15,.85-.21,.07,.04,.16,.04,.26,.02,.49-.13,.97-.24,1.44-.34,4.09-.61,7.52,.07,9.84,.84l.23-1.42h0Zm-.29,1.8l-.17,1.03c-1.21-.36-2.67-.68-4.33-.82-2.04-.11-4.37,.06-6.89,.74-.15,.04-.28,0-.36-.1-.08,.02-.15,.04-.22,.06-.23,.06-.42-.08-.43-.31,0-.23,.18-.48,.41-.54,2.86-.77,5.47-.91,7.73-.72,1.59,.09,3.02,.34,4.25,.66h0Zm-.42,2.62l-.15,.93c-2.8-.88-7.04-1.55-12.05-.2-.23,.06-.42-.08-.43-.31,0-.23,.18-.47,.41-.54,5.03-1.36,9.31-.74,12.21,.12h0Zm-.15,.96c-1.08-.28-2.31-.51-3.67-.62-2.33-.22-5.05-.11-8.03,.7-.23,.06-.42,.3-.41,.54,0,.03,0,.05,.01,.08h-.02c-.1,.03-.21,.06-.31,.09h-.01c-.23,.07-.42,.31-.41,.54,0,.23,.2,.37,.43,.31,.14-.04,.27-.07,.41-.11h.03c.13-.04,.25-.07,.38-.1h.04c.27-.07,.54-.13,.8-.18h.01c.13-.03,.26-.05,.39-.07h.01c.13-.02,.25-.04,.38-.06h.03c.13-.02,.25-.04,.38-.06h.01c.12-.02,.25-.03,.37-.05h.04c.11-.02,.22-.03,.33-.04h.09c.1-.02,.2-.03,.3-.03h.08c.1-.01,.2-.02,.3-.03h.1c.09-.01,.18-.01,.27-.02h.11c.08,0,.17-.01,.25-.01h1.43c-1.68,.04-3.51,.28-5.44,.8-.23,.06-.42,.31-.41,.54h0c-.26,.06-.52,.13-.78,.2-.23,.06-.42,.3-.41,.54,0,.23,.2,.37,.43,.31,.07-.02,.14-.04,.22-.05,.08,.09,.21,.14,.36,.1,.36-.09,.71-.18,1.05-.26-.22,.08-.38,.31-.38,.53,0,.24,.2,.37,.43,.31,4.03-1.09,7.57-.87,10.26-.28l.57-3.6h0Zm-.59,3.71l-.22,1.36c-2.6-.49-5.92-.61-9.65,.4-.23,.06-.42-.08-.43-.31,0-.13,.05-.27,.15-.37-.1,.03-.21,.05-.31,.08-.23,.06-.42-.08-.43-.31,0-.23,.18-.47,.41-.54,4.1-1.11,7.71-.91,10.48-.32h0Zm-.26,1.66c-2.74-.56-6.29-.73-10.32,.35-.23,.06-.42,.3-.41,.54,0,.12,.06,.22,.14,.28l-.12,.03c-.23,.07-.42,.31-.41,.54,0,.23,.2,.37,.43,.31,4.11-1.11,7.7-.86,10.41-.25l.28-1.8h0Zm-.29,1.81l-.23,1.46c-2.63-.52-5.99-.66-9.8,.37-.23,.06-.42-.08-.43-.31,0-.1,.03-.21,.09-.3-.13-.03-.23-.15-.23-.32,0-.24,.18-.47,.41-.54,3.96-1.07,7.46-.92,10.19-.38h0Zm-.27,1.7c-2.71-.52-6.17-.65-10.07,.4-.23,.06-.42,.3-.41,.54,0,.23,.2,.37,.43,.31,3.86-1.04,7.27-.88,9.91-.35l.14-.9Z"/><path class="cls-28" d="M292.91,248.73c-1.46-.23-3.34-.37-5.49-.16-2.65,.04-5.85,.58-9.25,2.19-.22,.1-.36,.38-.31,.61,.05,.23,.26,.33,.48,.23,.42-.2,.85-.39,1.26-.55-.02,.08-.02,.15,0,.23,.05,.23,.26,.33,.48,.23,2.58-1.23,5.05-1.81,7.23-2.02,2.64-.04,4.71,.42,5.83,.75l-.21-1.49h0Zm.38,2.62l.2,1.38c-1.35-.32-3.42-.65-5.94-.51-2.18,.21-4.64,.79-7.22,2.02-.18,.08-.36,.03-.44-.13-.14,.06-.28,.13-.42,.19-.22,.1-.43,0-.48-.23-.02-.1,0-.2,.03-.3l-.07,.03c-.22,.1-.43,0-.48-.23-.05-.23,.09-.5,.31-.6,6.22-2.96,11.78-2.29,14.5-1.64h0Zm.23,1.63c-2.67-.52-7.21-.85-12.33,1.18-.81,.28-1.64,.61-2.48,1.01-.22,.1-.36,.37-.31,.6,.05,.23,.26,.33,.48,.23,.27-.13,.53-.25,.8-.36,.08,.02,.17,.02,.26-.03,.46-.22,.91-.41,1.36-.59,5.76-1.95,10.6-.92,12.47-.37l-.24-1.68h0Zm.26,1.85c-1.67-.33-4.1-.6-6.95-.24-2.26,.22-4.8,.82-7.48,2.09-.22,.1-.36,.37-.31,.6,.05,.23,.26,.33,.48,.23,.07-.03,.14-.07,.21-.1,.09,.08,.23,.1,.37,.03,2.35-1.12,4.61-1.7,6.64-1.95,3.18-.31,5.76,.16,7.21,.54l-.17-1.21h0Zm.4,2.86l.28,1.97c-.32-.09-.71-.18-1.15-.27h.06l.06,.03h.06l.06,.03h.06l.11,.04h.01l.1,.03h.05l.02,.02h.03l.05,.02h.05l.02,.02h.02l.05,.02h.05l.03,.02h.02l.05,.02h.05l.04,.02h0l.04,.02h.05l.19,1.38c-.56-.14-1.26-.28-2.08-.39,.82,.12,1.52,.26,2.08,.41l.35,2.51c-2.84-.53-7.72-.79-13.11,1.77-.22,.1-.43,0-.48-.23-.03-.13,0-.27,.08-.39-.1,.04-.19,.09-.29,.13-.22,.1-.43,0-.48-.23-.05-.23,.09-.5,.31-.6,5.27-2.51,10.06-2.41,13.06-1.92-.24-.07-.52-.14-.84-.21-2.91-.38-7.27-.32-12.02,1.94-.22,.1-.43,0-.48-.23-.04-.22,.08-.47,.28-.59-.33,.14-.66,.28-.99,.44-.14,.07-.27,.05-.37-.03-.07,.03-.14,.06-.2,.09-.22,.1-.43,0-.48-.23-.05-.23,.09-.5,.31-.6,.24-.12,.49-.22,.73-.33h0c-.05-.23,.09-.5,.31-.61,1.81-.86,3.57-1.41,5.21-1.75h-.02l-.17,.03-.16,.03-.21,.03-.14,.02-.22,.04-.14,.03-.22,.04-.14,.03-.25,.05-.11,.03c-.09,.02-.17,.04-.26,.06l-.09,.02c-.1,.02-.19,.05-.29,.07l-.08,.02c-.1,.03-.19,.05-.29,.08l-.08,.02c-.11,.03-.21,.06-.32,.09h-.04c-.12,.05-.24,.08-.36,.12h-.02c-.12,.04-.24,.08-.36,.12h-.03c-.12,.05-.24,.09-.36,.14h0c-.13,.05-.25,.09-.38,.14h-.01c-.25,.1-.5,.21-.76,.31l-.04,.02c-.12,.05-.24,.1-.36,.16h-.03c-.13,.07-.26,.13-.38,.19-.22,.1-.43,0-.48-.23-.05-.23,.09-.5,.31-.6h.01c.1-.05,.2-.1,.29-.14h.02s-.02-.06-.02-.08c-.05-.23,.09-.5,.31-.6,2.79-1.33,5.45-1.92,7.78-2.12,1.61-.16,3.07-.12,4.32,0-2.9-.45-7.47-.51-12.49,1.88-.22,.11-.43,0-.48-.23-.05-.23,.09-.5,.31-.61,6.66-3.16,12.56-2.17,15.04-1.5h0Zm.87,6.25c-2.91-.58-8.08-.94-13.82,1.79-.22,.1-.36,.37-.31,.6,.02,.12,.1,.21,.19,.25l-.11,.05c-.22,.1-.36,.37-.31,.6,.05,.23,.26,.33,.48,.23,3.92-1.86,7.57-2.23,10.36-2.09-2.81-.06-6.34,.39-10.12,2.19-.22,.1-.36,.37-.31,.6,.03,.16,.14,.26,.28,.27-.04,.1-.06,.21-.04,.31,.05,.23,.26,.33,.48,.23,5.78-2.75,10.97-2.25,13.7-1.65l-.47-3.38h0Zm.5,3.59l.14,.99c-2.65-.62-7.98-1.24-13.95,1.59-.22,.1-.43,0-.48-.23-.05-.23,.09-.5,.31-.6,5.84-2.78,11.1-2.35,13.98-1.75Z"/><path class="cls-28" d="M208.09,195.91c-.21-3.15-2.93-5.53-6.08-5.32-3.15,.21-5.53,2.93-5.32,6.08,.83,12.1,2.15,25.55,4.09,40.47H97c2.05-14.84,3.69-28.21,4.98-40.25,.33-3.14-1.94-5.95-5.08-6.29-3.14-.33-5.95,1.94-6.29,5.08-2.55,23.77-6.45,52.76-12.26,87.97-4.95,29.98-11.27,64.43-19.31,103.95h11.65c7.87-38.84,14.07-72.67,18.93-102.12,2.17-13.14,4.07-25.42,5.74-36.89h106.98c1.66,11.5,3.68,23.82,6.09,37,5.41,29.48,12.84,63.28,22.85,102h11.79c-10.32-39.64-17.93-74.11-23.42-104.06-2.71-14.75-4.9-28.41-6.65-41.05-.02-.28-.06-.56-.11-.83-2.35-17.06-3.89-32.25-4.82-45.76Z"/><path class="cls-42" d="M192.83,182.6H453.1c3.04,0,5.51,2.47,5.51,5.51v12.4c0,3.04-2.47,5.51-5.51,5.51H192.83c-3.04,0-5.51-2.47-5.51-5.51v-12.4c0-3.04,2.47-5.51,5.51-5.51Z"/><path class="cls-10" d="M453.08,182.6H135.35c-3.04,0-5.53,2.48-5.53,5.51v7.35H458.62v-7.35c0-3.03-2.49-5.51-5.53-5.51Z"/><path class="cls-20" d="M458.59,178.36H187.34c-3.28,0-5.97,2.69-5.97,5.97h0c0,3.28,2.69,5.97,5.97,5.97H458.59c3.29,0,5.97-2.69,5.97-5.97h0c0-3.28-2.69-5.97-5.97-5.97Z"/><path class="cls-40" d="M90.32,182.6h119.37c3.04,0,5.51,2.47,5.51,5.51v12.4c0,3.04-2.47,5.51-5.51,5.51H90.32c-3.04,0-5.51-2.47-5.51-5.51v-12.4c0-3.04,2.47-5.51,5.51-5.51Z"/><path class="cls-28" d="M207.05,182.6H92.95c-4.48,0-8.15,2.48-8.15,5.51v7.35H215.2v-7.35c0-3.03-3.67-5.51-8.15-5.51Z"/><path class="cls-12" d="M215.2,178.36H81.54c-3.28,0-5.97,2.69-5.97,5.97h0c0,3.28,2.69,5.97,5.97,5.97H215.2c3.28,0,5.97-2.69,5.97-5.97h0c0-3.28-2.69-5.97-5.97-5.97Z"/><path class="cls-27" d="M279.27,178.36s-5.78-6.57-4.37-14.33,1.55-22.71-6.63-26.94c-8.18-4.23-18.19-3.65-22.57,2.4,0,0-2.33-3.31-4.94-3.17-2.61,.14-.42,4.3,.21,4.8-26.78-8.32-2.89,31.76-21.87,37.26h60.17Z"/><path class="cls-10" d="M279.27,178.36s-5.78-6.57-4.37-14.33c.19-1.05,.36-2.22,.48-3.49-8.86,3.17-29.63,9.15-39.1-.38-4.97-5.01-7.36-10.44-8.45-15.13-2.47,8.23,2.52,24.28-4.45,30.94,2.22,.62,4.73,1.36,7.55,2.39h48.33Z"/><path class="cls-35" d="M307.85,178.36c5.4-4.16,2.25-18.27-10.84-14.43-9.3,2.73-25.07,8.25-27.02,8.66-2.66,.56-8.61,0-10.12,0s-5.36,1.52-5.36,5.77h53.35Z"/><path class="cls-35" d="M181.24,178.36s-3.93-1.91-3.51-6.78c.42-4.87,6.26-9.69,10.66-10.18,4.4-.49,52.22,10.22,56.7,10.82,4.48,.6,14.52,0,17.07,0s9.04,1.62,9.04,6.14h-89.95Z"/></g><g><path class="cls-19" d="M314.36,140.03s-.72-2.58-2.89-2.69c-2.17-.11-2.99,2.58-2.36,2.9,.64,.33,5.25-.21,5.25-.21Z"/><path class="cls-19" d="M312.48,144.62l.59-.12h0l2.01-.42c-2.4,6.6-9.12,5.65-6.48,.57l3.31-.68v.34c0,.23,.2,.38,.45,.33l.1-.02Z"/><path class="cls-13" d="M415.85,81.64h-94.19c-2.59,0-5.14,2.12-5.68,4.7l-13.28,63.78c-.54,2.59,1.14,4.7,3.72,4.7h94.19c2.59,0,5.14-2.12,5.68-4.7l13.27-63.78c.54-2.59-1.14-4.7-3.72-4.7Z"/><path class="cls-26" d="M415.85,81.64h-91.11c-2.59,0-5.14,2.12-5.68,4.7l-13.27,63.78c-.54,2.59,1.14,4.7,3.72,4.7h91.11c2.59,0,5.14-2.12,5.68-4.7l13.27-63.78c.54-2.59-1.14-4.7-3.72-4.7Z"/><path class="cls-15" d="M340.83,154.82h23.08c.4-.89,.65-1.52,.65-1.7,0-.92-5.3-16.8-12.99-19.29l-4.49-.1-6.26,21.09Z"/><path class="cls-17" d="M407.14,126.07h-91.48c-1,0-1.99,.82-2.2,1.82h0c-.21,1,.44,1.82,1.44,1.82h91.48c1,0,1.99-.82,2.2-1.82h0c.21-1-.44-1.82-1.44-1.82Z"/><path class="cls-17" d="M404.96,131.62h-89.42c-1.57,0-3.12,1.28-3.44,2.85l-3.1,14.89c-.33,1.57,.69,2.85,2.26,2.85h89.42c1.57,0,3.12-1.28,3.44-2.85l3.1-14.89c.33-1.57-.69-2.85-2.26-2.85Z"/><path class="cls-15" d="M341.61,152.21h22.74c-1.07-3.59-5.99-16.18-12.77-18.37l-4.49-.1-5.48,18.47Z"/><path class="cls-15" d="M404.24,96.47h-15.52c-.96,0-1.91,.78-2.11,1.74l-4.68,22.49c-.2,.96,.42,1.74,1.38,1.74h15.52c.96,0,1.91-.79,2.11-1.74l4.68-22.49c.2-.96-.42-1.74-1.38-1.74Z"/><path class="cls-17" d="M406.3,96.47h-15.52c-.96,0-1.91,.78-2.11,1.74l-4.68,22.49c-.2,.96,.42,1.74,1.38,1.74h15.52c.96,0,1.91-.79,2.11-1.74l4.68-22.49c.2-.96-.42-1.74-1.38-1.74Z"/><path class="cls-15" d="M402.35,109.46h0c-.51,0-1.02,.42-1.12,.93l-1.63,7.81c-.11,.51,.23,.93,.74,.93h0c.51,0,1.02-.42,1.12-.93l1.63-7.81c.11-.51-.23-.93-.73-.93Z"/><path class="cls-15" d="M397.96,109.46h0c-.51,0-1.02,.42-1.12,.93l-1.62,7.81c-.11,.51,.22,.93,.73,.93h0c.51,0,1.02-.42,1.12-.93l1.62-7.81c.11-.51-.22-.93-.73-.93Z"/><path class="cls-15" d="M393.58,109.46h0c-.51,0-1.02,.42-1.12,.93l-1.62,7.81c-.11,.51,.23,.93,.74,.93h0c.51,0,1.02-.42,1.12-.93l1.62-7.81c.11-.51-.23-.93-.74-.93Z"/><path class="cls-15" d="M389.2,109.46h0c-.51,0-1.02,.42-1.12,.93l-1.62,7.81c-.11,.51,.22,.93,.73,.93h0c.51,0,1.02-.42,1.12-.93l1.62-7.81c.11-.51-.23-.93-.73-.93Z"/><path class="cls-17" d="M415.22,87.26h-91.48c-1,0-1.99,.82-2.2,1.82h0c-.21,1,.44,1.82,1.44,1.82h91.48c1,0,1.99-.82,2.2-1.82h0c.21-1-.44-1.82-1.44-1.82Z"/><path class="cls-15" d="M404.1,133.28h-88.4c-.39,0-.78,.32-.86,.71h0c-.08,.39,.17,.71,.56,.71h88.4c.39,0,.78-.32,.86-.71h0c.08-.39-.17-.71-.57-.71h0Zm-3.17,15.25h-88.4c-.39,0-.78,.32-.86,.71h0c-.08,.39,.17,.71,.56,.71h88.4c.39,0,.78-.32,.86-.71h0c.08-.39-.17-.71-.56-.71h0Zm.64-3.05h-88.4c-.39,0-.78,.32-.86,.71h0c-.08,.39,.17,.71,.56,.71h88.4c.39,0,.78-.32,.86-.71h0c.08-.39-.17-.71-.57-.71h0Zm.63-3.05h-88.4c-.39,0-.78,.32-.86,.71h0c-.08,.39,.17,.71,.56,.71h88.4c.39,0,.78-.32,.86-.71h0c.08-.39-.17-.71-.56-.71h0Zm.63-3.05h-88.4c-.39,0-.78,.32-.86,.71h0c-.08,.39,.17,.71,.56,.71h88.4c.39,0,.78-.32,.86-.71h0c.08-.39-.17-.71-.57-.71h0Zm.64-3.05h-88.4c-.39,0-.78,.32-.86,.71h0c-.08,.39,.17,.71,.56,.71h88.4c.39,0,.78-.32,.86-.71h0c.08-.39-.17-.71-.56-.71Z"/><path class="cls-24" d="M346.8,134.7h6.62c-.6-.37-1.21-.66-1.84-.87l-4.49-.1-.29,.97h0Zm-.48,1.62l-.42,1.43h10.94c-.43-.51-.88-.99-1.35-1.43h-9.17Zm-.91,3.05l-.42,1.43h14.08c-.31-.49-.64-.96-.97-1.43h-12.69Zm-.9,3.05l-.42,1.43h16.75c-.25-.47-.51-.95-.78-1.43h-15.55Zm-.9,3.05l-.42,1.43h19.14c-.21-.46-.43-.94-.66-1.43h-18.05Zm-.91,3.05l-.42,1.43h21.29c-.17-.44-.35-.92-.56-1.43h-20.31Z"/><path class="cls-15" d="M326.79,107.87h-1.61c-.58,0-1.16,.48-1.28,1.06l-.97,4.65c-.12,.58,.26,1.06,.84,1.06h1.61c.58,0,1.16-.48,1.28-1.06l.97-4.65c.12-.58-.26-1.06-.84-1.06Z"/><path class="cls-17" d="M329.57,97.87h-3.01c-1.09,0-2.16,.89-2.39,1.98l-1.81,8.71c-.23,1.09,.48,1.98,1.57,1.98h3.01c1.09,0,2.17-.89,2.39-1.98l1.81-8.71c.23-1.09-.48-1.98-1.57-1.98Z"/><path class="cls-17" d="M380.35,94.78h-40.08c-.83,0-1.65,.68-1.82,1.5l-5.01,24.08c-.17,.83,.36,1.5,1.19,1.5h40.08c.83,0,1.65-.68,1.82-1.5l5.01-24.08c.17-.83-.36-1.5-1.19-1.5Z"/><path class="cls-13" d="M377.49,98.27h-21.54c-.44,0-.87,.36-.96,.79h0c-.09,.44,.19,.79,.63,.79h21.54c.44,0,.87-.36,.96-.79h0c.09-.44-.19-.79-.63-.79Z"/><path class="cls-15" d="M376.66,102.23h-33.98c-.44,0-.87,.36-.96,.79h0c-.09,.44,.19,.79,.63,.79h33.98c.44,0,.87-.36,.96-.79h0c.09-.44-.19-.79-.63-.79Z"/><path class="cls-15" d="M375.83,106.27h-33.98c-.44,0-.87,.36-.96,.79h0c-.09,.43,.19,.79,.63,.79h33.98c.44,0,.87-.36,.96-.79h0c.09-.44-.19-.79-.63-.79Z"/><path class="cls-15" d="M374.98,110.31h-33.98c-.44,0-.87,.36-.96,.79h0c-.09,.44,.19,.79,.63,.79h33.98c.43,0,.87-.36,.96-.79h0c.09-.44-.19-.79-.63-.79Z"/><path class="cls-15" d="M374.14,114.35h-33.98c-.43,0-.87,.36-.95,.79h0c-.09,.44,.19,.79,.62,.79h33.98c.44,0,.87-.36,.96-.79h0c.09-.44-.19-.79-.62-.79Z"/><path class="cls-15" d="M373.3,118.38h-33.98c-.44,0-.87,.36-.96,.79h0c-.09,.44,.19,.79,.63,.79h33.98c.44,0,.87-.36,.96-.79h0c.09-.44-.19-.79-.63-.79Z"/><path class="cls-15" d="M343.51,98.27h8.46c.44,0,.72,.36,.63,.79h0c-.09,.44-.52,.79-.96,.79h-8.46c-.44,0-.72-.36-.63-.79h0c.09-.44,.52-.79,.96-.79Z"/><path class="cls-15" d="M350.46,134.32c-.74,0-1.92,.19-1.92-.55s.6-1.35,1.35-1.35h26.73c.8-.01,5.19,.15,5.54,5.34,.12,1.73,.84,7.13,1.67,12.97,.8,5.68,1.74,12.08,2.27,15.64,.15,.99,.24,2,.24,2.99,0,2.03-.36,4-1.32,5.6-1.02,1.7-2.65,2.92-5.12,3.29-.49,.07-1.01,.11-1.55,.11h-28.59c-.75,0-1.35-.6-1.35-1.35s1.24-.44,1.98-.44l4.82-.91c.42,0,.81-.03,1.16-.08,1.57-.23,2.59-.98,3.2-2.01,.67-1.13,.93-2.63,.93-4.22,0-.87-.08-1.75-.2-2.6-.5-3.39-1.72-9.6-2.57-15.66-.83-5.9-1.57-11.38-1.69-13.16-.19-2.75-2.38-2.83-2.76-2.83-.05,0-.09,0-.14,0l-2.67-.79Z"/><path class="cls-13" d="M348.44,135.11c-.74,0-1.35-.6-1.35-1.35s.6-1.35,1.35-1.35h2.74c.8-.01,5.18,.15,5.54,5.34,.12,1.73,.85,7.13,1.67,12.97,.8,5.68,1.74,12.08,2.27,15.64,.15,.99,.23,2,.23,2.99,0,2.03-.36,4-1.32,5.6-1.02,1.7-2.65,2.92-5.12,3.29-.49,.07-1.01,.11-1.55,.11h-7.31c-.74,0-1.35-.6-1.35-1.35s.6-1.35,1.35-1.35h7.31c.42,0,.81-.03,1.16-.08,1.57-.23,2.59-.98,3.2-2.01,.67-1.13,.93-2.63,.93-4.22,0-.87-.08-1.75-.2-2.6-.5-3.39-1.41-9.6-2.27-15.66-.83-5.9-1.57-11.38-1.69-13.16-.19-2.75-2.38-2.83-2.76-2.83-.05,0-.09,0-.14,0h-2.69Z"/></g><g><path class="cls-16" d="M259.6,68.66c1.95,9.03,10.03,15.86,19.63,15.86h28.04v24c0,4.04-3.3,7.34-7.34,7.34h-49.02l-12.51,12.51c-.24,.24-.58,.31-.89,.18-.31-.13-.51-.42-.51-.76v-51.79c0-4.04,3.3-7.34,7.34-7.34h15.27Z"/><path class="cls-7" d="M298.1,66.52h-55.59c-4.04,0-7.34,3.3-7.34,7.34v51.79c0,.34,.19,.63,.51,.76,.31,.13,.65,.06,.89-.18l12.51-12.51h49.02c4.04,0,7.34-3.3,7.34-7.34v-32.52c0-4.04-3.3-7.34-7.34-7.34Z"/><text class="cls-38" transform="translate(243.23 99.13)"><tspan class="cls-1" x="0" y="0">40</tspan><tspan x="29.79" y="0">4 !</tspan></text></g><g><path class="cls-25" d="M101.27,266.9c14.65-7.79,18.37,9.16,12.67,23.19-5.7,14.03-34.92,61.22-36.45,79.93-.59,7.25-1.94,6.46-3.1,1.38-5.77-25.37,6.71-93.78,26.88-104.5Z"/><g><path class="cls-32" d="M70.25,202.62c-16.8-15.13-27.3,6.05-24.4,26.47,2.9,20.42,25.98,92.45,21.82,117.69-1.61,9.78,.44,9.18,3.65,2.84,16-31.63,22.06-126.18-1.07-147Z"/><path class="cls-3" d="M67.32,353.79c.36,.94,1.16,.47,2.23-1.09,17.51-58.32-9.77-145.47-9.85-145.75-.15-.48-.66-.75-1.14-.6-.48,.15-.75,.66-.6,1.14,.09,.28,27.73,88.61,9.36,146.3Z"/></g><g><path class="cls-29" d="M33.55,251.08c-16.28-7.09-18.83,11.3-11.59,25.79,7.25,14.49,42.36,62.39,45.55,82.23,1.24,7.69,2.61,6.73,3.42,1.21,4.05-27.55-14.98-99.48-37.38-109.23Z"/><path class="cls-9" d="M69,364.42c.5,.61,.98,.06,1.39-1.37-1.47-47.8-43.48-105.92-43.61-106.11-.23-.32-.68-.39-1-.17-.32,.23-.39,.68-.16,1,.13,.19,42.71,59.1,43.39,106.65Z"/></g><g><polygon class="cls-28" points="56.47 355.01 87.75 355.01 95.91 362.38 89.24 388.07 72.11 388.07 54.98 388.07 48.31 362.38 56.47 355.01"/><path class="cls-44" d="M48.31,344.27h47.6c1.43,0,2.59,1.16,2.59,2.59v11.75c0,1.43-1.16,2.59-2.59,2.59H48.31c-1.43,0-2.59-1.16-2.59-2.59v-11.75c0-1.43,1.16-2.59,2.59-2.59Z"/><polygon class="cls-11" points="95.91 362.38 94.54 367.66 49.68 367.66 48.31 362.38 95.91 362.38"/></g></g><path class="cls-16" d="M135.11,20.57c1.14-1.14,2.71-1.84,4.45-1.84s3.31,.7,4.45,1.84c1.14,1.14,1.84,2.71,1.84,4.45s-.7,3.31-1.84,4.45c-1.14,1.14-2.71,1.84-4.45,1.84s-3.31-.7-4.45-1.84c-1.14-1.14-1.84-2.71-1.84-4.45s.7-3.31,1.84-4.45h0Zm1.36-6.24c-.87,.25-1.7,.61-2.47,1.05-.79,.46-1.51,1-2.16,1.63-.13,.12-.32,.14-.46,.06l-2.92-1.69h-.02c-.17-.1-.36-.12-.53-.07-.18,.05-.34,.16-.44,.34v.02l-2.07,3.56c-.1,.17-.12,.37-.07,.55,.05,.18,.16,.34,.34,.44h.02l2.9,1.69c.15,.09,.22,.26,.18,.43h0c-.11,.43-.19,.88-.25,1.33-.05,.44-.08,.89-.08,1.36s.03,.91,.08,1.36c.06,.45,.14,.9,.25,1.33,.04,.18-.04,.36-.2,.44l-2.9,1.67h0c-.17,.1-.29,.26-.34,.44-.05,.18-.03,.38,.07,.55l2.07,3.58h0c.1,.17,.26,.29,.44,.34,.18,.05,.38,.03,.55-.07h.02l2.9-1.69c.15-.09,.34-.06,.46,.06,.65,.63,1.38,1.18,2.16,1.63,.77,.45,1.6,.8,2.48,1.06,.17,.05,.28,.2,.28,.37v3.37c0,.2,.08,.38,.21,.51,.13,.13,.31,.21,.51,.21h4.14c.2,0,.38-.08,.51-.21,.13-.13,.21-.31,.21-.51v-3.37c0-.18,.13-.34,.3-.38,.87-.25,1.7-.61,2.47-1.05,.79-.45,1.51-1,2.16-1.63,.13-.13,.33-.14,.48-.04l2.9,1.68c.17,.1,.37,.12,.55,.07,.18-.05,.34-.16,.44-.34v-.02l2.07-3.56h0c.1-.17,.12-.37,.07-.55-.05-.18-.16-.34-.33-.44l-2.92-1.69c-.15-.09-.22-.26-.18-.43h0c.11-.43,.19-.87,.24-1.33,.05-.44,.08-.9,.08-1.36s-.03-.91-.08-1.36c-.06-.45-.14-.9-.24-1.33-.04-.18,.04-.36,.2-.44l2.9-1.67c.17-.1,.29-.26,.33-.44,.05-.18,.03-.38-.07-.55v-.02l-2.07-3.56h0c-.1-.17-.26-.29-.44-.34-.18-.05-.38-.03-.55,.07h0l-2.92,1.69c-.16,.09-.35,.06-.47-.06-.65-.62-1.37-1.17-2.16-1.62-.77-.45-1.61-.8-2.48-1.06-.17-.05-.28-.2-.28-.37v-3.37c0-.2-.08-.38-.21-.51-.13-.13-.31-.21-.51-.21h-4.14c-.2,0-.38,.08-.51,.21-.13,.13-.21,.31-.21,.51v3.37c0,.18-.13,.34-.3,.38Z"/><path class="cls-16" d="M176.82,50.33c1.36-1.36,3-2.46,4.82-3.22,1.75-.72,3.66-1.12,5.67-1.12s3.92,.4,5.67,1.12c1.82,.75,3.45,1.85,4.82,3.22,1.36,1.36,2.46,3,3.22,4.82,.72,1.75,1.12,3.66,1.12,5.67s-.4,3.92-1.12,5.67c-.75,1.82-1.85,3.45-3.22,4.82-1.36,1.36-3,2.46-4.81,3.22-1.75,.73-3.66,1.13-5.67,1.13s-3.92-.4-5.67-1.12c-1.82-.75-3.45-1.85-4.82-3.22-1.36-1.36-2.47-3-3.22-4.82-.72-1.75-1.12-3.66-1.12-5.67s.4-3.92,1.12-5.67c.75-1.82,1.85-3.45,3.22-4.82h0Zm5.34-1.95c-1.64,.68-3.12,1.68-4.37,2.92-1.24,1.24-2.24,2.72-2.92,4.37-.66,1.58-1.02,3.32-1.02,5.15s.36,3.57,1.02,5.15c.68,1.64,1.68,3.12,2.92,4.37,1.24,1.24,2.72,2.24,4.37,2.92,1.58,.66,3.32,1.02,5.15,1.02s3.56-.36,5.14-1.02c1.64-.68,3.13-1.68,4.37-2.92,1.24-1.24,2.24-2.72,2.92-4.37,.66-1.58,1.02-3.32,1.02-5.15s-.36-3.56-1.02-5.15c-.68-1.64-1.68-3.12-2.92-4.37-1.24-1.24-2.72-2.24-4.37-2.92-1.58-.66-3.32-1.02-5.15-1.02s-3.57,.36-5.15,1.02h0Zm-1.64-10.91c-.93,.27-1.84,.59-2.73,.97-.91,.39-1.78,.82-2.62,1.31-.86,.5-1.68,1.04-2.47,1.64-.79,.6-1.55,1.24-2.26,1.93-.25,.24-.56,.38-.89,.42-.33,.04-.67-.03-.97-.2-2.18-1.26-4.47-2.5-6.6-3.81-.1-.05-.21-.09-.32-.1-.12-.01-.25,0-.36,.03-.12,.03-.24,.09-.33,.16-.09,.07-.18,.16-.24,.27-1.59,2.4-3.18,5.5-4.65,8.05-.06,.11-.1,.23-.12,.34-.02,.12,0,.25,.03,.37,.03,.12,.09,.23,.16,.33,.07,.1,.16,.18,.27,.24,1.96,1.29,4.48,2.59,6.56,3.79,.31,.17,.53,.44,.65,.73,.04,.1,.08,.21,.1,.32l.13,.05-.15,.61c-.12,.48-.22,.96-.31,1.44-.09,.47-.16,.95-.22,1.46-.06,.5-.11,.99-.13,1.47-.03,.48-.04,.97-.04,1.49s.01,1.02,.04,1.49c.03,.49,.08,.98,.13,1.48,.06,.51,.14,1,.22,1.46,.09,.48,.19,.96,.31,1.44,.09,.36,.04,.71-.1,1.02-.14,.31-.39,.57-.7,.73l-5.81,3.35h0l-.69,.4c-.11,.06-.2,.15-.27,.24-.07,.1-.13,.21-.16,.33-.03,.12-.04,.25-.03,.38,.01,.12,.05,.23,.12,.34l4.3,7.45h0l.35,.6c.06,.11,.15,.2,.24,.27,.1,.07,.21,.13,.33,.16,.12,.03,.25,.04,.37,.03,.12-.01,.23-.05,.34-.12,2.08-1.31,4.43-2.56,6.57-3.79,.31-.17,.64-.24,.96-.2,.33,.04,.64,.18,.89,.42h0c.71,.69,1.46,1.33,2.26,1.93,.79,.59,1.62,1.14,2.47,1.64,.85,.49,1.73,.93,2.64,1.32,.9,.38,1.82,.71,2.78,.98,.34,.1,.62,.3,.81,.56,.2,.26,.31,.59,.31,.94v7.58c0,.13,.03,.25,.07,.36,.05,.11,.12,.22,.21,.31,.09,.09,.19,.16,.31,.21,.11,.05,.23,.07,.36,.07h9.3c.13,0,.25-.03,.36-.07,.12-.05,.22-.12,.31-.21,.09-.09,.16-.19,.21-.31,.05-.11,.07-.23,.07-.36v-7.58c0-.36,.13-.7,.34-.96,.21-.27,.52-.47,.86-.55,.93-.27,1.84-.59,2.73-.97,.9-.38,1.78-.82,2.62-1.31,.86-.49,1.68-1.04,2.47-1.64,.79-.6,1.55-1.24,2.26-1.93,.26-.25,.6-.39,.93-.43,.35-.03,.7,.05,1,.25l6.49,3.75c.11,.06,.22,.1,.34,.11,.12,.02,.25,0,.37-.03,.12-.03,.24-.09,.33-.16,.09-.07,.18-.16,.24-.27,1.54-2.69,3.11-5.36,4.65-8.05,.06-.11,.1-.23,.12-.34,.02-.12,0-.25-.03-.37-.03-.12-.09-.24-.16-.33-.07-.1-.16-.18-.27-.24l-6.56-3.79c-.3-.17-.53-.44-.65-.73-.03-.08-.06-.16-.08-.25l-.17-.03,.17-.7c.12-.48,.22-.96,.31-1.44,.09-.47,.16-.96,.22-1.46,.06-.5,.11-.99,.13-1.48,.03-.47,.04-.97,.04-1.49s-.02-1.01-.04-1.49c-.03-.49-.07-.98-.13-1.47-.06-.52-.14-1-.22-1.47-.09-.48-.19-.96-.31-1.44-.09-.36-.04-.72,.1-1.03,.14-.31,.39-.57,.7-.73l6.5-3.75c.11-.06,.2-.14,.27-.24,.07-.1,.13-.21,.16-.34,.03-.12,.04-.25,.03-.37-.02-.12-.05-.23-.12-.34-1.59-2.36-3.18-5.51-4.65-8.05-.06-.11-.15-.2-.24-.27-.1-.07-.21-.13-.33-.16-.12-.03-.25-.04-.37-.03-.12,.01-.23,.05-.34,.12l-6.57,3.79c-.31,.18-.66,.24-.98,.2-.33-.05-.64-.2-.89-.44-.71-.69-1.47-1.33-2.25-1.92-.78-.59-1.6-1.13-2.46-1.63-.85-.49-1.73-.93-2.64-1.32-.9-.38-1.82-.71-2.78-.98-.34-.1-.62-.3-.81-.56-.2-.26-.31-.59-.31-.94v-7.58c0-.13-.03-.25-.07-.36-.05-.11-.12-.22-.21-.31-.09-.09-.19-.16-.31-.21-.11-.04-.23-.07-.36-.07h-9.3c-.13,0-.25,.02-.36,.07-.11,.05-.22,.12-.31,.21-.17,.17-.27,.41-.27,.66v7.58c0,.36-.12,.7-.33,.96-.22,.27-.52,.47-.86,.55h0Zm-3.27-.29c-.96,.41-1.88,.87-2.77,1.39-.91,.53-1.78,1.1-2.61,1.73-.83,.63-1.63,1.31-2.38,2.03-.03,.03-.06,.04-.1,.05-.04,0-.08,0-.11-.02-2.21-1.27-4.42-2.54-6.62-3.83-.26-.14-.54-.23-.83-.26-.29-.03-.59,0-.87,.07-.29,.08-.57,.21-.81,.4-.23,.18-.44,.41-.59,.68-1.6,2.59-3.12,5.4-4.65,8.05-.16,.27-.25,.56-.29,.86-.04,.31-.02,.61,.06,.9,.08,.29,.21,.57,.4,.81,.18,.24,.41,.44,.68,.6,2.11,1.3,4.4,2.54,6.56,3.79,.03,.02,.06,.05,.07,.09,.02,.04,.02,.08,.01,.11l-.15,.61h0c-.07,.3-.13,.6-.18,.91-.1,.53-.18,1.04-.24,1.55-.06,.5-.11,1.02-.14,1.56-.03,.54-.05,1.06-.05,1.57s.02,1.03,.05,1.57c.03,.53,.08,1.05,.14,1.56,.06,.51,.14,1.02,.24,1.55,.1,.52,.21,1.03,.33,1.52,0,.04,0,.08-.01,.12-.02,.04-.05,.07-.08,.09-2.41,1.29-4.86,2.8-7.25,4.18l.09,.11-.07,.09c-.19,.24-.32,.52-.4,.81-.08,.29-.1,.6-.06,.9,.04,.3,.13,.59,.29,.86l5,8.65,.09-.06s.1,.09,.15,.13c.24,.19,.52,.32,.81,.4,.29,.08,.59,.1,.9,.06,.29-.04,.57-.13,.83-.27,2.19-1.16,4.44-2.56,6.6-3.81,.03-.02,.07-.02,.11-.02,.04,0,.08,.02,.11,.05,.75,.73,1.55,1.41,2.38,2.03,.83,.62,1.7,1.2,2.61,1.73,.9,.52,1.83,.99,2.79,1.39,.96,.41,1.94,.76,2.94,1.04,.04,.01,.07,.03,.1,.06,.02,.03,.04,.07,.04,.11v7.58c0,.31,.06,.61,.18,.88,.12,.28,.29,.54,.5,.75,.21,.21,.47,.39,.75,.5,.27,.11,.57,.18,.88,.18h9.3c.31,0,.61-.06,.88-.18,.28-.12,.54-.29,.75-.5,.21-.21,.38-.47,.5-.75,.11-.27,.18-.57,.18-.88v-7.58s.01-.09,.04-.11c.02-.03,.06-.05,.1-.06h.03c1.01-.3,1.99-.65,2.92-1.05,.96-.41,1.88-.87,2.77-1.39,.91-.53,1.78-1.1,2.61-1.73,.83-.63,1.63-1.31,2.38-2.03,.03-.03,.07-.05,.11-.05,.04,0,.08,0,.12,.03l6.56,3.79c.27,.16,.56,.25,.85,.29,.3,.04,.61,.02,.9-.06,.29-.08,.57-.21,.81-.4,.23-.17,.43-.4,.58-.66,1.72-2.77,3.35-5.81,5-8.66l-.09-.05c.02-.07,.03-.14,.04-.22,.04-.31,.02-.61-.06-.9-.08-.29-.21-.57-.4-.81-.18-.23-.41-.44-.67-.59l-6.57-3.79s-.06-.05-.07-.08c-.02-.04-.02-.08-.01-.12l.17-.69h-.01c.06-.27,.11-.55,.17-.83,.1-.52,.18-1.04,.24-1.55,.06-.5,.11-1.02,.14-1.56,.03-.54,.05-1.06,.05-1.57s-.02-1.03-.05-1.57c-.03-.53-.08-1.05-.14-1.56-.06-.5-.14-1.02-.24-1.55-.1-.52-.21-1.03-.33-1.52,0-.04,0-.08,.01-.12,.02-.04,.05-.07,.08-.09l6.56-3.79c.27-.16,.5-.36,.67-.59,.19-.25,.32-.52,.4-.81,.08-.29,.1-.59,.06-.9-.04-.29-.13-.57-.28-.84-1.56-2.89-3.35-5.81-5.01-8.68l-.09,.06s-.1-.09-.15-.13c-.24-.19-.52-.32-.81-.4-.29-.08-.59-.1-.9-.06-.3,.04-.59,.13-.85,.28l-.49,.28h0l-6.09,3.52s-.08,.03-.12,.02c-.04,0-.08-.02-.1-.05l-.02-.02c-.75-.72-1.54-1.39-2.38-2.03-.83-.63-1.7-1.2-2.6-1.72-.9-.52-1.83-.99-2.79-1.39-.96-.41-1.94-.76-2.94-1.04-.04-.01-.07-.03-.1-.06-.02-.03-.04-.07-.04-.11v-7.58c0-.31-.06-.61-.18-.88-.12-.28-.29-.54-.5-.75-.21-.21-.47-.38-.75-.5-.27-.11-.57-.18-.88-.18h-9.3c-.31,0-.61,.06-.88,.18-.28,.12-.54,.29-.75,.5-.42,.42-.68,1-.68,1.63v7.58s-.02,.08-.04,.12c-.02,.03-.06,.05-.1,.06h-.03c-1.01,.3-1.99,.65-2.92,1.05Z"/><path class="cls-16" d="M469.04,126.16c1.14-1.14,2.71-1.84,4.45-1.84s3.31,.7,4.45,1.84c1.14,1.14,1.84,2.71,1.84,4.45s-.7,3.31-1.84,4.45c-1.14,1.14-2.71,1.84-4.45,1.84s-3.31-.7-4.45-1.84c-1.14-1.14-1.84-2.71-1.84-4.45s.7-3.31,1.84-4.45h0Zm1.36-6.24c-.87,.25-1.7,.61-2.47,1.05-.79,.46-1.51,1-2.16,1.63-.13,.12-.32,.14-.46,.06l-2.92-1.69h-.02c-.17-.1-.36-.12-.53-.07-.18,.05-.34,.16-.44,.34v.02l-2.07,3.56c-.1,.17-.12,.37-.07,.55,.05,.18,.16,.34,.34,.44h.02l2.9,1.69c.15,.09,.22,.26,.18,.43h0c-.11,.43-.19,.88-.25,1.33-.05,.44-.08,.9-.08,1.36s.03,.91,.08,1.36c.06,.45,.14,.9,.25,1.33,.04,.18-.04,.36-.2,.44l-2.9,1.67h0c-.17,.1-.29,.26-.34,.44-.05,.18-.03,.38,.07,.55l2.07,3.58h0c.1,.17,.26,.29,.44,.34,.18,.05,.38,.03,.55-.07h.02l2.9-1.69c.15-.09,.34-.06,.46,.06,.65,.63,1.38,1.18,2.16,1.63,.77,.45,1.6,.8,2.48,1.05,.17,.05,.28,.2,.28,.37v3.37c0,.2,.08,.38,.21,.51,.13,.13,.31,.21,.51,.21h4.14c.2,0,.38-.08,.51-.21,.13-.13,.21-.31,.21-.51v-3.37c0-.18,.13-.34,.3-.38,.87-.25,1.7-.61,2.47-1.05,.79-.46,1.51-1,2.16-1.63,.13-.13,.33-.14,.48-.04l2.9,1.68c.17,.1,.37,.12,.55,.07,.18-.05,.34-.16,.44-.34v-.02l2.07-3.57h0c.1-.17,.12-.37,.07-.55-.05-.18-.16-.34-.34-.44l-2.92-1.69c-.15-.09-.22-.26-.18-.43h0c.11-.43,.19-.88,.24-1.33,.05-.44,.08-.9,.08-1.36s-.03-.91-.08-1.36c-.06-.45-.14-.9-.24-1.33-.04-.18,.04-.36,.2-.44l2.9-1.68c.17-.1,.29-.26,.34-.44,.05-.18,.03-.38-.07-.55v-.02l-2.07-3.56h0c-.1-.17-.26-.29-.44-.34-.18-.05-.38-.03-.55,.07h0l-2.93,1.69c-.16,.09-.35,.06-.47-.06-.65-.62-1.37-1.17-2.16-1.62-.77-.45-1.6-.8-2.48-1.05-.17-.05-.28-.2-.28-.37v-3.37c0-.2-.08-.38-.21-.51-.13-.13-.31-.21-.51-.21h-4.14c-.2,0-.38,.08-.51,.21-.13,.13-.21,.31-.21,.51v3.37c0,.18-.13,.34-.3,.38Z"/><path class="cls-16" d="M597.12,223.09c1.36-1.36,3-2.46,4.82-3.22,1.75-.73,3.66-1.12,5.67-1.12s3.92,.4,5.67,1.12c1.82,.75,3.45,1.85,4.82,3.22,1.37,1.36,2.46,3,3.22,4.82,.72,1.75,1.12,3.66,1.12,5.67s-.4,3.92-1.12,5.67c-.75,1.82-1.85,3.45-3.22,4.82-1.36,1.36-3,2.46-4.81,3.22-1.75,.73-3.66,1.12-5.67,1.12s-3.92-.4-5.67-1.12c-1.82-.75-3.45-1.85-4.82-3.22-1.36-1.36-2.46-3-3.22-4.82-.72-1.75-1.12-3.66-1.12-5.67s.4-3.92,1.12-5.67c.75-1.82,1.86-3.45,3.22-4.82h0Zm5.34-1.95c-1.64,.68-3.12,1.68-4.37,2.92-1.24,1.24-2.25,2.72-2.92,4.37-.66,1.58-1.02,3.32-1.02,5.15s.36,3.56,1.02,5.15c.68,1.64,1.68,3.12,2.92,4.36,1.24,1.24,2.72,2.24,4.37,2.92,1.58,.65,3.32,1.02,5.15,1.02s3.56-.36,5.14-1.02c1.64-.68,3.13-1.68,4.37-2.92,1.24-1.24,2.24-2.72,2.92-4.37,.66-1.58,1.02-3.32,1.02-5.15s-.36-3.57-1.02-5.15c-.68-1.64-1.68-3.12-2.92-4.37-1.24-1.24-2.73-2.24-4.37-2.92-1.58-.66-3.32-1.02-5.15-1.02s-3.56,.36-5.15,1.02h0Zm-1.64-10.91c-.93,.27-1.84,.6-2.73,.97-.9,.39-1.78,.82-2.62,1.31-.86,.49-1.68,1.04-2.47,1.64-.79,.6-1.55,1.24-2.26,1.93-.25,.24-.57,.38-.89,.42-.33,.04-.67-.03-.97-.2-2.18-1.26-4.47-2.5-6.6-3.81-.1-.05-.21-.09-.32-.1-.12-.01-.25,0-.36,.03-.12,.03-.24,.09-.33,.16-.1,.07-.18,.16-.24,.27-1.59,2.4-3.18,5.5-4.65,8.05-.06,.11-.1,.22-.12,.34-.02,.12,0,.25,.03,.38,.03,.12,.09,.23,.16,.33,.07,.09,.17,.18,.27,.24,1.96,1.29,4.48,2.59,6.56,3.79,.3,.18,.53,.44,.65,.73,.04,.1,.08,.21,.1,.32l.14,.04-.15,.61c-.12,.48-.22,.96-.31,1.44-.08,.46-.16,.95-.22,1.46-.06,.5-.11,.99-.14,1.48-.03,.47-.04,.97-.04,1.49s.01,1.01,.04,1.49c.03,.49,.08,.98,.14,1.48,.06,.51,.14,1,.22,1.46,.09,.48,.19,.96,.31,1.44,.09,.36,.04,.72-.1,1.02-.14,.31-.39,.57-.7,.73l-5.81,3.35h0l-.69,.4c-.11,.06-.2,.15-.27,.24-.08,.1-.13,.21-.16,.33-.03,.12-.04,.25-.03,.38,.01,.12,.05,.23,.12,.34l4.3,7.45h0l.35,.6c.06,.11,.14,.2,.24,.27,.1,.08,.21,.13,.33,.17,.12,.03,.25,.04,.37,.03,.12-.02,.23-.05,.34-.12,2.08-1.31,4.43-2.55,6.57-3.79,.31-.17,.64-.23,.96-.2,.33,.04,.64,.19,.89,.42h0c.71,.69,1.47,1.33,2.26,1.93,.79,.6,1.61,1.14,2.47,1.64,.85,.49,1.73,.93,2.64,1.32,.89,.38,1.82,.71,2.78,.99,.34,.09,.62,.3,.81,.56,.2,.26,.31,.59,.31,.94v7.58c0,.13,.03,.25,.07,.36,.05,.11,.12,.22,.21,.3,.09,.09,.19,.16,.31,.21,.11,.04,.23,.07,.36,.07h9.3c.13,0,.25-.02,.35-.07,.12-.05,.22-.12,.31-.21,.09-.09,.16-.19,.21-.31,.04-.11,.07-.23,.07-.36v-7.58c0-.36,.13-.69,.34-.96,.21-.27,.52-.47,.86-.55,.93-.27,1.84-.59,2.73-.97,.9-.38,1.78-.82,2.62-1.31,.86-.49,1.68-1.04,2.47-1.64,.8-.6,1.55-1.24,2.26-1.93,.26-.25,.59-.39,.93-.42,.35-.03,.7,.05,1,.25l6.49,3.75c.11,.06,.22,.1,.34,.12,.12,.01,.25,0,.37-.03,.12-.03,.23-.09,.33-.17,.09-.07,.18-.16,.24-.27,1.54-2.69,3.11-5.37,4.65-8.05,.06-.11,.1-.22,.12-.34,.02-.12,0-.25-.03-.37-.03-.12-.09-.24-.16-.33-.07-.1-.16-.18-.27-.24l-6.57-3.79c-.3-.17-.53-.43-.65-.73-.04-.08-.06-.17-.08-.25l-.17-.04,.17-.7c.12-.48,.22-.96,.31-1.44,.09-.47,.16-.95,.22-1.46,.06-.5,.11-.99,.13-1.48,.03-.48,.04-.97,.04-1.49s-.01-1.02-.04-1.49c-.03-.49-.08-.98-.13-1.47-.06-.52-.14-1.01-.22-1.47-.09-.48-.19-.96-.31-1.44-.09-.36-.05-.72,.1-1.03,.14-.31,.39-.56,.7-.72l6.5-3.75c.11-.06,.2-.14,.27-.24,.07-.09,.13-.21,.16-.33,.03-.12,.04-.25,.03-.37-.01-.12-.05-.23-.12-.34-1.59-2.36-3.18-5.52-4.65-8.05-.07-.11-.15-.2-.24-.27-.1-.08-.21-.13-.33-.16-.12-.03-.25-.04-.37-.03-.11,.01-.23,.05-.34,.12l-6.57,3.79c-.31,.18-.66,.24-.99,.2-.33-.05-.64-.2-.89-.44-.71-.69-1.47-1.33-2.25-1.92-.78-.59-1.6-1.13-2.46-1.63-.85-.49-1.73-.93-2.64-1.32-.9-.38-1.83-.71-2.78-.98-.34-.1-.62-.3-.81-.56-.2-.26-.31-.59-.31-.94v-7.58c0-.13-.03-.25-.07-.36-.05-.11-.12-.22-.21-.3-.09-.09-.19-.16-.31-.21-.11-.05-.23-.07-.35-.07h-9.3c-.13,0-.25,.03-.36,.07-.11,.05-.22,.12-.31,.21-.17,.17-.28,.41-.28,.66v7.58c0,.36-.13,.7-.33,.96-.22,.27-.52,.47-.86,.55h0Zm-3.27-.29c-.95,.41-1.88,.87-2.77,1.39-.91,.53-1.78,1.1-2.61,1.73-.83,.63-1.63,1.31-2.38,2.03-.03,.03-.06,.04-.1,.05-.04,0-.08,0-.11-.02-2.21-1.27-4.42-2.54-6.62-3.83-.26-.14-.54-.23-.83-.26-.29-.03-.59-.01-.87,.07-.29,.08-.57,.21-.81,.4-.23,.18-.44,.41-.59,.67-1.6,2.59-3.12,5.4-4.65,8.05-.15,.27-.25,.56-.29,.86-.04,.31-.02,.61,.06,.9,.08,.29,.21,.57,.4,.81,.18,.23,.41,.44,.68,.59,2.11,1.3,4.4,2.54,6.56,3.79,.04,.02,.06,.05,.08,.09,.01,.04,.02,.08,0,.12l-.15,.61h0c-.07,.3-.13,.6-.18,.91-.1,.53-.18,1.04-.24,1.55-.06,.5-.11,1.02-.14,1.56-.03,.54-.05,1.06-.05,1.57s.02,1.03,.05,1.57c.03,.54,.08,1.06,.14,1.56,.06,.51,.14,1.02,.24,1.55,.09,.52,.21,1.03,.33,1.52,0,.04,0,.08-.01,.12-.02,.04-.05,.07-.08,.09-2.41,1.29-4.86,2.8-7.25,4.18l.08,.1-.07,.09c-.19,.24-.32,.52-.4,.81-.08,.29-.1,.6-.06,.9,.04,.29,.13,.59,.29,.86l5,8.66,.09-.06s.1,.09,.15,.13c.25,.19,.52,.32,.81,.4,.29,.08,.59,.1,.9,.06,.29-.04,.57-.13,.83-.27,2.19-1.16,4.44-2.56,6.6-3.81,.03-.02,.07-.02,.11-.02,.04,0,.08,.02,.11,.05,.75,.73,1.55,1.41,2.38,2.03,.83,.63,1.7,1.21,2.61,1.73,.9,.52,1.83,.98,2.79,1.39,.95,.41,1.94,.75,2.94,1.04,.04,.01,.07,.03,.09,.07,.03,.03,.04,.07,.04,.11v7.58c0,.31,.06,.61,.18,.88,.12,.28,.29,.54,.5,.75,.21,.21,.47,.38,.75,.5,.27,.12,.57,.18,.88,.18h9.3c.31,0,.61-.06,.88-.18,.28-.12,.54-.29,.75-.5,.21-.21,.39-.47,.5-.75,.12-.27,.18-.57,.18-.88v-7.58s.01-.08,.04-.11c.02-.03,.06-.06,.1-.06h.03c1.01-.3,1.99-.65,2.92-1.05,.96-.41,1.88-.87,2.78-1.39,.91-.52,1.78-1.1,2.61-1.73,.83-.63,1.63-1.31,2.38-2.04,.03-.03,.07-.05,.11-.05,.04,0,.08,0,.12,.03l6.56,3.79c.27,.16,.56,.25,.85,.29,.3,.04,.61,.02,.9-.06,.29-.08,.57-.21,.81-.4,.23-.17,.43-.39,.58-.66,1.73-2.77,3.35-5.81,5-8.66l-.09-.05c.02-.07,.03-.15,.04-.22,.04-.3,.02-.61-.06-.9-.08-.29-.21-.57-.4-.81-.18-.24-.41-.44-.68-.59l-6.56-3.79s-.06-.05-.07-.09c-.02-.04-.02-.08,0-.12l.17-.69h0c.06-.27,.11-.55,.16-.83,.1-.52,.18-1.04,.24-1.55,.06-.5,.11-1.02,.14-1.56,.03-.53,.05-1.06,.05-1.57s-.02-1.04-.05-1.57c-.03-.53-.08-1.05-.14-1.56-.06-.5-.14-1.02-.24-1.55-.1-.52-.21-1.03-.33-1.52-.01-.04,0-.08,.01-.12,.02-.04,.05-.07,.08-.09l6.55-3.79c.27-.16,.5-.36,.67-.6,.19-.25,.32-.52,.4-.81,.08-.29,.1-.59,.06-.9-.04-.29-.13-.57-.28-.84-1.56-2.89-3.35-5.81-5.01-8.67l-.09,.05s-.1-.09-.16-.13c-.24-.19-.52-.32-.81-.4-.29-.08-.59-.1-.9-.06-.29,.04-.59,.13-.85,.28l-.49,.28h0l-6.09,3.52s-.08,.03-.12,.02c-.04,0-.08-.02-.1-.05l-.02-.02c-.74-.72-1.54-1.39-2.38-2.02-.83-.63-1.7-1.2-2.6-1.72-.9-.52-1.83-.98-2.79-1.39-.96-.41-1.94-.76-2.94-1.04-.04-.01-.07-.04-.1-.07-.03-.03-.04-.07-.04-.11v-7.58c0-.31-.06-.61-.18-.88-.12-.28-.29-.54-.5-.75-.21-.21-.47-.38-.75-.5-.27-.11-.57-.18-.88-.18h-9.3c-.31,0-.61,.06-.88,.18-.28,.12-.54,.29-.75,.5-.42,.42-.68,1-.68,1.63v7.58s-.02,.08-.04,.12c-.02,.03-.06,.05-.1,.06h-.03c-1.01,.3-1.99,.65-2.92,1.05Z"/><path class="cls-8" d="M68.96,94.62c0-.6-.48-1.08-1.08-1.08s-1.08,.48-1.08,1.08v2.54h-2.54c-.6,0-1.08,.48-1.08,1.08s.48,1.08,1.08,1.08h2.54v2.54c0,.6,.48,1.08,1.08,1.08s1.08-.48,1.08-1.08v-2.54h2.54c.6,0,1.08-.48,1.08-1.08s-.48-1.08-1.08-1.08h-2.54v-2.54Z"/><path class="cls-8" d="M255.85,32.3c0-.6-.48-1.08-1.08-1.08s-1.08,.48-1.08,1.08v2.54h-2.54c-.6,0-1.08,.48-1.08,1.08s.48,1.08,1.08,1.08h2.54v2.54c0,.6,.48,1.08,1.08,1.08s1.08-.48,1.08-1.08v-2.54h2.54c.6,0,1.08-.48,1.08-1.08s-.48-1.08-1.08-1.08h-2.54v-2.54Z"/><path class="cls-8" d="M354.85,24.96c0-.6-.48-1.08-1.08-1.08s-1.08,.48-1.08,1.08v2.54h-2.54c-.6,0-1.08,.48-1.08,1.08s.48,1.08,1.08,1.08h2.54v2.54c0,.6,.48,1.08,1.08,1.08s1.08-.48,1.08-1.08v-2.54h2.54c.6,0,1.08-.48,1.08-1.08s-.48-1.08-1.08-1.08h-2.54v-2.54Z"/><path class="cls-8" d="M538.17,247.39c0-.59-.48-1.08-1.08-1.08s-1.08,.49-1.08,1.08v2.54h-2.54c-.6,0-1.08,.48-1.08,1.08s.48,1.08,1.08,1.08h2.54v2.54c0,.6,.48,1.08,1.08,1.08s1.08-.48,1.08-1.08v-2.54h2.54c.6,0,1.08-.48,1.08-1.08s-.48-1.08-1.08-1.08h-2.54v-2.54Z"/><path class="cls-8" d="M120.2,343.94c0-.59-.48-1.08-1.08-1.08s-1.08,.49-1.08,1.08v2.54h-2.54c-.6,0-1.08,.48-1.08,1.08s.48,1.08,1.08,1.08h2.54v2.54c0,.6,.48,1.08,1.08,1.08s1.08-.48,1.08-1.08v-2.54h2.54c.6,0,1.08-.48,1.08-1.08s-.48-1.08-1.08-1.08h-2.54v-2.54Z"/><path class="cls-8" d="M70.09,164.29c0-.6-.48-1.08-1.08-1.08s-1.08,.48-1.08,1.08v2.54h-2.54c-.6,0-1.08,.48-1.08,1.08s.48,1.08,1.08,1.08h2.54v2.54c0,.6,.48,1.08,1.08,1.08s1.08-.48,1.08-1.08v-2.54h2.54c.6,0,1.08-.48,1.08-1.08s-.48-1.08-1.08-1.08h-2.54v-2.54Z"/><g><rect class="cls-37" x="348.7" y="271.44" width="113.5" height="116.15" rx="3.87" ry="3.87"/><path class="cls-36" d="M441.94,271.44h38.27c2.13,0,3.87,1.73,3.87,3.87v108.41c0,2.13-1.73,3.87-3.87,3.87h-38.28c-2.13,0-3.87-1.73-3.87-3.87v-108.41c0-2.13,1.73-3.87,3.87-3.87Z"/><path class="cls-41" d="M447.35,280.86h27.45c1.17,0,2.11,.95,2.11,2.11v1.9c0,1.17-.95,2.11-2.11,2.11h-27.46c-1.16,0-2.11-.94-2.11-2.11v-1.91c0-1.17,.95-2.11,2.11-2.11Z"/><path class="cls-21" d="M474.18,282.98c0-1.16-.95-2.11-2.11-2.11h2.73c1.16,0,2.11,.95,2.11,2.11v1.9c0,1.16-.95,2.11-2.11,2.11h-2.73c.13,0,2.11-.95,2.11-2.11v-1.9Z"/><path class="cls-41" d="M447.35,290.29h27.45c1.17,0,2.11,.95,2.11,2.11v1.91c0,1.16-.95,2.11-2.11,2.11h-27.46c-1.16,0-2.11-.94-2.11-2.11v-1.91c0-1.17,.95-2.11,2.11-2.11Z"/><path class="cls-21" d="M474.18,292.4c0-1.16-.95-2.11-2.11-2.11h2.73c1.16,0,2.11,.95,2.11,2.11v1.91c0,1.16-.95,2.11-2.11,2.11h-2.73c.13,0,2.11-.95,2.11-2.11v-1.91Z"/><path class="cls-41" d="M447.34,299.72h27.46c1.17,0,2.11,.95,2.11,2.11v1.91c0,1.17-.95,2.11-2.11,2.11h-27.46c-1.16,0-2.11-.94-2.11-2.11v-1.91c0-1.16,.95-2.11,2.11-2.11Z"/><path class="cls-21" d="M474.18,301.83c0-1.16-.95-2.11-2.11-2.11h2.73c1.16,0,2.11,.95,2.11,2.11v1.91c0,1.16-.95,2.11-2.11,2.11h-2.73c.13,0,2.11-.95,2.11-2.11v-1.91Z"/><path class="cls-41" d="M447.35,309.15h27.45c1.17,0,2.11,.95,2.11,2.11v1.91c0,1.16-.95,2.11-2.11,2.11h-27.46c-1.16,0-2.11-.94-2.11-2.11v-1.91c0-1.17,.95-2.11,2.11-2.11Z"/><path class="cls-21" d="M474.18,311.26c0-1.16-.95-2.11-2.11-2.11h2.73c1.16,0,2.11,.95,2.11,2.11v1.91c0,1.16-.95,2.11-2.11,2.11h-2.73c.13,0,2.11-.95,2.11-2.11v-1.91Z"/><path class="cls-41" d="M453.08,337.4h15.98c4.75,0,8.6,3.85,8.6,8.6v16.17c0,4.75-3.85,8.6-8.6,8.6h-15.99c-4.75,0-8.6-3.85-8.6-8.6v-16.17c0-4.75,3.85-8.6,8.6-8.6Z"/><path class="cls-21" d="M474.46,346c0-4.73-3.87-8.6-8.6-8.6h3.21c4.73,0,8.6,3.87,8.6,8.6v16.17c0,4.73-3.87,8.6-8.6,8.6h-3.21c4.73,0,8.6-3.87,8.6-8.6v-16.17Z"/><path class="cls-33" d="M462.04,337.4h-1.93v9.68c-3.13,.43-5.61,2.91-6.04,6.04h-9.68v1.93h9.68c.43,3.13,2.91,5.61,6.04,6.04v9.68h1.93v-9.68c3.13-.43,5.62-2.91,6.04-6.04h9.68v-1.93h-9.68c-.43-3.13-2.91-5.61-6.04-6.04v-9.68h0Zm-.96,21.85c-2.85,0-5.16-2.31-5.16-5.16s2.31-5.16,5.16-5.16,5.16,2.31,5.16,5.16-2.31,5.16-5.16,5.16Z"/><g><rect class="cls-41" x="444.48" y="328.38" width="14.52" height="6.13" rx="2.11" ry="2.11"/><path class="cls-21" d="M456.27,330.49c0-1.16-.95-2.11-2.11-2.11h2.73c1.16,0,2.11,.95,2.11,2.11v1.91c0,1.16-.95,2.11-2.11,2.11h-2.73c.13,0,2.11-.95,2.11-2.11v-1.91Z"/></g><g><path class="cls-41" d="M446.59,319.23h10.3c1.17,0,2.11,.95,2.11,2.11v1.91c0,1.16-.95,2.11-2.11,2.11h-10.3c-1.17,0-2.11-.95-2.11-2.11v-1.91c0-1.17,.95-2.11,2.11-2.11Z"/><path class="cls-21" d="M456.27,321.34c0-1.16-.95-2.11-2.11-2.11h2.73c1.16,0,2.11,.95,2.11,2.11v1.91c0,1.16-.95,2.11-2.11,2.11h-2.73c.13,0,2.11-.95,2.11-2.11v-1.91Z"/></g><path class="cls-36" d="M372.2,283.24h25.67c7.62,0,13.81,6.19,13.81,13.81v25.97c0,7.62-6.19,13.81-13.81,13.81h-25.67c-7.62,0-13.81-6.19-13.81-13.81v-25.97c0-7.62,6.19-13.81,13.81-13.81Z"/><path class="cls-43" d="M373.06,285.04h23.94c7.11,0,12.88,5.77,12.88,12.88v24.23c0,7.11-5.77,12.88-12.88,12.88h-23.95c-7.11,0-12.88-5.77-12.88-12.88v-24.23c0-7.11,5.77-12.88,12.88-12.88Z"/><path class="cls-18" d="M364.29,331.57c2.3,2.15,5.39,3.46,8.77,3.46h23.94c7.08,0,12.88-5.79,12.88-12.88v-19.15h-11.08v-13.58h-26.4v28.78h-8.11v13.36Z"/><path class="cls-15" d="M422.49,346.43h-1.58c.23,.48,.72,.81,1.29,.81s1.02-.31,1.27-.76c-.32-.04-.65-.06-.98-.06h0Zm-2.74,0h-2.59c.23,.48,.72,.81,1.29,.81s1.06-.33,1.29-.81h0Zm-3.75,0h-2.59c.23,.48,.73,.81,1.29,.81s1.06-.33,1.29-.81h0Zm-3.75,0h-2.59c.23,.48,.72,.81,1.29,.81s1.06-.33,1.3-.81h0Zm-3.75,0h-1.58c-.33,0-.66,.02-.98,.06,.24,.45,.72,.76,1.26,.76s1.06-.33,1.29-.81h0Zm-3.99,.36c-.4,.12-.79,.27-1.16,.45,.04,0,.08,0,.11,0,.41,0,.79-.17,1.05-.46h0Zm-3.52,2.12c-.6,.61-1.11,1.3-1.51,2.07,.07,.01,.15,.02,.22,.02,.79,0,1.44-.64,1.44-1.44,0-.23-.06-.45-.15-.65h0Zm-1.97,3.14c-.24,.68-.39,1.39-.45,2.13,.26,.34,.67,.56,1.14,.56,.79,0,1.44-.64,1.44-1.44s-.64-1.43-1.44-1.43c-.25,0-.48,.06-.69,.18h0Zm-.47,4.16v1.69c.26,.36,.68,.59,1.16,.59,.79,0,1.44-.64,1.44-1.44s-.64-1.44-1.44-1.44c-.48,0-.9,.23-1.16,.59h0Zm0,3.75v1.69c.26,.36,.68,.59,1.16,.59,.79,0,1.44-.64,1.44-1.43s-.64-1.44-1.44-1.44c-.48,0-.9,.23-1.16,.59h0Zm0,3.75v1.69c.26,.36,.68,.59,1.16,.59,.79,0,1.44-.64,1.44-1.43s-.64-1.44-1.44-1.44c-.48,0-.9,.23-1.16,.59h0Zm0,3.75v1.69c.26,.36,.68,.59,1.16,.59,.79,0,1.44-.64,1.44-1.44s-.64-1.44-1.44-1.44c-.48,0-.9,.23-1.16,.59h0Zm.02,3.72c.05,.74,.21,1.46,.45,2.14,.21,.11,.44,.18,.69,.18,.79,0,1.44-.64,1.44-1.44s-.64-1.43-1.44-1.43c-.46,0-.87,.22-1.14,.56h0Zm.91,3.21c.4,.76,.91,1.46,1.51,2.06,.1-.19,.15-.41,.15-.65,0-.79-.64-1.44-1.44-1.44-.08,0-.15,0-.22,.02h0Zm3.86,3.74c.37,.18,.76,.33,1.16,.45-.26-.28-.64-.45-1.05-.45-.04,0-.08,0-.11,0h0Zm2.6,.75c.32,.04,.65,.06,.98,.06h1.58c-.23-.48-.72-.81-1.29-.81s-1.02,.3-1.26,.75h0Zm3.72,.06h2.59c-.23-.48-.73-.81-1.3-.81s-1.06,.33-1.29,.81h0Zm3.75,0h2.59c-.23-.48-.72-.81-1.29-.81s-1.06,.33-1.29,.81h0Zm3.75,0h2.59c-.23-.48-.72-.81-1.29-.81s-1.06,.33-1.29,.81h0Zm3.75,0h1.58c.33,0,.66-.02,.98-.06-.24-.45-.72-.75-1.27-.75s-1.06,.33-1.29,.81h0Zm4-.36c.4-.12,.79-.27,1.16-.45-.04,0-.07,0-.11,0-.42,0-.79,.17-1.05,.45h0Zm3.51-2.12c.6-.61,1.11-1.3,1.51-2.06-.08-.01-.15-.02-.23-.02-.79,0-1.44,.64-1.44,1.44,0,.23,.06,.46,.15,.65h0Zm1.97-3.14c.24-.68,.39-1.39,.45-2.14-.26-.34-.67-.56-1.14-.56-.79,0-1.44,.64-1.44,1.43s.64,1.44,1.44,1.44c.25,0,.49-.06,.69-.18h0Zm.47-4.16v-1.69c-.26-.36-.68-.59-1.16-.59-.79,0-1.44,.64-1.44,1.44s.64,1.44,1.44,1.44c.48,0,.9-.23,1.16-.59h0Zm0-3.75v-1.69c-.26-.36-.68-.59-1.16-.59-.79,0-1.44,.64-1.44,1.44s.64,1.43,1.44,1.43c.48,0,.9-.23,1.16-.59h0Zm0-3.75v-1.69c-.26-.36-.68-.59-1.16-.59-.79,0-1.44,.64-1.44,1.44s.64,1.43,1.44,1.43c.48,0,.9-.23,1.16-.59h0Zm0-3.75v-1.69c-.26-.36-.68-.59-1.16-.59-.79,0-1.44,.64-1.44,1.44s.64,1.44,1.44,1.44c.48,0,.9-.23,1.16-.59h0Zm-.02-3.72c-.05-.74-.21-1.46-.45-2.13-.2-.11-.44-.18-.69-.18-.79,0-1.44,.64-1.44,1.43s.64,1.44,1.44,1.44c.46,0,.87-.22,1.14-.56h0Zm-.91-3.21c-.4-.76-.91-1.46-1.51-2.07-.1,.2-.15,.42-.15,.65,0,.79,.64,1.44,1.44,1.44,.08,0,.15,0,.23-.02h0Zm-3.86-3.73c-.37-.18-.76-.33-1.16-.45,.26,.28,.63,.46,1.05,.46,.04,0,.08,0,.11,0h0Zm-22.61,30c-.79,0-1.44-.64-1.44-1.44s.64-1.44,1.44-1.44,1.43,.64,1.43,1.44-.64,1.44-1.43,1.44h0Zm3.75,0c-.79,0-1.44-.64-1.44-1.44s.64-1.44,1.44-1.44,1.43,.64,1.43,1.44-.64,1.44-1.43,1.44h0Zm3.75,0c-.79,0-1.44-.64-1.44-1.44s.64-1.44,1.44-1.44,1.44,.64,1.44,1.44-.64,1.44-1.44,1.44h0Zm3.75,0c-.79,0-1.43-.64-1.43-1.44s.64-1.44,1.43-1.44,1.44,.64,1.44,1.44-.64,1.44-1.44,1.44h0Zm3.75,0c-.79,0-1.44-.64-1.44-1.44s.64-1.44,1.44-1.44,1.44,.64,1.44,1.44-.64,1.44-1.44,1.44h0Zm3.75,0c-.79,0-1.43-.64-1.43-1.44s.64-1.44,1.43-1.44,1.44,.64,1.44,1.44-.64,1.44-1.44,1.44h0Zm3.75,0c-.79,0-1.44-.64-1.44-1.44s.64-1.44,1.44-1.44,1.43,.64,1.43,1.44-.64,1.44-1.43,1.44h0Zm-22.49-6.62c-.79,0-1.44,.64-1.44,1.43s.64,1.44,1.44,1.44,1.43-.64,1.43-1.44-.64-1.43-1.43-1.43h0Zm3.75,0c-.79,0-1.44,.64-1.44,1.43s.64,1.44,1.44,1.44,1.43-.64,1.43-1.44-.64-1.43-1.43-1.43h0Zm3.75,0c-.79,0-1.44,.64-1.44,1.43s.64,1.44,1.44,1.44,1.44-.64,1.44-1.44-.64-1.43-1.44-1.43h0Zm3.75,0c-.79,0-1.43,.64-1.43,1.43s.64,1.44,1.43,1.44,1.44-.64,1.44-1.44-.64-1.43-1.44-1.43h0Zm3.75,0c-.79,0-1.44,.64-1.44,1.43s.64,1.44,1.44,1.44,1.44-.64,1.44-1.44-.64-1.43-1.44-1.43h0Zm3.75,0c-.79,0-1.43,.64-1.43,1.43s.64,1.44,1.43,1.44,1.44-.64,1.44-1.44-.64-1.43-1.44-1.43h0Zm3.75,0c-.79,0-1.44,.64-1.44,1.43s.64,1.44,1.44,1.44,1.43-.64,1.43-1.44-.64-1.43-1.43-1.43h0Zm-22.49-.88c-.79,0-1.44-.64-1.44-1.44s.64-1.44,1.44-1.44,1.43,.64,1.43,1.44-.64,1.44-1.43,1.44h0Zm3.75,0c-.79,0-1.44-.64-1.44-1.44s.64-1.44,1.44-1.44,1.43,.64,1.43,1.44-.64,1.44-1.43,1.44h0Zm3.75,0c-.79,0-1.44-.64-1.44-1.44s.64-1.44,1.44-1.44,1.44,.64,1.44,1.44-.64,1.44-1.44,1.44h0Zm3.75,0c-.79,0-1.43-.64-1.43-1.44s.64-1.44,1.43-1.44,1.44,.64,1.44,1.44-.64,1.44-1.44,1.44h0Zm3.75,0c-.79,0-1.44-.64-1.44-1.44s.64-1.44,1.44-1.44,1.44,.64,1.44,1.44-.64,1.44-1.44,1.44h0Zm3.75,0c-.79,0-1.43-.64-1.43-1.44s.64-1.44,1.43-1.44,1.44,.64,1.44,1.44-.64,1.44-1.44,1.44h0Zm3.75,0c-.79,0-1.44-.64-1.44-1.44s.64-1.44,1.44-1.44,1.43,.64,1.43,1.44-.64,1.44-1.43,1.44h0Zm-22.49-6.62c-.79,0-1.44,.64-1.44,1.44s.64,1.43,1.44,1.43,1.43-.64,1.43-1.43-.64-1.44-1.43-1.44h0Zm3.75,0c-.79,0-1.44,.64-1.44,1.44s.64,1.43,1.44,1.43,1.43-.64,1.43-1.43-.64-1.44-1.43-1.44h0Zm3.75,0c-.79,0-1.44,.64-1.44,1.44s.64,1.43,1.44,1.43,1.44-.64,1.44-1.43-.64-1.44-1.44-1.44h0Zm3.75,0c-.79,0-1.43,.64-1.43,1.44s.64,1.43,1.43,1.43,1.44-.64,1.44-1.43-.64-1.44-1.44-1.44h0Zm3.75,0c-.79,0-1.44,.64-1.44,1.44s.64,1.43,1.44,1.43,1.44-.64,1.44-1.43-.64-1.44-1.44-1.44h0Zm3.75,0c-.79,0-1.43,.64-1.43,1.44s.64,1.43,1.43,1.43,1.44-.64,1.44-1.43-.64-1.44-1.44-1.44h0Zm3.75,0c-.79,0-1.44,.64-1.44,1.44s.64,1.43,1.44,1.43,1.43-.64,1.43-1.43-.64-1.44-1.43-1.44h0Zm-22.49-.88c-.79,0-1.44-.64-1.44-1.43s.64-1.44,1.44-1.44,1.43,.64,1.43,1.44-.64,1.43-1.43,1.43h0Zm3.75,0c-.79,0-1.44-.64-1.44-1.43s.64-1.44,1.44-1.44,1.43,.64,1.43,1.44-.64,1.43-1.43,1.43h0Zm3.75,0c-.79,0-1.44-.64-1.44-1.43s.64-1.44,1.44-1.44,1.44,.64,1.44,1.44-.64,1.43-1.44,1.43h0Zm3.75,0c-.79,0-1.43-.64-1.43-1.43s.64-1.44,1.43-1.44,1.44,.64,1.44,1.44-.64,1.43-1.44,1.43h0Zm3.75,0c-.79,0-1.44-.64-1.44-1.43s.64-1.44,1.44-1.44,1.44,.64,1.44,1.44-.64,1.43-1.44,1.43h0Zm3.75,0c-.79,0-1.43-.64-1.43-1.43s.64-1.44,1.43-1.44,1.44,.64,1.44,1.44-.64,1.43-1.44,1.43h0Zm3.75,0c-.79,0-1.44-.64-1.44-1.43s.64-1.44,1.44-1.44,1.43,.64,1.43,1.44-.64,1.43-1.43,1.43h0Zm-22.49-6.62c-.79,0-1.44,.64-1.44,1.44s.64,1.44,1.44,1.44,1.43-.64,1.43-1.44-.64-1.44-1.43-1.44h0Zm3.75,0c-.79,0-1.44,.64-1.44,1.44s.64,1.44,1.44,1.44,1.43-.64,1.43-1.44-.64-1.44-1.43-1.44h0Zm3.75,0c-.79,0-1.44,.64-1.44,1.44s.64,1.44,1.44,1.44,1.44-.64,1.44-1.44-.64-1.44-1.44-1.44h0Zm3.75,0c-.79,0-1.43,.64-1.43,1.44s.64,1.44,1.43,1.44,1.44-.64,1.44-1.44-.64-1.44-1.44-1.44h0Zm3.75,0c-.79,0-1.44,.64-1.44,1.44s.64,1.44,1.44,1.44,1.44-.64,1.44-1.44-.64-1.44-1.44-1.44h0Zm3.75,0c-.79,0-1.43,.64-1.43,1.44s.64,1.44,1.43,1.44,1.44-.64,1.44-1.44-.64-1.44-1.44-1.44h0Zm3.75,0c-.79,0-1.44,.64-1.44,1.44s.64,1.44,1.44,1.44,1.43-.64,1.43-1.44-.64-1.44-1.43-1.44h0Zm-22.49-.88c-.79,0-1.44-.64-1.44-1.44s.64-1.43,1.44-1.43,1.43,.64,1.43,1.43-.64,1.44-1.43,1.44h0Zm3.75,0c-.79,0-1.44-.64-1.44-1.44s.64-1.43,1.44-1.43,1.43,.64,1.43,1.43-.64,1.44-1.43,1.44h0Zm3.75,0c-.79,0-1.44-.64-1.44-1.44s.64-1.43,1.44-1.43,1.44,.64,1.44,1.43-.64,1.44-1.44,1.44h0Zm3.75,0c-.79,0-1.43-.64-1.43-1.44s.64-1.43,1.43-1.43,1.44,.64,1.44,1.43-.64,1.44-1.44,1.44h0Zm3.75,0c-.79,0-1.44-.64-1.44-1.44s.64-1.43,1.44-1.43,1.44,.64,1.44,1.43-.64,1.44-1.44,1.44h0Zm3.75,0c-.79,0-1.43-.64-1.43-1.44s.64-1.43,1.43-1.43,1.44,.64,1.44,1.43-.64,1.44-1.44,1.44h0Zm3.75,0c-.79,0-1.44-.64-1.44-1.44s.64-1.43,1.44-1.43,1.43,.64,1.43,1.43-.64,1.44-1.43,1.44h0Zm-22.49-6.62c-.79,0-1.44,.64-1.44,1.44s.64,1.44,1.44,1.44,1.43-.64,1.43-1.44-.64-1.44-1.43-1.44h0Zm3.75,0c-.79,0-1.44,.64-1.44,1.44s.64,1.44,1.44,1.44,1.43-.64,1.43-1.44-.64-1.44-1.43-1.44h0Zm3.75,0c-.79,0-1.44,.64-1.44,1.44s.64,1.44,1.44,1.44,1.44-.64,1.44-1.44-.64-1.44-1.44-1.44h0Zm3.75,0c-.79,0-1.43,.64-1.43,1.44s.64,1.44,1.43,1.44,1.44-.64,1.44-1.44-.64-1.44-1.44-1.44h0Zm3.75,0c-.79,0-1.44,.64-1.44,1.44s.64,1.44,1.44,1.44,1.44-.64,1.44-1.44-.64-1.44-1.44-1.44h0Zm3.75,0c-.79,0-1.43,.64-1.43,1.44s.64,1.44,1.43,1.44,1.44-.64,1.44-1.44-.64-1.44-1.44-1.44h0Zm3.75,0c-.79,0-1.44,.64-1.44,1.44s.64,1.44,1.44,1.44,1.43-.64,1.43-1.44-.64-1.44-1.43-1.44Z"/><g><path class="cls-15" d="M390.06,376.86h-34.51c-.57,0-1.03,.47-1.03,1.04h0c0,.57,.47,1.04,1.03,1.04h34.51c.57,0,1.04-.47,1.04-1.04h0c0-.57-.47-1.04-1.04-1.04Z"/><path class="cls-15" d="M390.06,372.51h-34.51c-.57,0-1.03,.46-1.03,1.03h0c0,.57,.47,1.04,1.03,1.04h34.51c.57,0,1.04-.46,1.04-1.04h0c0-.57-.47-1.03-1.04-1.03Z"/><path class="cls-15" d="M390.06,368.17h-34.51c-.57,0-1.03,.47-1.03,1.03h0c0,.57,.47,1.03,1.03,1.03h34.51c.57,0,1.04-.46,1.04-1.03h0c0-.57-.47-1.03-1.04-1.03Z"/><path class="cls-15" d="M390.06,363.82h-28.66c-.57,0-1.03,.47-1.03,1.04h0c0,.57,.46,1.04,1.03,1.04h28.66c.57,0,1.04-.47,1.04-1.04h0c0-.57-.47-1.04-1.04-1.04Z"/><path class="cls-15" d="M390.06,359.47h-34.51c-.57,0-1.03,.47-1.03,1.03h0c0,.57,.47,1.04,1.03,1.04h34.51c.57,0,1.04-.47,1.04-1.04h0c0-.57-.47-1.03-1.04-1.03Z"/><path class="cls-15" d="M390.06,355.13h-34.51c-.57,0-1.03,.46-1.03,1.03h0c0,.57,.47,1.04,1.03,1.04h34.51c.57,0,1.04-.47,1.04-1.04h0c0-.57-.47-1.03-1.04-1.03Z"/><path class="cls-15" d="M383.65,350.78h-28.1c-.57,0-1.03,.47-1.03,1.03h0c0,.57,.47,1.04,1.03,1.04h28.1c.57,0,1.04-.47,1.04-1.04h0c0-.57-.47-1.03-1.04-1.03Z"/><path class="cls-15" d="M390.06,346.43h-34.51c-.57,0-1.03,.46-1.03,1.03h0c0,.57,.47,1.04,1.03,1.04h34.51c.57,0,1.04-.47,1.04-1.04h0c0-.57-.47-1.03-1.04-1.03Z"/><path class="cls-15" d="M357.06,363.82h-1.51c-.57,0-1.03,.47-1.03,1.04h0c0,.57,.47,1.04,1.03,1.04h1.51c.57,0,1.03-.47,1.03-1.04h0c0-.57-.46-1.04-1.03-1.04Z"/><path class="cls-15" d="M390.06,350.78h-2.46c-.57,0-1.03,.47-1.03,1.03h0c0,.57,.46,1.04,1.03,1.04h2.46c.57,0,1.04-.47,1.04-1.04h0c0-.57-.47-1.03-1.04-1.03Z"/></g><path class="cls-5" d="M377.59,285.04h-4.53c-3.82,0-7.26,1.68-9.63,4.35l42.25,42.25c2.58-2.36,4.2-5.75,4.2-9.49v-4.82l-32.29-32.29h0Zm-16.48,8.07l40.9,40.9c-1.54,.66-3.24,1.02-5.02,1.02h-1.37l-35.46-35.46v-1.65c0-1.7,.33-3.33,.94-4.82Z"/></g></g></g></svg>