<svg width="24" height="24" viewBox="0 0 24 24" fill="none" xmlns="http://www.w3.org/2000/svg">
<path fill-rule="evenodd" clip-rule="evenodd" d="M6.85643 0H17.1411C20.9121 0 23.9975 3.00606 23.9975 6.68606V9.91273C20.6165 11.3964 17.2057 18.72 12.2348 17.1297C11.8249 17.4133 10.8809 18.5842 10.8163 19.4715C9.09471 19.2485 7.10982 17.3236 7.34831 15.2461C4.48401 13.2242 6.84898 9.49091 9.12204 7.98788C13.9911 4.76848 20.7506 7.53697 16.992 9.84C14.7066 11.2388 9.81513 12.1648 10.3244 8.72727C8.98292 9.10545 8.12587 11.5442 9.74061 12.817C8.24511 14.2521 8.53328 16.8873 10.1306 17.7527C11.7479 13.663 17.3771 14.1988 19.6501 9.31636C21.3618 5.64364 18.8254 1.46182 13.7526 2.10424C9.92444 2.58909 6.33723 5.74061 4.54363 9.47636C2.7227 13.2679 2.99348 18.3442 6.73222 20.9042C11.1318 23.9151 15.8145 21.1273 18.6515 17.4836C20.3234 15.3358 21.7841 12.9552 24 11.583V17.3042C23.9975 20.9842 20.9121 24 17.1411 24H6.85643C3.08539 24 0 20.9891 0 17.3091V6.69091C0 3.01091 3.08539 0 6.85643 0Z" fill="#999999"/>
</svg>
