<svg width="40" height="40" viewBox="0 0 40 40" fill="none" xmlns="http://www.w3.org/2000/svg">
<path d="M33 0H7C3.13401 0 0 3.13401 0 7V33C0 36.866 3.13401 40 7 40H33C36.866 40 40 36.866 40 33V7C40 3.13401 36.866 0 33 0Z" fill="#000058"/>
<path d="M16.8794 23.0957H11.4235L10.0146 27.568C9.99757 27.7035 9.91219 27.7713 9.7585 27.7713H7.19704C7.02627 27.7713 6.9665 27.6866 7.01773 27.5172L11.9614 12.5501C12.0809 12.2282 12.1492 11.7623 12.1663 11.1525C12.1663 11.0508 12.2175 11 12.32 11H15.906C16.0085 11 16.0682 11.0424 16.0853 11.1271L21.6181 27.5426C21.6693 27.6951 21.6266 27.7713 21.49 27.7713H18.6212C18.5016 27.7713 18.4163 27.7205 18.365 27.6188L16.8794 23.0957ZM12.0382 20.6816H16.2902C16.1878 20.3259 15.9743 19.6313 15.6499 18.5979C15.3254 17.5645 15.0266 16.5989 14.7534 15.701C14.4801 14.8032 14.2752 14.0917 14.1386 13.5665H14.113C13.9252 14.4474 13.2336 16.8191 12.0382 20.6816Z" fill="#9999F9"/>
<path d="M30.0799 22.13H25.3924C25.4095 23.2143 25.7169 24.0698 26.3146 24.6966C26.9123 25.3234 27.8088 25.6368 29.0041 25.6368C30.097 25.6368 31.0704 25.4504 31.9242 25.0777C32.0266 25.01 32.0779 25.0438 32.0779 25.1794V27.0344C32.0779 27.153 32.0266 27.2546 31.9242 27.3393C30.9508 27.7798 29.7555 28 28.3381 28C26.2377 28 24.6923 27.4071 23.7019 26.2212C22.7285 25.0184 22.2418 23.5192 22.2418 21.7235C22.2418 19.86 22.7541 18.3014 23.7787 17.0478C24.8033 15.7942 26.2036 15.1674 27.9795 15.1674C29.6701 15.1674 30.9252 15.6841 31.7449 16.7175C32.5816 17.7509 33 18.9621 33 20.3513C33 21.0458 32.9658 21.5371 32.8975 21.8251C32.8805 21.9437 32.8122 22.0115 32.6926 22.0284C32.2486 22.0962 31.3777 22.13 30.0799 22.13ZM25.3924 20.1734H28.7736C29.5079 20.1734 29.9262 20.1565 30.0287 20.1226C30.0458 20.0548 30.0543 19.9362 30.0543 19.7668C30.0543 19.1231 29.8836 18.5471 29.542 18.0389C29.2005 17.5306 28.6455 17.2765 27.8771 17.2765C27.1257 17.2765 26.5451 17.5476 26.1353 18.0897C25.7254 18.6318 25.4778 19.3264 25.3924 20.1734Z" fill="#9999F9"/>
</svg>
