<svg width="40" height="40" viewBox="0 0 40 40" fill="none" xmlns="http://www.w3.org/2000/svg">
<path d="M33 0H7C3.13401 0 0 3.13401 0 7V33C0 36.866 3.13401 40 7 40H33C36.866 40 40 36.866 40 33V7C40 3.13401 36.866 0 33 0Z" fill="#2E0501"/>
<path d="M20.2874 23.8468H15.079L13.7769 27.8184C13.7619 27.9395 13.6796 28 13.53 28H11.1727C11.023 28 10.9706 27.9243 11.0155 27.773L15.6852 14.2922C15.7899 14.0652 15.8573 13.6416 15.8872 13.0213C15.8872 12.9305 15.9396 12.8851 16.0444 12.8851H19.2772C19.352 12.8851 19.4119 12.9229 19.4568 12.9986L24.6652 27.7957C24.7101 27.9319 24.6652 28 24.5305 28H21.8814C21.7766 28 21.7018 27.947 21.6569 27.8411L20.2874 23.8468ZM15.6627 21.6454H19.7037C19.6439 21.4336 19.3296 20.4728 18.7608 18.7631C18.2071 17.0383 17.8404 15.8582 17.6608 15.2227H17.6383C17.4587 15.9943 16.8002 18.1352 15.6627 21.6454Z" fill="#F2A032"/>
<path d="M26.059 27.7957V17.1291C26.059 17.008 26.1189 16.9475 26.2386 16.9475H28.7306C28.8503 16.9475 28.9102 17.008 28.9102 17.1291V27.8184C28.9102 27.9395 28.8503 28 28.7306 28H26.2611C26.1264 28 26.059 27.9319 26.059 27.7957ZM28.5959 14.6553C28.3265 14.9277 27.9598 15.0638 27.4958 15.0638C27.0319 15.0638 26.6652 14.9277 26.3958 14.6553C26.1264 14.383 25.9917 14.0123 25.9917 13.5433C25.9917 13.0894 26.1339 12.7187 26.4182 12.4312C26.7026 12.1437 27.0693 12 27.5183 12C27.9673 12 28.3265 12.1437 28.5959 12.4312C28.8653 12.7187 29 13.0894 29 13.5433C29 14.0123 28.8653 14.383 28.5959 14.6553Z" fill="#F2A032"/>
</svg>
