<svg width="40" height="40" viewBox="0 0 40 40" fill="none" xmlns="http://www.w3.org/2000/svg">
<path d="M33 0H7C3.13401 0 0 3.13401 0 7V33C0 36.866 3.13401 40 7 40H33C36.866 40 40 36.866 40 33V7C40 3.13401 36.866 0 33 0Z" fill="#000058"/>
<path d="M16.3869 23.9818H10.6507L9.16951 28.7818C9.15155 28.9273 9.06178 29 8.9002 29H6.20716C6.02762 29 5.96478 28.9091 6.01864 28.7273L11.2162 12.6636C11.3419 12.3182 11.4137 11.8182 11.4317 11.1636C11.4317 11.0545 11.4855 11 11.5932 11H15.3635C15.4712 11 15.5341 11.0455 15.552 11.1364L21.369 28.7545C21.4229 28.9182 21.378 29 21.2343 29H18.2181C18.0925 29 18.0027 28.9455 17.9488 28.8364L16.3869 23.9818ZM11.297 21.3909H15.7675C15.6597 21.0091 15.4353 20.2636 15.0942 19.1545C14.7531 18.0455 14.4389 17.0091 14.1516 16.0455C13.8644 15.0818 13.6489 14.3182 13.5053 13.7545H13.4784C13.2809 14.7 12.5538 17.2455 11.297 21.3909Z" fill="#9999F9"/>
<path d="M22.9585 28.7818V18.8273C22.9585 17.6636 22.9226 16.7 22.8508 15.9364C22.8149 15.7909 22.8688 15.7182 23.0124 15.7182H25.4631C25.6246 15.7182 25.7324 15.7818 25.7862 15.9091C25.8221 16 25.8939 16.3455 26.0017 16.9455C27.0789 15.9636 28.3177 15.4727 29.7181 15.4727C30.2387 15.4727 30.7324 15.5545 31.1992 15.7182C31.666 15.8818 32.1149 16.1455 32.5458 16.5091C32.9946 16.8727 33.3447 17.4182 33.596 18.1455C33.8653 18.8545 34 19.7091 34 20.7091V28.7818C34 28.9273 33.9282 29 33.7846 29H30.9299C30.7863 29 30.7145 28.9273 30.7145 28.7818V20.6273C30.7145 19.8273 30.535 19.2 30.1759 18.7455C29.8348 18.2909 29.3141 18.0636 28.6139 18.0636C27.6803 18.0636 26.8904 18.4455 26.244 19.2091V28.7818C26.244 28.9273 26.1722 29 26.0286 29H23.174C23.0303 29 22.9585 28.9273 22.9585 28.7818Z" fill="#9999F9"/>
</svg>
