<svg width="40" height="40" viewBox="0 0 40 40" fill="none" xmlns="http://www.w3.org/2000/svg">
<path d="M33 0H7C3.13401 0 0 3.13401 0 7V33C0 36.866 3.13401 40 7 40H33C36.866 40 40 36.866 40 33V7C40 3.13401 36.866 0 33 0Z" fill="#223008"/>
<path d="M6.7998 28.3151V11.6591C6.7998 11.5382 6.85195 11.4691 6.95624 11.4518C8.83352 11.4173 10.5022 11.4 11.9623 11.4C14.7261 11.4 16.8293 12.1685 18.272 13.7054C19.7148 15.2424 20.4361 17.2629 20.4361 19.7669C20.4361 21.0966 20.2449 22.2882 19.8625 23.3416C19.4975 24.3777 19.0195 25.2239 18.4285 25.8801C17.8549 26.5191 17.1596 27.0544 16.3426 27.4862C15.543 27.9006 14.7435 28.1942 13.9439 28.3669C13.1617 28.5223 12.3447 28.6 11.493 28.6C9.85907 28.6 8.34682 28.5828 6.95624 28.5482C6.85195 28.5482 6.7998 28.4705 6.7998 28.3151ZM9.98074 13.8091V26.191C10.537 26.2255 11.0932 26.2428 11.6494 26.2428C13.3703 26.2428 14.7174 25.7334 15.6908 24.7145C16.6642 23.6783 17.1509 22.055 17.1509 19.8446C17.1509 17.7723 16.6903 16.244 15.769 15.2597C14.8651 14.2581 13.5962 13.7573 11.9623 13.7573C10.9194 13.7573 10.2589 13.7745 9.98074 13.8091Z" fill="#AAE559"/>
<path d="M22.5098 28.341V18.8862C22.5098 17.7809 22.475 16.8657 22.4055 16.1404C22.3707 16.0022 22.4229 15.9332 22.5619 15.9332H24.9346C25.091 15.9332 25.1953 15.9936 25.2475 16.1145C25.2822 16.2008 25.3517 16.5289 25.456 17.0988C26.499 16.1663 27.6983 15.7 29.0542 15.7C29.5582 15.7 30.0362 15.7777 30.4882 15.9332C30.9401 16.0886 31.3747 16.339 31.7918 16.6844C32.2264 17.0297 32.5654 17.5478 32.8087 18.2386C33.0694 18.9121 33.1998 19.7237 33.1998 20.6735V28.341C33.1998 28.4791 33.1303 28.5482 32.9912 28.5482H30.2275C30.0884 28.5482 30.0189 28.4791 30.0189 28.341V20.5958C30.0189 19.836 29.845 19.2402 29.4974 18.8085C29.1671 18.3767 28.6631 18.1609 27.9852 18.1609C27.0813 18.1609 26.3165 18.5235 25.6907 19.2488V28.341C25.6907 28.4791 25.6212 28.5482 25.4821 28.5482H22.7184C22.5793 28.5482 22.5098 28.4791 22.5098 28.341Z" fill="#AAE559"/>
</svg>
