<svg width="40" height="40" viewBox="0 0 40 40" fill="none" xmlns="http://www.w3.org/2000/svg">
<path d="M33 0H7C3.13401 0 0 3.13401 0 7V33C0 36.866 3.13401 40 7 40H33C36.866 40 40 36.866 40 33V7C40 3.13401 36.866 0 33 0Z" fill="#410A35"/>
<path d="M5.49316 27.3109V11.8169C5.49316 11.7044 5.54048 11.6402 5.6351 11.6241C7.33832 11.592 8.85229 11.5759 10.177 11.5759C12.6845 11.5759 14.5928 12.2908 15.9017 13.7205C17.2107 15.1502 17.8652 17.0297 17.8652 19.3591C17.8652 20.596 17.6917 21.7044 17.3447 22.6844C17.0135 23.6482 16.5799 24.4354 16.0437 25.0458C15.5232 25.6402 14.8924 26.1382 14.1512 26.5398C13.4257 26.9253 12.7003 27.1984 11.9749 27.3591C11.2652 27.5036 10.524 27.5759 9.75121 27.5759C8.26878 27.5759 6.89674 27.5599 5.6351 27.5277C5.54048 27.5277 5.49316 27.4554 5.49316 27.3109ZM8.37917 13.8169V25.335C8.88383 25.3671 9.38849 25.3832 9.89314 25.3832C11.4544 25.3832 12.6766 24.9093 13.5598 23.9615C14.4429 22.9976 14.8845 21.4876 14.8845 19.4313C14.8845 17.5036 14.4666 16.082 13.6308 15.1663C12.8107 14.2346 11.6594 13.7687 10.177 13.7687C9.23078 13.7687 8.6315 13.7848 8.37917 13.8169Z" fill="#EE6FF0"/>
<path d="M31.9182 27.5277H29.387C29.2766 27.5277 29.1978 27.4635 29.1504 27.335C28.0307 22.5639 27.392 19.7526 27.2343 18.9012H27.2107C27.1476 19.2707 27.0214 19.8089 26.8322 20.5157C26.6587 21.2065 26.3748 22.2506 25.9806 23.6482C25.6021 25.0297 25.2709 26.2587 24.987 27.335C24.9555 27.4635 24.8766 27.5277 24.7505 27.5277H22.243C22.101 27.5277 22.0064 27.4635 21.9591 27.335L18.9311 16.0097C18.8996 15.8651 18.9548 15.7928 19.0967 15.7928H21.6752C21.7698 15.7928 21.8408 15.849 21.8881 15.9615C22.8028 19.7366 23.4415 22.6201 23.8042 24.6121H23.8515C23.9462 24.1141 24.648 21.2386 25.9569 15.9856C26.0042 15.8571 26.0752 15.7928 26.1698 15.7928H28.6064C28.701 15.7928 28.7562 15.849 28.772 15.9615C29.9232 20.7647 30.5856 23.6723 30.759 24.6844H30.8064C31.2322 22.4675 31.9024 19.5599 32.8171 15.9615C32.8329 15.849 32.9038 15.7928 33.03 15.7928H35.3483C35.4587 15.7928 35.506 15.849 35.4902 15.9615L32.1784 27.335C32.1153 27.4635 32.0286 27.5277 31.9182 27.5277Z" fill="#EE6FF0"/>
</svg>
