<svg width="40" height="40" viewBox="0 0 40 40" fill="none" xmlns="http://www.w3.org/2000/svg">
<path d="M33 0H7C3.13401 0 0 3.13401 0 7V33C0 36.866 3.13401 40 7 40H33C36.866 40 40 36.866 40 33V7C40 3.13401 36.866 0 33 0Z" fill="#071D34"/>
<path d="M14.5334 20.85V27.792C14.5334 27.9307 14.4641 28 14.3254 28H11.4134C11.2921 28 11.2314 27.9307 11.2314 27.792V10.866C11.2314 10.7447 11.3008 10.684 11.4394 10.684H21.5534C21.6921 10.684 21.7701 10.7533 21.7874 10.892L22.0474 12.946C22.0648 13.102 21.9954 13.18 21.8394 13.18H14.5334V18.354H21.1114C21.2501 18.354 21.3194 18.4233 21.3194 18.562V20.668C21.3194 20.7893 21.2501 20.85 21.1114 20.85H14.5334Z" fill="#55A5F9"/>
<path d="M23.2156 15.338H25.7896C25.9283 15.338 26.0236 15.416 26.0756 15.572C26.197 15.9013 26.2923 16.4127 26.3616 17.106C27.3843 15.7713 28.771 15.104 30.5216 15.104C30.643 15.104 30.7036 15.1647 30.7036 15.286V17.964C30.7036 18.1027 30.6343 18.172 30.4956 18.172C28.9183 18.068 27.6616 18.484 26.7256 19.42C26.5696 19.576 26.4916 19.784 26.4916 20.044V27.792C26.4916 27.9307 26.4223 28 26.2836 28H23.4236C23.2676 28 23.1896 27.9307 23.1896 27.792V19.03C23.1896 17.678 23.1463 16.508 23.0596 15.52C23.0423 15.3987 23.0943 15.338 23.2156 15.338Z" fill="#55A5F9"/>
</svg>
