<svg width="40" height="40" viewBox="0 0 40 40" fill="none" xmlns="http://www.w3.org/2000/svg">
<path d="M33 0H7C3.13401 0 0 3.13401 0 7V33C0 36.866 3.13401 40 7 40H33C36.866 40 40 36.866 40 33V7C40 3.13401 36.866 0 33 0Z" fill="#430C1F"/>
<path d="M15.0213 12.5208V28.5512C15.0213 28.7008 14.9547 28.7756 14.8215 28.7756H12.1998C12.0666 28.7756 12 28.7008 12 28.5512V12.5208C12 12.3878 12.0666 12.3213 12.1998 12.3213H14.8465C14.963 12.3213 15.0213 12.3878 15.0213 12.5208Z" fill="#EC4E68"/>
<path d="M23.1524 29C21.2881 29 19.7982 28.4765 18.6829 27.4294C17.5677 26.3823 17.01 24.8366 17.01 22.7922C17.01 20.9307 17.6093 19.4017 18.8078 18.205C20.0063 17.0083 21.6043 16.41 23.6019 16.41C24.1012 16.41 24.534 16.4515 24.9003 16.5346V11.1496C24.9003 11.0499 24.9502 11 25.0501 11H27.7967C27.8799 11 27.9215 11.0499 27.9215 11.1496V26.0831C27.9215 26.7147 27.9465 27.2632 27.9964 27.7285C28.0131 27.8283 27.9715 27.903 27.8716 27.9529C26.4234 28.651 24.8503 29 23.1524 29ZM24.9003 26.5319V18.8283C24.5673 18.6454 24.1179 18.554 23.5519 18.554C22.5365 18.554 21.7125 18.9114 21.08 19.626C20.4474 20.3407 20.1312 21.3546 20.1312 22.6676C20.1312 24.0637 20.4391 25.0942 21.055 25.759C21.6876 26.4238 22.4866 26.7562 23.4521 26.7562C24.0513 26.7562 24.534 26.6814 24.9003 26.5319Z" fill="#EC4E68"/>
</svg>
