<svg width="40" height="40" viewBox="0 0 40 40" fill="none" xmlns="http://www.w3.org/2000/svg">
<path d="M33 0H7C3.13401 0 0 3.13401 0 7V33C0 36.866 3.13401 40 7 40H33C36.866 40 40 36.866 40 33V7C40 3.13401 36.866 0 33 0Z" fill="#071D34"/>
<path d="M20.2866 28H10.2462C10.0821 28 10 27.9192 10 27.7576V12.1939C10 12.0646 10.073 12 10.2189 12H13.1462C13.2556 12 13.3103 12.0566 13.3103 12.1697V25.7212H20.8064C20.9706 25.7212 21.0344 25.7859 20.9979 25.9152L20.5602 27.8061C20.5237 27.9354 20.4325 28 20.2866 28Z" fill="#55A5F9"/>
<path d="M22.4765 16.1939H25.0482C25.1941 16.1939 25.2944 16.2586 25.3491 16.3879C25.495 16.7111 25.5862 17.1798 25.6227 17.7939C26.6806 16.5818 28.0758 15.9758 29.8085 15.9758C29.9362 15.9758 30 16.0323 30 16.1455V18.5939C30 18.7232 29.927 18.7798 29.7811 18.7636C28.1944 18.6828 26.945 19.0465 26.0331 19.8545C25.8689 20 25.7869 20.1939 25.7869 20.4364V27.8303C25.7869 27.9434 25.7139 28 25.568 28H22.6954C22.5313 28 22.4492 27.9354 22.4492 27.8061V19.6121C22.4492 18.303 22.4036 17.2202 22.3124 16.3636C22.2942 16.2505 22.3489 16.1939 22.4765 16.1939Z" fill="#55A5F9"/>
</svg>
