<svg width="40" height="40" viewBox="0 0 40 40" fill="none" xmlns="http://www.w3.org/2000/svg">
<path d="M33 0H7C3.13401 0 0 3.13401 0 7V33C0 36.866 3.13401 40 7 40H33C36.866 40 40 36.866 40 33V7C40 3.13401 36.866 0 33 0Z" fill="#000058"/>
<path d="M10 28.8097V11.2447C10 11.1178 10.0512 11.0544 10.1535 11.0544C11.2449 11.0181 12.7798 11 14.7581 11C17.0092 11 18.6635 11.5529 19.7208 12.6586C20.7952 13.7462 21.3324 15.1148 21.3324 16.7644C21.3324 18.7583 20.6758 20.2628 19.3627 21.2779C18.0666 22.2749 16.4208 22.7734 14.4255 22.7734C14.1868 22.7734 13.9054 22.7734 13.5814 22.7734C13.2744 22.7553 13.1124 22.7462 13.0953 22.7462V28.8097C13.0953 28.9366 13.0271 29 12.8907 29H10.1791C10.0597 29 10 28.9366 10 28.8097ZM13.0953 13.5287V20.2175C13.3341 20.2538 13.8286 20.2719 14.579 20.2719C15.6534 20.2719 16.5317 20.0091 17.2139 19.4834C17.896 18.9396 18.2371 18.0514 18.2371 16.8187C18.2371 15.7674 17.9301 14.9517 17.3162 14.3716C16.7193 13.7734 15.8666 13.4743 14.7581 13.4743C13.8542 13.4743 13.3 13.4924 13.0953 13.5287Z" fill="#9999F9"/>
<path d="M22.9652 15.7583H25.3698C25.5063 15.7583 25.6001 15.8308 25.6512 15.9758C25.7877 16.3384 25.8729 16.864 25.907 17.5529C26.8962 16.1934 28.2008 15.5136 29.8209 15.5136C29.9403 15.5136 30 15.577 30 15.7039V18.4502C30 18.5952 29.9318 18.6586 29.7954 18.6405C28.3117 18.5498 27.1434 18.9577 26.2907 19.864C26.1373 20.0272 26.0605 20.2447 26.0605 20.5166V28.8097C26.0605 28.9366 25.9923 29 25.8559 29H23.1699C23.0164 29 22.9396 28.9275 22.9396 28.7825V19.5921C22.9396 18.1239 22.897 16.9094 22.8117 15.9486C22.7947 15.8218 22.8458 15.7583 22.9652 15.7583Z" fill="#9999F9"/>
</svg>
