<svg width="40" height="40" viewBox="0 0 40 40" fill="none" xmlns="http://www.w3.org/2000/svg">
<path d="M33 0H7C3.13401 0 0 3.13401 0 7V33C0 36.866 3.13401 40 7 40H33C36.866 40 40 36.866 40 33V7C40 3.13401 36.866 0 33 0Z" fill="#071D34"/>
<path d="M9 28.5487V11.2389C9 11.115 9.06012 11.0531 9.18035 11.0531C10.4857 11.0177 12.1433 11 14.1529 11C16.5232 11 18.258 11.5487 19.3573 12.646C20.4738 13.7434 21.032 15.0973 21.032 16.708C21.032 18.708 20.3449 20.1947 18.9708 21.1681C17.5967 22.1416 15.8705 22.6283 13.7922 22.6283H12.2721V28.5221C12.2721 28.6637 12.2034 28.7345 12.066 28.7345H9.20611C9.0687 28.7345 9 28.6726 9 28.5487ZM12.2721 13.5487V20.0796C12.5125 20.115 13.0708 20.1327 13.9468 20.1327C15.0976 20.1327 16.0251 19.8761 16.7293 19.3628C17.4507 18.8319 17.8114 17.9735 17.8114 16.7876C17.8114 15.7434 17.4937 14.9381 16.8581 14.3717C16.2398 13.8053 15.338 13.5221 14.1529 13.5221C13.8609 13.5221 13.5689 13.531 13.2769 13.5487C13.0021 13.5487 12.7702 13.5487 12.5813 13.5487C12.4095 13.5487 12.3064 13.5487 12.2721 13.5487Z" fill="#31A8FE"/>
<path d="M30.021 18.8584C29.0591 18.2389 28.0543 17.9292 27.0065 17.9292C26.4053 17.9292 25.9588 18.0442 25.6668 18.2743C25.3919 18.5044 25.2545 18.7788 25.2545 19.0973C25.2545 19.4159 25.3748 19.6991 25.6152 19.9469C25.8557 20.177 26.3624 20.4513 27.1353 20.7699C28.561 21.3363 29.5572 21.9381 30.124 22.5752C30.708 23.1947 31 24 31 24.9911C31 26.1947 30.5534 27.1681 29.6602 27.9115C28.7843 28.6372 27.5905 29 26.079 29C24.5675 29 23.3308 28.7168 22.3689 28.1504C22.2659 28.115 22.2143 28.0265 22.2143 27.885V25.4159C22.2143 25.3451 22.2315 25.3009 22.2659 25.2832C22.3174 25.2478 22.3603 25.2478 22.3947 25.2832C23.5111 26.1327 24.7049 26.5575 25.9759 26.5575C26.5771 26.5575 27.0323 26.4513 27.3415 26.2389C27.6678 26.0088 27.831 25.7168 27.831 25.3628C27.831 24.9911 27.7022 24.6814 27.4445 24.4336C27.1869 24.1681 26.6802 23.885 25.9244 23.5841C24.5503 23.0354 23.5884 22.4513 23.0388 21.8319C22.5063 21.1947 22.2401 20.3982 22.2401 19.4425C22.2401 18.3451 22.6437 17.4248 23.451 16.6814C24.2583 15.9381 25.4091 15.5664 26.9035 15.5664C28.2947 15.5664 29.3683 15.7611 30.124 16.1504C30.2099 16.2035 30.2528 16.3186 30.2528 16.4956V18.6991C30.2528 18.9115 30.1755 18.9646 30.021 18.8584Z" fill="#31A8FE"/>
</svg>
