<svg width="40" height="40" viewBox="0 0 40 40" fill="none" xmlns="http://www.w3.org/2000/svg">
<path d="M33 0H7C3.13401 0 0 3.13401 0 7V33C0 36.866 3.13401 40 7 40H33C36.866 40 40 36.866 40 33V7C40 3.13401 36.866 0 33 0Z" fill="#223008"/>
<path d="M13.0799 29C11.2803 29 9.7143 28.6367 8.38189 27.9102C8.26076 27.8583 8.2002 27.7372 8.2002 27.547V24.9003C8.2002 24.8311 8.2175 24.7879 8.25211 24.7706C8.30402 24.736 8.36458 24.7446 8.4338 24.7965C9.93926 25.8517 11.5226 26.3793 13.1838 26.3793C14.222 26.3793 14.9834 26.189 15.4679 25.8085C15.9524 25.4106 16.1947 24.9176 16.1947 24.3295C16.1947 23.7413 16.0043 23.257 15.6236 22.8764C15.243 22.4785 14.5335 22.0547 13.4952 21.605L12.431 21.1639C10.9602 20.5238 9.90465 19.8059 9.2644 19.0102C8.62415 18.2145 8.31267 17.2285 8.32998 16.0522C8.32998 14.6683 8.8491 13.518 9.88734 12.6012C10.9429 11.6671 12.4397 11.2 14.3778 11.2C16.0909 11.2 17.4233 11.4595 18.375 11.9784C18.4961 12.0476 18.5567 12.1601 18.5567 12.3158V14.7289C18.5567 14.9019 18.4788 14.9365 18.3231 14.8327C17.1464 14.1061 15.8053 13.7429 14.2999 13.7429C13.3309 13.7429 12.6214 13.9505 12.1715 14.3656C11.7389 14.7808 11.5226 15.2305 11.5226 15.7149C11.5226 16.2511 11.7043 16.7095 12.0677 17.0901C12.431 17.4707 13.1405 17.8945 14.1961 18.3615L15.2862 18.8286C16.8955 19.5205 18.003 20.2643 18.6086 21.0601C19.2142 21.8558 19.5171 22.8072 19.5171 23.9143C19.5171 25.4884 18.9374 26.7339 17.778 27.6507C16.6186 28.5503 15.0526 29 13.0799 29Z" fill="#AAE559"/>
<path d="M28.5297 26.4572V22.8764C28.2183 22.8072 27.7337 22.7726 27.0762 22.7726C26.1418 22.7726 25.4236 22.9456 24.9218 23.2916C24.42 23.6375 24.1691 24.1219 24.1691 24.7446C24.1691 25.3501 24.3767 25.8431 24.792 26.2236C25.2073 26.6042 25.8476 26.7945 26.7128 26.7945C27.3877 26.7945 27.9933 26.682 28.5297 26.4572ZM31.7223 20.9303V25.9123C31.7223 26.6561 31.7483 27.2269 31.8002 27.6248C31.8002 27.6767 31.7742 27.7113 31.7223 27.7286C29.9054 28.5762 28.0452 29 26.1418 29C24.6017 29 23.3471 28.6627 22.3781 27.9881C21.4264 27.2961 20.9505 26.2496 20.9505 24.8484C20.9505 23.5164 21.487 22.5131 22.5598 21.8385C23.65 21.1466 25.0949 20.8006 26.8945 20.8006C27.1887 20.8006 27.5261 20.8092 27.9068 20.8265C28.2875 20.8265 28.4951 20.8265 28.5297 20.8265V20.3854C28.5297 20.1087 28.4778 19.8319 28.374 19.5551C28.2875 19.2783 28.0366 19.0016 27.6213 18.7248C27.206 18.448 26.6522 18.3096 25.9601 18.3096C24.7661 18.3096 23.5808 18.6124 22.4041 19.2178C22.2656 19.287 22.1964 19.2351 22.1964 19.0621V17.0642C22.1964 16.9258 22.2483 16.8393 22.3522 16.8047C23.5635 16.1819 24.9737 15.8706 26.583 15.8706C28.2788 15.8706 29.5593 16.3376 30.4245 17.2717C31.2897 18.1885 31.7223 19.4081 31.7223 20.9303Z" fill="#AAE559"/>
</svg>
