<svg width="40" height="40" viewBox="0 0 40 40" fill="none" xmlns="http://www.w3.org/2000/svg">
<path d="M33 0H7C3.13401 0 0 3.13401 0 7V33C0 36.866 3.13401 40 7 40H33C36.866 40 40 36.866 40 33V7C40 3.13401 36.866 0 33 0Z" fill="#2E001E"/>
<path d="M21.2981 14.3L17.6181 20.42L21.5781 26.96C21.6381 27.06 21.5981 27.16 21.4781 27.18H18.6381C18.4581 27.18 18.3581 27.12 18.2981 27C17.4181 25.44 16.5381 23.88 15.6381 22.24H15.6181C14.8181 23.84 13.9381 25.46 13.0981 27.02C13.0381 27.14 12.9581 27.18 12.8181 27.18H10.1181C9.97808 27.18 9.97808 27.06 10.0381 26.98L13.8781 20.62L10.1181 14.28C10.0381 14.18 10.1181 14.08 10.2181 14.08H13.0381C13.1781 14.08 13.2381 14.1 13.2981 14.24C14.0981 15.82 15.0381 17.4 15.8581 18.98H15.8781C16.6581 17.38 17.5381 15.84 18.3581 14.24C18.4181 14.14 18.4581 14.08 18.6381 14.08H21.2181C21.3581 14.08 21.3781 14.18 21.2981 14.3Z" fill="#FF2BC2"/>
<path d="M26.4551 27.38C23.4951 27.38 21.2151 25.7 21.2151 22.3C21.2151 19.44 23.3551 17.04 27.0151 17.04C27.1751 17.04 27.3751 17.06 27.6751 17.08V13.14C27.6751 13.04 27.7351 13 27.8151 13H30.3351C30.4351 13 30.4551 13.04 30.4551 13.12V24.94C30.4551 25.4 30.4751 26 30.5351 26.4C30.5351 26.5 30.5151 26.54 30.3951 26.58C29.0151 27.16 27.6951 27.38 26.4551 27.38ZM27.6751 24.88V19.46C27.4751 19.38 27.2151 19.36 26.9351 19.36C25.3951 19.36 24.0751 20.3 24.0751 22.16C24.0751 24.14 25.2151 25 26.7351 25C27.0751 25 27.3951 24.98 27.6751 24.88Z" fill="#FF2BC2"/>
</svg>
