<svg xmlns="http://www.w3.org/2000/svg" xmlns:xlink="http://www.w3.org/1999/xlink" id="Layer_1" x="0px" y="0px" width="150px" height="150px" viewBox="0 0 150 150" style="enable-background:new 0 0 150 150;" xml:space="preserve"> <rect y="0" style="fill:#FFFFFF;" width="150" height="150"></rect> <g> <g> <g> <circle style="fill-rule:evenodd;clip-rule:evenodd;fill:#EF7E04;" cx="76.5" cy="55" r="30.2"></circle> <g> <rect x="68.8" y="43.5" style="fill-rule:evenodd;clip-rule:evenodd;fill:#A65D45;" width="7.8" height="41.7"></rect> <path style="fill-rule:evenodd;clip-rule:evenodd;fill:#FFFFFF;" d="M68.8,40.5h7.8h3v3v41.7v3h-3h-7.8h-3v-3V43.5v-3H68.8 L68.8,40.5z M68.8,43.5h7.8v41.7h-7.8V43.5z"></path> </g> <g> <rect x="57.5" y="50.1" style="fill-rule:evenodd;clip-rule:evenodd;fill:#A65D45;" width="7.8" height="35.1"></rect> <path style="fill-rule:evenodd;clip-rule:evenodd;fill:#FFFFFF;" d="M57.5,47h7.8h3v3v35.1v3h-3h-7.8h-3v-3V50.1v-3L57.5,47 L57.5,47z M57.5,50.1h7.8v35.1h-7.8V50.1z"></path> </g> <g> <rect x="46.3" y="55" style="fill-rule:evenodd;clip-rule:evenodd;fill:#A65D45;" width="7.8" height="30.1"></rect> <path style="fill-rule:evenodd;clip-rule:evenodd;fill:#FFFFFF;" d="M46.3,52h7.8h3v3v30.1v3h-3h-7.8h-3v-3V55v-3L46.3,52 L46.3,52z M46.3,55h7.8v30.1h-7.8V55z"></path> </g> </g> </g> <g> <path d="M47.7,108.9c0,0.2-0.1,0.4-0.1,0.6c-0.2,2.4-0.7,4.5-1.4,6.3c-0.5,1.3-1.1,2.4-1.9,3.5c-1.8,2.4-3.9,3.6-6.5,3.6 c-1.2-0.1-2.2-0.4-3-1.3c-0.8-0.8-1.3-1.9-1.3-3.3c0-2.2,0.7-4.7,2.1-7.4l0.4-0.8c0.1,0,0.1,0.1,0.1,0.3c0,0.2-0.1,0.4-0.3,0.8 c-0.1,0.4-0.4,0.8-0.5,1.3c-0.1,0.4-0.3,0.8-0.4,1.3s-0.2,0.8-0.3,1.3c-0.1,0.4-0.1,0.8-0.1,1.1c0.1,1.1,0.6,1.9,1.4,2.4 c0.8,0.5,1.8,0.8,2.8,0.8c1.4,0,2.8-0.4,4.1-1.1c1-0.6,1.8-1.5,2.4-2.5c1-1.3,1.4-3.1,1.3-5.5c0-0.5,0.1-0.9,0.1-1.3 c0.1-0.4,0.4-1.3,0.9-2.6c0.1-0.3,0.2-0.5,0.3-0.6s0.1-0.1,0.1-0.1c0.1,0,0.1,0.1,0,0.4l-0.1,1.1L47.7,108.9z M42.8,111.6 c0.1,0.2,0,0.4-0.1,0.6c-0.1,0.2-0.2,0.4-0.4,0.8c-0.1,0.1-0.2,0.3-0.3,0.4c-0.1,0.1-0.2,0.3-0.3,0.3c-0.1,0.1-0.1,0.2-0.3,0.3 c-0.1,0.1-0.2,0.1-0.3,0.3c-0.1,0.1-0.1,0.1-0.1,0.1c0,0-0.1,0-0.1,0c-0.1,0-0.2-0.1-0.2-0.1c-0.1-0.1-0.1-0.2-0.3-0.3 c-0.1-0.1-0.3-0.3-0.5-0.4l-0.9-0.8c-0.1-0.1-0.1-0.1-0.1-0.1c0.1-0.1,0.1-0.1,0.1-0.1c0.3-0.4,0.5-0.8,0.8-1.3 c0.3-0.4,0.5-0.8,0.8-1.3c0.1-0.1,0.1-0.1,0.1-0.1c0-0.1,0.1-0.1,0.1-0.1s0.1,0,0.1,0.1c0.1,0,0.1,0.1,0.1,0.1 c0.1,0.1,0.3,0.2,0.5,0.4c0.2,0.1,0.4,0.3,0.6,0.4C42.4,110.9,42.6,111.2,42.8,111.6z"></path> <path d="M51,106.1l1.1-2.7c0.1-0.2,0.1-0.4,0.3-0.4c0.1,0,0.1,0.1,0.1,0.2c-0.1,0.1-0.1,0.4-0.1,0.8c-0.1,0.4-0.1,0.7-0.1,0.9 c-0.1,0.4-0.1,0.8-0.1,1.3c-0.1,0.4-0.1,0.9-0.1,1.4c0,0.5-0.1,1-0.1,1.4c-0.1,0.4-0.1,0.9-0.1,1.3c-0.1,1.1-0.3,2.1-0.6,2.8 c-0.3,0.8-0.6,1.4-0.8,2c-0.4,0.6-0.6,0.9-0.8,1c-0.1,0-0.1-0.1,0.1-0.4c0.1-0.3,0.2-0.6,0.3-0.9c0.1-0.4,0.1-0.8,0.3-1.2 c0.1-0.4,0.1-0.9,0.2-1.3c0.1-0.4,0.1-0.9,0.1-1.3c0.1-0.4,0.1-0.9,0.1-1.8c0.1-0.8,0.1-1.4,0.1-1.9 C50.8,106.9,50.9,106.4,51,106.1z"></path> <path d="M62.4,108.1c-0.1,0.4-0.3,0.8-0.4,1.1c-0.2,0.4-0.4,0.6-0.6,0.8c-0.2,0.2-0.4,0.4-0.6,0.6c-0.3,0.1-0.5,0.3-0.8,0.4 c-0.3,0.1-0.5,0.3-0.7,0.4c-0.2,0.1-0.4,0.3-0.5,0.4c-0.2,0.2-0.4,0.5-0.5,0.8c-0.1,0.4-0.3,0.8-0.4,1.1c-0.1,0.4-0.3,0.8-0.5,1.2 c-0.2,0.4-0.4,0.7-0.7,0.9c-0.4,0.4-0.9,0.6-1.7,0.8l-2,0.4c-0.1,0-0.1,0-0.2,0c-0.1,0-0.1,0-0.2,0c-0.1-0.1-0.2-0.1-0.1-0.4 c0.1-0.1,0.3-0.4,0.5-0.6c0.6-0.4,1-0.7,1.3-0.9c0.4-0.3,0.6-0.4,0.8-0.6c0.3-0.1,0.4-0.3,0.5-0.4c0.1-0.1,0.3-0.2,0.4-0.3 c0.6-0.4,1-0.9,1.3-1.4c0.1-0.3,0.3-0.5,0.4-0.8c0.1-0.3,0.3-0.5,0.4-0.7c0.1-0.2,0.3-0.4,0.4-0.7c0.1-0.3,0.3-0.4,0.5-0.7 c0.2-0.3,0.4-0.4,0.8-0.7s0.7-0.4,1.2-0.6c0.6-0.3,0.9-0.6,1.1-1.1c0.1-0.2,0.2-0.4,0.3-0.6c0.1-0.2,0.3-0.3,0.4-0.3 s0.2,0.2,0.1,0.5c-0.1,0.1-0.1,0.3-0.1,0.5C62.5,107.8,62.5,107.9,62.4,108.1z M58.9,123.2C58.9,123.3,58.9,123.3,58.9,123.2v0.1 v0.1v0.1v0.1v0.1v0.1l-0.1,0.1v0.1c0,0,0,0,0,0.1l-0.1,0.1c0,0.1-0.1,0.1-0.1,0.1c0,0,0,0.1-0.1,0.1l0,0l0,0l-0.1,0.1 c0,0.1-0.1,0.1-0.1,0.1c0,0-0.1,0.1-0.1,0.1v0.1l-0.1,0.2l-0.1,0.1l-0.1,0.1c0,0,0,0.1-0.1,0.1c-0.1,0.1-0.1,0.1-0.1,0.1l-0.2,0.2 v0.1l-0.1,0.1l-0.1,0.1l-0.1,0.1c0,0.1-0.1,0.1-0.1,0.1l-0.1,0.1l-0.1,0.1c-0.1,0.1-0.1,0.1-0.2,0.1h-0.1h-0.1 c-0.1,0-0.1,0-0.1-0.1c-0.1-0.1-0.3-0.3-0.4-0.4c-0.1-0.1-0.3-0.3-0.5-0.4c-0.1-0.1-0.1-0.1-0.1-0.1c-0.1-0.1-0.3-0.3-0.4-0.3l0,0 c-0.1-0.1-0.1-0.1-0.1-0.1c0-0.1,0-0.1,0.1-0.1l1.7-2.6l0,0c0.1-0.1,0.1-0.1,0.1-0.1l0,0l0,0l0.1,0.1c0,0,0.1,0,0.1,0.1 c0,0,0.1,0,0.1,0.1h0.1c0,0,0.1,0,0.1,0.1c0.1,0,0.1,0.1,0.1,0.1c0.1,0.1,0.1,0.1,0.1,0.1c0.1,0.1,0.1,0.1,0.1,0.1l0.1,0.1 c0.1,0.1,0.1,0.1,0.2,0.1s0.1,0.1,0.2,0.1l0.1,0.1l0.1,0.1c0.1,0.1,0.1,0.1,0.1,0.2C58.8,123,58.8,123.1,58.9,123.2L58.9,123.2 L58.9,123.2C58.9,123.2,58.9,123.1,58.9,123.2L58.9,123.2z M62.2,123c0.1,0.2,0.1,0.4,0,0.6c-0.1,0.2-0.1,0.4-0.4,0.7 c-0.1,0.2-0.3,0.4-0.4,0.6c-0.1,0.1-0.3,0.3-0.4,0.4c-0.1,0.1-0.2,0.2-0.3,0.2c-0.1,0.1-0.1,0.1-0.2,0.1c-0.1,0-0.1,0-0.1,0 c-0.1,0-0.1-0.1-0.1-0.1c-0.3-0.2-0.5-0.4-0.8-0.6c-0.3-0.3-0.5-0.4-0.8-0.6c-0.1-0.1-0.1-0.1-0.1-0.1c0-0.1,0-0.1,0.1-0.1 l1.7-2.6c0.1-0.1,0.1-0.1,0.1-0.1c0.1,0,0.1,0,0.1,0.1c0.1,0.1,0.3,0.2,0.4,0.3c0.1,0.1,0.3,0.2,0.4,0.4c0.1,0.1,0.3,0.3,0.4,0.4 C62.2,122.7,62.2,122.8,62.2,123z"></path> <path d="M65.2,106.1l1.1-2.7c0.1-0.2,0.1-0.4,0.3-0.4s0.1,0.1,0.1,0.2c-0.1,0.1-0.1,0.4-0.1,0.8c-0.1,0.4-0.1,0.7-0.1,0.9 c-0.1,0.4-0.1,0.8-0.1,1.3c-0.1,0.4-0.1,0.9-0.1,1.4c-0.1,0.5-0.1,1-0.1,1.4c-0.1,0.4-0.1,0.9-0.1,1.3c-0.1,1.1-0.3,2.1-0.6,2.8 c-0.3,0.7-0.6,1.4-0.8,2c-0.4,0.6-0.6,0.9-0.8,1c-0.1,0-0.1-0.1,0.1-0.4c0.1-0.3,0.2-0.6,0.3-0.9c0.1-0.4,0.1-0.8,0.3-1.2 c0.1-0.4,0.1-0.9,0.2-1.3c0.1-0.4,0.1-0.9,0.1-1.3c0.1-0.4,0.1-0.9,0.1-1.8c0.1-0.8,0.1-1.4,0.1-1.9 C65,106.9,65.1,106.4,65.2,106.1z"></path> <path d="M76,110.1c-0.3,1.9-0.6,3.4-0.8,4.3c-0.3,0.9-0.5,1.7-0.7,2.2c-0.2,0.5-0.4,0.9-0.7,1.1c-0.3,0.3-0.7,0.5-1.3,0.8 c-0.6,0.3-1.2,0.4-1.6,0.5c-0.4,0.1-0.7,0.1-0.8,0.1c-0.1,0-0.2-0.1-0.2-0.1c-0.1-0.1,0-0.1,0.1-0.3c0.1-0.2,0.4-0.4,0.9-0.8 c0.4-0.4,1-0.8,1.6-1.3c0.6-0.5,1.1-0.9,1.3-1.3c0.3-0.4,0.6-0.9,0.8-1.6c0.3-0.6,0.4-1.4,0.7-2.1c0.2-0.8,0.4-1.3,0.5-1.5 c0.1-0.3,0.2-0.4,0.3-0.4C76,109.8,76,109.9,76,110.1z"></path> <path d="M81.8,115.2c0,0.8-0.2,1.6-0.5,2.5c-0.5,1.1-1.2,1.6-2,1.6c-0.5,0-0.9-0.3-1.4-0.8c-0.4-0.6-0.6-1.5-0.6-2.7 c0-0.3,0.1-1.1,0.3-2.6c0.2-1.4,0.3-2.5,0.4-3.1c0.1-0.6,0.2-1.3,0.3-2s0.3-1.3,0.4-1.7c0.1-0.4,0.3-0.8,0.4-1.1s0.3-0.8,0.4-1.1 c0.1-0.1,0.1-0.1,0.2,0.1c-0.2,1.3-0.4,2.5-0.5,3.8c-0.1,1.3-0.3,2.2-0.3,2.8s-0.1,0.9-0.1,1c-0.1,0.6-0.1,1.1-0.1,1.3l0,0v0.6 c0,0.8,0.1,1.3,0.4,1.6c0.3,0.4,0.6,0.6,1,0.6c0.1,0,0.2-0.3,0.4-0.8c0.1-0.5,0.3-0.8,0.4-1.1c0.4,0.1,0.6,0.2,0.7,0.4 C81.7,114.7,81.8,114.9,81.8,115.2z"></path> <path d="M89.8,97c0.4,0.1,0.8,0.1,1.1,0.1s0.7-0.1,1.1-0.2c0.4-0.1,0.8-0.3,1.1-0.5c0.4-0.2,0.8-0.5,1.2-0.9 c0.1-0.1,0.2-0.1,0.3-0.3c0.1-0.1,0.2-0.2,0.3-0.3c0.1-0.1,0.2-0.2,0.3-0.3s0.1-0.1,0.1-0.1c0.1,0,0.1,0.1,0.1,0.1s0,0.3-0.1,0.4 c-0.2,0.4-0.4,0.8-0.8,1.3c-0.3,0.5-0.7,0.9-1.1,1.3c-0.7,0.7-1.4,1.3-2,1.6c-0.6,0.4-1.4,0.6-2.3,0.6c-0.4,0-0.8,0-1.1-0.1 c-0.3,0-0.7,0-1.3,0c-0.5,0.1-1,0.1-1.4,0.4c-0.4,0.2-0.8,0.4-1.1,0.6c-0.1,0-0.1,0-0.1,0s-0.1,0-0.1-0.1s0-0.1,0.1-0.4 c0.1-0.3,0.4-0.6,0.8-1.1c0.4-0.4,0.8-0.8,1.4-1.3c0.6-0.4,1.1-0.7,1.6-0.9C88.4,97.1,89.1,97,89.8,97z M86.9,108.1l1.1-2.7 c0.1-0.2,0.1-0.4,0.3-0.4s0.1,0.1,0.1,0.2c-0.1,0.1-0.1,0.4-0.1,0.8c-0.1,0.4-0.1,0.7-0.1,0.9c-0.1,0.4-0.1,0.8-0.1,1.3 c-0.1,0.4-0.1,0.9-0.1,1.4c-0.1,0.5-0.1,1-0.1,1.4c-0.1,0.4-0.1,0.9-0.1,1.3c-0.1,1.1-0.3,2.1-0.6,2.8c-0.3,0.7-0.6,1.4-0.8,2 c-0.4,0.6-0.6,0.9-0.8,1c-0.1,0-0.1-0.1,0.1-0.4c0.1-0.3,0.2-0.6,0.3-0.9c0.1-0.4,0.1-0.8,0.3-1.2c0.1-0.4,0.1-0.9,0.2-1.3 c0.1-0.4,0.1-0.9,0.1-1.3c0.1-0.4,0.1-0.9,0.1-1.8c0.1-0.8,0.1-1.4,0.1-1.9C86.6,109,86.8,108.5,86.9,108.1z"></path> <path d="M102.5,104.6c0,0.3-0.1,1.3-0.1,2.9c-0.1,1.9-0.2,3.5-0.4,4.8c-0.1,0.8-0.4,1.7-0.8,2.7c-0.5,1.1-1.1,1.8-2,2.2 c-0.1,0.1-0.3,0.2-0.4,0.3c-0.1,0.1-0.3,0.1-0.5,0.3c-0.3,0.1-0.5,0.3-0.7,0.4c-0.2,0.1-0.4,0.3-0.6,0.4c-0.2,0.2-0.4,0.4-0.6,0.8 c-0.1,0.3-0.3,0.6-0.4,1.1c-0.1,0.4-0.3,0.8-0.5,1.1c-0.2,0.3-0.4,0.6-0.7,0.8c-0.1,0.1-0.4,0.3-0.6,0.4c-0.3,0.1-0.6,0.2-1,0.3 l-2,0.3c-0.2,0-0.4,0-0.4,0c-0.1,0-0.1-0.1-0.2-0.1c-0.1-0.1,0-0.1,0-0.2c0.1-0.1,0.1-0.1,0.2-0.3c0.1-0.1,0.2-0.2,0.4-0.3 c0.4-0.3,0.8-0.5,1.1-0.7c0.3-0.1,0.6-0.3,0.8-0.4c0.2-0.1,0.4-0.3,0.6-0.4c0.2-0.1,0.4-0.3,0.8-0.5c0.3-0.2,0.6-0.4,0.8-0.6 c0.2-0.2,0.4-0.4,0.5-0.6c0.1-0.2,0.3-0.4,0.4-0.7c0.1-0.3,0.3-0.4,0.4-0.7c0.1-0.3,0.3-0.4,0.4-0.7c0.1-0.3,0.4-0.4,0.6-0.7 c0.2-0.2,0.4-0.4,0.8-0.6c0.3-0.2,0.6-0.4,1.1-0.6c0.5-0.3,0.8-0.4,0.8-0.5c0.4-0.3,0.6-0.5,0.6-0.7c0.1-0.5,0.3-1.3,0.3-2.6 c0.1-1.2,0.1-2.1,0.1-2.6c0-1.1,0.1-1.9,0.3-2.4c0.2-0.6,0.4-1.1,0.7-1.8c0.4-0.8,0.6-1.3,0.7-1.5c0.1-0.1,0.1,0,0.1,0.3 C102.6,104.1,102.5,104.5,102.5,104.6z M98.5,106.4c0.1,0.2,0.1,0.4,0,0.6c-0.1,0.3-0.2,0.4-0.4,0.7c-0.1,0.1-0.2,0.3-0.4,0.4 c-0.1,0.1-0.3,0.3-0.4,0.4c-0.1,0.1-0.1,0.1-0.2,0.1c-0.1,0.1-0.1,0.1-0.3,0.2s-0.1,0.1-0.3,0.1c-0.1,0.1-0.1,0-0.2-0.1 c-0.3-0.2-0.6-0.4-0.8-0.6c-0.3-0.2-0.6-0.4-0.8-0.6c-0.1-0.1-0.1-0.1-0.1-0.1c0-0.1,0-0.1,0.1-0.1l1.8-2.7 c0.1-0.1,0.1-0.1,0.1-0.1s0.1,0,0.1,0.1c0.1,0.1,0.3,0.2,0.4,0.3s0.3,0.3,0.4,0.4s0.3,0.3,0.4,0.4 C98.3,106.1,98.4,106.2,98.5,106.4z M104.2,100.5c0.6-0.5,1.8-1.6,3.8-3.2c2-1.6,3.4-2.8,4.3-3.6c0.8-0.8,1.8-1.6,2.6-2.4 c0.8-0.8,1.3-1.3,1.3-1.3c0.2-0.1,0.3-0.1,0.2,0.3c-0.1,0.4-0.6,1.1-1.3,2.5c-1.5,1.6-3,3-4.6,4.4c-1.6,1.3-3.6,3-6.2,4.9 c-0.1,0.1-0.3,0.3-0.5,0.4c-0.2,0.1-0.3,0.3-0.4,0.4c-0.3,0.3-0.5,0.4-0.6,0.2c0.2-0.5,0.4-0.9,0.6-1.3 C103.7,101.1,103.9,100.8,104.2,100.5z"></path> <path d="M108.6,114.3c-0.1,0.1-0.4,0.5-0.8,1.1c-0.4,0.7-0.9,1.4-1.6,2.3c-0.8,1-1.8,1.9-3.1,2.7c-0.3,0.2-0.6,0.4-1,0.6 c-0.5,0.3-0.8,0.4-0.9,0.4c-0.4,0.2-0.6,0.2-0.6,0.1c-0.1-0.1,0.4-0.6,1.5-1.4c0.8-0.6,1.5-1.2,2.1-1.7c0.8-0.7,1.4-1.6,2.1-2.7 c0.7-1.1,1.2-1.9,1.5-2.4c0.4-0.6,0.8-1.1,1.1-1.4c0.4-0.4,0.6-0.7,1-1c0.4-0.4,0.7-0.6,1-0.8c1-1.8,1.5-2.6,1.6-2.8 c0.1-0.1,0.1-0.2,0.2-0.3c0,0,0.3,0.2,0.8,0.7c0.5,0.5,0.8,1,1.1,1.5c0.1,0.1,0.1,0.3,0.1,0.4c0,0.1-0.1,0.3-0.1,0.6 c-0.2,0.4-0.4,0.8-0.6,1.2c-0.2,0.4-0.4,0.7-0.7,0.9c-0.1,0.1-0.3,0.1-0.4,0.1h-0.5c-0.3,0-0.6,0-0.8,0.1 c-0.3,0.1-0.6,0.1-0.8,0.2c-0.3,0.1-0.6,0.3-1,0.6C109.5,113.4,109,113.9,108.6,114.3z"></path> </g> </g> </svg>