<svg xmlns="http://www.w3.org/2000/svg" xmlns:xlink="http://www.w3.org/1999/xlink" id="Layer_1" x="0px" y="0px" width="150px" height="150px" viewBox="0 0 150 150" style="enable-background:new 0 0 150 150;" xml:space="preserve"> <rect y="0" style="fill:#FFFFFF;" width="150" height="150"></rect> <g> <path style="fill:#FFFFFF;" d="M62.1,101.4c2.1,0,4.3,0,6.4,0c0.7,0,1.3,0.5,1.3,1.2c0.1,0.7-0.5,1.4-1.2,1.4c-1.7,0-3.4,0-5.1,0 c-0.6,0-1.2-0.4-1.3-1C62.1,102.4,62.1,101.9,62.1,101.4z"></path> <path style="fill:#FFFFFF;" d="M77.6,101.4c2.1,0,4.3,0,6.4,0c0.6,0,1.2,0.4,1.3,1c0.2,0.7-0.4,1.5-1.2,1.5c-1.7,0-3.4,0-5.1,0 c-0.6,0-1.3-0.4-1.4-1.1C77.6,102.4,77.6,101.9,77.6,101.4z"></path> <path style="fill:#FFFFFF;" d="M91.8,102.9c-0.2-0.8,0.4-1.6,1.2-1.5c2.2,0,4.3,0,6.5,0c0,0.5,0,1,0,1.6c-0.1,0.6-0.7,1.1-1.3,1 c-1.7,0-3.3,0-5,0C92.6,104,91.9,103.6,91.8,102.9z"></path> <path style="fill:#7F7F83;" d="M43.2,39.6c0.5-0.1,0.9,0,1.4,0c6.9,0,13.8,0,20.8,0c0.4,0,0.7,0.3,0.9,0.6c0.5,0.7,0.6,1.6,0.6,2.5 c0.1,2.3-0.5,4.6-1.1,6.8c-0.1,3.6-0.3,7.2-0.5,10.8c0,0.3,0,0.7-0.2,1c-5.2,8.9-10.3,17.9-15.5,26.8c-0.6,1-1.7,2-3,2 c-4.9,0.2-9.8,0.1-14.7,0.1c-0.9,0-1.9-0.3-2.6-0.9c-0.6-0.5-0.9-1.4-0.9-2.2c0-1.3,0.7-2.5,1.3-3.7c4.6-8.6,9.1-17.3,13.6-25.9 c0.2-0.3,0.4-0.6,0.4-1c0.1-2.3,0.2-4.6,0-6.8c-0.1-1-0.2-2-0.6-2.9c-0.8-1.6-1.5-3.4-1.4-5.3C41.8,40.6,42.3,39.7,43.2,39.6z"></path> <path style="fill:#7F7F83;" d="M28.6,93.7c0.9,0,1.7,0,2.6,0c0,3,0,6,0,9c0,0.7,0.6,1.3,1.3,1.3c1.7,0,3.4,0,5.1,0 c0.7,0,1.3-0.6,1.3-1.3c0-1,0-2,0-3c0-0.3,0-0.5,0.1-0.8c0.2-0.1,0.4-0.1,0.6-0.1c0.6,0,1.3,0,1.9,0c0,1.3,0,2.7,0,4 c0,1.5-1.1,3-2.5,3.5c-0.8,0.3-1.7,0.2-2.6,0.3c-1.4,0-2.9,0-4.3,0c-1.9-0.1-3.5-1.8-3.6-3.7C28.5,99.8,28.6,96.7,28.6,93.7z"></path> <path style="fill:#7F7F83;" d="M110.4,94.2c0.3-0.2,0.5-0.4,0.8-0.5c0.8,0,1.7,0,2.6,0c-2.6,1.7-5.1,3.5-7.7,5.1 c-0.9,0-1.7,0-2.6,0C105.7,97.3,108.1,95.7,110.4,94.2z"></path> <path style="fill:#7F7F83;" d="M114.9,93.7c0.9-0.1,1.8,0,2.7-0.1c-1.3,0.9-2.6,1.7-3.8,2.6c1.3,0,2.6,0,4,0c1.5,0,3,1.1,3.5,2.5 c0.3,0.8,0.2,1.7,0.2,2.6c0,0.9,0.1,1.8-0.2,2.7c-0.5,1.4-2,2.5-3.5,2.5c-3.5,0-7,0-10.5,0c-0.4,0-0.8-0.1-1.2-0.2 c0,1.4,0,2.7,0,4.1c-0.9,0-1.7,0-2.6,0c0-2.6,0-5.2,0-7.7c0.9,0,1.7,0,2.6,0c0.1,0.7,0.6,1.3,1.3,1.3c3.4,0,6.8,0,10.2,0 c0.7,0,1.3-0.5,1.4-1.1c0-0.7,0-1.4,0-2.1c0-0.4,0-0.9-0.2-1.3c-0.3-0.4-0.7-0.6-1.2-0.6c-3.4,0-6.8,0-10.2,0 C109.8,97.1,112.4,95.4,114.9,93.7z"></path> <path style="fill:#7F7F83;" d="M36.3,96.2c0.9,0,1.7,0,2.6,0c0,0.8,0,1.7,0,2.5c-0.4,0.2-0.9,0.1-1.3,0.1c-0.6,0-1.2-0.5-1.3-1.1 C36.3,97.2,36.3,96.7,36.3,96.2z"></path> <path style="fill:#7F7F83;" d="M49.2,98.8c0.9,0,1.7,0,2.6,0c0,1.4,0,2.8,0,4.2c-0.1,1.9-1.8,3.5-3.7,3.6c-2.2,0-4.4,0-6.6,0 c0-0.9,0-1.7,0-2.6c2.1,0,4.3,0,6.4,0c0.7,0,1.4-0.6,1.3-1.3C49.2,101.4,49.2,100.1,49.2,98.8z"></path> <g> <path style="fill:#7F7F83;" d="M59.5,98.8c3.1,0,6.1,0,9.2,0c2,0,3.7,1.9,3.7,3.9c0,2-1.6,3.8-3.6,3.8c-1.8,0-3.6,0-5.4,0 c-1,0-1.9-0.3-2.7-1c-0.7,0.6-1.6,0.9-2.5,1c-2.2,0-4.4,0-6.6,0c0-0.9,0-1.7,0-2.6c2.2,0,4.3,0,6.5,0c0.7,0,1.3-0.6,1.3-1.3 C59.6,101.4,59.5,100.1,59.5,98.8z M62.1,101.4c0,0.5,0,1,0,1.5c0.1,0.6,0.7,1.1,1.3,1c1.7,0,3.4,0,5.1,0c0.7,0,1.3-0.7,1.2-1.4 c0-0.7-0.7-1.2-1.3-1.2C66.4,101.4,64.2,101.4,62.1,101.4z"></path> </g> <g> <path style="fill:#7F7F83;" d="M75,98.8c2.8,0,5.5,0,8.3,0c0.6,0,1.1,0,1.7,0.1c1.1,0.3,2,1.1,2.5,2.1c0.6,1.1,0.5,2.6-0.2,3.7 c-0.7,1.1-2,1.9-3.3,1.9c-1.8,0-3.6,0-5.4,0c-2,0-3.7-1.8-3.7-3.7C75,101.5,75,100.1,75,98.8z M77.6,101.4c0,0.5,0,1,0,1.5 c0.1,0.6,0.7,1.1,1.4,1.1c1.7,0,3.4,0,5.1,0c0.8,0,1.4-0.8,1.2-1.5c-0.1-0.6-0.7-1.1-1.3-1C81.9,101.4,79.7,101.4,77.6,101.4z"></path> </g> <g> <path style="fill:#7F7F83;" d="M89.2,102.6c0-2,1.7-3.7,3.7-3.7c3.1,0,6.1,0,9.2,0c0,3.9,0,7.7,0,11.6c-0.9,0-1.7,0-2.6,0 c0-1.4,0-2.7,0-4.1c-1,0.3-2,0.2-2.9,0.2c-1.3,0-2.6,0-3.9,0C90.7,106.4,89.1,104.5,89.2,102.6z M91.8,102.9 c0.1,0.6,0.7,1.1,1.3,1c1.7,0,3.3,0,5,0c0.6,0,1.2-0.4,1.3-1c0.1-0.5,0-1,0-1.6c-2.2,0-4.3,0-6.5,0 C92.3,101.4,91.6,102.2,91.8,102.9z"></path> </g> <path style="fill:#7F7F83;" d="M41.5,107.8c0.9,0,1.7,0,2.6,0c0,0.9,0,1.7,0,2.6c-0.7-0.1-1.6,0.2-2.2-0.4 C41.3,109.4,41.5,108.6,41.5,107.8z"></path> <path style="fill:#7F7F83;" d="M45.3,107.8c0.9,0,1.7,0,2.6,0c0,0.9,0,1.7,0,2.6c-0.7-0.1-1.6,0.2-2.2-0.4 C45.1,109.5,45.4,108.6,45.3,107.8z"></path> <path style="fill:#7F7F83;" d="M49.2,107.8c0.9,0,1.7,0,2.6,0c0,0.9,0,1.7,0,2.6c-0.7-0.1-1.6,0.2-2.2-0.4 C49,109.5,49.3,108.6,49.2,107.8z"></path> <g> <path style="fill:#C41531;" d="M72.9,57.1c1.9-0.4,4,0.7,4.8,2.5c0.6,1.3,0.5,2.9-0.2,4.1c-4.6,7.9-9.2,15.7-13.8,23.6 c-0.4,0.8-0.9,1.6-1.6,2.1c-1.4,1.1-3.5,1.1-5,0.2c-1.5-0.9-2.3-2.7-2-4.4c0.1-0.8,0.5-1.5,0.9-2.2c4.5-7.7,8.9-15.3,13.4-23 c0.3-0.5,0.5-0.9,0.9-1.4C71,57.8,71.9,57.2,72.9,57.1z"></path> <path style="fill:#C41531;" d="M86.7,57.1c1.9-0.4,4,0.6,4.9,2.4c0.6,1.3,0.6,2.9-0.2,4.2c-4.2,7.2-8.5,14.5-12.7,21.7 c-0.5,0.8-1,1.6-1.4,2.4c-0.6,1.2-1.9,2.1-3.3,2.3c-1.6,0.2-3.3-0.5-4.3-1.8c-0.8-1.2-1-2.7-0.6-4.1c0.2-0.5,0.4-0.9,0.7-1.3 c4.3-7.4,8.7-14.9,13-22.3c0.4-0.6,0.7-1.3,1.1-1.9C84.7,57.9,85.6,57.3,86.7,57.1z"></path> <path style="fill:#C41531;" d="M100.5,57.1c1.8-0.4,3.7,0.5,4.7,2c0.2,0.4,0.4,0.9,0.7,1.3c5.2,8,10.3,16,15.5,24.1 c0.2,0.4,0.2,0.8,0.3,1.2c0.1,1.1-0.1,2.3-0.8,3.1c-0.6,0.7-1.7,1-2.6,1c-6.6,0-13.2,0-19.8,0c-0.8,0-1.8-0.3-2.3-1 c-0.5-0.6-0.6-1.4-0.5-2.2c0.2-1.5,1-2.9,1.7-4.2c1.9-3.6,4-7.1,6.1-10.7c0.3-0.6,0.8-1.1,0.7-1.8c0-0.6-0.5-1.1-1.1-1.1 c-0.7,0-1.1,0.6-1.4,1.1c-2.5,4.2-4.9,8.4-7.4,12.6c-0.9,1.6-1.9,3.3-2.8,4.9c-0.6,1.3-1.7,2.3-3.1,2.6c-1.7,0.4-3.5-0.2-4.6-1.6 c-1.1-1.4-1.2-3.5-0.3-5c4.8-8.1,9.5-16.3,14.2-24.4C98.3,58,99.3,57.3,100.5,57.1z"></path> </g> </g> </svg>