<svg xmlns="http://www.w3.org/2000/svg" xmlns:xlink="http://www.w3.org/1999/xlink" id="Layer_1" x="0px" y="0px" width="150px" height="150px" viewBox="0 0 150 150" style="enable-background:new 0 0 150 150;" xml:space="preserve"> <rect y="0" style="fill:#FFFFFF;" width="150" height="150"></rect> <g> <g> <path style="fill:#D12027;" d="M75,82.1c-12.6,0-22.8-10.2-22.8-22.8c0-12.6,10.2-22.8,22.8-22.8v9.5c-7.3,0-13.3,5.9-13.3,13.3 S67.7,72.6,75,72.6c7.3,0,13.3-5.9,13.3-13.3h9.5C97.7,71.9,87.5,82.1,75,82.1"></path> <g> <path style="fill:#0D3148;" d="M92.8,36.9h-0.9c0,0,0,0,0-0.1s0,0,0-0.1c0,0,0,0,0-0.1c0,0,0,0,0-0.1h2.2c0,0,0,0,0,0.1 c0,0,0,0,0,0.1s0,0,0,0.1c0,0,0,0,0,0.1h-0.9v3.2c0,0,0,0-0.1,0c0,0-0.1,0-0.1,0s-0.1,0-0.1,0c0,0,0,0-0.1,0L92.8,36.9L92.8,36.9 z"></path> <path style="fill:#0D3148;" d="M94.8,36.6C94.8,36.6,94.8,36.6,94.8,36.6c0.1,0,0.2,0,0.2,0s0.1,0,0.1,0c0,0,0.1,0,0.1,0l1,2.3 l1-2.3c0,0,0,0,0.1,0c0,0,0.1,0,0.1,0s0.1,0,0.1,0s0.1,0,0.1,0l0.2,3.5c0,0,0,0-0.1,0s-0.1,0-0.1,0s-0.1,0-0.1,0s0,0-0.1,0 l-0.1-3l-1,2.3c0,0,0,0-0.1,0s0,0-0.1,0c0,0,0,0-0.1,0s0,0-0.1,0l-1-2.3l-0.1,3c0,0,0,0-0.1,0c0,0-0.1,0-0.1,0s-0.1,0-0.1,0 c0,0,0,0-0.1,0L94.8,36.6z"></path> </g> </g> <g> <path style="fill:#0D3148;" d="M48.7,102.7c0-1.5-0.3-2.8-0.9-4c-0.7-1.5-1.7-2.2-2.9-2.2c-0.8,0-1.5,0.3-2,1 c-0.5,0.7-0.8,1.4-0.8,2.3c0,0.7-0.1,1.2-0.2,1.5c-0.2,0.4-0.6,0.7-1.2,0.7h-0.2v0H19.7c-0.8-0.1-1.2-0.7-1.2-1.8V89.8 c0-0.4-0.1-0.7-0.2-0.7c-0.1,0-0.3,0.1-0.5,0.3l-2.2,1.6c0.2,3.2,0.3,6.3,0.3,9.2c0,3.6,1.1,5.5,3.2,5.5h21.5c1,0,1.8-0.8,2.4-2.4 c0.8,2,1.9,3,3.4,3c0.8,0,1.5-0.4,1.9-1.2C48.6,104.5,48.7,103.7,48.7,102.7 M46.8,103.5c-0.9,0-1.5-0.7-2-2 c-0.2-0.7-0.4-1.3-0.4-1.9c0-0.8,0.3-1.2,0.8-1.2c0.6,0,1.2,0.6,1.7,1.8c0.4,0.9,0.6,1.7,0.6,2.3 C47.4,103.2,47.2,103.5,46.8,103.5"></path> <path style="fill:#0D3148;" d="M53.6,96.9c0.1,0.1,0.2,0.1,0.3,0l1.5-1.6c0.1-0.1,0.1-0.2,0-0.3l-1.5-1.6c-0.1-0.1-0.2-0.1-0.4,0 l-1.4,1.5c-0.2,0.2-0.2,0.3,0,0.4L53.6,96.9z"></path> <path style="fill:#0D3148;" d="M84.9,98c-0.3-1.1-0.8-2-1.5-2.5c-0.1-0.1-0.2-0.1-0.3,0.1l-1.7,2.8c1.4,1.4,2.1,2.3,2.1,2.8 c0,0.5-0.8,0.7-2.4,0.7H81v0H57.5c-0.6-0.1-1.5-0.9-2.6-2.3c-0.2-0.2-0.3-0.3-0.4-0.3s-0.2,0.1-0.3,0.3l-1.8,2.9 c2.2,1.7,3.3,2.9,3.3,3.8c0,1-1.2,2.3-3.5,3.7c-0.9,0.6-2,1.1-3.3,1.6c-0.7,0.3-1,0.6-1,0.9c0,0.4,0.7,0.6,2.3,0.8 c1.1,0.1,2,0.2,2.7,0.2c0.4,0,0.7-0.1,0.8-0.2c0.1-0.1,0.3-0.3,0.6-0.6c1.7-2,2.6-4.4,2.5-7.2c0.2,0.2,0.3,0.2,0.5,0.2h23.9 c1.3,0,2.4-0.7,3.1-2c0.6-1.1,0.9-2.2,0.9-3.6C85.2,99.5,85.1,98.8,84.9,98"></path> <path style="fill:#0D3148;" d="M76.6,108.1c-0.1-0.1-0.2-0.1-0.4,0l-1.3,1.4l-1.3-1.4c-0.1-0.1-0.2-0.1-0.4,0l-1.3,1.4 c-0.1,0.2-0.2,0.3,0,0.4l1.4,1.5c0.1,0.1,0.2,0.1,0.3,0L75,110l1.3,1.4c0.1,0.1,0.1,0.1,0.2,0.1c0,0,0.1,0,0.2-0.1l1.4-1.5 c0.1-0.1,0.1-0.2,0-0.3L76.6,108.1z"></path> <path style="fill:#0D3148;" d="M92,99.6c-0.2-0.2-0.4-0.3-0.5-0.3c-0.1,0-0.2,0.1-0.3,0.3l-1.7,2.8c2.2,1.7,3.3,2.9,3.3,3.8 c0,1-1.2,2.3-3.5,3.7c-0.9,0.6-2,1.1-3.3,1.6c-0.7,0.3-1,0.6-1,0.9c0,0.4,0.8,0.6,2.3,0.8c1.1,0.1,2,0.2,2.7,0.2 c0.4,0,0.6-0.1,0.8-0.1c0.2-0.1,0.4-0.3,0.7-0.6c1.8-2.1,2.7-4.6,2.7-7.6c0-1.2-0.2-2.4-0.7-3.5C92.9,100.7,92.5,100.1,92,99.6"></path> <path style="fill:#0D3148;" d="M134.4,89.5c0-0.3-0.1-0.4-0.3-0.3c0,0-0.1,0-0.1,0l-11.1,4.1c-0.1,0-0.3,0.5-0.6,1.3 c-0.2,0.8-0.4,1.3-0.4,1.5c0,0,0,0.1,0,0.1c2,3.2,3.1,4.5,3.1,4.8c0,0.5-1,0.7-3.1,0.7l0,0H101c-0.8-0.1-1.2-0.7-1.2-1.8V89.8 c0-0.4-0.1-0.7-0.2-0.7c-0.1,0-0.3,0.1-0.5,0.3l-2.2,1.6c0.2,3.2,0.3,6.3,0.3,9.2c0,3.6,1.1,5.5,3.2,5.5h21.8 c1.5,0,2.6-0.6,3.4-1.7c0.7-1,1.1-1.8,1.1-3.2c0-1-0.3-2.1-0.9-3.2c-0.6-1.1-1-1.8-1.2-2.2l9.8-3.6 C134.4,91.9,134.4,89.5,134.4,89.5z"></path> </g> </g> </svg>