<svg xmlns="http://www.w3.org/2000/svg" xmlns:xlink="http://www.w3.org/1999/xlink" id="Layer_1" x="0px" y="0px" width="150px" height="150px" viewBox="0 0 150 150" style="enable-background:new 0 0 150 150;" xml:space="preserve"> <rect style="fill:#FFFFFF;" width="150" height="150"></rect> <g> <path style="fill:#9D2C4A;" d="M25.7,47.3c0.8-0.2,1.6-0.2,2.4,0c1.4,0.3,2.5,1.4,3.1,2.7c0.6,1.4,0.4,3.1-0.5,4.4 c-0.3,0.4-0.7,0.6-0.9,1c1.4,1.1,2.8,2.2,4.1,3.4c0.1,0.1,0.3,0.3,0.5,0.3c0.2,0,0.3-0.2,0.4-0.3c0.5-0.4,0.9-0.9,1.4-1.3 c0.5-0.4,0.9-0.8,1.4-1.2c0.3-0.3,0.8-0.6,1.1-1c0.1-0.1-0.1-0.3-0.1-0.4c-0.9-0.9-1.4-2.2-1.3-3.4c0.1-1.2,0.7-2.4,1.6-3.2 c0.8-0.7,1.9-1.1,3-1.1c1,0,2,0.3,2.7,0.9c1.1,0.8,1.7,2.2,1.8,3.5c0.1,1.4-0.5,2.8-1.6,3.7c0.2,0.3,0.4,0.4,0.6,0.6 c1.3,1.1,2.5,2.3,3.8,3.3c0.5-0.3,0.9-0.7,1.3-1c1.1-0.9,2.3-1.8,3.4-2.7c-0.1-0.2-0.3-0.3-0.5-0.5c-0.5-0.4-0.8-0.9-1-1.4 c-0.2-0.5-0.4-1.1-0.3-1.7c-0.1-1.1,0.3-2.1,1-2.9c0.8-1.1,2.1-1.7,3.5-1.7c1,0,2,0.3,2.8,0.9c1.1,0.8,1.8,2.1,1.8,3.5 c0.1,1.1-0.3,2.2-1,3c-0.2,0.3-0.5,0.5-0.8,0.8c0.3,0.5,0.8,0.8,1.3,1.2c1.1,0.9,2.1,1.9,3.1,2.9c0.6,0.5,1.2,1,1.7,1.6 c0.3,0.3,0.2,0.6,0.2,0.9c0,1.4,0.1,2.8,0,4.2c0,0.2-0.1,0.3-0.2,0.5c-0.5-0.1-0.8-0.4-1.1-0.7c-1.1-0.9-2.2-1.8-3.3-2.6 c-0.4-0.3-0.8-0.6-1.2-0.8c0,0.4-0.1,0.8,0,1.2c0,0.2,0,0.4,0.1,0.6c2.2,1.9,4.5,3.8,6.7,5.7c1.1,1,2.3,1.9,3.4,2.8 c0.7,0.5,1.3,1.1,2,1.7c0.2,0.2,0.5,0.4,0.5,0.8c0,0.1-0.1,0.2-0.2,0.3c-0.4,0.3-0.9,0.3-1.4,0.4c-2.2,0.3-4.5,0.4-6.7,0.7 c-2.4,0.3-4.7,0.9-6.9,1.8c-0.5,0.2-0.9,0.4-1.3,0.7c-0.5,0.3-1.1,0.6-1.5,1.1c0.3-0.1,0.7-0.2,1-0.3c2.3-0.8,4.7-1.2,7.2-1.1 c1.4,0,2.7,0.2,4,0.7c0.7,0.3,1.5,0.6,2.1,1.2c0.2,0.2,0.4,0.4,0.3,0.7c-0.1,0.3-0.4,0.4-0.7,0.5c-1.2,0.4-2.4,0.5-3.6,0.6 c-3,0.5-5.9,1.4-8.7,2.6c-0.9,0.4-1.8,0.8-2.5,1.4c0.6-0.1,1.1-0.3,1.7-0.4c2.2-0.4,4.5,0,6.4,1.2c0.7,0.4,1.3,0.9,1.8,1.4 c0.2,0.2,0.4,0.5,0.5,0.8c0.1,0.3-0.2,0.5-0.4,0.5c-0.8,0.3-1.6,0.3-2.4,0.4c-2.8,0.3-5.6,0.7-8.3,1.6c-2.5,0.9-4.8,2.2-6.7,4 c-1.1,1.1-2,2.2-2.8,3.6c-0.5,0.8-0.8,1.6-1.2,2.5c-0.1,0.2-0.2,0.4-0.3,0.6c-0.3-0.5-0.5-1.1-0.7-1.7c-1.3-2.5-3.1-4.8-5.4-6.5 c-1.3-0.9-2.7-1.7-4.2-2.3c-2.4-0.9-5-1.4-7.5-1.7c-1-0.1-1.9-0.1-2.9-0.3c-0.5-0.1-1.1-0.2-1.6-0.5c0.1-0.5,0.4-0.9,0.8-1.3 c0.9-0.8,1.9-1.4,3.1-1.8c1.7-0.6,3.5-0.7,5.2-0.4c0.5,0.1,1,0.3,1.6,0.3c-1-0.6-2-1.1-3.1-1.6c-2.7-1.2-5.6-2.1-8.6-2.5 c-1.1-0.1-2.1-0.3-3.2-0.6c-0.3-0.1-0.7-0.3-0.7-0.6c0-0.3,0.3-0.5,0.5-0.8c0.9-0.7,2-1.1,3-1.4c0.7-0.2,1.5-0.3,2.2-0.3 c2.5-0.2,5.1,0.2,7.5,1c0.5,0.1,0.9,0.3,1.4,0.4c-0.4-0.5-1.1-0.8-1.6-1.2c-0.7-0.4-1.5-0.8-2.3-1.1c-1.7-0.6-3.5-1-5.3-1.3 c-2.1-0.4-4.3-0.5-6.4-0.7c-0.6-0.1-1.2-0.1-1.8-0.4c-0.2-0.1-0.5-0.2-0.5-0.4c0-0.3,0.4-0.5,0.6-0.7c0.9-0.8,1.7-1.6,2.7-2.3 c1.3-1,2.5-2.2,3.8-3.3c0.4-0.3,0.8-0.7,1.3-1.1c1.4-1.2,2.8-2.4,4.2-3.5c0.1-0.1,0.2-0.2,0.2-0.3c0.1-0.5,0.1-1,0-1.6 c-0.4,0.2-0.8,0.5-1.2,0.8c-1.3,1-2.6,2-3.9,3c-0.2,0.1-0.4,0.2-0.6,0.2c-0.1-0.2-0.1-0.5-0.1-0.7c-0.1-1.5,0.1-2.9,0-4.4 c0-0.3,0.2-0.5,0.3-0.7c0.8-0.8,1.7-1.6,2.6-2.3c1-0.9,2.1-1.9,3.1-2.8c0.1-0.1,0.2-0.2,0.1-0.3c-1.5-1.2-2.1-3.4-1.4-5.2 C23.1,48.8,24.3,47.7,25.7,47.3 M26.4,48.6c-0.8,0.1-1.6,0.6-2,1.3c-0.9,1.3-0.7,3.1,0.5,4.2c0.8,0.7,1.9,0.9,2.9,0.7 c1.4-0.3,2.4-1.7,2.4-3.1c0-1.2-0.7-2.3-1.8-2.8C27.7,48.6,27,48.5,26.4,48.6 M41.1,48.6c-0.9,0.2-1.8,0.7-2.2,1.6 c-0.4,0.7-0.5,1.6-0.3,2.3c0.3,1.5,1.8,2.5,3.3,2.4c1-0.1,1.9-0.7,2.4-1.6c0.4-0.6,0.5-1.4,0.4-2.1c-0.1-1-0.8-1.8-1.6-2.3 C42.6,48.6,41.8,48.5,41.1,48.6 M55.9,48.6c-0.9,0.2-1.6,0.7-2.1,1.4c-0.5,0.7-0.6,1.7-0.4,2.5c0.2,0.9,0.9,1.7,1.8,2 c0.6,0.3,1.2,0.3,1.9,0.2c1.6-0.3,2.7-1.9,2.5-3.4c-0.1-1.1-0.8-2.1-1.8-2.6C57.2,48.6,56.5,48.5,55.9,48.6 M25.1,56.7 c-1.1,0.9-2.2,1.8-3.2,2.7c-0.8,0.7-1.7,1.4-2.4,2.2c-0.1,0.7,0,1.4,0,2.1c0.4-0.2,0.7-0.5,1.1-0.7c1.1-0.9,2.2-1.8,3.3-2.7 c0.4-0.3,0.8-0.7,1.3-1c0.1,1.7,0.1,3.5,0.1,5.2c0,0.3-0.1,0.6-0.4,0.8c-0.9,0.7-1.7,1.4-2.6,2.1c-1.2,0.9-2.4,1.9-3.5,2.8 c-0.6,0.5-1.3,1.1-1.9,1.6c-0.5,0.4-1,0.8-1.5,1.2c1.7-0.3,3.3-0.6,5-0.6c0.3,0,0.7,0,1-0.2c0.5-0.4,1.1-0.9,1.6-1.4 c0.5-0.4,0.9-0.8,1.4-1.2c0.9-0.8,1.8-1.6,2.7-2.3c0.6,0.7,1.3,1.3,2,2c0.6,0.6,1.2,1.3,1.8,1.9c0.8,0.7,1.5,1.6,2.3,2.3 c0.4,0.4,0.8,0.9,1.3,1.3c0.4-0.3,0.7-0.6,1-0.9c1.8-1.7,3.5-3.4,5.2-5c0.3-0.4,0.7-0.7,1.1-1c0.1-0.1,0.2,0.1,0.3,0.1 c0.9,0.8,1.7,1.6,2.5,2.4c0.5,0.4,0.9,0.9,1.4,1.4c1.1,1,2.2,2.1,3.2,3.1c0.5-0.4,0.8-0.8,1.2-1.2c0.4-0.4,0.9-0.8,1.2-1.3 c0.7-0.7,1.4-1.4,2.1-2.1c1-1,1.9-2,2.9-2.9c0.6,0.4,1,0.9,1.6,1.4c1.4,1.2,2.8,2.4,4.2,3.6c0.3,0.2,0.6,0.3,0.9,0.2 c1.7-0.1,3.4,0.3,5,0.6c-0.6-0.6-1.3-1.1-2-1.7c-2.5-2-4.9-4-7.4-6c-0.2-0.2-0.5-0.3-0.5-0.7c-0.1-1.8,0-3.6,0-5.5 c0.4,0.2,0.7,0.5,1,0.7c0.9,0.7,1.8,1.4,2.6,2.2c0.7,0.5,1.3,1.2,2,1.6c0-0.6,0.1-1.2,0-1.8c0-0.3-0.2-0.5-0.4-0.7 c-1.6-1.4-3.2-2.8-4.8-4.2c-0.4-0.3-0.8-0.7-1.3-0.9c-0.4,0-0.9,0-1.3,0c-0.3,0-0.7-0.1-0.9,0.1c-0.4,0.2-0.8,0.6-1.2,0.9 c-0.9,0.7-1.8,1.4-2.7,2.1c-0.8,0.6-1.5,1.3-2.3,1.8c-1.8-1.6-3.5-3.2-5.3-4.8c-0.2-0.1-0.4-0.1-0.6-0.1c-1,0-2,0-3.1,0 c-0.4,0-0.6,0.4-0.9,0.6c-1.6,1.4-3.2,2.9-4.9,4.3c-1.9-1.5-3.8-3-5.7-4.5c-0.2-0.1-0.3-0.3-0.5-0.3c-0.2-0.1-0.5,0-0.7-0.1 c-0.5,0-0.9-0.1-1.4,0C25.7,56.3,25.4,56.5,25.1,56.7 M25.9,70.1c-0.9,0.8-1.8,1.6-2.7,2.4c0.6,0.1,1.2,0.1,1.8,0.2 c1,0.1,2.1,0.3,3.1,0.5c1.3,0.3,2.6,0.9,3.9,1.3c-0.3-0.3-0.6-0.6-0.9-0.9c-0.9-0.9-1.9-1.9-2.8-2.8c-0.4-0.5-0.9-0.9-1.3-1.4 C26.6,69.5,26.2,69.8,25.9,70.1 M51.5,74.4c0.7-0.2,1.3-0.5,2-0.7c1.4-0.5,2.8-0.8,4.2-1c0.8-0.1,1.7-0.1,2.6-0.2 c-1.3-1.1-2.5-2.2-3.9-3.2C54.8,71.1,53.1,72.7,51.5,74.4 M38.9,72.4c-1.3,1.2-2.5,2.5-3.8,3.7c1.7,1.2,3.3,2.5,4.5,4.1 c0.8,0.9,1.4,1.9,2.1,2.9c0.2-0.1,0.2-0.2,0.3-0.4c0.9-1.6,2-3,3.3-4.2c0.9-0.9,2-1.7,3-2.5c-1.6-1.6-3.2-3.1-4.8-4.7 c-0.6-0.6-1.2-1.2-1.8-1.8C40.7,70.5,39.8,71.5,38.9,72.4 M16.3,74.3c-0.3,0.1-0.7,0.1-1,0.3c0,0,0,0.1,0,0.2 c0.3,0.1,0.7,0.1,1,0.1c1.5,0.1,2.9,0.3,4.4,0.5c1.2,0.2,2.4,0.5,3.5,0.8c2.7,0.8,5.3,2.1,7.2,4.2c0.5,0.5,0.9,1.1,1.2,1.7 c-0.3,0.3-0.6,0.6-0.9,0.8c-0.8-0.4-1.6-0.8-2.4-1.1c-1.2-0.5-2.4-0.9-3.6-1.1c-1.8-0.4-3.5-0.6-5.4-0.6c-0.6,0-1.2,0-1.8,0.2 c-0.1,0-0.2,0.1-0.2,0.2c0.3,0.1,0.5,0.2,0.8,0.3c1.2,0.3,2.4,0.5,3.6,0.8c2.4,0.7,4.6,1.6,6.7,2.9c1.3,0.8,2.5,1.8,3.7,2.8 c0.4,0.4,0.9,0.8,1.3,1.3c-0.3,0.3-0.6,0.6-0.9,0.9c-0.5-0.2-1-0.6-1.5-0.8c-2.2-1.1-4.7-1.7-7.1-1.2c-0.6,0.2-1.3,0.3-1.8,0.7 c-0.2,0.1-0.3,0.3-0.3,0.5c0.6,0.2,1.3,0.3,1.9,0.3c2.7,0.3,5.4,1,7.9,2.1c2.2,1,4.3,2.4,6.1,4.1c1.1,1.1,2.1,2.3,3,3.5 c0.3-0.3,0.4-0.6,0.7-0.8c0.5-0.7,1.1-1.4,1.7-2c2-2,4.3-3.7,6.9-4.8c2.2-0.9,4.5-1.6,6.8-1.9c1-0.1,2-0.2,3-0.4 c-0.1-0.4-0.4-0.6-0.7-0.8c-1.1-0.5-2.3-0.7-3.5-0.6c-1.5,0-3,0.5-4.3,1c-0.7,0.3-1.5,0.7-2.2,1.1c-0.3-0.3-0.6-0.6-0.9-0.9 c0.1-0.2,0.3-0.3,0.4-0.5c2-2,4.3-3.7,6.9-4.9c2.3-1.1,4.8-1.9,7.3-2.4c0.5-0.1,1-0.2,1.5-0.4c-0.2-0.1-0.3-0.2-0.6-0.3 c-0.8-0.2-1.7-0.1-2.5-0.1c-1.4,0.1-2.9,0.2-4.3,0.5c-1.6,0.3-3.2,0.9-4.7,1.6c-0.5,0.2-0.9,0.5-1.4,0.7c-0.3-0.3-0.6-0.5-0.9-0.8 c0.4-0.8,1-1.5,1.6-2.1c0.5-0.5,1.1-1,1.7-1.4c2.6-1.8,5.7-2.8,8.8-3.3c1.6-0.3,3.3-0.4,5-0.6c0.1,0,0.3-0.1,0.4-0.1 c-0.4-0.3-0.9-0.3-1.3-0.4c-2.1-0.3-4.3-0.4-6.4-0.3c-1.6,0.1-3.3,0.3-4.9,0.8c-2.7,0.7-5.3,1.8-7.5,3.5c-0.9,0.6-1.7,1.4-2.4,2.2 c-1.3,1.4-2.4,3.1-3.2,4.9c-0.2,0.5-0.4,1.1-0.7,1.6c-0.4-0.6-0.5-1.3-0.8-1.9c-0.7-1.5-1.6-2.9-2.7-4.2c-1.1-1.3-2.3-2.4-3.7-3.3 c-3.1-2-6.7-3.1-10.3-3.4C21.6,73.8,18.9,73.8,16.3,74.3 M104.2,56.4c0.7-0.2,1.4-0.5,2-0.7c-0.2,0.7-0.4,1.5-0.5,2.3 c-0.1,0.4-0.2,0.9-0.3,1.3c-1.7,0.5-3.5,1.1-5.2,1.7c-1.2,0.4-2.3,0.9-3.5,1.2c0.5,0.5,1,1,1.6,1.5c1.1,1.1,2.1,2.2,3.2,3.3 c0.9,1,1.9,2,2.9,3c0.7,0.6,1.5,1.1,2.4,1.1c1,0,2.1,0,3.1,0c0.7,0,1.4,0,2-0.1c1-0.1,2.1-0.2,3-0.6c0.6-0.2,1.1-0.5,1.7-0.7 c0.9-0.5,1.9-1,2.8-1.5c-0.9-0.3-1.8-0.6-2.7-0.8c-1-0.2-2-0.5-3.1-0.3c-1,0.3-1.5,1.2-2.3,1.7c-0.3,0-0.5-0.1-0.6-0.4 c-0.1-0.5,0.1-0.9,0.3-1.3c0.6-1.2,1.3-2.3,2.4-3c0.6-0.5,1.4-0.5,2.1-0.5c0.8,0.1,1.5,0.3,2.3,0.5c1.7,0.5,3.4,1.1,5.2,1.4 c1,0.2,2.1,0.2,3.1,0.3c-0.1,0.4-0.3,0.7-0.4,1c-0.1,0.3-0.3,0.6-0.4,0.9c-0.2,0.4-0.4,0.9-0.6,1.3c-0.9,0-1.9,0.1-2.8,0.4 c0,0.4,0.1,0.9,0.5,1.2c0.6,0.5,1.4,0.6,2.2,0.6c1.7,0,3.4,0,5,0c0.4,0,0.9,0,1.1-0.4c0.1-0.6-0.1-1.3,0.1-1.9 c0.4-1.3,1.3-2.4,2.6-2.9c0.8-0.2,1.6-0.3,2.4,0c1,0.4,1.8,1.3,2.2,2.3c0.4,0.9,0.6,1.8,0.7,2.8c0.1,1,0,2.2-0.6,3.1 c-0.3,0.4-0.7,0.8-1.3,1c-0.7,0.3-1.4,0.4-2.1,0.3c-0.8-0.1-1.5-0.5-2.1-1c-0.4-0.3-0.6-0.7-1-1.1c-0.3,0.7-0.9,1.3-1.6,1.6 c-0.8,0.3-1.6,0.3-2.4,0.3c-0.9,0-1.9,0-2.8,0c-0.8-0.1-1.6-0.1-2.3-0.5c-0.7-0.3-1.3-0.8-1.6-1.4c-0.5-0.8-0.7-1.8-0.7-2.8 c-1,0.9-2,1.8-3.2,2.5c-1.4,0.9-3.1,1.6-4.7,2c-1.1,0.2-2.3,0.3-3.4,0.3c-0.8,0-1.7,0-2.5-0.1c-0.7-0.1-1.3-0.4-1.8-0.8 c-0.7-0.4-1.2-1.1-1.8-1.6c-0.4-0.4-0.7-0.8-1.1-1.2c-0.4-0.4-0.7-0.8-1.1-1.2c-0.1,1.2-0.5,2.3-1.4,3.2c-0.4,0.4-0.9,0.9-1.5,1.1 c-1,0.4-2.1,0.5-3.1,0.6c-1.3,0.1-2.7,0.3-4,0.3c-1.5,0-3,0.1-4.5-0.2c-0.9-0.1-1.8-0.3-2.7-0.7c-1.4-0.6-2.4-1.9-2.6-3.3 c-0.2-1.2-0.2-2.3,0.2-3.5c0.3-0.7,0.6-1.3,1-1.9c0.2-0.3,0.5-0.5,0.9-0.4c0.3,0.1,0.4,0.3,0.4,0.6c0,0.7-0.4,1.2-0.5,1.9 c0,0.7,0,1.4,0.4,2c0.4,0.7,1.2,1.1,2,1.3c0.5,0.1,1,0.1,1.6,0.2c0.8,0,1.7,0.1,2.5,0.1c1.3,0,2.7,0.1,4,0c0.9,0,1.8-0.1,2.7-0.1 c0.7-0.1,1.4-0.1,2.1-0.4c0.3-0.1,0.5-0.3,0.6-0.6c0.1-0.4,0-0.9-0.2-1.3c-0.5-0.9-1.2-1.7-1.9-2.4c-0.4-0.4-0.8-0.8-1.2-1.2 c-0.5-0.5-1.1-0.9-1.7-1.3c0.2-1.3,0.5-2.7,0.8-4c1.9-0.7,3.7-1.5,5.6-2.2C101.5,57.3,102.9,56.8,104.2,56.4 M134.4,67.5 c-0.3,0.1-0.5,0.4-0.6,0.8c-0.1,0.8,0,1.7,0.3,2.4c0.2,0.5,0.5,1.1,0.9,1.4c0.3,0.3,0.7,0.3,1.1,0.3c0.4-0.1,0.7-0.5,0.7-0.9 c0.1-0.6,0.1-1.3-0.2-1.9c-0.3-0.7-0.6-1.4-1.2-1.9C135.3,67.5,134.8,67.4,134.4,67.5 M29.1,59.5c1.3,0.8,2.5,1.8,3.7,2.7 c0.5,0.4,1,0.9,1.6,1.2c1.6-1.2,3.1-2.5,4.7-3.7c0.1-0.1,0.3-0.2,0.5-0.2c0,1.8,0,3.6,0,5.5c0,0.4-0.3,0.6-0.6,0.8c-1,1-2,2-3,3 c-0.5,0.5-1.1,1.1-1.7,1.6c-1-0.9-1.9-1.9-2.9-2.9c-0.7-0.7-1.5-1.4-2.2-2.2c-0.3-0.3-0.1-0.6-0.1-0.9 C29.1,62.8,29.1,61.1,29.1,59.5 M30.5,64c0,0.3-0.1,0.6,0.2,0.8c1.2,1.2,2.4,2.4,3.7,3.6c0.7-0.6,1.3-1.3,2-1.9 c0.5-0.6,1.1-1.1,1.7-1.6c0.2-0.1,0.2-0.4,0.2-0.6c0-0.7,0-1.4,0-2c-0.5,0.3-0.9,0.6-1.3,0.9c-0.8,0.6-1.7,1.2-2.5,1.9 c-1.3-0.9-2.5-1.9-3.9-2.8C30.4,62.8,30.5,63.4,30.5,64 M43.9,59.5c0.7,0.4,1.4,0.9,2,1.4c1.1,0.8,2.1,1.7,3.2,2.5 c1.4-1,2.7-2.2,4.1-3.2c0.4-0.3,0.7-0.5,1.1-0.7c0,1.8,0,3.6,0,5.4c0,0.1,0,0.3-0.1,0.4c-1.6,1.6-3.2,3.2-4.8,4.8 c-0.1,0.1-0.2,0.2-0.3,0.3c-0.4-0.3-0.7-0.7-1-1c-1.3-1.2-2.5-2.5-3.8-3.7c-0.2-0.2-0.5-0.5-0.5-0.8C43.9,63.1,43.9,61.3,43.9,59.5 M49.1,65c-1.3-0.9-2.5-1.9-3.8-2.8c-0.1,0.5-0.1,1-0.1,1.5c0,0.3,0,0.7,0.1,1c0.1,0.1,0.2,0.3,0.3,0.4c0.7,0.7,1.4,1.3,2,2 c0.5,0.5,0.9,1,1.4,1.4c0.6-0.5,1.1-1.1,1.7-1.6c0.7-0.6,1.3-1.2,1.9-1.9c0.1-0.1,0.3-0.3,0.3-0.5c0-0.8,0-1.5,0-2.3 C51.7,63.1,50.4,64.1,49.1,65L49.1,65z"></path> <path style="fill:#221E20;" d="M82.8,84.1c0.3-0.2,0.5-0.4,0.8-0.6c0,1.2,0,2.4,0,3.6c0,0.4-0.1,0.7-0.4,1c-0.2-1-0.2-2-0.3-3 C82.8,84.8,82.8,84.5,82.8,84.1 M92.5,84.1c0.2-0.2,0.5-0.4,0.7-0.6c0,1,0,2,0,3c0,0.2,0.1,0.4,0.3,0.5c0.3,0.1,0.6,0,0.9,0 c0-0.3,0.1-0.7,0.3-0.9c0.2-0.3,0.7-0.3,1-0.1c0.3,0.2,0.4,0.7,0.6,1c0.1,0.1,0.2,0.1,0.3,0.1c0.8,0,1.8,0.1,2.5-0.4 c-0.4-0.1-0.8-0.3-1.2-0.3c-0.3,0-0.4,0.3-0.7,0.3c-0.1-0.1,0-0.3,0.1-0.5c0.2-0.3,0.4-0.7,0.8-0.7c0.5-0.1,1,0.3,1.5,0.5 c0.4,0.2,0.8,0.3,1.2,0.3c-0.1,0.3-0.3,0.5-0.5,0.7c-0.7,0-1.3,0.5-1.9,0.7C97.9,88,97.3,88,96.7,88c-0.3,0-0.4-0.2-0.5-0.4 c-0.1,0.3-0.4,0.6-0.8,0.5c-0.3,0-0.4-0.3-0.7-0.4C94.5,88,94,88,93.6,88c-0.5,0-0.9-0.4-0.9-0.9C92.6,86.1,92.6,85.1,92.5,84.1 M95.2,86.3c-0.1,0.3,0,0.7,0.2,1c0.1,0.1,0.4,0.2,0.4-0.1c0-0.3-0.1-0.6-0.3-0.9C95.5,86.3,95.3,86.3,95.2,86.3 M130.6,84.3 c0.1-0.3,0.5-0.6,0.8-0.5c0.1,0,0.3,0.2,0.2,0.4c-0.2,0-0.4-0.1-0.6,0c0,0.1,0,0.2,0.1,0.3c0.3,0.1,0.5,0,0.8-0.1 c0,0.1,0,0.3-0.1,0.4c-0.4,0.1-0.8,0.3-1.2,0.4c0-0.1,0-0.2,0-0.3c0.1,0,0.2-0.1,0.3-0.1C130.7,84.7,130.5,84.5,130.6,84.3 M114,84.4c0.1-0.2,0.3-0.3,0.5-0.5c0.1,0.2,0.4,0.3,0.4,0.5c-0.1,0.1-0.3,0.3-0.4,0.4C114.3,84.7,114.2,84.5,114,84.4 M81,85.2 c0.1-0.2,0.3-0.3,0.4-0.5c0.2,0.1,0.3,0.3,0.5,0.5c-0.1,0.2-0.3,0.3-0.5,0.5C81.3,85.5,81.1,85.3,81,85.2 M86.4,85.2 c0.1-0.1,0.3-0.3,0.4-0.4c0.1,0.1,0.3,0.3,0.4,0.5c-0.1,0.1-0.3,0.3-0.4,0.4C86.6,85.5,86.5,85.4,86.4,85.2 M87.3,85.2 c0.1-0.1,0.3-0.3,0.4-0.4c0.1,0.1,0.3,0.3,0.4,0.4c-0.1,0.1-0.3,0.3-0.4,0.4C87.6,85.5,87.4,85.4,87.3,85.2 M103.4,85.4 c0.1-0.2,0.3-0.4,0.5-0.5c0.2,0.6,0.3,1.2,0.4,1.7c0,0.2,0.1,0.4,0.3,0.4c0.4,0,0.8,0,1.2,0c0.1-0.3-0.2-0.5-0.3-0.6 c-0.1-0.1-0.1-0.2,0-0.3c0.1-0.2,0.3-0.4,0.4-0.5c0.3,0.3,0.4,0.8,0.4,1.2c0,0.4-0.2,0.9-0.6,1.1c-0.3,0.2-0.7,0.1-1,0.1 c-0.4,0-0.7-0.4-0.8-0.8c-0.1,0.1-0.2,0.3-0.3,0.4c-0.5,0-0.9,0-1.3-0.3c0-0.3,0-0.6,0.2-0.8c0.3-0.4,0.7-0.6,1.1-0.7 C103.5,85.6,103.4,85.5,103.4,85.4 M102.8,86.7c0.3,0.2,0.7,0.2,1,0.2c-0.1-0.2-0.1-0.4-0.2-0.7C103.3,86.3,103,86.5,102.8,86.7 M118.8,85.4c0.2-0.2,0.3-0.4,0.5-0.5c0.1,0.5,0.2,1,0.3,1.6c0.1,0.2,0.1,0.4,0.2,0.6c0.3,0.1,0.6,0.1,0.9,0.1 c0.2-0.1,0.5-0.1,0.5-0.3c0.1-0.2,0.1-0.6,0.4-0.4c0.1,0.2,0.1,0.5,0.3,0.7c0.2,0,0.3,0,0.5,0c0.3-0.2,0.2-0.6,0.4-0.8 c0.1,0,0.1,0.1,0.2,0.1c0.1,0.2,0.1,0.5,0.3,0.7c0.2,0,0.3,0,0.5,0c0.1-0.2,0.2-0.5,0.3-0.7c0.1-0.1,0.2-0.1,0.3,0 c0.1,0.1,0.1,0.3,0.1,0.5c0.2,0.4,0.7,0.3,1.1,0.3c0.2-0.1,0.4,0,0.5-0.2c0.1-0.2,0.1-0.4,0.3-0.6c0.1,0,0.1,0.1,0.2,0.1 c0.1,0.2,0.1,0.5,0.3,0.7c0.2,0,0.5,0.1,0.7-0.1c0.1-0.2,0.1-0.4,0.3-0.6c0.1,0,0.1,0.1,0.2,0.1c0.1,0.2,0.1,0.5,0.2,0.7 c0.2,0,0.3,0.1,0.5,0.1c0.1,0,0.2-0.1,0.3-0.1c0.1-0.3-0.1-0.5-0.3-0.7c0.1-0.2,0.2-0.5,0.5-0.5c0.4,0.6,0.4,1.4,0,1.9 c-0.2,0.3-0.5,0.3-0.8,0.3c-0.2,0-0.3-0.3-0.5-0.4c-0.2,0.1-0.3,0.3-0.5,0.4c-0.4,0.1-0.7-0.1-0.9-0.4c-0.3,0.5-1.1,0.5-1.6,0.4 c-0.3,0-0.4-0.3-0.6-0.4c-0.2,0.3-0.4,0.5-0.7,0.4c-0.3,0-0.5-0.2-0.6-0.4c-0.2,0.2-0.4,0.5-0.7,0.4c-0.3,0-0.5-0.2-0.7-0.4 c-0.3,0.5-1,0.5-1.5,0.5c-0.5,0-0.7-0.5-0.8-0.8c-0.1,0.1-0.2,0.3-0.3,0.4c-0.4,0-0.9,0-1.3-0.2c-0.2-0.2-0.1-0.5,0-0.7 c0.2-0.5,0.7-0.7,1.2-0.9C118.9,85.6,118.9,85.5,118.8,85.4 M118.2,86.7c0.3,0.1,0.7,0.2,1,0.2c-0.1-0.2-0.1-0.4-0.2-0.6 C118.7,86.3,118.4,86.4,118.2,86.7 M113.2,85.7c0.3-0.3,0.9-0.2,1.2,0c0.6,0.3,1.2,0.5,1.8,0.6c-0.1,0.2-0.3,0.4-0.4,0.6 c-0.1,0.1-0.3,0.1-0.4,0.2c-0.5,0.1-1,0.4-1.5,0.7c-0.5,0.3-1.2,0.3-1.7,0.3c-0.4,0-0.7-0.2-0.9-0.5c-0.2,0.2-0.4,0.5-0.7,0.5 c-0.4,0-0.8,0-1.1-0.1c0,0.6-0.3,1.2-0.7,1.7c-0.1,0.1-0.4,0.1-0.5,0.1c-0.4,0-0.8-0.1-1.1-0.2c0.6-0.3,1.3-0.6,1.8-1.2 c0.1-0.1,0.2-0.4,0.1-0.5c-0.1-0.3-0.4-0.5-0.6-0.7c0.1-0.3,0.3-0.5,0.4-0.8c0.2,0.2,0.4,0.5,0.6,0.6c0.4,0.2,0.9,0.2,1.4,0 c0.3-0.1,0.2-0.5,0.4-0.7c0.1,0,0.1,0,0.2,0c0.1,0.3,0.1,0.6,0.3,0.8c0.5,0.1,1.1,0,1.6,0c0.5,0,0.9-0.2,1.3-0.4 c-0.4-0.2-0.8-0.4-1.2-0.3c-0.2,0.1-0.4,0.3-0.7,0.3C112.7,86.3,112.9,86,113.2,85.7 M90.6,86.3c0.1-0.3,0.3-0.5,0.5-0.7 c0.4,0.4,0.5,1.1,0.3,1.6C91.3,87.5,91,88,90.5,88c-0.3,0-0.6,0.1-0.9-0.1c-0.2-0.1-0.3-0.3-0.5-0.5c-0.4,0.2-0.7,0.4-1.1,0.5 C87.5,88,87,88,86.4,88c-0.4-0.1-0.8-0.1-1.1-0.4c-0.4-0.3-0.4-0.9-0.3-1.3c0.1-0.2,0.2-0.5,0.5-0.5c0,0.3-0.2,0.8,0.1,1.1 c0.4,0.3,0.9,0.3,1.4,0.3c0.6-0.1,1.3-0.1,1.8-0.4c0.3-0.2,0.5-0.4,0.7-0.6c0.1,0,0.1,0.2,0.1,0.3c0,0.2-0.1,0.3-0.1,0.5 c0.5,0.2,1,0.1,1.4,0.1C91,86.7,90.7,86.5,90.6,86.3 M130.6,86.4c0.1-0.2,0.3-0.5,0.6-0.5c0.2,0,0.4,0,0.5,0.2 c0.3,0.3,0.4,0.6,0.5,1c1.4,0,2.8,0.1,4.3-0.1c0-0.3,0.1-0.7,0.3-0.9c0.3-0.3,0.9-0.4,1.2-0.1c0.3,0.3,0.4,0.8,0.4,1.3 c0,0.2-0.1,0.4-0.3,0.6c-0.2,0.2-0.5,0.2-0.7,0.1c-0.2-0.1-0.4-0.3-0.5-0.5c-0.1,0.2-0.3,0.4-0.5,0.4c-0.7,0.1-1.3,0-2,0 c-0.7,0-1.4,0-2,0c0,0.6-0.3,1.3-0.8,1.7c-0.5,0.1-1,0-1.5-0.2c0.6-0.3,1.3-0.6,1.7-1.2c0.1-0.1,0.1-0.2,0.2-0.3 c-0.5-0.1-1.1,0.1-1.4-0.4C130.3,87.2,130.4,86.7,130.6,86.4 M137.2,86.3c-0.1,0.3,0,0.7,0.2,1c0.1,0.1,0.4,0.1,0.4-0.1 c0-0.3-0.1-0.7-0.3-0.9C137.4,86.3,137.3,86.3,137.2,86.3 M130.8,86.9c0,0.1,0.1,0.1,0.1,0.2c0.3,0,0.5,0,0.7,0 c-0.1-0.2-0.3-0.5-0.6-0.5C130.9,86.6,130.8,86.8,130.8,86.9 M81.6,86.2c0.5,0.4,0.8,1.1,0.7,1.8c0,0.6-0.4,1.2-0.8,1.6 c-0.5,0-1.1,0-1.6-0.2c0.6-0.2,1.2-0.5,1.6-1c0.2-0.2,0.3-0.5,0.2-0.7c-0.1-0.3-0.4-0.4-0.6-0.7C81.3,86.7,81.5,86.4,81.6,86.2 M90.3,89c0.1-0.1,0.2-0.4,0.4-0.4c0.1,0.1,0.2,0.2,0.3,0.3c0.1,0,0.1,0.1,0.2,0.1c0.1-0.1,0.2-0.3,0.4-0.4 c0.2,0.1,0.3,0.2,0.4,0.4c0,0.2-0.3,0.3-0.4,0.5c-0.1-0.2-0.3-0.3-0.5-0.5c-0.1,0.2-0.3,0.3-0.4,0.5C90.5,89.3,90.4,89.1,90.3,89 M105.1,89c0.1-0.2,0.2-0.4,0.4-0.4c0.1,0.1,0.3,0.3,0.4,0.5c-0.1,0.1-0.3,0.3-0.4,0.4C105.4,89.3,105.2,89.1,105.1,89 M106,89 c0.1-0.1,0.3-0.3,0.4-0.4c0.2,0.1,0.3,0.3,0.4,0.4c-0.1,0.1-0.3,0.3-0.4,0.4C106.3,89.3,106.2,89.1,106,89 M110.2,89 c0.1-0.1,0.3-0.3,0.4-0.4c0.1,0.1,0.3,0.3,0.4,0.5c-0.1,0.1-0.3,0.3-0.4,0.4C110.4,89.3,110.3,89.1,110.2,89 M111.1,89 c0.1-0.1,0.3-0.3,0.4-0.4c0.1,0.1,0.3,0.3,0.4,0.5c-0.1,0.1-0.3,0.3-0.4,0.4C111.4,89.3,111.2,89.1,111.1,89 M84.4,94.8 c0.3-0.2,0.5-0.4,0.7-0.6c0,1,0,2,0,2.9c0,0.2,0.1,0.4,0.3,0.5c0.3,0.1,0.6,0,0.8,0.1c0.1,0,0.1,0,0.2-0.1c0-0.9-0.1-1.9-0.3-2.8 c0.2-0.2,0.4-0.4,0.7-0.6c0.1,0.3,0.2,0.7,0.4,1c-0.1,0-0.2,0-0.3,0c0.1,0.7,0,1.4-0.1,2c0.4-0.3,0.8-0.7,1.2-0.9 c0.3-0.1,0.6-0.1,0.9,0.1c0.2,0.2,0.3,0.4,0.3,0.7c0,0.5-0.4,1.1-0.9,1.3c-0.7,0.3-1.6,0.3-2.4,0.3c-0.3,0-0.6,0-0.9-0.1 c-0.3-0.2-0.5-0.5-0.5-0.9C84.6,96.6,84.5,95.7,84.4,94.8 M87,97.7c0.5,0,0.9,0,1.4,0c0.2,0,0.4-0.1,0.4-0.3c0-0.1,0-0.2-0.1-0.3 C88.5,97,88.2,96.9,88,97C87.6,97.1,87.3,97.4,87,97.7 M122.3,94.8c0.3-0.2,0.5-0.4,0.7-0.6c0,1,0,2,0,2.9c0,0.1,0.1,0.3,0.1,0.4 c0.4,0.2,0.8,0.1,1.2,0.1c0.2,0,0.5,0,0.7-0.1c0.1-0.2-0.1-0.4-0.2-0.6c-0.2-0.3-0.5-0.6-0.9-0.8c0.1-0.3,0.1-0.6,0.2-0.9 c0.8-0.3,1.6-0.6,2.5-0.9c-0.1,0.3-0.1,0.5-0.2,0.8c-0.6,0.2-1.2,0.4-1.8,0.6c0.3,0.3,0.6,0.6,0.7,1c0.2,0.5,0.2,1.2-0.2,1.5 c-0.5,0.4-1.1,0.4-1.6,0.4c-0.3,0-0.7-0.2-0.9-0.5c-0.2-0.4-0.1-0.8-0.1-1.3C122.5,96.1,122.4,95.4,122.3,94.8 M107.5,94.7 c0.2-0.1,0.4-0.3,0.6-0.5c0,1,0,2,0,3c0,0.2,0.1,0.4,0.4,0.4c0.3,0,0.7,0,1,0c0.3-0.1,0.4-0.5,0.4-0.7c0.1,0,0.1,0,0.2,0 c0.2,0.2,0.1,0.5,0.3,0.7c0.2,0.1,0.5,0.1,0.7,0.1c0.3,0,0.7,0,0.9-0.1c0.2-0.2,0.2-0.5,0.3-0.7c0.1,0,0.1,0,0.2,0 c0.1,0.3,0.1,0.7,0.4,0.8c0.4,0.1,0.8,0,1.2,0c0-0.3,0.1-0.6,0.2-0.9c0.2-0.3,0.7-0.4,1.1-0.2c0.3,0.2,0.5,0.6,0.5,1 c0.1,0.4,0,0.8-0.3,1c-0.2,0.1-0.6,0.1-0.8,0c-0.2-0.1-0.3-0.3-0.4-0.4c-0.5,0.6-1.5,0.5-2-0.1c-0.3,0.5-1,0.5-1.6,0.5 c-0.3,0-0.7-0.2-0.9-0.5c-0.2,0.4-0.7,0.5-1.1,0.5c-0.4,0-0.8,0-1-0.3c-0.3-0.3-0.3-0.8-0.4-1.2c-0.3,0.5-0.4,1-0.9,1.4 c-0.4,0.2-0.9,0.1-1.4,0.2c-0.1,0-0.2,0-0.3,0c0,0,0-0.1,0-0.1c0.5-0.2,1.1-0.5,1.5-0.9c0.1-0.1,0.3-0.3,0.2-0.4 c-0.3-0.5-0.7-1-1.3-1.3c0,0.1,0,0.2-0.1,0.3c-0.2-0.3-0.5-0.5-0.7-0.8c-0.1-0.3,0.1-0.6,0.1-0.9c0.6,0.3,1,0.8,1.5,1.3 c0.3,0.4,0.6,0.8,0.7,1.3c0.2-0.2,0.3-0.5,0.3-0.7C107.5,95.9,107.5,95.3,107.5,94.7 M114.9,97c0,0.2,0.1,0.4,0.1,0.6 c0.1,0.1,0.1,0.3,0.3,0.4c0.1,0,0.2,0,0.3,0c0-0.3,0-0.8-0.3-1C115.1,96.8,115,96.9,114.9,97 M136,95.2c0.8-0.3,1.6-0.6,2.5-0.9 c-0.1,0.3-0.1,0.5-0.2,0.8c-0.6,0.2-1.2,0.4-1.8,0.6c0.4,0.4,0.8,0.8,0.9,1.4c0,0.1,0,0.3,0,0.4c-0.1,0.5-0.5,0.9-1,1 c-0.9,0.1-1.7,0-2.6,0c-0.6,0-1.2,0-1.9,0c0,0.7-0.3,1.3-0.8,1.7c-0.4,0-0.8,0-1.2-0.1c-0.1,0-0.2-0.1-0.3-0.1 c0.7-0.4,1.6-0.7,1.9-1.5c-0.4,0-0.8,0-1.2-0.1c-0.3-0.2-0.3-0.6-0.2-0.9c0.1-0.4,0.2-0.8,0.6-1c0.2-0.1,0.5-0.1,0.7,0.1 c0.3,0.3,0.4,0.6,0.5,1c0.4,0.1,0.9,0,1.4,0c0.4,0,0.9,0,1.4,0c0.4-0.1,0.8,0,1.3,0c0.4,0,0.7,0,1.1-0.1c0-0.3-0.2-0.6-0.4-0.8 c-0.2-0.2-0.5-0.5-0.7-0.6C135.8,95.8,135.9,95.5,136,95.2 M130.7,97.7c0.2,0,0.5,0,0.7,0c-0.1-0.3-0.3-0.5-0.6-0.5 C130.5,97.3,130.6,97.6,130.7,97.7 M99.9,96c0.2-0.2,0.3-0.4,0.5-0.5c0.1,0.5,0.2,1.1,0.3,1.7c0.1,0.2,0.1,0.4,0.3,0.5 c0.2,0,0.3,0.1,0.5,0.1c0.3-0.1,0.5,0,0.8-0.2c0-0.3-0.3-0.4-0.4-0.6c0.1-0.3,0.3-0.4,0.4-0.7c0,0,0.1,0,0.1,0 c0.3,0.4,0.4,1,0.3,1.5c-0.1,0.4-0.3,0.7-0.7,0.8c-0.3,0.1-0.7,0.1-1,0c-0.3-0.1-0.5-0.5-0.6-0.8c-0.1,0.1-0.2,0.3-0.3,0.4 c-0.4,0-0.8,0-1.2-0.2c-0.3-0.1-0.2-0.5-0.1-0.7c0.2-0.5,0.7-0.7,1.2-1C100,96.2,99.9,96.1,99.9,96 M99.4,97.2c0,0,0,0.1,0,0.1 c0.3,0.1,0.6,0.1,1,0.1c-0.1-0.2-0.1-0.4-0.2-0.6C99.9,96.9,99.6,97,99.4,97.2 M108.9,95.8c0.1-0.1,0.3-0.3,0.4-0.4 c0.1,0.1,0.3,0.3,0.4,0.4c-0.1,0.1-0.2,0.3-0.4,0.4C109.2,96.2,109,96,108.9,95.8 M109.9,95.8c0.1-0.1,0.3-0.3,0.4-0.4 c0.1,0.1,0.3,0.3,0.4,0.4c-0.1,0.1-0.3,0.3-0.5,0.4C110.1,96.1,110,96,109.9,95.8 M128,95.5c0.6,0.3,1,0.8,1.3,1.3 c0.1,0.4,0.2,0.8,0,1.1c-0.2,0.4-0.7,0.6-1.1,0.6c-0.3,0-0.8,0-1-0.2c-0.3-0.3-0.3-0.9,0-1.3c0.1,0,0.1,0.1,0.2,0.1 c0,0.2,0.1,0.5,0.3,0.5c0.4,0.1,0.9,0,1.4-0.1c0-0.3-0.2-0.6-0.5-0.8c-0.2-0.2-0.4-0.3-0.7-0.4C127.8,96,127.9,95.8,128,95.5 M81.6,96.6c0.1-0.2,0.3-0.3,0.5-0.5c0.1,0.1,0.3,0.3,0.4,0.4c-0.1,0.2-0.3,0.3-0.5,0.5C81.9,96.9,81.7,96.7,81.6,96.6 M119.9,96.1 c0.2,0.1,0.3,0.3,0.5,0.5c-0.2,0.1-0.3,0.3-0.5,0.5c-0.1-0.1-0.3-0.3-0.4-0.5C119.6,96.4,119.8,96.2,119.9,96.1 M95.8,96.9 c0.1-0.2,0.2-0.4,0.4-0.6c0.2,0.1,0.2,0.3,0.3,0.5c0.1,0.5,0.1,1-0.2,1.5c-0.1,0.2-0.4,0.3-0.7,0.3c-0.3,0-0.5-0.2-0.6-0.4 c-0.2,0.2-0.4,0.5-0.7,0.4c-0.3,0-0.5-0.2-0.7-0.4c-0.4,0.6-1.2,0.5-1.8,0.4c0,0.7-0.3,1.4-0.9,1.8c-0.4,0-0.8,0-1.2-0.1l-0.1,0 c-0.1,0-0.2,0-0.3-0.1c0.5-0.3,1-0.5,1.4-0.9c0.2-0.2,0.5-0.5,0.5-0.8c-0.1-0.3-0.4-0.5-0.6-0.8c0.1-0.3,0.3-0.5,0.4-0.8 c0.2,0.2,0.4,0.5,0.6,0.6c0.2,0.1,0.5,0.1,0.7,0.2c0.2,0,0.5,0,0.7-0.2c0.1-0.2,0.1-0.4,0.3-0.6c0.1-0.1,0.1-0.1,0.2,0 c0.1,0.2,0.1,0.5,0.3,0.7c0.2,0.1,0.6,0.1,0.7-0.2c0.1-0.2,0.1-0.5,0.3-0.6c0.3,0.2,0.1,0.6,0.4,0.8c0.2,0,0.4,0,0.6,0 c0-0.1,0.1-0.1,0.1-0.2C96.1,97.2,95.9,97.1,95.8,96.9 M82.9,97.8c0.1-0.3,0.2-0.6,0.4-0.8c0.5,0.6,0.8,1.4,0.6,2.2 c-0.1,0.5-0.5,1-1,1.1c-0.5,0.1-1,0.1-1.5,0.1c-0.5-0.1-0.9-0.4-1.1-0.9c-0.1-0.3-0.1-0.7,0-1c0.1-0.3,0.2-0.6,0.4-0.8 c0.1,0,0.2,0,0.2,0c0,0.4-0.3,0.8-0.2,1.3c0,0.4,0.4,0.5,0.7,0.6c0.6,0,1.3,0.1,1.8-0.3c0.2-0.1,0.2-0.4,0.1-0.5 C83.3,98.3,83.1,98,82.9,97.8 M121.1,97c0,0,0.1,0,0.1,0c0.5,0.7,0.7,1.5,0.5,2.3c-0.1,0.5-0.5,0.8-0.9,0.9c-0.5,0.1-1,0.1-1.5,0.1 c-0.6,0-1.2-0.6-1.2-1.2c0-0.5,0.2-1,0.4-1.5c0.1,0,0.2,0,0.3,0c0,0.3-0.2,0.6-0.2,0.9c0,0.3,0.1,0.5,0.3,0.7 c0.3,0.2,0.7,0.2,1,0.2c0.5,0,0.9-0.1,1.3-0.3c0.2-0.1,0.2-0.4,0.1-0.6c-0.1-0.3-0.3-0.6-0.6-0.8C120.9,97.5,121,97.2,121.1,97 M101.7,99.6c0.1-0.2,0.3-0.3,0.5-0.5c0.2,0.1,0.3,0.3,0.5,0.5c-0.2,0.1-0.3,0.3-0.5,0.5C102,100,101.9,99.8,101.7,99.6 M111.7,99.6c0.2-0.1,0.3-0.3,0.5-0.4c0.2,0.1,0.3,0.3,0.5,0.5c-0.2,0.1-0.3,0.3-0.5,0.5C112,100,111.9,99.8,111.7,99.6"></path> </g> </svg>