<svg xmlns="http://www.w3.org/2000/svg" xmlns:xlink="http://www.w3.org/1999/xlink" id="Layer_1" x="0px" y="0px" width="150px" height="150px" viewBox="0 0 150 150" style="enable-background:new 0 0 150 150;" xml:space="preserve"> <rect style="fill:#FFFFFF;" width="150" height="150"></rect> <g> <path d="M55.9,62.2c0.1-0.1,0.2-0.1,0.3-0.1C56.1,62.1,56,62.1,55.9,62.2z M55.9,62.2c0,0-0.1,0.1-0.1,0.2 C55.8,62.3,55.8,62.3,55.9,62.2z"></path> <path style="fill:#6EB536;" d="M129.2,70v6.7c0,3.1-3.5,7.9-7.7,7.9h-8.8c-0.3,0-0.5-0.2-0.5-0.5l0-4c0-0.3,0.2-0.5,0.5-0.5 l7.9-0.1c1.5,0,3.6-1.9,3.7-4.1v-4.3c0-2.3-2.1-4.1-3.7-4.1l-7.9-0.1c-0.3,0-0.5-0.2-0.5-0.5l0-4c0-0.3,0.2-0.5,0.5-0.5h8.8 C125.7,62,129.2,66.9,129.2,70z"></path> <path style="fill:#6EB536;" d="M101.7,62.6v13.5c0,3.1-3.5,7.9-7.7,7.9h-4.8c-2.1,0-4.1-0.9-5.5-2.3c-1.3,1.4-3.1,2.3-5,2.3H74 c-2,0-3.9-0.8-5.3-2.1c-1.3,1.3-3.1,2.1-5.1,2.1c-2.1,0.1-4-0.7-5.4-2.1c-1.3,1.2-3.1,2-5.1,2.1c-1.4,0-2.7-0.3-3.9-0.9 C48,85.6,45.4,88,42.4,88h-21c-0.3,0-0.5-0.2-0.5-0.5l0-3.9c0-0.3,0.2-0.5,0.5-0.5L41.5,83c1.5,0,3.6-1.9,3.7-4.1v-2.3 c0-0.2,0-0.3,0-0.5V62.6c0-0.3,0.2-0.5,0.5-0.5h4c0.3,0,0.5,0.2,0.5,0.5v13.6c0,1.6,1.3,3,3,2.9c1.4-0.1,2.6-1.3,2.6-2.8V62.6 c0-0.1,0-0.1,0-0.2c0-0.1,0.1-0.1,0.1-0.2c0,0,0,0,0,0c0.1-0.1,0.2-0.1,0.3-0.1c0,0,0,0,0,0h3.9c0.3,0,0.5,0.2,0.5,0.5v13.6 c0,0.2,0,0.3,0,0.5c0.2,1.4,1.5,2.4,2.9,2.3c1.4-0.1,2.6-1.3,2.6-2.8V62.6c0-0.3,0.2-0.5,0.5-0.5h4c0.3,0,0.5,0.2,0.5,0.5v12.3 c0,2.3,2.1,4.1,3.7,4.1l1.4,0l1.4,0c1.5,0,3.6-1.9,3.7-4.1V62.6c0-0.1,0.1-0.3,0.2-0.4c0.1-0.1,0.2-0.2,0.4-0.2h3.9 c0.1,0,0.3,0.1,0.4,0.2c0.1,0.1,0.2,0.2,0.2,0.4v12.3c0,2.3,2.1,4.1,3.7,4.1l1.5,0l1.5,0c1.5,0,3.6-1.9,3.7-4.1V62.6 c0-0.3,0.2-0.5,0.5-0.5h3.9C101.4,62.1,101.7,62.3,101.7,62.6z"></path> <path style="fill:#6EB536;" d="M107.1,84.6L107.1,84.6c-1.4,0-2.5-1.1-2.5-2.5V52.9c0-1.4,1.1-2.5,2.5-2.5l0,0 c1.4,0,2.5,1.1,2.5,2.5v29.2C109.6,83.5,108.4,84.6,107.1,84.6z"></path> <circle style="fill:#6EB536;" cx="80.3" cy="88.5" r="3.3"></circle> <circle style="fill:#6EB536;" cx="87.6" cy="88.5" r="3.3"></circle> <circle style="fill:#6EB536;" cx="91" cy="57.4" r="3.3"></circle> <circle style="fill:#6EB536;" cx="98.3" cy="57.4" r="3.3"></circle> <g> <path d="M23.9,98.8c0.2,0,0.4,0,0.6-0.1c0.2-0.1,0.4-0.1,0.5-0.2c0.1-0.1,0.3-0.2,0.3-0.3c0.1-0.1,0.1-0.3,0.1-0.4 c0-0.1,0-0.3-0.1-0.3c-0.1-0.1-0.2-0.1-0.4-0.1h-1.5v-1.5c0-0.2,0-0.4,0.1-0.6c0.1-0.2,0.2-0.3,0.3-0.5c0.1-0.1,0.3-0.2,0.5-0.3 c0.2-0.1,0.4-0.1,0.6-0.1h1l0,0.7h-1c-0.2,0-0.4,0.1-0.5,0.2c-0.1,0.1-0.2,0.3-0.2,0.5v0.8H25c0.2,0,0.4,0,0.5,0.1 c0.1,0.1,0.3,0.1,0.3,0.2c0.1,0.1,0.1,0.2,0.2,0.3c0,0.1,0.1,0.3,0.1,0.4c0,0.3-0.1,0.5-0.2,0.8c-0.1,0.2-0.3,0.4-0.5,0.6 c-0.2,0.2-0.4,0.3-0.7,0.4c-0.3,0.1-0.5,0.1-0.9,0.1h-0.7c-0.6,0-1.1-0.2-1.5-0.6c-0.4-0.4-0.5-0.9-0.5-1.6v-1.5h0.7v1.5 c0,0.4,0.1,0.8,0.3,1.1c0.2,0.3,0.6,0.4,1.1,0.4H23.9z"></path> <path d="M26.3,98.8h0.1c0.3,0,0.5,0,0.7-0.1c0.2-0.1,0.3-0.2,0.5-0.3c0.1-0.1,0.2-0.3,0.3-0.5c0.1-0.2,0.1-0.4,0.1-0.5v-2.3h0.7 v2.3c0,0.3-0.1,0.6-0.2,0.9c-0.1,0.3-0.2,0.5-0.4,0.7c-0.2,0.2-0.4,0.3-0.6,0.5c-0.2,0.1-0.5,0.2-0.8,0.2h-0.2L26.3,98.8z"></path> <path d="M29.7,92.2h0.7v5.3h-0.7V92.2z"></path> <path d="M34.6,95.4c0.1,0.2,0.3,0.3,0.3,0.5c0.1,0.2,0.1,0.3,0.1,0.5c0,0.2,0,0.3-0.1,0.4c-0.1,0.1-0.1,0.2-0.2,0.3 c-0.1,0.1-0.2,0.2-0.4,0.2c-0.2,0.1-0.3,0.1-0.5,0.1h-2.3l0-0.7h2.3c0.2,0,0.3,0,0.4-0.1c0.1-0.1,0.1-0.2,0.1-0.3 c0-0.1-0.1-0.3-0.2-0.4l-1.5-1.7l0.5-0.5L34.6,95.4z"></path> <path d="M36.2,92.2h0.7v5.3h-0.7V92.2z"></path> <path d="M45.1,97.3c0,0.3,0,0.6-0.1,0.9c-0.1,0.3-0.2,0.5-0.4,0.7c-0.2,0.2-0.4,0.4-0.7,0.5c-0.3,0.1-0.6,0.2-0.9,0.2h-0.5 c-0.6,0-1.1-0.2-1.5-0.6c-0.4-0.4-0.5-0.9-0.5-1.6v-1.5h0.7v1.5c0,0.4,0.1,0.8,0.3,1.1c0.2,0.3,0.6,0.4,1.1,0.4h0.4 c0.3,0,0.5,0,0.7-0.1c0.2-0.1,0.3-0.2,0.5-0.3c0.1-0.1,0.2-0.3,0.3-0.5c0.1-0.2,0.1-0.4,0.1-0.6v-2.3h0.7V97.3z M43,94.9h-0.8 v-0.7H43V94.9z"></path> <path d="M65.2,98.5v0.7h0.8v-0.7H65.2z"></path> <path d="M70.6,95.3c-0.1-0.2-0.1-0.4-0.3-0.5c-0.1-0.1-0.3-0.2-0.4-0.3c-0.2-0.1-0.4-0.1-0.6-0.1c-0.4,0-0.8,0.1-1.1,0.4 c-0.3,0.3-0.4,0.7-0.4,1.1v0.3c0,0.4-0.2,0.5-0.6,0.5h-0.3c-0.1,0-0.2,0-0.3,0c-0.1,0-0.2-0.1-0.2-0.1c-0.1,0-0.1-0.1-0.1-0.2 c0-0.1-0.1-0.2-0.1-0.3v-1.1h-0.7v1.1c0,0.4-0.2,0.6-0.7,0.6h-2.2c-0.1,0-0.2,0-0.3,0c-0.1,0-0.2-0.1-0.2-0.1 c-0.1,0-0.1-0.1-0.1-0.2c0-0.1-0.1-0.2-0.1-0.3v-3.9h-0.7v3.9c0,0.4-0.2,0.6-0.7,0.6h-0.3c-0.2,0-0.3,0-0.4-0.1 c-0.1-0.1-0.2-0.3-0.2-0.5v-0.2c0-0.2,0-0.4-0.1-0.6c-0.1-0.2-0.1-0.3-0.3-0.5c-0.1-0.1-0.3-0.2-0.4-0.3c-0.2-0.1-0.4-0.1-0.6-0.1 c-0.4,0-0.8,0.1-1.1,0.4c-0.3,0.3-0.4,0.7-0.4,1.1v0.3c0,0.4-0.2,0.5-0.6,0.5h-8.7c-0.2,0-0.4-0.1-0.4-0.2 c-0.1-0.1-0.1-0.3-0.1-0.5v-3.8h-0.7v4c0,0.3,0,0.5,0.1,0.6c0.1,0.2,0.1,0.3,0.3,0.4c0.1,0.1,0.2,0.2,0.4,0.2 c0.1,0,0.3,0.1,0.4,0.1h8.8c0.1,0,0.2,0,0.3,0c0.1,0,0.2,0,0.3-0.1c0.1,0,0.2-0.1,0.2-0.2c0.1-0.1,0.1-0.2,0.2-0.3 c0.1,0.2,0.3,0.4,0.5,0.4c0.2,0.1,0.4,0.1,0.6,0.1c0.2,0,0.4,0,0.6-0.1c0.2-0.1,0.4-0.2,0.5-0.5c0.1,0.1,0.1,0.2,0.2,0.3 c0.1,0.1,0.2,0.1,0.2,0.2c0.1,0,0.2,0.1,0.3,0.1c0.1,0,0.2,0,0.3,0h0.3c0.2,0,0.4,0,0.5-0.1c0.2-0.1,0.3-0.2,0.5-0.4 c0.1,0.2,0.3,0.4,0.4,0.4c0.2,0.1,0.4,0.1,0.6,0.1h2.2c0.2,0,0.4,0,0.5-0.1c0.2-0.1,0.3-0.2,0.4-0.4c0.1,0.2,0.3,0.4,0.4,0.4 c0.2,0.1,0.4,0.1,0.6,0.1h0.4c0.1,0,0.2,0,0.3,0c0.1,0,0.2,0,0.3-0.1c0.1,0,0.2-0.1,0.2-0.2c0.1-0.1,0.1-0.2,0.2-0.3 c0.1,0.2,0.3,0.4,0.5,0.4c0.2,0.1,0.4,0.1,0.7,0.1c0.4,0,0.8-0.1,1.1-0.4c0.3-0.3,0.4-0.7,0.4-1.2C70.7,95.7,70.7,95.5,70.6,95.3z M58.8,96.6c-0.1,0.1-0.3,0.2-0.6,0.2c-0.2,0-0.4-0.1-0.5-0.2c-0.1-0.1-0.2-0.3-0.2-0.6c0-0.3,0.1-0.5,0.2-0.6 c0.1-0.2,0.3-0.2,0.6-0.2c0.3,0,0.5,0.1,0.6,0.2C59,95.5,59,95.7,59,96C59,96.2,59,96.4,58.8,96.6z M69.9,96.6 c-0.1,0.1-0.3,0.2-0.6,0.2c-0.2,0-0.4-0.1-0.5-0.2c-0.1-0.1-0.2-0.3-0.2-0.6c0-0.3,0.1-0.5,0.2-0.6c0.1-0.2,0.3-0.2,0.6-0.2 c0.3,0,0.5,0.1,0.6,0.2C70,95.5,70,95.7,70,96C70,96.2,70,96.4,69.9,96.6z"></path> </g> </g> </svg>