<svg xmlns="http://www.w3.org/2000/svg" xmlns:xlink="http://www.w3.org/1999/xlink" id="Layer_1" x="0px" y="0px" width="150px" height="150px" viewBox="0 0 150 150" style="enable-background:new 0 0 150 150;" xml:space="preserve"> <rect style="fill:#FFFFFF;" width="150" height="150"></rect> <g> <radialGradient id="SVGID_1_" cx="399.3963" cy="-266.9473" r="18.1499" gradientTransform="matrix(1 0 0 1 0 212)" gradientUnits="userSpaceOnUse"> <stop offset="0" style="stop-color:#FFFFFF"></stop> <stop offset="8.800000e-02" style="stop-color:#FBE8E2"></stop> <stop offset="0.3436" style="stop-color:#ECA996"></stop> <stop offset="0.5717" style="stop-color:#E0725F"></stop> <stop offset="0.7639" style="stop-color:#D9483D"></stop> <stop offset="0.9127" style="stop-color:#D32E2C"></stop> <stop offset="1" style="stop-color:#D12027"></stop> </radialGradient> <path style="fill-rule:evenodd;clip-rule:evenodd;fill:url(#SVGID_1_);" d="M411.9-61.8l-16.2,9.5c-4.2,1.7-3.3,6.3-3.3,6.3l0,0 l-0.1,34.8l8.7-5c-4.5-17.1,10.9-20,10.9-20l0,0v-13.6c0.2-4.2,3.3-1.6,3.3-1.6l0,0L436.6-39l-0.1-6.7c0.1-5.6-3.1-6.4-3.1-6.4l0,0 l-16.5-9.7c-0.9-0.7-1.7-0.9-2.5-0.9C413-62.7,411.9-61.8,411.9-61.8L411.9-61.8z"></path> <path style="fill:#A92517;" d="M391.1-9.1l0.1-36.7c-0.3-2,0.1-5.8,4-7.5l16-9.5c1.1-0.9,3.8-1.9,6.4,0l16.3,9.6 c0.8,0.3,3.9,1.8,3.8,7.5l0.2,8.7l-23.3-13.4l-0.1-0.1c-0.4-0.3-0.9-0.6-1.1-0.5c0,0-0.2,0.3-0.3,1.3v14.6l-1,0.2 c-0.1,0-5.9,1.2-8.9,6c-2,3.3-2.4,7.5-1.1,12.5l0.2,0.9L391.1-9.1z M414.4-61.5c-1,0-1.7,0.5-1.8,0.6l-0.1,0.1l-16.3,9.6l-0.1,0 c-3.2,1.3-2.6,4.8-2.6,5l0,0.2l-0.1,32.8l6.2-3.5c-1.2-5.3-0.7-9.8,1.6-13.5c2.8-4.5,7.5-6.2,9.5-6.8v-12.8 c0.1-1.8,0.7-2.9,1.7-3.4c1.4-0.6,3,0.5,3.4,0.8l19.5,11.2l-0.1-4.6v0c0.1-4.4-2.2-5.2-2.3-5.2l-0.2,0l-0.1-0.1l-16.6-9.8 C415.5-61.3,414.9-61.5,414.4-61.5z"></path> <path style="fill-rule:evenodd;clip-rule:evenodd;fill:#D22339;" d="M416.3-45.7l30.4,17.6c0,0,4.5,1.6,3.9,6.1l0.3,18.7 c0,0,0.6,3-2.5,4.3l-16.6,9.3c0,0-2.4,2.4-7.2-0.5l-5.9-3.3l21.4-12.3c0,0,3.8-1.3,0.2-3.7l-11.9-6.9c0,0,5.1-14.7-12-19.4 L416.3-45.7z"></path> <path style="fill:#A92517;" d="M429,12.4c-1.3,0-3-0.4-5-1.6l-7.7-4.3l23.3-13.3l0.1,0c0.4-0.2,0.9-0.5,1-0.6c0-0.1-0.2-0.4-1-0.9 L427-15.8l0.3-0.9c0,0,1.9-5.6-0.8-10.6c-1.8-3.4-5.3-5.9-10.5-7.3l-0.9-0.2l-0.1-12.9l32.1,18.6c1.9,0.7,5,3,4.5,7.2l0.3,18.6 c0.2,1.4-0.2,4.2-3.1,5.5l-16.5,9.2C432.1,11.6,430.9,12.4,429,12.4z M421.2,6.5l4.1,2.3c3.9,2.3,5.7,0.8,5.7,0.7l0.1-0.1l0.1-0.1 L448-0.1c2.1-0.9,1.8-2.8,1.8-3l0-0.2l-0.3-18.8l0-0.1c0.5-3.5-3-4.7-3.1-4.8l-0.2-0.1l-28.6-16.6l0.1,7c5.3,1.6,9,4.4,11.1,8.3 c2.5,4.7,1.7,9.5,1.2,11.5l11.2,6.5c1.5,1,2.2,2.1,2,3.2c-0.2,1.6-1.9,2.3-2.4,2.5L421.2,6.5z"></path> <path style="fill-rule:evenodd;clip-rule:evenodd;fill:#D22339;" d="M434.6-7.5L404,9.8c0,0-3.6,3-7.2,0.3l-16.3-9.2 c0,0-2.9-1.1-2.5-4.3l0.5-19.1c0,0-0.9-3.3,4-5.9l5.8-3.4l-0.3,24.6c0,0-0.8,4,3.1,2l12-6.8c0,0,10.1,11.9,22.9-0.5L434.6-7.5z"></path> <path style="fill:#A92517;" d="M400.1,12.4c-1.2,0-2.6-0.4-3.9-1.3L380,2c-1.3-0.5-3.5-2.3-3.1-5.5l0.5-18.9 c-0.2-0.9-0.3-4.4,4.7-7l7.6-4.5l-0.3,26.9l0,0.1c-0.1,0.4-0.1,1,0.1,1.2h0c0.1,0,0.5,0,1.3-0.4l12.8-7.3l0.6,0.8 c0,0,3.9,4.5,9.6,4.7c3.9,0.2,7.8-1.6,11.6-5.3l0.6-0.6L437-7.5l-32.3,18.2C403.7,11.5,402,12.4,400.1,12.4z M387.1-29.8l-4,2.4 c-4,2.1-3.5,4.5-3.5,4.6l0,0.2v0.2l-0.5,19.2c-0.3,2.2,1.5,3,1.7,3.1l0.2,0.1l16.4,9.3l0.1,0c2.7,2.1,5.6-0.2,5.7-0.3l0.2-0.1 l28.8-16.3l-6.1-3.5c-4.1,3.7-8.4,5.6-12.7,5.3c-5.3-0.3-9.1-3.4-10.6-4.8l-11.3,6.4c-1.6,0.8-2.9,0.9-3.8,0.2 c-1.2-1-1-2.8-0.9-3.4L387.1-29.8z"></path> <linearGradient id="SVGID_00000085939517610425941320000016805818288725496456_" gradientUnits="userSpaceOnUse" x1="425.0119" y1="-222.425" x2="402.515" y2="-245.7212" gradientTransform="matrix(1 0 0 1 0 212)"> <stop offset="0" style="stop-color:#FFD785"></stop> <stop offset="8.000000e-02" style="stop-color:#FFD785"></stop> <stop offset="0.49" style="stop-color:#FFD356"></stop> <stop offset="1" style="stop-color:#FFD30F"></stop> </linearGradient> <path style="fill-rule:evenodd;clip-rule:evenodd;fill:url(#SVGID_00000085939517610425941320000016805818288725496456_);" d=" M404-21.4c0,5.8,4.7,10.4,10.4,10.4c5.8,0,10.4-4.7,10.4-10.4l0,0c0-5.8-4.7-10.4-10.4-10.4C408.7-31.8,404-27.1,404-21.4z"></path> <path style="fill:#F49C1D;" d="M414.4-9.6c-6.5,0-11.8-5.3-11.8-11.8c0-6.5,5.3-11.8,11.8-11.8c6.5,0,11.8,5.3,11.8,11.8 S420.9-9.6,414.4-9.6z M414.4-30.4c-5,0-9,4-9,9c0,5,4,9,9,9c5,0,9-4,9-9S419.4-30.4,414.4-30.4z"></path> </g> <g> <path style="fill-rule:evenodd;clip-rule:evenodd;fill:#625F5E;" d="M400.4,33.2c0,1.5,0,3,0,4.5c1.5,0,3,0,4.5,0 c0.5,0,1-0.4,0.9-0.9c0-1.2,0-2.4,0-3.6c0-0.5-0.4-1-0.9-0.9c-1.2,0-2.4,0-3.6,0C400.8,32.2,400.4,32.7,400.4,33.2L400.4,33.2z M387.6,22.9c0.9-0.7,2.2-0.8,3.3-0.8c0,4.6,0,9.1,0,13.6c0,1,0.8,1.8,1.8,1.8c0.8,0,1.7,0,2.5,0c0.5,0,0.9-0.5,0.9-0.9 c0-0.9,0-1.9,0-2.8c0-0.4,0-0.9,0-1.2c0-0.1,0.1-0.1,0.1-0.2c0.2-1.2,1.1-2.3,2.2-2.8c0.5-0.3,1.1-0.3,1.7-0.3c1.7,0,3.4,0,5.1,0 c0.7,0,1.4,0,2.1,0.1c1.5,0.4,2.7,1.7,2.9,3.3c0.1,0.7,0,1.4,0,2.2s0,1.5,0,2.2c-0.1,1.2-0.8,2.4-1.9,3.1c-0.6,0.4-1.3,0.6-2.1,0.6 c-1.2,0-2.4,0-3.6,0c-1.1,0-2.2-0.3-2.9-1.1c-0.6,0.7-1.5,1.1-2.4,1.1c-2,0-3.9,0-5.9,0c-1,0-2.1-0.4-2.8-1.1c-0.6,0.5-1.2,0.8-2,1 c-0.4,0.1-0.9,0.1-1.2,0.1c-1.1,0-2.2,0-3.3,0c-1,0-2-0.4-2.7-1.1c-0.8,0.6-1.7,1.1-2.7,1.1c-5.3,0-10.7,0-16,0 c-0.6,0-1.3-0.2-1.9-0.5l0,0c-1-0.6-1.7-1.5-2-2.6v-0.1c0-0.1,0-0.2,0-0.2c0-0.3,0-0.7,0-1c0-2.4,0-4.7,0-7.1 c1.1,0,2.4,0.2,3.3,0.9c0.6,0.5,1,1.2,1.1,1.9c0,1,0,2,0,3c0,0.3,0,0.5,0,0.8c0.1,0.9,0.9,1.7,1.8,1.7c3.9,0,7.8,0,11.6,0 c0.3,0,0.6,0,0.8-0.1c0.7-0.2,1.3-0.9,1.3-1.7c0-0.7,0-1.4,0-2.1c0-0.8,0-1.6,0.2-2.3c0.3-0.9,1-1.5,1.8-1.8 c0.8-0.3,1.6-0.3,2.5-0.3c0,1.9,0,3.8,0,5.7c0,0.9-0.1,1.8-0.5,2.7c1.3,0,2.6,0,3.9,0c1,0,1.8-0.9,1.8-1.9c0-3.4,0-6.7,0-10.1 c0-0.3,0-0.5,0-0.8c0-0.1,0.1-0.1,0.1-0.2C386.6,24,387.1,23.4,387.6,22.9z"></path> <path style="fill-rule:evenodd;clip-rule:evenodd;fill:#625F5E;" d="M439.6,23.4c0.6-0.8,1.6-1.1,2.6-1.2c0.4,0,0.8,0,1.2,0 c0,4.3,0,8.6,0,12.9c0,0.5,0,1.1,0.2,1.5c0.3,0.6,1,1.1,1.7,1.1c1,0,2.1,0,3.1,0c0.5,0,0.9-0.4,0.9-0.8c0.1-0.3,0-0.6,0-0.9 c0-1.3,0-2.6,0-3.8c0.1-0.7,0.4-1.4,1-1.9c0.5-0.4,1.1-0.7,1.7-0.7c0.1,0,0.2,0,0.2,0c0.5-0.1,1-0.1,1.5-0.1c0,2.5,0,4.9,0,7.4 c0,0.6-0.1,1.2-0.3,1.8c-0.6,1.4-2,2.4-3.5,2.4c-2.1,0-4.1,0-6.2,0c-1,0-2-0.4-2.6-1c-0.1-0.1-0.1-0.1-0.2,0c-0.8,0.6-1.7,1-2.8,1 c-4.9,0-9.9,0-14.8,0c-0.5,0-1.1,0-1.6-0.1c-1.3-0.3-2.4-1.3-2.8-2.6c-0.2-0.5-0.2-1-0.2-1.5c0-2.4,0-4.8,0-7.3 c1.1,0,2.2,0.2,3.1,0.8c0.7,0.5,1.2,1.2,1.3,2.1c0,1.1,0,2.2,0,3.2c0,0.2,0,0.3,0,0.6c0.1,0.9,0.9,1.7,1.8,1.7c3.8,0,7.6,0,11.4,0 c0.4,0,0.8,0,1.1-0.1c0.6-0.2,1-0.8,1.1-1.4c0.1-0.4,0.1-0.9,0.1-1.3c0-3.3,0-6.6,0-9.9C439,24.4,439.2,23.8,439.6,23.4z"></path> <path style="fill-rule:evenodd;clip-rule:evenodd;fill:#625F5E;" d="M457.4,22.2c0.8,0,1.5,0,2.3,0.2c0.9,0.3,1.7,0.9,2,1.7 c0.3,0.7,0.3,1.4,0.3,2.2c0,3.1,0,6.3,0,9.4c0,0.7,0.4,1.5,1.1,1.8c0.4,0.2,0.9,0.2,1.4,0.2c0.8,0,1.7,0,2.5,0 c0.2,0,0.4-0.1,0.6-0.2c0.1,0,0.1-0.1,0.2-0.2c0-0.2,0.1-0.3,0.2-0.5c0.1-0.4,0-0.8,0-1.2c0-1.2,0-2.4,0-3.7 c0.1-1.4,1.4-2.4,2.7-2.6c0.1,0,0.2,0,0.2,0c0.1,0,0.2,0,0.3,0c0.4,0,0.8,0,1.1,0c0.1,0,0.1,0.2,0.1,0.3c0,2.4,0,4.8,0,7.3 c0,1.1-0.5,2.1-1.2,2.8H471c-0.1,0-0.2,0-0.2,0.2v0c-0.7,0.6-1.6,0.9-2.5,0.9c-2.4,0-4.6,0-7,0c-0.8,0-1.5-0.2-2.2-0.6 c-1.1-0.7-1.7-2-1.7-3.2C457.4,32,457.4,27.1,457.4,22.2z"></path> <path style="fill-rule:evenodd;clip-rule:evenodd;fill:#625F5E;" d="M448.2,23.4c0.3-0.2,0.6-0.1,0.8,0.1c0.7,0.7,1.3,1.3,2,2 c0.2,0.2,0.2,0.6,0,0.9c-0.7,0.7-1.3,1.3-2,2c-0.3,0.3-0.7,0.3-0.9,0c-0.6-0.6-1.3-1.3-1.9-1.9c-0.2-0.1-0.3-0.3-0.3-0.6 c0-0.3,0.3-0.5,0.5-0.7C447,24.6,447.5,24,448.2,23.4z"></path> <path style="fill-rule:evenodd;clip-rule:evenodd;fill:#625F5E;" d="M366.2,25.4c0.1-0.1,0.3-0.3,0.6-0.3c0.3,0,0.4,0.2,0.6,0.3 c0.6,0.6,1.1,1.1,1.7,1.7c0.6-0.5,1.1-1.1,1.6-1.6c0.2-0.2,0.4-0.4,0.7-0.5c0.2,0,0.4,0.1,0.6,0.3c0.6,0.6,1.3,1.3,2,2 c0.3,0.2,0.3,0.6,0,0.9c-0.7,0.7-1.4,1.4-2.1,2.1c-0.2,0.3-0.6,0.2-0.9,0c-0.6-0.6-1.2-1.2-1.8-1.8c0,0,0-0.1,0-0.1 c0,0,0,0.1-0.1,0.1c-0.6,0.6-1.2,1.2-1.8,1.8c-0.3,0.3-0.7,0.3-0.9,0c-0.7-0.7-1.3-1.3-2-2c-0.3-0.2-0.3-0.6,0-0.9 C364.9,26.7,365.6,26.1,366.2,25.4z"></path> <path style="fill-rule:evenodd;clip-rule:evenodd;fill:#625F5E;" d="M429.9,25.9c0.4-0.3,0.9-0.3,1.3-0.3c0.5,0,0.9,0,1.4,0 c-0.3,0.6-0.6,1.2-0.9,1.9c0.3,0,0.7,0,1.1,0c0.3,0.1,0.6,0.5,0.6,0.9c0,0.5-0.3,0.9-0.4,1.3c-0.2,0.3-0.3,0.7-0.5,1 c-0.3,0.3-0.6,0.5-1.1,0.5c-0.6,0-1.3,0-2,0c0.3-0.6,0.6-1.2,0.9-1.8c0,0,0-0.1,0-0.1c-0.4,0-0.7,0-1.1,0c-0.3-0.1-0.6-0.5-0.6-0.9 c0-0.5,0.2-0.9,0.4-1.2C429.3,26.7,429.5,26.2,429.9,25.9z"></path> <path style="fill-rule:evenodd;clip-rule:evenodd;fill:#625F5E;" d="M464.6,42.3c0.2-0.3,0.7-0.3,0.9,0c0.7,0.7,1.3,1.3,2,2 c0.3,0.2,0.3,0.7,0,0.9c-0.6,0.6-1.3,1.3-2,2c-0.2,0.2-0.4,0.3-0.6,0.3c-0.2,0-0.4-0.2-0.5-0.3c-0.6-0.6-1.2-1.2-1.9-1.9l0,0 c-0.2-0.3-0.2-0.6,0.1-0.9C463.2,43.7,463.9,43,464.6,42.3z"></path> </g> <g> <g> <path d="M31.8,106.6c0,0.5-0.1,1-0.3,1.4s-0.4,0.9-0.7,1.2c-0.3,0.3-0.7,0.6-1.1,0.8c-0.4,0.2-0.9,0.3-1.4,0.3h-1l-0.1-2h0.6 c0.4,0,0.8-0.1,1-0.2c0.3-0.1,0.5-0.2,0.7-0.4c0.2-0.2,0.3-0.4,0.4-0.6c0.1-0.2,0.1-0.4,0.1-0.7v-4.1h1.9v1.5 c0,0.3,0.1,0.5,0.3,0.6c0.2,0.1,0.4,0.2,0.6,0.2h0.2c0.2,0,0.3,0.3,0.3,1c0,0.7-0.1,1-0.3,1h-0.2c-0.2,0-0.3,0-0.5-0.1 s-0.3-0.2-0.5-0.3V106.6z M31.9,100.9h-1.9v-1.8h1.9V100.9z"></path> <path d="M35.3,104.8c0.1,0,0.2,0.1,0.3,0.2s0.1,0.4,0.1,0.7c0,0.4,0,0.6-0.1,0.8c0,0.2-0.1,0.2-0.3,0.2h-2.4 c-0.1,0-0.2-0.1-0.3-0.2s-0.1-0.4-0.1-0.7c0-0.4,0-0.6,0.1-0.8c0-0.2,0.1-0.2,0.3-0.2H35.3z"></path> <path d="M36.3,104.8c0.3,0,0.5-0.1,0.6-0.2c0.1-0.1,0.2-0.3,0.2-0.6v-1.5h1.9v1.5c0,0.3,0.1,0.5,0.3,0.6c0.2,0.1,0.4,0.2,0.7,0.2 h0.3c0.2,0,0.3,0.3,0.3,1c0,0.7-0.1,1-0.3,1h-0.4c-0.4,0-0.7-0.1-1-0.2c-0.3-0.1-0.6-0.4-0.8-0.7c-0.3,0.4-0.5,0.6-0.8,0.7 c-0.3,0.1-0.6,0.2-0.9,0.2h-1c-0.1,0-0.2-0.1-0.3-0.2s-0.1-0.4-0.1-0.7c0-0.4,0-0.6,0.1-0.8c0-0.2,0.1-0.2,0.3-0.2H36.3z M38.6,110.2h-1.9v-1.8h1.9V110.2z"></path> <path d="M40.9,104.8c0.5,0,0.8-0.3,0.8-0.8v-1.5h1.8v1.5c0,0.3,0.1,0.5,0.3,0.6c0.2,0.1,0.4,0.2,0.6,0.2c0.3,0,0.6-0.1,0.7-0.2 c0.1-0.1,0.2-0.3,0.2-0.6v-1.5h1.9v1.5c0,0.3,0.1,0.5,0.2,0.6c0.1,0.1,0.3,0.2,0.5,0.2c0.5,0,0.7-0.3,0.7-0.8v-1.5h1.9v1.7 c0,0.9-0.2,1.6-0.6,2s-1,0.7-1.9,0.7c-0.3,0-0.6-0.1-0.9-0.2c-0.3-0.1-0.6-0.4-0.8-0.7c-0.2,0.4-0.5,0.6-0.8,0.7 c-0.3,0.1-0.6,0.2-1,0.2c-0.4,0-0.7-0.1-1-0.2c-0.3-0.1-0.6-0.4-0.8-0.7c-0.2,0.4-0.5,0.6-0.8,0.7s-0.6,0.2-0.9,0.2h-0.7 c-0.1,0-0.2-0.1-0.3-0.2s-0.1-0.4-0.1-0.7c0-0.4,0-0.6,0.1-0.8c0-0.2,0.1-0.2,0.3-0.2H40.9z"></path> <path d="M61.9,106.4c0,0.6-0.1,1.1-0.3,1.6s-0.4,0.9-0.7,1.2c-0.3,0.4-0.7,0.6-1.2,0.8c-0.5,0.2-1,0.3-1.5,0.3h-1 c-1.1,0-1.9-0.3-2.5-1c-0.6-0.7-0.9-1.6-0.9-2.8v-2.7h1.8v2.6c0,0.3,0,0.5,0.1,0.8c0.1,0.2,0.2,0.4,0.3,0.6 c0.1,0.2,0.3,0.3,0.6,0.4c0.2,0.1,0.5,0.1,0.9,0.1h0.6c0.4,0,0.7-0.1,0.9-0.2c0.2-0.1,0.4-0.2,0.6-0.4c0.1-0.2,0.2-0.4,0.3-0.6 c0.1-0.2,0.1-0.5,0.1-0.7v-3.9h1.8V106.4z M58.5,102.3h-1.9v-1.8h1.9V102.3z"></path> <path d="M62.3,108.4h0.2c0.4,0,0.7-0.1,0.9-0.2c0.3-0.1,0.5-0.2,0.6-0.4c0.2-0.2,0.3-0.4,0.4-0.6c0.1-0.2,0.1-0.4,0.1-0.7v-4.1 h1.9v4.1c0,0.5-0.1,1-0.3,1.4s-0.4,0.9-0.7,1.2c-0.3,0.3-0.7,0.6-1.1,0.8c-0.4,0.2-0.9,0.3-1.4,0.3h-0.4L62.3,108.4z M66.1,100.9 h-1.9v-1.8h1.9V100.9z"></path> <path d="M70,106.8c-0.3,0-0.6,0-0.8-0.1s-0.5-0.2-0.7-0.4c-0.2-0.2-0.3-0.4-0.5-0.7c-0.1-0.3-0.2-0.6-0.2-1.1v-6.8h1.9v6.3 c0,0.5,0.2,0.7,0.6,0.7h0.4c0.2,0,0.3,0.3,0.3,1c0,0.7-0.1,1-0.3,1H70z"></path> <path d="M77.3,104.7c0.1,0.1,0.2,0.1,0.4,0.1c0.2,0,0.3,0,0.5,0H79c0.1,0,0.2,0.1,0.3,0.2s0.1,0.4,0.1,0.7c0,0.4,0,0.6-0.1,0.8 c0,0.2-0.1,0.2-0.3,0.2h-0.8c-0.3,0-0.6,0-0.8-0.1c-0.2-0.1-0.4-0.2-0.6-0.3s-0.3-0.3-0.4-0.4c-0.1-0.2-0.2-0.4-0.3-0.6l-1,0.6 c-0.3,0.2-0.6,0.3-0.8,0.4c-0.3,0.1-0.5,0.2-0.8,0.2c-0.3,0.1-0.6,0.1-1,0.1c-0.3,0-0.7,0-1.2,0h-0.4c-0.1,0-0.2-0.1-0.3-0.2 s-0.1-0.4-0.1-0.7c0-0.4,0-0.6,0.1-0.8c0-0.2,0.1-0.2,0.3-0.2h0.5c0.4,0,0.7,0,1,0c0.3,0,0.6,0,0.8-0.1s0.5-0.1,0.7-0.1 s0.4-0.2,0.6-0.3l1.4-0.8c-0.1-0.1-0.1-0.1-0.2-0.2c0-0.1-0.1-0.1-0.2-0.1c-0.1,0-0.2,0-0.2-0.1c-0.1,0-0.2,0-0.4,0h-3l0.1-2h3.2 c0.3,0,0.6,0,0.8,0.1c0.3,0.1,0.5,0.3,0.8,0.5c0.2,0.2,0.5,0.6,0.7,1c0.2,0.4,0.4,1,0.5,1.6L77.3,104.7z M75.4,99.7h-1.9v-1.8h1.9 V99.7z"></path> <path d="M79,104.8c0.3,0,0.5-0.1,0.7-0.2c0.2-0.1,0.3-0.3,0.3-0.6v-0.2c0-0.4,0.1-0.7,0.2-1.1c0.1-0.3,0.3-0.6,0.5-0.8 c0.2-0.2,0.5-0.4,0.8-0.6c0.3-0.1,0.7-0.2,1-0.2c0.4,0,0.8,0.1,1.1,0.2c0.3,0.1,0.6,0.3,0.8,0.6c0.2,0.2,0.4,0.5,0.5,0.9 c0.1,0.3,0.2,0.7,0.2,1.1c0,0.9-0.2,1.6-0.7,2.1s-1.1,0.7-1.8,0.7c-0.4,0-0.7-0.1-1.1-0.2c-0.4-0.2-0.6-0.4-0.8-0.7 c-0.2,0.3-0.4,0.6-0.7,0.7s-0.6,0.2-0.9,0.2H79c-0.1,0-0.2-0.1-0.3-0.2s-0.1-0.4-0.1-0.7c0-0.4,0-0.6,0.1-0.8 C78.7,104.9,78.8,104.8,79,104.8L79,104.8z M83.2,104.1c0-0.2,0-0.4-0.1-0.6c-0.1-0.2-0.3-0.2-0.6-0.2s-0.5,0.1-0.6,0.2 c-0.1,0.2-0.1,0.4-0.1,0.6c0,0.5,0.2,0.7,0.7,0.7S83.2,104.6,83.2,104.1z"></path> <path d="M95.4,104.8c0.3,0,0.5-0.1,0.6-0.2c0.1-0.1,0.2-0.3,0.2-0.6v-1.5H98v1.5c0,0.3,0.1,0.5,0.3,0.6c0.2,0.1,0.4,0.2,0.7,0.2 h0.3c0.1,0,0.2,0.1,0.3,0.2s0.1,0.4,0.1,0.7c0,0.4,0,0.6-0.1,0.8c0,0.2-0.1,0.2-0.3,0.2h-0.4c-0.4,0-0.7-0.1-1-0.2 c-0.3-0.1-0.6-0.4-0.8-0.7c-0.2,0.4-0.5,0.6-0.8,0.7c-0.3,0.1-0.6,0.2-0.9,0.2h-4.7c-0.4,0-0.7-0.1-1-0.2s-0.5-0.3-0.7-0.5 c-0.2-0.2-0.3-0.4-0.4-0.7c-0.1-0.3-0.1-0.6-0.1-0.9v-2.2h1.8v1.7c0,0.1,0,0.2,0,0.3s0.1,0.2,0.1,0.2c0.1,0.1,0.1,0.1,0.2,0.1 c0.1,0,0.3,0,0.4,0H95.4z M93,101.3h-1.8v-1.7H93V101.3z M95.2,101.3h-1.8v-1.7h1.8V101.3z"></path> <path d="M102.8,104.8c0.2,0,0.3,0,0.3-0.1s0.1-0.1,0.1-0.2c0-0.1,0-0.2-0.1-0.3s-0.1-0.2-0.3-0.3l-2.5-2.5v-2.1l4.8-1.8l0.4,1.8 l-3.4,1.2l1.8,1.9c0.2,0.2,0.4,0.5,0.6,0.7c0.2,0.2,0.3,0.4,0.4,0.6c0.1,0.2,0.2,0.4,0.2,0.6c0,0.2,0.1,0.4,0.1,0.6 c0,0.4-0.1,0.7-0.2,0.9c-0.1,0.3-0.3,0.5-0.5,0.6c-0.2,0.2-0.4,0.3-0.7,0.4c-0.3,0.1-0.5,0.1-0.8,0.1h-3.7c-0.1,0-0.2-0.1-0.3-0.2 s-0.1-0.4-0.1-0.7c0-0.4,0-0.6,0.1-0.8c0-0.2,0.1-0.2,0.3-0.2H102.8z"></path> <path d="M108.8,106.6c0,0.5-0.1,1-0.3,1.4c-0.2,0.5-0.4,0.9-0.7,1.2c-0.3,0.3-0.7,0.6-1.1,0.8c-0.4,0.2-0.9,0.3-1.4,0.3h-1l-0.1-2 h0.6c0.4,0,0.8-0.1,1-0.2c0.3-0.1,0.5-0.2,0.7-0.4c0.2-0.2,0.3-0.4,0.4-0.6c0.1-0.2,0.1-0.4,0.1-0.7v-4.1h1.9v1.5 c0,0.3,0.1,0.5,0.3,0.6c0.2,0.1,0.4,0.2,0.6,0.2h0.2c0.2,0,0.3,0.3,0.3,1c0,0.7-0.1,1-0.3,1h-0.2c-0.2,0-0.3,0-0.5-0.1 s-0.3-0.2-0.5-0.3V106.6z"></path> <path d="M112.3,104.8c0.1,0,0.2,0.1,0.3,0.2c0,0.2,0.1,0.4,0.1,0.7c0,0.4,0,0.6-0.1,0.8c0,0.2-0.1,0.2-0.3,0.2h-2.4 c-0.1,0-0.2-0.1-0.3-0.2s-0.1-0.4-0.1-0.7c0-0.4,0-0.6,0.1-0.8c0-0.2,0.1-0.2,0.3-0.2H112.3z"></path> <path d="M113.1,104.8c0.5,0,0.8-0.3,0.8-0.8v-1.5h1.8v1.5c0,0.3,0.1,0.5,0.3,0.6c0.2,0.1,0.4,0.2,0.6,0.2c0.3,0,0.5-0.1,0.7-0.2 c0.1-0.1,0.2-0.3,0.2-0.6v-1.5h1.9v1.5c0,0.3,0.1,0.5,0.2,0.6c0.1,0.1,0.3,0.2,0.5,0.2c0.5,0,0.7-0.3,0.7-0.8v-1.5h1.9v1.7 c0,0.9-0.2,1.6-0.6,2c-0.4,0.4-1,0.7-1.9,0.7c-0.3,0-0.6-0.1-0.9-0.2c-0.3-0.1-0.6-0.4-0.8-0.7c-0.2,0.4-0.5,0.6-0.8,0.7 c-0.3,0.1-0.6,0.2-0.9,0.2c-0.4,0-0.7-0.1-1-0.2c-0.3-0.1-0.6-0.4-0.8-0.7c-0.2,0.4-0.5,0.6-0.8,0.7s-0.6,0.2-0.9,0.2h-0.7 c-0.1,0-0.2-0.1-0.3-0.2s-0.1-0.4-0.1-0.7c0-0.4,0-0.6,0.1-0.8c0-0.2,0.1-0.2,0.3-0.2H113.1z M118.1,100.9h-1.8v-1.7h1.8V100.9z M119.3,98.6h-1.8v-1.7h1.8V98.6z M120.4,100.9h-1.8v-1.7h1.8V100.9z"></path> <path d="M32.4,121.6c0,0.5,0.2,0.7,0.6,0.7h0.4c0.1,0,0.2,0.1,0.3,0.2c0,0.2,0.1,0.4,0.1,0.7c0,0.4,0,0.6-0.1,0.8 c0,0.2-0.1,0.2-0.3,0.2h-0.4c-0.5,0-0.9-0.1-1.2-0.2c-0.3-0.2-0.5-0.4-0.7-0.8c-0.2,0.2-0.5,0.4-0.8,0.5c-0.3,0.1-0.6,0.1-0.9,0.1 c-0.7,0-1.2-0.2-1.6-0.6c-0.4-0.4-0.5-1-0.5-1.9c0-0.4,0.1-0.7,0.2-1.1c0.1-0.3,0.3-0.7,0.5-0.9s0.5-0.5,0.8-0.7 c0.3-0.2,0.7-0.2,1.1-0.2h0.9v-1h1.8V121.6z M29.8,121.9c0.3,0,0.5-0.1,0.6-0.2c0.1-0.1,0.2-0.3,0.2-0.5v-0.9H30 c-0.3,0-0.6,0.1-0.7,0.3s-0.2,0.4-0.2,0.7c0,0.2,0,0.4,0.1,0.5C29.4,121.9,29.6,121.9,29.8,121.9z"></path> <path d="M34.8,122.4c0.3,0,0.5-0.1,0.6-0.2c0.1-0.1,0.2-0.3,0.2-0.6V120h1.9v1.7c0,0.9-0.2,1.6-0.6,2s-1,0.7-1.8,0.7h-1.5 c-0.1,0-0.2-0.1-0.3-0.2s-0.1-0.4-0.1-0.7c0-0.4,0-0.6,0.1-0.8c0-0.2,0.1-0.2,0.3-0.2H34.8z M35.2,127.6h-1.8v-1.7h1.8V127.6z M37.4,127.6h-1.8v-1.7h1.8V127.6z"></path> <path d="M40.3,125.9c0.7,0,1.1-0.1,1.4-0.4c0.3-0.3,0.4-0.7,0.5-1.1h-0.7c-0.5,0-0.9-0.1-1.2-0.2c-0.3-0.1-0.6-0.3-0.8-0.5 c-0.2-0.2-0.3-0.5-0.4-0.8c-0.1-0.3-0.1-0.7-0.1-1.1c0-0.4,0.1-0.7,0.2-1.1c0.1-0.3,0.3-0.6,0.5-0.9c0.2-0.3,0.5-0.5,0.8-0.6 c0.3-0.2,0.7-0.2,1.1-0.2c0.3,0,0.6,0.1,0.9,0.2c0.3,0.1,0.6,0.3,0.8,0.5c0.2,0.2,0.4,0.5,0.5,0.9c0.1,0.4,0.2,0.8,0.2,1.4v0.3 h1.1c0.2,0,0.3,0.3,0.3,1c0,0.7-0.1,1-0.3,1H44c0,0.5-0.1,0.9-0.3,1.4s-0.4,0.8-0.7,1.1c-0.3,0.3-0.7,0.6-1.1,0.8 c-0.4,0.2-0.9,0.3-1.5,0.3H39l-0.1-2H40.3z M40.8,121.7c0,0.2,0.1,0.4,0.2,0.5c0.1,0.1,0.3,0.1,0.6,0.1h0.7v-0.4 c0-0.4-0.1-0.6-0.2-0.8c-0.1-0.1-0.3-0.2-0.6-0.2C41,121,40.8,121.2,40.8,121.7z"></path> <path d="M45.4,122.4c0.3,0,0.5-0.1,0.6-0.2c0.1-0.1,0.2-0.3,0.2-0.6v-6.2H48v6.2c0,0.3,0.1,0.5,0.3,0.6c0.2,0.1,0.4,0.2,0.7,0.2 h0.2c0.2,0,0.3,0.3,0.3,1c0,0.7-0.1,1-0.3,1h-0.3c-0.4,0-0.7-0.1-1-0.2c-0.3-0.1-0.6-0.4-0.8-0.7c-0.2,0.4-0.5,0.6-0.8,0.7 c-0.3,0.1-0.6,0.2-0.9,0.2h-0.3c-0.1,0-0.2-0.1-0.3-0.2s-0.1-0.4-0.1-0.7c0-0.4,0-0.6,0.1-0.8c0-0.2,0.1-0.2,0.3-0.2H45.4z"></path> <path d="M50,122.4c0.5,0,0.8-0.3,0.8-0.8V120h1.8v1.5c0,0.3,0.1,0.5,0.3,0.6c0.2,0.1,0.4,0.2,0.6,0.2c0.3,0,0.6-0.1,0.7-0.2 c0.1-0.1,0.2-0.3,0.2-0.6V120h1.9v1.5c0,0.3,0.1,0.5,0.2,0.6c0.1,0.1,0.3,0.2,0.5,0.2c0.5,0,0.7-0.3,0.7-0.8V120h1.9v1.5 c0,0.3,0.1,0.5,0.3,0.6c0.2,0.1,0.4,0.2,0.6,0.2h0.4c0.1,0,0.2,0.1,0.3,0.2c0,0.2,0.1,0.4,0.1,0.7c0,0.4,0,0.6-0.1,0.8 c0,0.2-0.1,0.2-0.3,0.2h-0.4c-0.4,0-0.7-0.1-1-0.2c-0.3-0.1-0.6-0.4-0.8-0.7c-0.2,0.4-0.5,0.6-0.8,0.7s-0.6,0.2-0.8,0.2 c-0.3,0-0.6-0.1-0.9-0.2s-0.5-0.4-0.8-0.7c-0.2,0.4-0.5,0.6-0.8,0.7c-0.3,0.1-0.6,0.2-1,0.2c-0.4,0-0.7-0.1-1-0.2 c-0.3-0.1-0.6-0.4-0.8-0.7c-0.2,0.4-0.5,0.6-0.8,0.7s-0.6,0.2-0.9,0.2h-0.7c-0.1,0-0.2-0.1-0.3-0.2s-0.1-0.4-0.1-0.7 c0-0.4,0-0.6,0.1-0.8c0-0.2,0.1-0.2,0.3-0.2H50z"></path> <path d="M62,122.4c-0.1-0.3-0.1-0.6-0.1-0.9c0-0.4,0.1-0.8,0.2-1.1c0.1-0.3,0.3-0.6,0.6-0.9s0.5-0.5,0.9-0.6 c0.3-0.1,0.7-0.2,1.1-0.2c0.4,0,0.7,0.1,1.1,0.2c0.3,0.1,0.7,0.3,1.1,0.5l-0.8,1.6c-0.3-0.1-0.5-0.2-0.7-0.3 c-0.2,0-0.4-0.1-0.6-0.1c-0.3,0-0.5,0.1-0.6,0.2c-0.2,0.2-0.2,0.4-0.2,0.6c0,0.3,0.1,0.5,0.3,0.7c0.2,0.1,0.5,0.2,0.8,0.2h2.1 l-0.1,2h-6c-0.1,0-0.2-0.1-0.3-0.2s-0.1-0.4-0.1-0.7c0-0.4,0-0.6,0.1-0.8c0-0.2,0.1-0.2,0.3-0.2H62z"></path> <path d="M75,125.9c0.4,0,0.7,0,0.9-0.1c0.2,0,0.4-0.1,0.6-0.2c0.1-0.1,0.2-0.2,0.3-0.3s0.1-0.3,0.1-0.4c0-0.2,0-0.3-0.1-0.4 s-0.3-0.2-0.5-0.2h-1.9l0.1-2h5c0.2,0,0.3,0.3,0.3,1c0,0.7-0.1,1-0.3,1h-1.1c0.2,0.1,0.3,0.5,0.3,1c0,0.3-0.1,0.5-0.2,0.8 c-0.1,0.3-0.3,0.6-0.6,0.8c-0.3,0.3-0.6,0.5-1.1,0.6c-0.4,0.2-1,0.3-1.6,0.3h-1.6c-1.1,0-1.9-0.3-2.5-1c-0.6-0.7-0.9-1.6-0.9-2.8 v-2.7H72v2.6c0,0.3,0,0.5,0.1,0.8c0.1,0.2,0.2,0.4,0.3,0.6c0.1,0.2,0.3,0.3,0.6,0.4c0.2,0.1,0.5,0.1,0.9,0.1H75z"></path> <path d="M79.5,122.4c0.3,0,0.5-0.1,0.7-0.2c0.2-0.1,0.3-0.3,0.3-0.6v-0.2c0-0.4,0.1-0.7,0.2-1.1c0.1-0.3,0.3-0.6,0.5-0.8 c0.2-0.2,0.5-0.4,0.8-0.6c0.3-0.1,0.7-0.2,1-0.2c0.4,0,0.8,0.1,1.1,0.2c0.3,0.1,0.6,0.3,0.8,0.6c0.2,0.2,0.4,0.5,0.5,0.8 c0.1,0.3,0.2,0.7,0.2,1.1v0.2c0,0.1,0,0.3,0.1,0.4c0.1,0.1,0.1,0.2,0.2,0.2c0.1,0.1,0.2,0.1,0.3,0.1s0.2,0,0.3,0h0.2 c0.1,0,0.2,0.1,0.3,0.2s0.1,0.4,0.1,0.7c0,0.4,0,0.6-0.1,0.8c0,0.2-0.1,0.2-0.3,0.2h-0.2c-0.3,0-0.6-0.1-0.9-0.2s-0.5-0.4-0.8-0.7 c-0.3,0.4-0.6,0.6-0.9,0.7s-0.6,0.2-0.9,0.2c-0.4,0-0.7-0.1-1.1-0.2c-0.3-0.2-0.6-0.4-0.7-0.7c-0.2,0.3-0.4,0.6-0.7,0.7 s-0.6,0.2-0.9,0.2h-0.1c-0.1,0-0.2-0.1-0.3-0.2s-0.1-0.4-0.1-0.7c0-0.4,0-0.6,0.1-0.8C79.3,122.4,79.3,122.4,79.5,122.4 L79.5,122.4z M83.7,121.6c0-0.2,0-0.4-0.1-0.6c-0.1-0.2-0.3-0.2-0.6-0.2s-0.5,0.1-0.6,0.2c-0.1,0.2-0.1,0.4-0.1,0.6 c0,0.5,0.2,0.7,0.7,0.7S83.7,122.1,83.7,121.6z"></path> <path d="M87.5,122.4c0.3,0,0.5-0.1,0.6-0.2c0.1-0.1,0.2-0.3,0.2-0.6V120h1.9v1.5c0,0.3,0.1,0.5,0.3,0.6c0.2,0.1,0.4,0.2,0.7,0.2 h0.3c0.2,0,0.3,0.3,0.3,1c0,0.7-0.1,1-0.3,1H91c-0.4,0-0.7-0.1-1-0.2c-0.3-0.1-0.6-0.4-0.8-0.7c-0.3,0.4-0.5,0.6-0.8,0.7 c-0.3,0.1-0.6,0.2-0.9,0.2h-1c-0.1,0-0.2-0.1-0.3-0.2s-0.1-0.4-0.1-0.7c0-0.4,0-0.6,0.1-0.8c0-0.2,0.1-0.2,0.3-0.2H87.5z M88.8,127.6H87v-1.7h1.8V127.6z M91,127.6h-1.8v-1.7H91V127.6z"></path> <path d="M92.2,122.4c0.5,0,0.8-0.3,0.8-0.8V120h1.8v1.5c0,0.3,0.1,0.5,0.3,0.6c0.2,0.1,0.4,0.2,0.6,0.2c0.3,0,0.5-0.1,0.7-0.2 c0.1-0.1,0.2-0.3,0.2-0.6V120h1.9v1.5c0,0.3,0.1,0.5,0.2,0.6c0.1,0.1,0.3,0.2,0.5,0.2c0.5,0,0.7-0.3,0.7-0.8V120h1.9v1.7 c0,0.9-0.2,1.6-0.6,2c-0.4,0.4-1,0.7-1.9,0.7c-0.3,0-0.6-0.1-0.9-0.2c-0.3-0.1-0.6-0.4-0.8-0.7c-0.2,0.4-0.5,0.6-0.8,0.7 c-0.3,0.1-0.6,0.2-0.9,0.2c-0.4,0-0.7-0.1-1-0.2c-0.3-0.1-0.6-0.4-0.8-0.7c-0.2,0.4-0.5,0.6-0.8,0.7s-0.6,0.2-0.9,0.2h-0.7 c-0.1,0-0.2-0.1-0.3-0.2s-0.1-0.4-0.1-0.7c0-0.4,0-0.6,0.1-0.8c0-0.2,0.1-0.2,0.3-0.2H92.2z M97.2,118.4h-1.8v-1.7h1.8V118.4z M98.4,116.2h-1.8v-1.7h1.8V116.2z M99.5,118.4h-1.8v-1.7h1.8V118.4z"></path> <path d="M104.6,125.9c0.7,0,1.1-0.1,1.4-0.4c0.3-0.3,0.4-0.7,0.5-1.1h-0.7c-0.5,0-0.9-0.1-1.2-0.2c-0.3-0.1-0.6-0.3-0.8-0.5 c-0.2-0.2-0.3-0.5-0.4-0.8c-0.1-0.3-0.1-0.7-0.1-1.1c0-0.4,0.1-0.7,0.2-1.1c0.1-0.3,0.3-0.6,0.5-0.9c0.2-0.3,0.5-0.5,0.8-0.6 c0.3-0.2,0.7-0.2,1.1-0.2c0.3,0,0.6,0.1,0.9,0.2c0.3,0.1,0.6,0.3,0.8,0.5c0.2,0.2,0.4,0.5,0.5,0.9s0.2,0.8,0.2,1.4v2.1 c0,0.5-0.1,1-0.2,1.4c-0.2,0.5-0.4,0.9-0.7,1.2c-0.3,0.3-0.7,0.6-1.1,0.8c-0.4,0.2-1,0.3-1.5,0.3h-1.4l-0.1-2H104.6z M105,121.7 c0,0.2,0.1,0.4,0.2,0.5c0.1,0.1,0.3,0.1,0.6,0.1h0.7v-0.4c0-0.4-0.1-0.6-0.2-0.8s-0.3-0.2-0.6-0.2C105.3,121,105,121.2,105,121.7z "></path> <path d="M112.7,121.5c0,0.3,0.1,0.5,0.3,0.6c0.2,0.1,0.4,0.2,0.6,0.2h0.2c0.2,0,0.3,0.3,0.3,1c0,0.7-0.1,1-0.3,1h-0.2 c-0.2,0-0.3,0-0.5-0.1s-0.3-0.2-0.5-0.3v0.2c0,0.5-0.1,1-0.3,1.4c-0.2,0.5-0.4,0.9-0.7,1.2c-0.3,0.3-0.7,0.6-1.1,0.8 c-0.4,0.2-0.9,0.3-1.4,0.3h-0.4l-0.1-2h0.2c0.4,0,0.7-0.1,0.9-0.2c0.3-0.1,0.5-0.2,0.6-0.4c0.2-0.2,0.3-0.4,0.4-0.6 c0.1-0.2,0.1-0.4,0.1-0.7V120h1.9V121.5z"></path> <path d="M114.7,122.4c0.3,0,0.5-0.1,0.6-0.2c0.1-0.1,0.2-0.3,0.2-0.6V120h1.9v1.5c0,0.3,0.1,0.5,0.3,0.6c0.2,0.1,0.4,0.2,0.7,0.2 h0.3c0.2,0,0.3,0.3,0.3,1c0,0.7-0.1,1-0.3,1h-0.4c-0.4,0-0.7-0.1-1-0.2c-0.3-0.1-0.6-0.4-0.8-0.7c-0.3,0.4-0.5,0.6-0.8,0.7 c-0.3,0.1-0.6,0.2-0.9,0.2h-1c-0.1,0-0.2-0.1-0.3-0.2s-0.1-0.4-0.1-0.7c0-0.4,0-0.6,0.1-0.8c0-0.2,0.1-0.2,0.3-0.2H114.7z M116,118.4h-1.8v-1.7h1.8V118.4z M118.2,118.4h-1.8v-1.7h1.8V118.4z"></path> <path d="M120,122.4c0.3,0,0.5-0.1,0.6-0.2c0.1-0.1,0.2-0.3,0.2-0.6V120h1.9v1.7c0,0.9-0.2,1.6-0.6,2s-1,0.7-1.8,0.7h-1.5 c-0.1,0-0.2-0.1-0.3-0.2s-0.1-0.4-0.1-0.7c0-0.4,0-0.6,0.1-0.8c0-0.2,0.1-0.2,0.3-0.2H120z M120.3,127.6h-1.8v-1.7h1.8V127.6z M121.4,129.9h-1.8v-1.7h1.8V129.9z M122.5,127.6h-1.8v-1.7h1.8V127.6z"></path> </g> <g> <g> <path style="fill:#A3C535;" d="M96.6,48.5V59H74.7V46.1h19.5C95.5,46.1,96.6,47.1,96.6,48.5z"></path> <path d="M54.6,71.2c-0.4-0.3-0.7-0.7-1.1-1L54.6,71.2z"></path> <path d="M99.3,72l-3.6,3.3l-0.1,0.1h0L99.3,72L99.3,72z M53.5,70.2c0.3,0.4,0.7,0.7,1.1,1L53.5,70.2z"></path> <path style="fill:#E31524;" d="M98.9,67.9l-4.3,4L94.5,72H65.7c-3.8,0-7.3-1.5-9.9-4.2c-2.7-2.7-4.1-6.4-4.1-10.3V42.4l0.1-0.1 l4.8-4.5v-4.5l-4.8,4.5l-3.3,3l-10.7,9.9c-2.5,2.5-2.5,6.7,0,9.2l32.6,30.3c1.3,1.3,2.9,1.9,4.6,1.9c1.7,0,3.3-0.6,4.6-1.9 l16.1-15l0.1-0.1l3.6-3.3l0.1-0.1l4.3-4H98.9z M77.3,87.9L77.3,87.9L77.3,87.9c-0.7,0.7-1.5,1-2.4,1c-0.9,0-1.7-0.3-2.3-0.9l0,0 l0,0L54.6,71.2c-0.4-0.3-0.7-0.7-1.1-1L40,57.7c-1.2-1.2-1.2-3.2,0-4.5l8.3-7.7v12c0,5,2,9.5,5.2,12.8l1.1,1 c3,2.6,6.9,4.1,11,4.1h25.2L77.3,87.9z"></path> <path style="fill:#427B3D;" d="M112.3,50.8L79.7,20.3c-1.3-1.3-2.9-1.9-4.6-1.9c-1.7,0-3.3,0.6-4.6,1.9l-9.2,8.5l-3.3,3v0L58,32 v27c0,4,3.3,7.3,7.3,7.3h40.2l3.5-3.3h0l0.1-0.1l3.2-3C114.8,57.4,114.8,53.3,112.3,50.8z M110,57.6l-5.7,5.3l-0.1,0.1H65.2 c-2.2,0-4-1.8-4-4V33.4l0.1-0.1l11.4-10.6l0,0l0,0c0.6-0.6,1.4-0.9,2.3-0.9h0c0.9,0,1.7,0.3,2.3,0.9l0,0l0,0L110,53.1 c0.6,0.6,0.9,1.4,0.9,2.2C110.9,56.2,110.6,57,110,57.6z"></path> <path style="fill:#3C8A3D;" d="M92.8,48.2V59H71V42.2h15.8C90.1,42.2,92.8,44.9,92.8,48.2z"></path> <path style="fill:#A3C535;" d="M87.5,41.6V59H65.7V35.5h15.8C84.8,35.5,87.5,38.3,87.5,41.6z"></path> <path style="fill:#A3C535;" d="M80,33.6c2,0,3.8,0.8,5.2,2.2c1.4,1.4,2.2,3.2,2.2,5.2v15.7H65.8V33.6H80 M80,33.4H65.7v23.5h21.8 V40.9C87.5,36.8,84.1,33.4,80,33.4L80,33.4z"></path> <rect x="68.1" y="33.4" style="fill:#A3C535;" width="0.2" height="2.3"></rect> <rect x="71.7" y="33.4" style="fill:#A3C535;" width="0.2" height="2.3"></rect> <rect x="75.2" y="33.5" style="fill:#A3C535;" width="0.2" height="2.3"></rect> <rect x="78.4" y="33.5" style="fill:#A3C535;" width="0.2" height="2.3"></rect> <rect x="81.7" y="33.8" style="fill:#A3C535;" width="0.2" height="2.3"></rect> <rect x="84.9" y="35.5" style="fill:#A3C535;" width="0.2" height="2.3"></rect> </g> <g> <path style="fill:#383737;" d="M68,81.5l0.6-0.1h0.1l0.6,0.1v0.3H68V81.5z M69.7,78h0.5l1.3,3.8h-0.7l-1-3.2l0.2-0.1l-1.1,3.3 h-0.3L69.7,78z M69.1,80.3h1.5l0.1,0.3H69L69.1,80.3z M70.1,81.5l0.7-0.1H71l0.7,0.1v0.3h-1.6V81.5z"></path> <path style="fill:#383737;" d="M72,78.3V78h0.9v0.3h-0.1L72,78.3z M72.9,81.4l0.8,0.1v0.3H72v-0.3l0.8-0.1H72.9z M72.5,79.7 c0-0.6,0-1.2,0-1.8h0.8c0,0.6,0,1.2,0,1.8v0.3c0,0.5,0,1.1,0,1.7h-0.8c0-0.6,0-1.2,0-1.8V79.7z M73.4,80.3h-0.6V80h0.6 c0.6,0,0.9-0.4,0.9-0.9c0-0.5-0.3-0.8-0.9-0.8h-0.6V78h0.7c1.1,0,1.5,0.5,1.5,1.1C75,79.7,74.6,80.3,73.4,80.3z"></path> <path style="fill:#383737;" d="M78.6,81.5c-0.4,0.2-0.8,0.3-1.3,0.3c-1.1,0-1.9-0.8-1.9-2c0-1.2,0.8-2,2-2c0.4,0,0.8,0.1,1.1,0.3 l0,0.8h-0.4l-0.2-0.9l0.4,0.1v0.3c-0.3-0.2-0.6-0.4-0.9-0.4c-0.7,0-1.2,0.6-1.2,1.7c0,1.1,0.5,1.7,1.3,1.7c0.3,0,0.5-0.1,0.8-0.2 l-0.3,0.3v-0.4c0-0.4,0-0.9,0-1.3h0.7c0,0.4,0,0.9,0,1.3V81.5z M77.3,80.2v-0.3h1.6v0.3l-0.6,0.1H78L77.3,80.2z"></path> <path style="fill:#383737;" d="M79.2,78.3V78H80v0.3h-0.1L79.2,78.3z M80.1,81.4l0.8,0.1v0.3h-1.7v-0.3l0.8-0.1H80.1z M79.7,79.7 c0-0.6,0-1.2,0-1.8h0.8c0,0.6,0,1.2,0,1.8v0.3c0,0.5,0,1.1,0,1.7h-0.8c0-0.6,0-1.2,0-1.8V79.7z M80.6,80.3H80V80h0.6 c0.6,0,0.9-0.4,0.9-0.9c0-0.5-0.3-0.8-0.9-0.8H80V78h0.7c1.1,0,1.5,0.5,1.5,1.1C82.2,79.7,81.8,80.3,80.6,80.3z"></path> </g> </g> </g> </svg>