<svg xmlns="http://www.w3.org/2000/svg" xmlns:xlink="http://www.w3.org/1999/xlink" id="Layer_1" x="0px" y="0px" width="150px" height="150px" viewBox="0 0 150 150" style="enable-background:new 0 0 150 150;" xml:space="preserve"> <rect style="fill:#FFFFFF;" width="150" height="150"></rect> <g> <radialGradient id="SVGID_1_" cx="399.3963" cy="-266.9473" r="18.1499" gradientTransform="matrix(1 0 0 1 0 212)" gradientUnits="userSpaceOnUse"> <stop offset="0" style="stop-color:#FFFFFF"></stop> <stop offset="8.800000e-02" style="stop-color:#FBE8E2"></stop> <stop offset="0.3436" style="stop-color:#ECA996"></stop> <stop offset="0.5717" style="stop-color:#E0725F"></stop> <stop offset="0.7639" style="stop-color:#D9483D"></stop> <stop offset="0.9127" style="stop-color:#D32E2C"></stop> <stop offset="1" style="stop-color:#D12027"></stop> </radialGradient> <path style="fill-rule:evenodd;clip-rule:evenodd;fill:url(#SVGID_1_);" d="M411.9-61.8l-16.2,9.5c-4.2,1.7-3.3,6.3-3.3,6.3l0,0 l-0.1,34.8l8.7-5c-4.5-17.1,10.9-20,10.9-20l0,0v-13.6c0.2-4.2,3.3-1.6,3.3-1.6l0,0L436.6-39l-0.1-6.7c0.1-5.6-3.1-6.4-3.1-6.4l0,0 l-16.5-9.7c-0.9-0.7-1.7-0.9-2.5-0.9C413-62.7,411.9-61.8,411.9-61.8L411.9-61.8z"></path> <path style="fill:#A92517;" d="M391.1-9.1l0.1-36.7c-0.3-2,0.1-5.8,4-7.5l16-9.5c1.1-0.9,3.8-1.9,6.4,0l16.3,9.6 c0.8,0.3,3.9,1.8,3.8,7.5l0.2,8.7l-23.3-13.4l-0.1-0.1c-0.4-0.3-0.9-0.6-1.1-0.5c0,0-0.2,0.3-0.3,1.3v14.6l-1,0.2 c-0.1,0-5.9,1.2-8.9,6c-2,3.3-2.4,7.5-1.1,12.5l0.2,0.9L391.1-9.1z M414.4-61.5c-1,0-1.7,0.5-1.8,0.6l-0.1,0.1l-16.3,9.6l-0.1,0 c-3.2,1.3-2.6,4.8-2.6,5l0,0.2l-0.1,32.8l6.2-3.5c-1.2-5.3-0.7-9.8,1.6-13.5c2.8-4.5,7.5-6.2,9.5-6.8v-12.8 c0.1-1.8,0.7-2.9,1.7-3.4c1.4-0.6,3,0.5,3.4,0.8l19.5,11.2l-0.1-4.6v0c0.1-4.4-2.2-5.2-2.3-5.2l-0.2,0l-0.1-0.1l-16.6-9.8 C415.5-61.3,414.9-61.5,414.4-61.5z"></path> <path style="fill-rule:evenodd;clip-rule:evenodd;fill:#D22339;" d="M416.3-45.7l30.4,17.6c0,0,4.5,1.6,3.9,6.1l0.3,18.7 c0,0,0.6,3-2.5,4.3l-16.6,9.3c0,0-2.4,2.4-7.2-0.5l-5.9-3.3l21.4-12.3c0,0,3.8-1.3,0.2-3.7l-11.9-6.9c0,0,5.1-14.7-12-19.4 L416.3-45.7z"></path> <path style="fill:#A92517;" d="M429,12.4c-1.3,0-3-0.4-5-1.6l-7.7-4.3l23.3-13.3l0.1,0c0.4-0.2,0.9-0.5,1-0.6c0-0.1-0.2-0.4-1-0.9 L427-15.8l0.3-0.9c0,0,1.9-5.6-0.8-10.6c-1.8-3.4-5.3-5.9-10.5-7.3l-0.9-0.2l-0.1-12.9l32.1,18.6c1.9,0.7,5,3,4.5,7.2l0.3,18.6 c0.2,1.4-0.2,4.2-3.1,5.5l-16.5,9.2C432.1,11.6,430.9,12.4,429,12.4z M421.2,6.5l4.1,2.3c3.9,2.3,5.7,0.8,5.7,0.7l0.1-0.1l0.1-0.1 L448-0.1c2.1-0.9,1.8-2.8,1.8-3l0-0.2l-0.3-18.8l0-0.1c0.5-3.5-3-4.7-3.1-4.8l-0.2-0.1l-28.6-16.6l0.1,7c5.3,1.6,9,4.4,11.1,8.3 c2.5,4.7,1.7,9.5,1.2,11.5l11.2,6.5c1.5,1,2.2,2.1,2,3.2c-0.2,1.6-1.9,2.3-2.4,2.5L421.2,6.5z"></path> <path style="fill-rule:evenodd;clip-rule:evenodd;fill:#D22339;" d="M434.6-7.5L404,9.8c0,0-3.6,3-7.2,0.3l-16.3-9.2 c0,0-2.9-1.1-2.5-4.3l0.5-19.1c0,0-0.9-3.3,4-5.9l5.8-3.4l-0.3,24.6c0,0-0.8,4,3.1,2l12-6.8c0,0,10.1,11.9,22.9-0.5L434.6-7.5z"></path> <path style="fill:#A92517;" d="M400.1,12.4c-1.2,0-2.6-0.4-3.9-1.3L380,2c-1.3-0.5-3.5-2.3-3.1-5.5l0.5-18.9 c-0.2-0.9-0.3-4.4,4.7-7l7.6-4.5l-0.3,26.9l0,0.1c-0.1,0.4-0.1,1,0.1,1.2h0c0.1,0,0.5,0,1.3-0.4l12.8-7.3l0.6,0.8 c0,0,3.9,4.5,9.6,4.7c3.9,0.2,7.8-1.6,11.6-5.3l0.6-0.6L437-7.5l-32.3,18.2C403.7,11.5,402,12.4,400.1,12.4z M387.1-29.8l-4,2.4 c-4,2.1-3.5,4.5-3.5,4.6l0,0.2v0.2l-0.5,19.2c-0.3,2.2,1.5,3,1.7,3.1l0.2,0.1l16.4,9.3l0.1,0c2.7,2.1,5.6-0.2,5.7-0.3l0.2-0.1 l28.8-16.3l-6.1-3.5c-4.1,3.7-8.4,5.6-12.7,5.3c-5.3-0.3-9.1-3.4-10.6-4.8l-11.3,6.4c-1.6,0.8-2.9,0.9-3.8,0.2 c-1.2-1-1-2.8-0.9-3.4L387.1-29.8z"></path> <linearGradient id="SVGID_00000093146535815374362870000001942466877847719839_" gradientUnits="userSpaceOnUse" x1="425.0119" y1="-222.425" x2="402.515" y2="-245.7212" gradientTransform="matrix(1 0 0 1 0 212)"> <stop offset="0" style="stop-color:#FFD785"></stop> <stop offset="8.000000e-02" style="stop-color:#FFD785"></stop> <stop offset="0.49" style="stop-color:#FFD356"></stop> <stop offset="1" style="stop-color:#FFD30F"></stop> </linearGradient> <path style="fill-rule:evenodd;clip-rule:evenodd;fill:url(#SVGID_00000093146535815374362870000001942466877847719839_);" d=" M404-21.4c0,5.8,4.7,10.4,10.4,10.4c5.8,0,10.4-4.7,10.4-10.4l0,0c0-5.8-4.7-10.4-10.4-10.4C408.7-31.8,404-27.1,404-21.4z"></path> <path style="fill:#F49C1D;" d="M414.4-9.6c-6.5,0-11.8-5.3-11.8-11.8c0-6.5,5.3-11.8,11.8-11.8c6.5,0,11.8,5.3,11.8,11.8 S420.9-9.6,414.4-9.6z M414.4-30.4c-5,0-9,4-9,9c0,5,4,9,9,9c5,0,9-4,9-9S419.4-30.4,414.4-30.4z"></path> </g> <g> <path style="fill-rule:evenodd;clip-rule:evenodd;fill:#625F5E;" d="M400.4,33.2c0,1.5,0,3,0,4.5c1.5,0,3,0,4.5,0 c0.5,0,1-0.4,0.9-0.9c0-1.2,0-2.4,0-3.6c0-0.5-0.4-1-0.9-0.9c-1.2,0-2.4,0-3.6,0C400.8,32.2,400.4,32.7,400.4,33.2L400.4,33.2z M387.6,22.9c0.9-0.7,2.2-0.8,3.3-0.8c0,4.6,0,9.1,0,13.6c0,1,0.8,1.8,1.8,1.8c0.8,0,1.7,0,2.5,0c0.5,0,0.9-0.5,0.9-0.9 c0-0.9,0-1.9,0-2.8c0-0.4,0-0.9,0-1.2c0-0.1,0.1-0.1,0.1-0.2c0.2-1.2,1.1-2.3,2.2-2.8c0.5-0.3,1.1-0.3,1.7-0.3c1.7,0,3.4,0,5.1,0 c0.7,0,1.4,0,2.1,0.1c1.5,0.4,2.7,1.7,2.9,3.3c0.1,0.7,0,1.4,0,2.2s0,1.5,0,2.2c-0.1,1.2-0.8,2.4-1.9,3.1c-0.6,0.4-1.3,0.6-2.1,0.6 c-1.2,0-2.4,0-3.6,0c-1.1,0-2.2-0.3-2.9-1.1c-0.6,0.7-1.5,1.1-2.4,1.1c-2,0-3.9,0-5.9,0c-1,0-2.1-0.4-2.8-1.1c-0.6,0.5-1.2,0.8-2,1 c-0.4,0.1-0.9,0.1-1.2,0.1c-1.1,0-2.2,0-3.3,0c-1,0-2-0.4-2.7-1.1c-0.8,0.6-1.7,1.1-2.7,1.1c-5.3,0-10.7,0-16,0 c-0.6,0-1.3-0.2-1.9-0.5l0,0c-1-0.6-1.7-1.5-2-2.6v-0.1c0-0.1,0-0.2,0-0.2c0-0.3,0-0.7,0-1c0-2.4,0-4.7,0-7.1 c1.1,0,2.4,0.2,3.3,0.9c0.6,0.5,1,1.2,1.1,1.9c0,1,0,2,0,3c0,0.3,0,0.5,0,0.8c0.1,0.9,0.9,1.7,1.8,1.7c3.9,0,7.8,0,11.6,0 c0.3,0,0.6,0,0.8-0.1c0.7-0.2,1.3-0.9,1.3-1.7c0-0.7,0-1.4,0-2.1c0-0.8,0-1.6,0.2-2.3c0.3-0.9,1-1.5,1.8-1.8 c0.8-0.3,1.6-0.3,2.5-0.3c0,1.9,0,3.8,0,5.7c0,0.9-0.1,1.8-0.5,2.7c1.3,0,2.6,0,3.9,0c1,0,1.8-0.9,1.8-1.9c0-3.4,0-6.7,0-10.1 c0-0.3,0-0.5,0-0.8c0-0.1,0.1-0.1,0.1-0.2C386.6,24,387.1,23.4,387.6,22.9z"></path> <path style="fill-rule:evenodd;clip-rule:evenodd;fill:#625F5E;" d="M439.6,23.4c0.6-0.8,1.6-1.1,2.6-1.2c0.4,0,0.8,0,1.2,0 c0,4.3,0,8.6,0,12.9c0,0.5,0,1.1,0.2,1.5c0.3,0.6,1,1.1,1.7,1.1c1,0,2.1,0,3.1,0c0.5,0,0.9-0.4,0.9-0.8c0.1-0.3,0-0.6,0-0.9 c0-1.3,0-2.6,0-3.8c0.1-0.7,0.4-1.4,1-1.9c0.5-0.4,1.1-0.7,1.7-0.7c0.1,0,0.2,0,0.2,0c0.5-0.1,1-0.1,1.5-0.1c0,2.5,0,4.9,0,7.4 c0,0.6-0.1,1.2-0.3,1.8c-0.6,1.4-2,2.4-3.5,2.4c-2.1,0-4.1,0-6.2,0c-1,0-2-0.4-2.6-1c-0.1-0.1-0.1-0.1-0.2,0c-0.8,0.6-1.7,1-2.8,1 c-4.9,0-9.9,0-14.8,0c-0.5,0-1.1,0-1.6-0.1c-1.3-0.3-2.4-1.3-2.8-2.6c-0.2-0.5-0.2-1-0.2-1.5c0-2.4,0-4.8,0-7.3 c1.1,0,2.2,0.2,3.1,0.8c0.7,0.5,1.2,1.2,1.3,2.1c0,1.1,0,2.2,0,3.2c0,0.2,0,0.3,0,0.6c0.1,0.9,0.9,1.7,1.8,1.7c3.8,0,7.6,0,11.4,0 c0.4,0,0.8,0,1.1-0.1c0.6-0.2,1-0.8,1.1-1.4c0.1-0.4,0.1-0.9,0.1-1.3c0-3.3,0-6.6,0-9.9C439,24.4,439.2,23.8,439.6,23.4z"></path> <path style="fill-rule:evenodd;clip-rule:evenodd;fill:#625F5E;" d="M457.4,22.2c0.8,0,1.5,0,2.3,0.2c0.9,0.3,1.7,0.9,2,1.7 c0.3,0.7,0.3,1.4,0.3,2.2c0,3.1,0,6.3,0,9.4c0,0.7,0.4,1.5,1.1,1.8c0.4,0.2,0.9,0.2,1.4,0.2c0.8,0,1.7,0,2.5,0 c0.2,0,0.4-0.1,0.6-0.2c0.1,0,0.1-0.1,0.2-0.2c0-0.2,0.1-0.3,0.2-0.5c0.1-0.4,0-0.8,0-1.2c0-1.2,0-2.4,0-3.7 c0.1-1.4,1.4-2.4,2.7-2.6c0.1,0,0.2,0,0.2,0c0.1,0,0.2,0,0.3,0c0.4,0,0.8,0,1.1,0c0.1,0,0.1,0.2,0.1,0.3c0,2.4,0,4.8,0,7.3 c0,1.1-0.5,2.1-1.2,2.8H471c-0.1,0-0.2,0-0.2,0.2v0c-0.7,0.6-1.6,0.9-2.5,0.9c-2.4,0-4.6,0-7,0c-0.8,0-1.5-0.2-2.2-0.6 c-1.1-0.7-1.7-2-1.7-3.2C457.4,32,457.4,27.1,457.4,22.2z"></path> <path style="fill-rule:evenodd;clip-rule:evenodd;fill:#625F5E;" d="M448.2,23.4c0.3-0.2,0.6-0.1,0.8,0.1c0.7,0.7,1.3,1.3,2,2 c0.2,0.2,0.2,0.6,0,0.9c-0.7,0.7-1.3,1.3-2,2c-0.3,0.3-0.7,0.3-0.9,0c-0.6-0.6-1.3-1.3-1.9-1.9c-0.2-0.1-0.3-0.3-0.3-0.6 c0-0.3,0.3-0.5,0.5-0.7C447,24.6,447.5,24,448.2,23.4z"></path> <path style="fill-rule:evenodd;clip-rule:evenodd;fill:#625F5E;" d="M366.2,25.4c0.1-0.1,0.3-0.3,0.6-0.3c0.3,0,0.4,0.2,0.6,0.3 c0.6,0.6,1.1,1.1,1.7,1.7c0.6-0.5,1.1-1.1,1.6-1.6c0.2-0.2,0.4-0.4,0.7-0.5c0.2,0,0.4,0.1,0.6,0.3c0.6,0.6,1.3,1.3,2,2 c0.3,0.2,0.3,0.6,0,0.9c-0.7,0.7-1.4,1.4-2.1,2.1c-0.2,0.3-0.6,0.2-0.9,0c-0.6-0.6-1.2-1.2-1.8-1.8c0,0,0-0.1,0-0.1 c0,0,0,0.1-0.1,0.1c-0.6,0.6-1.2,1.2-1.8,1.8c-0.3,0.3-0.7,0.3-0.9,0c-0.7-0.7-1.3-1.3-2-2c-0.3-0.2-0.3-0.6,0-0.9 C364.9,26.7,365.6,26.1,366.2,25.4z"></path> <path style="fill-rule:evenodd;clip-rule:evenodd;fill:#625F5E;" d="M429.9,25.9c0.4-0.3,0.9-0.3,1.3-0.3c0.5,0,0.9,0,1.4,0 c-0.3,0.6-0.6,1.2-0.9,1.9c0.3,0,0.7,0,1.1,0c0.3,0.1,0.6,0.5,0.6,0.9c0,0.5-0.3,0.9-0.4,1.3c-0.2,0.3-0.3,0.7-0.5,1 c-0.3,0.3-0.6,0.5-1.1,0.5c-0.6,0-1.3,0-2,0c0.3-0.6,0.6-1.2,0.9-1.8c0,0,0-0.1,0-0.1c-0.4,0-0.7,0-1.1,0c-0.3-0.1-0.6-0.5-0.6-0.9 c0-0.5,0.2-0.9,0.4-1.2C429.3,26.7,429.5,26.2,429.9,25.9z"></path> <path style="fill-rule:evenodd;clip-rule:evenodd;fill:#625F5E;" d="M464.6,42.3c0.2-0.3,0.7-0.3,0.9,0c0.7,0.7,1.3,1.3,2,2 c0.3,0.2,0.3,0.7,0,0.9c-0.6,0.6-1.3,1.3-2,2c-0.2,0.2-0.4,0.3-0.6,0.3c-0.2,0-0.4-0.2-0.5-0.3c-0.6-0.6-1.2-1.2-1.9-1.9l0,0 c-0.2-0.3-0.2-0.6,0.1-0.9C463.2,43.7,463.9,43,464.6,42.3z"></path> </g> <g> <g> <path style="fill:#E51967;" d="M115.8,63.2h0.4c0.5,0.1,0.9,0.2,1.4,0.3c0.1,0,0.2,0.1,0.3,0.2h0c0.2,0.1,0.3,0.3,0.5,0.4 c0.1,0.1,0.2,0.2,0.2,0.3l0,0.1l0.2,0c0.2,0.4,0.3,0.9,0.4,1.3l0-0.3v1.2l0-0.4c-0.2,1.2-1.1,2.3-2.3,2.4 c-1.1,0.2-2.2-0.4-2.8-1.4c-0.6-1.2-0.2-2.7,0.8-3.4l0-0.1c0.1,0,0.2,0,0.3,0.1l0-0.2c0.4-0.1,0.7-0.1,1.1-0.2L115.8,63.2z M114.6,66.7c0.4,1.1,1.9,1.7,2.8,1c-0.7-0.3-0.6-1.3-1.4-1.3c0,0.4,0,0.8,0,1.2c-0.3,0.1-0.6,0-0.7-0.2c0.1-0.9,0.1-1.7,0-2.6 c0.3-0.3,0.8-0.2,1.2-0.2c0.4,0,0.9,0,1.2,0.3c0.5,0.5,0.3,1.4-0.4,1.5c0.1,0.4,0.4,0.8,0.7,1.1c0.1-0.2,0.3-0.5,0.4-0.7 c0.4-1.2-0.6-2.6-1.8-2.5C115.1,63.9,114,65.5,114.6,66.7z M116,65.1c-0.2,0.7,0.6,0.5,1,0.5c0-0.2,0.1-0.3,0.1-0.5 C116.7,65.1,116.3,64.9,116,65.1z"></path> </g> <path style="fill:#E51967;" d="M33.7,65.1c0.7-0.2,1.4-0.4,2.1-0.4c2.9,0,5.8,0,8.7,0c0.1,1.3,0.1,2.6,0,3.8 c-2.8-0.1-5.6,0.1-8.4,0.1c-0.9,0-1.4,0.9-1.4,1.8c0,5,0,9.9,0,14.9c0,0.5,0,0.9,0,1.4c-0.7,0.2-1.5,0-2.2,0.1 c-0.5,0-1,0.1-1.5-0.1c-0.1-4.6,0-9.3,0-13.9c0-1.5-0.1-2.9,0.2-4.4C31.4,67,32.3,65.7,33.7,65.1L33.7,65.1z"></path> <g> <path style="fill:#E51967;" d="M48.5,65.7c1.1-0.5,2.3-0.9,3.6-0.9c1.9,0,3.8,0,5.7,0c1.4,0,2.9,0.1,4.1,1l0-0.1 c0.5,0.5,1.1,1,1.4,1.7c1,1.8,0.6,3.9,0.6,5.9c-4.7,2.1-9.3,4.3-14,6.5c0,0.8-0.2,1.8,0.4,2.5c0.5,0.7,1.5,0.8,2.3,0.8 c3.6,0,7.3,0,10.9,0c0.1,1.3,0,2.5,0,3.8c-3.7,0.1-7.4,0-11.1,0c-1.7,0.1-3.5-0.3-4.7-1.6l-0.1,0c-1.1-1.1-1.7-2.6-1.7-4.1 c0-3.5,0-7,0-10.4c0-1.6,0.5-3.3,1.7-4.4c0.2-0.2,0.5-0.5,0.8-0.5L48.5,65.7z M49.8,70.6c0,1.6,0,3.2,0,4.7c0.2,0,0.3-0.1,0.5-0.2 c3.2-1.5,6.4-3,9.5-4.5c0.5-0.1,0.3-0.8,0.2-1.1c-0.3-0.8-1.2-1.1-2-1.1c-2.1,0-4.1,0-6.2,0C50.8,68.6,49.9,69.5,49.8,70.6z"></path> </g> <path style="fill:#E51967;" d="M67.1,65.8c1.2-1.1,2.9-1.1,4.5-1.1c1.6,0.1,3.3-0.2,4.9,0.5c0.6,0.3,1.1,0.8,1.6,1.2 c0.9-1.1,2.4-1.7,3.8-1.7c1.4,0,2.8,0,4.2,0c1.5,0,3,0.7,3.7,2c0.8,1.3,0.8,2.9,0.8,4.4c0,5.2,0,10.4,0,15.5 c-1.3,0.1-2.6,0.1-3.8,0c0-5.1,0-10.2,0-15.3c0-0.6,0.1-1.3-0.2-1.9c-0.4-0.5-1-0.8-1.7-0.8c-1.2,0.1-2.4,0-3.6,0 c-0.3,0.1-0.6,0.4-0.8,0.6c-0.1,0.5-0.3,1-0.3,1.6c0,5.3,0,10.6,0,15.9c-1.3,0-2.6,0.1-3.9,0c0-0.3,0.1-0.7,0.1-1c0-4.7,0-9.3,0-14 c-0.1-0.8,0.1-1.6-0.4-2.3c-0.3-0.5-1-0.7-1.5-0.7c-1.1,0-2.3,0-3.4,0c-0.9,0-1.8,0.8-1.7,1.8c0,5.2,0,10.4,0,15.6 c-0.1,0.2,0.1,0.7-0.2,0.7c-1.2,0-2.4,0-3.6,0c0-5.5,0-11,0-16.5C65.5,68.7,65.8,66.9,67.1,65.8z"></path> <path style="fill:#E51967;" d="M91.9,64.8c1.3-0.1,2.6,0,3.8,0c0,1.2,0,2.5,0,3.7c-1.3,0-2.5,0.1-3.8,0 C91.9,67.2,91.9,66,91.9,64.8z"></path> <path style="fill:#E51967;" d="M98,66.7c0.8-1.2,2.1-1.9,3.5-1.9c3.5,0,7,0,10.5,0c0.1,1.2,0,2.5,0,3.8c-2.7,0-5.3,0-8,0 c-0.8,0-1.8-0.1-2.5,0.4c-0.7,0.6-0.4,1.7-0.5,2.5c-0.1,0.9,0.6,1.5,1.4,1.7c1.6,0.4,3.2,0.1,4.8,0.3c1.6,0.1,3.3,0.2,4.7,1.2 c1.1,0.8,1.6,2.3,1.6,3.6c0,1.4,0,2.7,0,4.1c0,1-0.5,2-1.2,2.7l0.1,0.2l-0.2-0.1c-0.8,1-2,1.7-3.3,1.7c-3.5,0-7,0-10.4,0 c-0.2,0-0.4,0-0.6-0.1c0-1.2,0-2.4,0-3.7c3.2,0,6.4,0,9.6,0c0.7,0,1.6-0.2,2-0.9c0.3-0.8,0.2-1.7,0.2-2.6c0-0.6-0.1-1.2-0.6-1.6 c-0.6-0.6-1.4-0.6-2.2-0.7c-2.4-0.2-4.8,0.2-7.1-0.4c-1.3-0.4-2.4-1.6-2.6-3c-0.2-1.7-0.2-3.3,0-5C97.4,68.1,97.7,67.4,98,66.7z"></path> <path style="fill:#E51967;" d="M92,69.5c1.3,0,2.5,0,3.8,0c0,5.7,0,11.4,0,17.2c-1.3,0.1-2.5,0-3.8,0c0-4.8,0-9.7,0-14.5 C92,71.3,91.9,70.4,92,69.5z"></path> </g> </svg>