<svg xmlns="http://www.w3.org/2000/svg" xmlns:xlink="http://www.w3.org/1999/xlink" id="Layer_1" x="0px" y="0px" width="150px" height="150px" viewBox="0 0 150 150" style="enable-background:new 0 0 150 150;" xml:space="preserve"> <rect style="fill:#FFFFFF;" width="150" height="150"></rect> <g> <g> <g> <defs> <rect id="SVGID_1_" x="110.1" y="62.5" width="25" height="25"></rect> </defs> <clipPath id="SVGID_00000117646526567668439330000004865680991809503900_"> <use xlink:href="#SVGID_1_" style="overflow:visible;"></use> </clipPath> <g style="clip-path:url(#SVGID_00000117646526567668439330000004865680991809503900_);"> <path style="fill:#253A56;" d="M131.7,62.5c0.2,0,0.4,0.1,0.6,0.1c1.4,0.3,2.6,1.6,2.8,3.2c0,0.2,0,0.4,0,0.6c0,2.2,0,4.3,0,6.5 c0,0,0,0.1,0,0.1s0,0.1-0.1,0.1c-1.5,1.1-3.1,2.2-4.8,3.2c-1.8,1-3.7,1.8-5.6,2.3c-1,0.3-2,0.4-3,0.5c-1,0.1-2,0.1-3,0 c-2.8-0.2-5.5-0.9-8-2.1c-0.1-0.1-0.3-0.2-0.4-0.2c-0.1,0-0.1-0.1-0.1-0.2c0-1.7,0-3.5,0-5.2c0-1.6,0-3.3,0-4.9 c0-1.2,0.5-2.2,1.4-3c0.5-0.5,1.2-0.7,1.9-0.8c0,0,0.1,0,0.1,0L131.7,62.5C131.7,62.5,131.7,62.5,131.7,62.5z"></path> <path style="fill:#FFFFFF;" d="M116,73.3c0.1,0,0.2,0,0.3,0c0.1,0,0.2-0.1,0.3-0.1c0.4-0.2,0.8-0.4,1.2-0.6 c3.2-1.9,6.7-3.2,10.3-4.1c1.1-0.3,2.3-0.6,3.4-0.8c0.2,0,0.4-0.1,0.6-0.2c0.3-0.2,0.3-0.5,0.1-0.8c-0.1-0.1-0.1-0.2-0.2-0.2 c-0.1,0-0.2-0.1-0.3-0.1c-0.5-0.1-1,0-1.5,0c-1.1,0.1-2.2,0.3-3.3,0.6c-1.9,0.4-3.8,0.9-5.7,1.4c-1.4,0.4-2.7,0.9-4,1.4 c-0.6,0.3-1.2,0.6-1.7,1c-0.2,0.2-0.4,0.4-0.6,0.7c-0.3,0.6-0.1,1.6,0.7,1.8C115.7,73.3,115.9,73.3,116,73.3z"></path> <path style="fill:#AF872B;" d="M113.6,87.5l-0.3,0c-1-0.2-1.9-0.7-2.5-1.6c-0.4-0.6-0.6-1.3-0.6-2c0-0.4,0-0.8,0-1.2 c0-1,0-2,0-3.1v-0.1c0,0,0,0,0.1,0c1.3,0.9,2.8,1.4,4.3,1.8c0.7,0.2,1.4,0.3,2.1,0.4c0.6,0.1,1.1,0.1,1.7,0.2 c0.6,0,1.2,0.1,1.8,0.1c0.5,0,1.1,0,1.6-0.1c1-0.1,2-0.3,3-0.6c2.2-0.6,4.3-1.5,6.3-2.7c1.4-0.8,2.7-1.7,4-2.7c0,0,0,0,0.1-0.1 v0.1c0,2.5,0,5,0,7.6c0,1.9-1.2,3.4-2.8,3.7c-0.2,0-0.4,0.1-0.6,0.1c0,0-0.1,0-0.1,0L113.6,87.5L113.6,87.5z"></path> <path style="fill:#FFFFFF;" d="M114.5,81.4c0.7,0.2,1.4,0.3,2.1,0.4c0.6,0.1,1.1,0.1,1.7,0.2c0.6,0,1.2,0.1,1.8,0.1 c0.5,0,1.1,0,1.6-0.1c0.3,0,0.6-0.1,1-0.1c0.7-0.1,1.4-0.3,2-0.4c2.2-0.6,4.3-1.5,6.3-2.7c1.4-0.8,2.7-1.7,4-2.7 c0,0,0,0,0.1-0.1v-3c0,0,0,0.1,0,0.1c0,0,0,0.1-0.1,0.1c-1.5,1.1-3.1,2.2-4.8,3.2c-1.8,1-3.7,1.8-5.6,2.3c-1,0.3-2,0.4-3,0.5 c-1,0.1-2,0.1-3,0c-2.8-0.2-5.5-0.9-8-2.1c-0.1-0.1-0.3-0.2-0.4-0.2c-0.1,0-0.1-0.1-0.1-0.2v3c0,0,0,0,0.1,0 C111.5,80.5,113,81.1,114.5,81.4z"></path> </g> </g> </g> <path style="fill:#1F3C58;" d="M62.5,86.5v-2.7c0.4,0,0.8,0,1.1,0c0.7,0,1.4-0.1,2.1-0.4c1.3-0.4,2-1.4,1.9-2.7h-0.2 c-0.7,0-1.4,0-2.1,0c-0.8,0-1.6-0.3-2.3-0.7c-1-0.6-1.5-1.6-1.7-2.7c-0.2-1-0.1-2,0.3-2.9c0.7-1.9,2.6-3.1,4.6-3 c1.2,0.1,2.2,0.5,3,1.5c0.5,0.6,0.8,1.3,0.9,2.1c0.1,0.6,0.1,1.2,0.2,1.8c0,0.4,0,0.8,0,1.3c0,0,0.1,0,0.1,0c1.1,0,2.3,0,3.5,0 c0.3,0,0.6-0.1,0.9-0.2c0.5-0.2,0.6-0.6,0.6-1.1v-3.4h2.6v0.2c0,1,0,2.1,0,3.1c0,0.9,0.7,1.3,1.3,1.4c0.2,0,0.5,0,0.7,0 c1.3,0,2.7,0,4,0c0.6,0,1.1-0.1,1.6-0.3c0.5-0.2,0.9-0.5,1-1.1c0.1-0.3,0-0.7-0.2-1c-0.4-0.7-0.8-1.4-1.3-2 c-0.9-1.2-1.9-2.4-2.8-3.6c-0.1-0.1-0.1-0.2-0.1-0.3c0.1-0.6,0.3-1.2,0.4-1.9c0-0.1,0.1-0.2,0.2-0.2c3-1.5,6-2.9,9-4.4 c0,0,0.1,0,0.1,0c0.4,0.8,0.7,1.6,1.1,2.4l-8.1,3.7c0,0,0,0.1,0,0.1c1.6,2.2,3.3,4.3,4.9,6.5c0.3,0.5,0.8,0.9,1.2,1.2 c0.6,0.6,1.4,0.8,2.3,0.8c1.5,0,3,0,4.4,0c1.3,0,1.8-0.9,1.7-1.9c-0.1-1.2-0.4-2.3-0.6-3.5c0-0.1,0-0.1,0-0.2l2.5-0.8 c0.1,0.4,0.2,0.8,0.3,1.2c0.2,1,0.3,2,0.5,3.1c0.1,1-0.1,2-0.6,2.9c-0.8,1.2-2,1.8-3.4,1.8c-1.6,0-3.2,0-4.8,0 c-1.6,0-3-0.5-4.1-1.7c-0.2-0.2-0.4-0.4-0.6-0.6h0h0c-0.5,1.2-1.5,1.7-2.7,2.1c-0.8,0.2-1.5,0.3-2.3,0.3c-1.3,0-2.6,0-3.9,0 c-0.8,0-1.5-0.1-2.2-0.5c-0.2-0.1-0.4-0.3-0.6-0.4c-0.5,0.4-1,0.7-1.7,0.8c-0.5,0.1-1,0.2-1.6,0.2c-1,0-2,0-2.9,0h-0.2 c0,0.2,0,0.5-0.1,0.7c-0.3,2.4-1.7,3.9-3.9,4.6C65.1,86.5,63.8,86.5,62.5,86.5L62.5,86.5z M67.7,78.2V78c0-0.6,0-1.1,0-1.7 c0-0.4-0.1-0.7-0.2-1.1c-0.2-0.7-0.8-1.1-1.5-1.1c-0.8,0-1.5,0.3-1.8,1c-0.1,0.4-0.2,0.8-0.2,1.1c-0.1,0.9,0.4,1.6,1.3,1.8 c0.2,0,0.3,0.1,0.5,0.1C66.5,78.2,67.1,78.2,67.7,78.2z"></path> <path style="fill:#1F3C58;" d="M74.3,68.5l1.9-1.8l1.9,1.9l-1.9,1.8C75.6,69.8,74.9,69.2,74.3,68.5z M100.4,66.2l1.8,1.8l-1.7,1.7 L98.6,68C98.6,68,100.4,66.2,100.4,66.2z M94.1,68l1.7-1.8l1.8,1.8l-1.8,1.7L94.1,68L94.1,68z"></path> <path style="fill:#A7833A;" d="M28.1,78.4c-0.1-0.1-0.1-0.2-0.2-0.3c-0.8-0.9-1.1-1.8-1-3c0.1-1.2,0.8-2.2,1.8-2.9 c1.6-1.1,3.7-1.1,5.2-0.1c1.1,0.7,1.6,1.7,1.7,3c0.1,1.1-0.1,2-0.7,2.9c0,0,0,0.1-0.1,0.2c0.1,0,0.3,0,0.4,0c2,0,4,0,6,0 c0.9,0,1.5-0.6,1.5-1.6c0-0.6-0.1-1.3-0.3-2c-0.1-0.6-0.3-1.2-0.4-1.9c0,0,0-0.1,0-0.2l2.5-0.7c0.1,0.7,0.3,1.4,0.4,2.1 c0.2,1,0.3,2,0.3,2.9c0,1.8-1.3,3.4-3.1,3.8c-0.3,0.1-0.7,0.1-1,0.1c-2.1,0-4.2,0-6.2,0c-1.1,0-2.2-0.2-3.3-0.4c-0.1,0-0.2,0-0.3,0 c-0.7,0.1-1.4,0.3-2.1,0.4c-1.1,0.1-2.2,0.2-3.4,0.2c-1.2,0-2.5,0-3.7,0c-0.6,0-1.2,0-1.8-0.1c-0.8-0.1-1.7-0.1-2.5-0.3 c-1.4-0.4-2.3-1.3-2.7-2.8c-0.2-0.9-0.2-1.8,0-2.6c0.2-0.7,0.3-1.4,0.5-2.1c0-0.2,0.1-0.2,0.3-0.1c0.7,0.2,1.4,0.5,2.1,0.7 c0.2,0,0.2,0.1,0.1,0.3c-0.2,0.8-0.4,1.6-0.5,2.4c-0.1,0.3,0,0.7,0.1,1c0.2,0.6,0.7,0.9,1.3,0.9c1.3,0.1,2.6,0.2,4,0.3 c1.4,0,2.8,0,4.2,0C27.3,78.4,27.7,78.4,28.1,78.4z M31.5,74c-0.4,0-0.7,0.1-1,0.3c-1,0.6-1.2,1.5-0.7,2.3c0.4,0.6,0.9,0.8,1.6,1.1 c0,0,0.1,0,0.2,0c0.3-0.2,0.7-0.3,1-0.6c0.6-0.4,0.7-1,0.6-1.7C33,74.6,32.2,74,31.5,74z M56.3,70.2c0-1.5,0-3,0-4.5 c0-0.2,0-0.3,0.2-0.3c0.7,0,1.4,0,2.2,0c0.2,0,0.2,0,0.2,0.2c0,2.8,0,5.6,0,8.4c0,1-0.1,2-0.3,3.1c-0.5,1.9-1.8,3-3.7,3.4 c-0.8,0.2-1.6,0.3-2.4,0.3c-1.5,0-3,0-4.4,0c-0.2,0-0.3,0-0.3-0.3c0-0.7,0-1.4,0-2.1c0-0.2,0.1-0.2,0.3-0.2c1.4,0,2.9,0,4.3,0 c0.6,0,1.3-0.1,1.9-0.2c1.1-0.2,1.8-1,1.9-2.1c0.1-0.7,0.1-1.4,0.1-2C56.3,72.7,56.3,71.4,56.3,70.2z"></path> <path style="fill:#A7833A;" d="M50.4,76.4c-0.4,0-0.7,0-1.1,0c-0.1,0-0.2,0-0.2-0.2c0-0.5-0.1-1-0.1-1.5c0-0.8-0.1-1.5-0.2-2.3 c0-0.5,0-0.9-0.1-1.4c0-0.8-0.1-1.5-0.2-2.3c0-0.5-0.1-0.9-0.1-1.4c0-0.4,0-0.9-0.1-1.3c0-0.2,0-0.2,0.2-0.2 c0.7-0.1,1.5-0.2,2.2-0.3c0.1,0,0.2,0,0.2,0.1c0.1,1.1,0.1,2.1,0.2,3.2l0.2,3.1l0.2,3.1c0,0.4,0,0.8,0.1,1.1c0,0.2,0,0.2-0.2,0.2 C51.1,76.4,50.8,76.4,50.4,76.4z M29.6,67.1l1.9-1.8l1.9,1.8L31.6,69C31.6,69,29.6,67.1,29.6,67.1z M45.7,84.8L44,86.5l-1.8-1.7 l1.7-1.8C44,83,45.7,84.8,45.7,84.8z M39.5,86.6c-0.1-0.1-0.3-0.3-0.5-0.5c-0.4-0.4-0.8-0.8-1.1-1.1c-0.1-0.1-0.1-0.1,0-0.3 c0.5-0.5,1.1-1.1,1.6-1.6c0,0,0,0,0.1,0c0.2,0.2,0.3,0.4,0.5,0.6c0.4,0.4,0.7,0.7,1.1,1.1c0.1,0.1,0.1,0.1,0,0.2 C40.6,85.5,40.1,86,39.5,86.6z"></path> </g> </svg>