<svg xmlns="http://www.w3.org/2000/svg" xmlns:xlink="http://www.w3.org/1999/xlink" id="Layer_1" x="0px" y="0px" width="150px" height="150px" viewBox="0 0 150 150" style="enable-background:new 0 0 150 150;" xml:space="preserve"> <rect style="fill:#FFFFFF;" width="150" height="150"></rect> <g> <path style="fill:#33665F;" d="M101.3,104.6c-0.2,0.2-0.4,0.4-0.7,0.6c-0.8,0.7-1.7,1.2-2.7,1.5c-2.4,0.6-4.6,0.2-6.6-1.4 c-0.1-0.1-0.3-0.2-0.4-0.3c-0.2-0.2-0.5-0.3-0.7-0.3c-2.8,0-5.7,0-8.5,0c-0.1,0-0.1,0-0.2,0c-0.3,0-0.4,0.1-0.5,0.3 c-0.3,0.6-0.7,1.2-1,1.9c-0.9,1.8-1.9,3.6-2.8,5.4c-0.1,0.2-0.2,0.4-0.3,0.6c-0.1,0.1-0.2,0.2-0.4,0.1c-0.1,0-0.1,0-0.2-0.1 l-2.8-1.5c-0.1-0.1-0.2-0.1-0.3-0.2c-0.1,0-0.1-0.1-0.1-0.2c0-0.1,0-0.1,0-0.2c0.1-0.2,0.1-0.3,0.2-0.5c0.5-1.1,1.1-2.1,1.6-3.2 c0.4-0.8,0.7-1.5,1.1-2.3c0.1-0.2,0-0.3-0.1-0.3c-0.1,0-0.2-0.1-0.2-0.1c-0.1,0-0.2,0-0.2-0.1c-0.8-0.2-1.6-0.5-2.3-0.9 c-1.7-1-2.9-2.5-3.4-4.4c-0.2-0.7-0.3-1.5-0.2-2.3c0.1-1.2,0.3-2.3,0.8-3.4c1-2,2.6-3.2,4.6-3.7c1.2-0.3,2.4-0.3,3.6,0 c2.7,0.7,4.4,2.4,5.2,5.1c0.4,1.4,0.3,2.9-0.1,4.4c-0.1,0.3-0.2,0.5-0.2,0.8c0,0.1,0,0.1,0,0.2c0,0,0.1,0.1,0.1,0.1 c0.1,0,0.2,0,0.3,0h3.7c0.2,0,0.4,0,0.6,0c0.2,0,0.3-0.1,0.3-0.4c0-0.2,0-0.5,0-0.7c0-3.1,2.3-6.4,5.8-7.1c2.4-0.5,4.6,0.1,6.5,1.8 c1.1,1,1.8,2.3,2.2,3.7c0.2,0.6,0.2,1.3,0.2,1.9c0,0.2,0,0.5,0.1,0.7c0,0,0.1,0.1,0.1,0.1c0,0,0.1,0,0.2,0c0.6,0,1.2,0,1.7,0 c1.3-0.1,2.5-1.1,2.8-2.4c0-0.2,0.1-0.4,0.1-0.6c0-0.3,0-0.5,0-0.8v-4.7c0-0.7,0-1.4,0.1-2.1c0-0.3,0.1-0.4,0.4-0.4 c0.1,0,0.2,0,0.3,0h2.7c0.2,0,0.3,0,0.5,0c0.1,0,0.2,0.1,0.2,0.2c0,0.1,0,0.3,0,0.4c0,2.4,0,4.7,0,7.1c0,0.9-0.1,1.7-0.4,2.5 c-0.1,0.2-0.1,0.3-0.1,0.5c0,0.1,0.1,0.2,0.1,0.2c0.2,0,0.4,0,0.6,0h2.7c0.4,0,0.7,0,1.1-0.1c0.6-0.1,1.2-0.5,1.6-1 c0.4-0.5,0.6-1.2,0.6-1.8c0-0.3,0-0.6,0-0.9V81.3c0-0.8,0-1.6,0-2.4c0-0.1,0-0.2,0-0.2c0,0,0.1-0.1,0.1-0.1c0.1,0,0.2,0,0.2,0h3.4 c0.1,0,0.1,0,0.2,0c0.1,0,0.1,0.1,0.2,0.2c0,0.1,0,0.3,0,0.4c0,0.6,0,1.2,0,1.9v15.9c0,0.6,0,1.2-0.1,1.9c-0.6,2.6-2.1,4.4-4.5,5.4 c-0.8,0.3-1.6,0.5-2.4,0.5c-1.6,0-3.3,0-4.9,0c-0.6,0-0.6-0.1-0.6-0.6c0-0.4,0-0.7-0.1-1.1c0-0.1-0.1-0.1-0.1-0.1 c-0.1,0-0.1,0-0.2,0c-0.2,0.2-0.4,0.3-0.6,0.5c-1.2,0.9-2.5,1.4-4,1.4h-3.3C101.9,104.6,101.6,104.6,101.3,104.6L101.3,104.6z M78.7,100.2c0.1-0.1,0.2-0.2,0.2-0.3c0.4-0.7,0.7-1.4,0.9-2.1c0.2-0.6,0.1-1.2,0-1.8c-0.1-0.4-0.3-0.8-0.6-1.1c-0.9-1-2-1.4-3.3-1 c-0.9,0.3-1.6,0.9-1.9,1.8c-0.2,0.5-0.3,1.1-0.2,1.7c0.1,0.7,0.3,1.4,0.9,1.9c0.4,0.4,1,0.7,1.5,0.8 C77,100.3,77.8,100.3,78.7,100.2z M99,99.4c0-1.2-0.5-2-1.4-2.7c-0.7-0.5-1.5-0.6-2.4-0.4c-1.4,0.4-2.7,1.9-2.3,3.9 c0.5,2.1,2.4,2.8,4.1,2.2C98.3,102,99,100.8,99,99.4C99,99.4,99,99.4,99,99.4z M47,100.3h4.9c0.4,0,0.9,0,1.3-0.1 c0.1,0,0.2,0,0.3-0.1c0,0,0.1-0.1,0.1-0.1c0-0.2-0.1-0.4-0.2-0.7c-0.3-0.8-0.4-1.6-0.4-2.4c0-2.4,1-4.4,2.9-5.8 c1.4-1,2.9-1.5,4.6-1.5c3.6,0.1,6.2,2.6,6.9,6c0.3,1.5,0.2,2.9-0.3,4.3c-0.4,1.1-1.1,2.1-2,2.8c-1.1,0.9-2.5,1.5-3.9,1.7 c-0.8,0.1-1.7,0.2-2.5,0.2c-2.6,0-5.2,0-7.8,0c-0.4,0-0.7,0-1.1,0c-0.1,0-0.2,0-0.2,0.1c-0.1,0.1-0.1,0.1-0.1,0.2c0,0.5,0,1,0,1.5 c-0.1,0.8-0.3,1.6-0.7,2.3c-0.8,1.4-1.9,2.2-3.4,2.5c-0.5,0.1-1,0.2-1.6,0.2c-2,0-3.9,0-5.9,0c-2.8,0-5.2-1-7.3-2.8 c-1.8-1.7-3-3.7-3.5-6.2c-0.2-1.1-0.3-2.1-0.2-3.2c0-0.1,0-0.2,0-0.3c0-0.9,0-0.9,0.9-0.9h2.7c0.1,0,0.2,0,0.3,0 c0.1,0,0.1,0,0.1,0.1c0,0,0.1,0.1,0.1,0.1c0,0.2,0,0.4,0,0.6c0,0.5,0,1,0,1.5c0.1,1.7,0.7,3.2,1.8,4.5c0.9,1,2.1,1.8,3.5,2.1 c0.4,0.1,0.7,0.1,1.1,0.1c2.1,0,4.3,0,6.4,0c0.2,0,0.4,0,0.6,0c0.2,0,0.4-0.1,0.5-0.3c0.1-0.1,0.1-0.2,0.2-0.3 c0.3-0.6-0.1-1.5-0.7-1.7c-0.2,0-0.3-0.1-0.5-0.1c-0.8,0-1.6,0-2.3,0c-0.3,0-0.6,0-0.8,0c-0.1,0-0.2,0-0.2-0.1 c-0.1-0.1-0.1-0.1-0.1-0.2c0-0.8,0-1.6,0-2.4c0-0.5,0-0.9,0.1-1.4c0-0.1,0-0.1,0.1-0.1c0,0,0.1-0.1,0.1-0.1c0.2,0,0.5,0,0.7,0 L47,100.3C47,100.3,47,100.3,47,100.3z M60.3,100.3c1.9,0,3.8-1.9,2.9-4.4c-0.5-1.3-1.7-2-3-1.9c-0.7,0-1.4,0.3-1.9,0.8 c-0.1,0.1-0.2,0.2-0.3,0.4c-0.8,1-0.9,2.2-0.4,3.4C58.1,99.7,59,100.3,60.3,100.3L60.3,100.3z"></path> <path style="fill:#33665F;" d="M104.1,109.2c0-0.8,0.3-1.4,0.9-2c0.6-0.6,1.4-0.7,2.2-0.5c1,0.2,1.6,0.8,1.8,1.8 c0.1,0.3,0.1,0.7,0.1,1c-0.1,1.4-1.3,2.3-2.4,2.4c-0.2,0-0.4,0-0.6-0.1C105,111.6,104.1,110.5,104.1,109.2L104.1,109.2z M109.5,109.2c0-0.3,0.1-0.7,0.2-1c0.4-1,1.2-1.6,2.5-1.6c1.2,0.1,2,0.9,2.2,1.9c0.2,0.7,0.1,1.4-0.3,2c-0.4,0.7-1,1.2-1.8,1.3 c-0.3,0.1-0.7,0.1-1,0C110.3,111.5,109.5,110.5,109.5,109.2L109.5,109.2z"></path> </g> <g> <path style="fill:#00A699;" d="M86.3,31.8v7.8c0,7.4,5.9,13.5,13.1,13.5h7.6v-7.9c0-7.4-5.8-13.4-13.1-13.4L86.3,31.8z"></path> <path style="fill:#33665F;" d="M86.3,31.7v7.8C86.3,47,92.2,53,99.5,53h7.6L86.3,31.7z"></path> <path style="fill:#FFC837;" d="M42.9,75.4h21.3c11.8,0,21.3-9.8,21.3-21.9V31.7H64.2c-11.8,0-21.3,9.8-21.3,21.9L42.9,75.4 L42.9,75.4z"></path> <path style="fill:#FFD35F;" d="M42.9,75.4h21.3c11.8,0,21.3-9.8,21.3-21.9V31.7L42.9,75.4z"></path> </g> </svg>