<svg xmlns="http://www.w3.org/2000/svg" xmlns:xlink="http://www.w3.org/1999/xlink" id="Layer_1" x="0px" y="0px" width="150px" height="150px" viewBox="0 0 150 150" style="enable-background:new 0 0 150 150;" xml:space="preserve"> <rect style="fill:#FFFFFF;" width="150" height="150"></rect> <g> <g> <path style="fill:#D5B369;" d="M116,55.9c6-1.1,12.5,0.8,16.9,5.2c2.5,2.4,4.3,5.5,5.2,8.8c0.7,2.5,0.8,5.1,0.5,7.7 c-1-2.9-3.2-5.4-6-6.6c-3.4-1.4-7.5-1.1-10.4,1.1c0.2-2.1,0.1-4.3-0.9-6.2c-0.9-1.6-2.4-2.7-3.9-3.7c-0.2,2.3-0.6,4.8-2.2,6.6 c-1,1.2-2.5,1.9-3.3,3.3c-0.9,1.5-1,3.4-1,5.2c-2.3,0.2-4.6-0.7-6.2-2.3c-1.7-1.6-2.8-3.8-3.1-6.2c-0.1-0.6-0.1-1.2,0.1-1.8 C104.3,61.3,109.8,57,116,55.9z"></path> <path style="fill:#D5B369;" d="M11.7,82.3c0.4,0,0.7,0,1.1,0c0.4,1.1,0.7,2.3,1,3.4c0.3-1.1,0.7-2.3,1-3.4c0.3,0,0.5,0,0.8,0 c0.3,1.1,0.7,2.3,1,3.4c0.3-1.1,0.7-2.3,1-3.4c0.4,0,0.7,0,1.1,0c-0.5,1.7-1.1,3.4-1.7,5.2c-0.3,0-0.6,0-0.9,0 c-0.3-1.1-0.6-2.2-1-3.3c-0.3,1.1-0.7,2.2-1,3.3c-0.3,0-0.6,0-0.9,0C12.8,85.8,12.3,84.1,11.7,82.3z"></path> <g> <path style="fill:#D5B369;" d="M20.7,82.4c1.1-0.4,2.5,0,3.1,1c0.8,1.2,0.5,3.1-0.9,3.8c-1.3,0.7-3.1,0.2-3.7-1.2 C18.5,84.7,19.2,82.8,20.7,82.4z M20.9,83.4c-1.3,0.6-1.2,2.8,0.3,3.2c1.1,0.3,2.1-0.7,2-1.7C23.2,83.7,21.9,82.9,20.9,83.4z"></path> </g> <g> <path style="fill:#D5B369;" d="M24.9,82.3c1.1,0.1,2.3-0.3,3.2,0.5c0.8,0.7,0.6,2.2-0.3,2.7c0.4,0.7,0.8,1.4,1.2,2 c-0.4,0-0.8,0-1.2,0c-0.4-0.6-0.7-1.2-1.1-1.9c-0.3,0-0.5,0-0.8,0c0,0.6,0,1.2,0,1.9c-0.3,0-0.7,0-1,0 C24.9,85.8,24.9,84.1,24.9,82.3z M25.9,83.3c0,0.5,0,1,0,1.5c0.4,0,0.9,0.1,1.3-0.1c0.5-0.2,0.4-1.1-0.1-1.2 C26.8,83.3,26.3,83.3,25.9,83.3z"></path> </g> <path style="fill:#D5B369;" d="M29.5,82.3c0.4,0,0.7,0,1.1,0c0,1.4,0,2.8,0,4.2c0.6,0,1.3,0,2,0c0,0.3,0,0.6,0,1c-1,0-2,0-3,0 C29.5,85.8,29.5,84.1,29.5,82.3z"></path> <g> <path style="fill:#D5B369;" d="M33.2,82.3c1.1,0,2.3-0.2,3.3,0.4c1.5,0.9,1.5,3.4,0,4.3c-1,0.6-2.2,0.4-3.3,0.4 C33.2,85.8,33.2,84.1,33.2,82.3z M34.3,83.3c0,1.1,0,2.2,0,3.2c0.5,0,1,0,1.5-0.2c1.1-0.5,1.1-2.3,0-2.8 C35.3,83.3,34.7,83.3,34.3,83.3z"></path> </g> <path style="fill:#D5B369;" d="M40,82.3c1.2,0,2.3,0,3.5,0c0,0.3,0,0.6,0,1c-0.4,0-0.8,0-1.2,0c0,1.4,0,2.8,0,4.2 c-0.4,0-0.7,0-1.1,0c0-1.4,0-2.8,0-4.2c-0.4,0-0.8,0-1.2,0C40,83,40,82.7,40,82.3z"></path> <g> <path style="fill:#D5B369;" d="M44.1,82.3c1,0.1,2.3-0.3,3.1,0.4c0.9,0.7,0.7,2.2-0.3,2.7c0.4,0.6,0.8,1.2,1.2,1.9L48,87.4 c0.2,0,0.4,0,0.7,0l-0.2,0c0.6-1.7,1.2-3.3,1.8-5c0.4,0,0.8,0,1.3,0c0.6,1.7,1.2,3.4,1.9,5.2c-0.4,0-0.7,0-1.1,0 c-0.1-0.3-0.2-0.7-0.4-1c-0.7,0-1.4,0-2.1,0c-0.1,0.3-0.2,0.7-0.3,1c-0.8,0-1.6,0-2.4,0c-0.4-0.6-0.7-1.2-1.1-1.9 c-0.3,0-0.5,0-0.8,0c0,0.6,0,1.2,0,1.9c-0.3,0-0.7,0-1,0C44.1,85.8,44.1,84.1,44.1,82.3z M45.1,83.3c0,0.5,0,1,0,1.5 c0.4,0,0.9,0,1.3-0.1c0.5-0.2,0.5-1.1-0.1-1.3C46,83.3,45.5,83.3,45.1,83.3z M50.1,85.6c0.5,0,1,0,1.4,0 c-0.2-0.7-0.5-1.4-0.7-2.1C50.6,84.2,50.4,84.9,50.1,85.6z"></path> </g> <g> <path style="fill:#D5B369;" d="M53.8,82.3c1.1,0,2.2-0.2,3.2,0.4c1.6,0.9,1.6,3.5,0,4.4c-1,0.5-2.1,0.3-3.2,0.4 C53.8,85.8,53.8,84.1,53.8,82.3z M54.9,83.3c0,1.1,0,2.2,0,3.2c0.5,0,1.1,0,1.6-0.3c0.9-0.6,0.9-2.2-0.1-2.7 C55.9,83.3,55.4,83.3,54.9,83.3z"></path> </g> <path style="fill:#D5B369;" d="M58.9,82.3c1,0,2,0,3,0c0,0.3,0,0.6,0,1c-0.7,0-1.3,0-1.9,0c0,0.4,0,0.7,0,1.1c0.6,0,1.2,0,1.8,0 c0,0.3,0,0.6,0,1c-0.6,0-1.2,0-1.8,0c0,0.4,0,0.8,0,1.1c0.7,0,1.4,0,2,0c0,0.3,0,0.6,0,1c-1,0-2,0-3,0 C58.9,85.8,58.9,84.1,58.9,82.3z"></path> <path style="fill:#D5B369;" d="M64.6,82.3c0.4,0,0.7,0,1.1,0c0,0.7,0,1.4,0,2.1c0.7,0,1.4,0,2.1,0c0-0.7,0-1.4,0-2.1 c0.3,0,0.7,0,1,0c0,1.7,0,3.4,0,5.2c-0.3,0-0.7,0-1,0c0-0.7,0-1.4,0-2.1c-0.7,0-1.4,0-2.1,0c0,0.7,0,1.4,0,2.1c-0.4,0-0.7,0-1.1,0 C64.6,85.8,64.6,84.1,64.6,82.3z"></path> <g> <path style="fill:#D5B369;" d="M71.2,82.4c1.1-0.4,2.6,0.1,3.1,1.1c0.7,1.2,0.3,3-0.9,3.7c-1.3,0.7-3.1,0.2-3.7-1.2 C69.1,84.7,69.7,82.8,71.2,82.4z M71.4,83.4c-1.3,0.6-1.1,2.8,0.3,3.2c1.1,0.3,2.1-0.7,2-1.7C73.7,83.7,72.4,82.9,71.4,83.4z"></path> </g> <path style="fill:#D5B369;" d="M75.5,82.3c0.3,0,0.7,0,1,0c0,1.1,0,2.3,0,3.4c0.1,0.8,1.1,1.1,1.7,0.7c0.3-0.2,0.4-0.7,0.4-1 c0-1,0-2,0-3c0.3,0,0.7,0,1,0c0,1.2,0,2.3,0,3.5c0,0.7-0.5,1.3-1.1,1.6c-0.7,0.3-1.5,0.2-2.2-0.1c-0.6-0.3-0.9-1-0.9-1.6 C75.5,84.6,75.5,83.5,75.5,82.3z"></path> <path style="fill:#D5B369;" d="M80.9,82.7c1-0.8,2.7-0.5,3.1,0.8c-0.3,0.1-0.7,0.2-1,0.2c-0.3-0.5-1-0.8-1.5-0.4 c-0.3,0.3-0.2,0.8,0.2,0.9c0.7,0.3,1.6,0.3,2.2,0.9c0.5,0.7,0.2,1.8-0.6,2.2c-1.1,0.5-2.8,0.2-3.2-1c0.3-0.1,0.7-0.2,1-0.3 c0.3,0.6,1.2,0.9,1.8,0.5c0.3-0.2,0.4-0.7,0-0.9c-0.7-0.3-1.6-0.3-2.2-0.9C80.2,84.2,80.3,83.2,80.9,82.7z"></path> <path style="fill:#D5B369;" d="M84.8,82.3c1,0,2,0,3,0c0,0.3,0,0.6,0,1c-0.7,0-1.3,0-2,0c0,0.4,0,0.7,0,1.1c0.6,0,1.2,0,1.8,0 c0,0.3,0,0.6,0,1c-0.6,0-1.2,0-1.8,0c0,0.4,0,0.8,0,1.1c0.7,0,1.3,0,2,0c0,0.3,0,0.6,0,1c-1,0-2,0-3,0 C84.8,85.8,84.8,84.1,84.8,82.3z"></path> </g> <g> <path style="fill:#1F335D;" d="M23.6,63.7c0.9-0.6,1.9-0.9,2.8-1.3c0,3,0,6,0,9c0,1.4,1.1,2.6,2.5,2.6c2.8,0,5.6,0,8.4,0 c0-0.8,0.2-1.7-0.3-2.4c-0.4-0.9-1.4-1.4-2.4-1.3c-2,0-4,0-6,0c0.5-0.9,0.8-1.9,1.5-2.7c0.9-0.8,2.2-0.6,3.3-0.6 c1.4,0.1,2.8-0.2,4.1,0.3c1.2,0.4,2.2,1.4,2.6,2.6c0.6,1.3,0.3,2.7,0.4,4c0.8,0,1.5,0,2.3,0c1.3-0.2,2.2-1.4,2.1-2.7 c0.1-1.2-0.3-2.6,0.5-3.7c0.7-0.8,1.8-0.6,2.8-0.6c0,1.8,0,3.5,0,5.3c0.1,1.7-0.8,3.3-2.2,4.2c-0.8,0.4-1.6,0.8-2.5,0.8 c-5.3,0-10.6,0-15.9,0c-1.6-0.1-3.1-1.1-3.8-2.5c-0.4-0.7-0.6-1.5-0.6-2.3c0-2.5,0-5,0-7.5C23.2,64.6,23.2,64,23.6,63.7z"></path> <path style="fill:#1F335D;" d="M71.8,63.3c0.8-0.4,1.6-0.6,2.4-0.9c0,3.1,0,6.1,0,9.2c0,1.3,1.1,2.4,2.4,2.4c2.8,0,5.6,0,8.3,0 c0-0.8,0.1-1.6-0.3-2.4c-0.4-0.9-1.4-1.4-2.3-1.4c-2,0-3.9,0-5.9,0c0.5-0.9,0.8-1.9,1.4-2.7c0.7-0.8,1.9-0.5,2.8-0.6 c1.5,0.1,3.1-0.2,4.5,0.4c1.2,0.4,2.1,1.4,2.6,2.6c0.4,0.8,0.4,1.7,0.4,2.6c0,1.5,0,3.1,0,4.6c-3.5,0-7.1,0.1-10.6,0 c-1.3-0.1-2.7,0.2-3.9-0.4c-1.7-0.7-2.8-2.5-2.9-4.4c0-2.4,0-4.8,0-7.1C70.9,64.6,71.1,63.7,71.8,63.3z"></path> <path style="fill:#1F335D;" d="M41.2,63c0.9-0.5,2.2,0.1,2.5,1.1c0.3,1-0.4,2.2-1.5,2.2c-0.9,0.1-1.9-0.6-1.9-1.6 C40.1,64.1,40.6,63.4,41.2,63z"></path> <path style="fill:#1F335D;" d="M45.5,63c0.9-0.5,2.2,0.1,2.5,1.1c0.3,1-0.5,2.2-1.5,2.2c-0.9,0.1-1.9-0.6-1.9-1.6 C44.4,64.1,44.8,63.3,45.5,63z"></path> <path style="fill:#1F335D;" d="M63.6,63c1-0.5,2.4,0.3,2.4,1.5c0.1,1-0.8,2-1.8,1.9c-0.9,0-1.7-0.8-1.7-1.7 C62.5,63.9,62.9,63.3,63.6,63z"></path> <path style="fill:#1F335D;" d="M80.4,63c1.1-0.6,2.6,0.4,2.5,1.6c0.1,1.4-1.7,2.3-2.8,1.4C79,65.4,79.2,63.5,80.4,63z"></path> <path style="fill:#1F335D;" d="M19,67.5c0.7-0.7,1.8-0.4,2.7-0.5c0,1.8,0,3.5,0,5.3c0,1.5-0.7,3.1-2,4c-0.9,0.6-1.9,1-3,0.9 c-1,0-2,0.1-3.1-0.1c-0.5,0-0.9-0.3-1.2-0.7c-0.5-0.8-0.9-1.7-1.3-2.5c1.6,0,3.1,0,4.7,0c0.9,0,1.8-0.5,2.2-1.3 c0.4-0.8,0.2-1.7,0.3-2.6C18.4,69.2,18.3,68.1,19,67.5z"></path> <path style="fill:#1F335D;" d="M51.8,70.1c0.7-1.9,2.6-3.1,4.6-3.1c1.8,0,3.6,0,5.4,0c0,2.3,0,4.7,0,7c1-0.1,2.1,0.2,3-0.3 c0.9-0.5,1.4-1.6,1.3-2.6c0.1-1.2-0.3-2.6,0.6-3.5c0.7-0.8,1.8-0.5,2.7-0.5c0,1.7,0,3.5,0,5.3c0.1,1.7-0.8,3.4-2.3,4.3 c-0.7,0.4-1.5,0.7-2.3,0.7c-2.1,0-4.1,0-6.2,0c-0.1-2.3,0-4.6-0.1-7c-0.8,0-1.7-0.2-2.4,0.3C55.2,71,54.7,72,54.8,73 c0,1.4,0,2.8,0,4.2c-0.9-0.5-1.8-0.9-2.6-1.5c-0.6-0.4-0.7-1.2-0.7-1.9C51.5,72.6,51.3,71.3,51.8,70.1z"></path> <path style="fill:#1F335D;" d="M100.2,72.3c0.9,2.9,3.1,5.4,5.9,6.6c3.4,1.5,7.6,1.2,10.6-1.1c-0.2,2.1-0.1,4.4,1,6.3 c0.9,1.5,2.3,2.6,3.7,3.5c0.2-2.4,0.7-4.9,2.4-6.7c1-1.1,2.3-1.7,3.1-3c1-1.6,1.1-3.5,1.1-5.3c1.9-0.1,3.8,0.4,5.3,1.5 c2.5,1.8,4,4.7,4.1,7.8c0,0.3-0.1,0.6-0.2,0.9c-2.4,5.6-7.7,9.9-13.7,11.1c-5.7,1.2-11.9-0.3-16.3-4c-4.7-3.8-7.4-9.8-7-15.8 C100.1,73.5,100.2,72.9,100.2,72.3z"></path> <path style="fill:#1F335D;" d="M32.8,78c1.3-0.4,2.6,0.9,2.2,2.2c-0.3,1.2-2,1.7-2.9,0.8C31,80.1,31.5,78.3,32.8,78z"></path> <path style="fill:#1F335D;" d="M36.7,79.8c0.1-0.2,0.3-0.3,0.6-0.2c16.8,0,33.7,0,50.5,0l0,0.3c-16.8,0-33.6,0-50.4,0 C37.2,79.8,36.9,79.8,36.7,79.8z"></path> </g> <rect x="11.2" y="79.5" style="fill:#1F335D;" width="18.4" height="0.3"></rect> </g> </svg>