<svg xmlns="http://www.w3.org/2000/svg" xmlns:xlink="http://www.w3.org/1999/xlink" id="Layer_1" x="0px" y="0px" width="150px" height="150px" viewBox="0 0 150 150" style="enable-background:new 0 0 150 150;" xml:space="preserve"> <rect style="fill:#FFFFFF;" width="150" height="150"></rect> <path style="fill-rule:evenodd;clip-rule:evenodd;fill:#253161;" d="M-194-120.2h45.8c1.2-0.2,1.1-1,0.6-1.8 c-3.9-5.5-3.2-10.6,3.5-13.2l33.3-12.6h-9.7L-194-120.2L-194-120.2z M-106.9-94c0,1-0.3,1.7-0.8,2c-0.4,0.3-1.1,0.4-2,0.4h-0.8h-0.3 l0,0l0,0l0,0c-0.4,0-0.6-0.1-0.9-0.2c0,1.2-0.4,2.1-1.1,2.8c-0.2,0.2-0.4,0.3-0.4,0.3c-1,0-1.8-0.1-2.3-0.3c-0.1,0-0.1-0.1,0-0.1 c0.7-0.3,1.4-0.6,2.1-1.1c0.7-0.6,1.1-1,1.1-1.4c0-0.2-0.1-0.5-0.4-0.8c-0.2-0.2-0.4-0.5-0.7-0.7l0.6-1.2c0-0.1,0.1-0.1,0.1,0 c0.6,0.8,1.1,1.2,1.6,1.2h0.2h0.3h0.9c0.9,0,1.6-0.1,1.9-0.2c0.1-0.1,0.2-0.2,0.2-0.4c0-0.1-0.1-0.2-0.2-0.1c-0.5,0-0.8,0.1-1.1,0.1 c-0.8,0-1.2-0.3-1.2-0.9c0-0.5,0.1-0.9,0.4-1.4c0.3-0.6,0.7-0.8,1.1-0.8c0.6,0,1.1,0.4,1.3,1.2C-107-95.2-106.9-94.6-106.9-94 L-106.9-94z M-107.8-94.9c-0.1-0.3-0.3-0.5-0.5-0.6c-0.2-0.1-0.3-0.2-0.5-0.2c-0.1,0-0.2,0-0.3,0.1c-0.1,0.1-0.2,0.2-0.2,0.3 c0,0.3,0.3,0.4,0.8,0.4C-108.2-94.9-108-94.9-107.8-94.9L-107.8-94.9z M-107.7-98.3l-0.8,0.8l-0.8-0.8l0.8-0.8L-107.7-98.3 L-107.7-98.3z M-116.1-91.8c0,1-0.3,1.9-1,2.6c-0.2,0.2-0.4,0.4-0.4,0.4c-1,0-1.8-0.1-2.3-0.3c-0.1,0-0.1-0.1,0-0.1 c0.7-0.2,1.4-0.6,2-1.2c0.7-0.6,1.1-1,1.1-1.4c-0.1,0-0.2,0-0.4,0c-0.2,0-0.3,0-0.4,0c-0.5,0-0.9-0.1-1.2-0.2 c-0.3-0.2-0.5-0.5-0.5-0.9c0-0.4,0.1-0.9,0.4-1.4c0.3-0.6,0.7-1,1.1-1c0.5,0,1,0.3,1.3,0.9c0.2,0.5,0.3,1,0.3,1.6V-91.8L-116.1-91.8 z M-117-93.3c-0.1-0.3-0.3-0.5-0.5-0.6c-0.2-0.1-0.3-0.2-0.5-0.2c-0.1,0-0.2,0-0.3,0.1c-0.1,0.1-0.2,0.2-0.2,0.3 c0,0.3,0.2,0.4,0.7,0.4C-117.6-93.2-117.3-93.3-117-93.3L-117-93.3z M-120.7-93.7c0,1.4-0.9,2.1-2.7,2.1c-1,0-1.5-0.5-1.5-1.4 c0-0.1,0-0.2,0-0.3c0.1-0.5,0.2-0.8,0.4-0.8c0.1,0,0.2,0.1,0.2,0.3c0,0.2,0.1,0.4,0.2,0.5c0.2,0.2,0.5,0.3,1,0.3c0.3,0,0.6,0,1-0.1 c0.5-0.1,0.8-0.2,0.8-0.4c0-0.3-0.3-0.7-0.8-1.1c-0.5-0.4-0.9-0.7-1.2-0.7l0.4-1.3c0-0.1,0-0.1,0.1-0.1c0,0,0.1,0,0.1,0.1 c0.6,0.4,1.1,0.8,1.5,1.3C-120.9-94.9-120.7-94.3-120.7-93.7L-120.7-93.7z M-125.8-99.2l-0.1,0.6c-1.3,0.3-2.5,0.6-3.6,1l0.2-0.7 C-128.2-98.6-127-98.9-125.8-99.2L-125.8-99.2z M-125.5-98.1c-2.1,0.5-3.5,0.8-4.3,1.1l-0.3,1.3c0.4,0.3,0.8,0.6,1.2,1 c0.5,0.5,0.7,0.8,0.7,1.1c0,0.2-0.1,0.3-0.3,0.3c-0.3,0.1-0.8,0.1-1.7,0.1h-0.5l0,0l0,0c-0.6,0-0.9-0.3-0.9-0.8v-4.9 c0-0.1,0-0.2,0-0.2l0,0c0,0-0.1,0-0.2,0.1l-1,0.8c0,0,0,0.1,0,0.2c0.1,0.3,0.1,1.1,0.2,2.1c0.1,1,0.1,1.7,0.1,2.2 c0,0.7,0.2,1.2,0.5,1.6c0.3,0.3,0.6,0.4,1,0.4h0.4h0.3h0.4c0.8,0,1.4-0.2,1.8-0.5c0.4-0.4,0.6-0.9,0.6-1.8c0-0.4-0.2-0.8-0.5-1.3 c-0.3-0.4-0.6-0.7-1-1c0.9-0.3,1.9-0.5,3-0.7L-125.5-98.1L-125.5-98.1z M-133.9-93.4c0,0.6-0.2,1-0.5,1.4c-0.3,0.3-0.8,0.5-1.3,0.5 c-0.6,0-1.1-0.2-1.3-0.5c-0.2-0.2-0.3-0.5-0.3-0.9c0-0.4,0.2-1,0.5-1.6c0.3-0.6,0.6-1,0.9-1.2c0.6,0.2,1,0.5,1.3,0.7 C-134.1-94.6-133.9-94.1-133.9-93.4L-133.9-93.4z M-134.5-93.5c-0.4-0.5-0.9-0.8-1.6-1c-0.3,0.3-0.4,0.6-0.4,1 c0,0.2,0.1,0.3,0.4,0.4c0.2,0.1,0.4,0.1,0.7,0.1c0.4,0,0.7-0.1,0.9-0.2C-134.5-93.2-134.4-93.3-134.5-93.5L-134.5-93.5z M-140.9-93.9c0,0.6-0.1,1.1-0.3,1.5c-0.3,0.5-0.8,0.8-1.4,0.8h-0.3h-0.3h-0.3c-0.3,0-0.6-0.1-0.9-0.2c-0.3-0.2-0.5-0.4-0.6-0.6 c-0.3,0.6-0.8,0.9-1.5,0.9h-0.6h-0.3h-0.3c-0.3,0-0.5,0-0.7-0.1c0,0.2,0,0.4,0,0.6c0,1-0.4,1.7-1.1,2.1c-0.6,0.4-1.4,0.6-2.4,0.6 c-0.9,0-1.6-0.2-2-0.7c-0.4-0.4-0.5-0.9-0.5-1.5c0-0.3,0.1-0.8,0.3-1.3c0.2-0.7,0.4-1,0.7-1c0.2,0,0.2,0.1,0.2,0.3 c0,0.1-0.1,0.3-0.2,0.6c-0.1,0.3-0.2,0.6-0.2,0.8c0,0.6,0.2,0.9,0.7,1.2c0.3,0.2,0.8,0.2,1.4,0.2s1.2-0.1,1.7-0.3 c0.6-0.2,0.9-0.5,0.9-0.9c0-0.2-0.2-0.6-0.5-1c-0.3-0.4-0.6-0.7-0.8-0.9l0.6-1.2c0-0.1,0.1-0.1,0.2,0c0.3,0.4,0.5,0.6,0.6,0.8 c0.2,0.2,0.5,0.3,0.8,0.3h0.5h0.3h0.4c0.6,0,1-0.1,1.2-0.4c0.1-0.1,0.2-0.4,0.3-0.7c0-0.3,0.1-0.4,0.3-0.4c0.1,0,0.2,0.1,0.3,0.4 s0.1,0.6,0.2,0.7c0.2,0.3,0.5,0.4,1,0.4h0.3h0.3h0.4c0.6,0,0.8-0.1,0.8-0.3s-0.2-0.5-0.7-1c0-0.1,0-0.1,0-0.2l0.7-1 c0.1-0.1,0.1-0.1,0.2,0c0.2,0.2,0.3,0.5,0.4,0.8C-141-94.5-140.9-94.2-140.9-93.9L-140.9-93.9z M-141.1-89.8l-0.8-0.8l-0.8,0.8 l0.8,0.8L-141.1-89.8L-141.1-89.8z M-143.8-89.8l-0.7-0.7l-0.7,0.7l0.7,0.7L-143.8-89.8L-143.8-89.8z M-145.4-89.8l-0.7-0.7 l-0.7,0.7l0.7,0.7L-145.4-89.8L-145.4-89.8z M-150.6-95.1l-0.8-0.8l-0.8,0.8l0.8,0.8L-150.6-95.1L-150.6-95.1z M-157.9-92.9 c0,0.3-0.1,0.7-0.4,1.4c-0.1,0.2-0.1,0.2-0.2,0.2s-0.1-0.2-0.1-0.5l-0.6-6.2l1.1-0.9c0-0.1,0.1-0.1,0.1-0.1s0.1,0,0.1,0.1V-92.9 L-157.9-92.9z M-160.3-97.4C-160.3-97.3-160.3-97.3-160.3-97.4c0,0.1,0,0.1,0,0.1c-0.1,0-0.2,0-0.3,0c0.1,1.3,0.1,2.7,0.1,4 c0,0.5-0.1,0.9-0.4,1.2c-0.3,0.4-0.6,0.5-1.1,0.5h-0.1h-0.3h-0.3c-0.2,0-0.4-0.1-0.6-0.2c-0.2-0.1-0.3-0.3-0.4-0.5 c-0.2,0.6-0.6,0.9-1.2,0.9c-0.5,0-0.9-0.3-1.3-0.8c-0.3,0.5-0.6,0.7-1.1,0.7h-0.2h-0.3h-0.6c-0.2,0-0.5-0.1-0.7-0.2 c-0.2-0.1-0.4-0.3-0.5-0.5c-0.1,0.2-0.3,0.4-0.5,0.5c-0.2,0.2-0.4,0.2-0.7,0.2h-0.3h-0.3h-0.6c-0.2,0-0.5-0.1-0.7-0.2 c-0.2-0.1-0.4-0.3-0.5-0.5c-0.1,0.2-0.3,0.4-0.5,0.5c-0.2,0.2-0.4,0.2-0.7,0.2h-0.4h-0.3h-0.2c-0.2,0-0.5,0-0.9-0.1 c-0.4-0.1-0.7-0.1-0.9-0.1s-0.3,0-0.5,0.1c-0.2,0.1-0.3,0.2-0.3,0.3c0,0.1,0.2,0.1,0.5,0.2c0.2,0,0.4,0,0.6,0.1 c0.4,0.1,0.7,0.1,0.9,0.2c0.2,0.1,0.3,0.3,0.3,0.5c0,0.8-0.4,1.4-1.3,1.8c-0.6,0.3-1.4,0.4-2.4,0.4c-2,0-3-0.7-3-2.2 c0-0.4,0.1-0.9,0.4-1.4c0.2-0.5,0.4-0.8,0.6-0.8s0.3,0.1,0.3,0.2c0,0-0.1,0.2-0.2,0.5c-0.1,0.3-0.2,0.6-0.2,0.8c0,0.6,0.3,1.1,1,1.3 c0.4,0.1,1,0.2,1.9,0.2c0.3,0,0.7,0,1.2-0.1c0.6-0.1,0.9-0.2,0.9-0.4c0-0.1-0.2-0.1-0.6-0.1c-0.5,0-0.9-0.1-1.1-0.2 c-0.4-0.1-0.6-0.3-0.6-0.6c0-0.4,0.2-0.9,0.6-1.3c0.5-0.5,1.3-0.8,2.2-0.8h0.9h0.3h0.3c0.6,0,0.9-0.3,0.9-0.8c0-2-0.1-3.3-0.3-4 l1.1-1.1c0.1-0.1,0.1,0,0.1,0v5c0,0.6,0.3,0.8,0.8,0.8h0.3h0.3h0.3c0.6,0,0.9-0.3,0.9-0.8c0-2-0.1-3.3-0.3-4l1.1-1.1 c0.1-0.1,0.1,0,0.1,0v5c0,0.6,0.3,0.8,0.8,0.8h0.6l0,0h0.2c0.3,0,0.6,0,0.6-0.1c0.1,0,0.1-0.2,0.1-0.3c0-0.4,0.1-0.8,0.4-1.1 c0.3-0.4,0.7-0.6,1.1-0.6c0.6,0,1,0.3,1.3,1l0.4,0.8c0.1,0.2,0.3,0.3,0.6,0.3h0.4l0,0h0.4c0.3,0,0.5-0.1,0.6-0.2 c0.1-0.1,0.1-0.3,0.1-0.5c0-0.5-0.1-1.3-0.2-2.2c-0.1-1-0.2-1.7-0.3-2l1-1c0.1-0.1,0.1,0,0.1,0C-160.8-98.6-160.6-98.1-160.3-97.4 L-160.3-97.4z M-164.3-93.2c0-0.2-0.1-0.5-0.2-0.8c-0.2-0.3-0.4-0.5-0.6-0.5c-0.3,0-0.4,0.2-0.4,0.5s0.1,0.6,0.2,0.8 c0.2,0.4,0.4,0.5,0.6,0.5C-164.4-92.6-164.3-92.8-164.3-93.2L-164.3-93.2z M-185.9-92.8c0,0.4-0.1,0.7-0.4,1c-0.2,0.3-0.6,0.4-1,0.4 c-0.5,0-1-0.3-1.3-0.8c-0.3,0.5-0.6,0.7-1.1,0.7h-0.2h-0.3h-0.2c-0.4,0-0.7,0-0.8,0.1c-0.3,0.1-0.4,0.2-0.4,0.4c0,0.3,0.3,0.7,1,0.9 l-0.5,1.4c-1-0.3-1.7-0.7-2.3-1.3c-0.3-0.3-0.6-0.7-0.7-1c0-0.1-0.1-0.3-0.2-0.7c-0.4,0.1-0.7,0.1-0.9,0.1l0,0h-0.3l0,0l0,0l0,0 c-0.4,0-0.6-0.1-0.9-0.2c0,1.2-0.4,2.1-1.1,2.8c-0.2,0.2-0.4,0.3-0.4,0.3c-1,0-1.8-0.1-2.3-0.3c-0.1,0-0.1-0.1,0-0.1 c0.7-0.3,1.4-0.6,2.1-1.1c0.7-0.6,1.1-1,1.1-1.4c0-0.2-0.1-0.5-0.4-0.8c-0.2-0.2-0.4-0.5-0.7-0.7l0.6-1.2c0-0.1,0.1-0.1,0.1,0 c0.6,0.8,1.1,1.2,1.6,1.2h0.2h0.3h0.8c0-1,0.4-2.1,1.3-3.3c0.3,0.3,0.6,0.8,0.8,1.2c0.3,0.6,0.4,1.1,0.4,1.5c0,1.1-0.5,1.7-1.5,1.9 c0.2,0.4,0.6,0.8,1.2,1.1c0-0.6,0.1-1.2,0.5-1.6c0.4-0.5,0.9-0.8,1.4-0.8h0.2h0.3h0.2c0.3,0,0.5,0,0.6-0.1c0.1,0,0.1-0.2,0.1-0.3 c0-0.4,0.1-0.8,0.4-1.1c0.3-0.4,0.7-0.6,1.1-0.6c0.5,0,1,0.3,1.3,0.8C-186-94-185.9-93.4-185.9-92.8L-185.9-92.8z M-186.6-93.2 c0-0.2-0.1-0.5-0.2-0.8c-0.2-0.3-0.4-0.5-0.6-0.5c-0.3,0-0.4,0.2-0.4,0.5s0.1,0.6,0.2,0.8c0.2,0.4,0.4,0.5,0.6,0.5 C-186.7-92.6-186.6-92.8-186.6-93.2L-186.6-93.2z M-192.8-93.3c0-0.2-0.1-0.4-0.3-0.8c-0.1-0.3-0.3-0.5-0.4-0.6 c-0.3,0.4-0.5,0.9-0.5,1.5C-193.6-93.1-193.2-93.2-192.8-93.3L-192.8-93.3z M-202.1-92.9c0,0.3-0.1,0.7-0.4,1.4 c-0.1,0.2-0.1,0.2-0.2,0.2c-0.1,0-0.1-0.2-0.1-0.5l-0.5-6.2l1.1-0.9c0.1-0.1,0.1-0.1,0.2-0.1c0,0,0.1,0,0.1,0.1v6H-202.1z M-201-100.4c0,0.2-0.3,0.5-0.8,0.7c-0.4,0.2-0.8,0.3-1.1,0.3c-0.1,0-0.3,0-0.5-0.1c-0.2-0.1-0.4-0.1-0.5-0.1 c-0.1,0-0.1,0.1-0.2,0.2c-0.1,0.1-0.2,0.2-0.2,0.2c-0.1,0-0.2-0.1-0.2-0.3c0-0.1,0.1-0.3,0.2-0.6c0.2-0.3,0.3-0.4,0.5-0.4 c-0.1,0-0.1,0-0.1,0s0.2,0.1,0.5,0.1c0.5,0.1,0.8,0.2,1,0.2c0.2,0,0.4,0,0.6-0.1c0.3-0.1,0.4-0.1,0.5-0.1 C-201.1-100.6-201-100.5-201-100.4L-201-100.4z M-205-93.9c0,0.6-0.1,1.1-0.3,1.5c-0.3,0.5-0.8,0.8-1.4,0.8h-0.3h-0.3h-0.4 c-0.4,0-0.7-0.1-1-0.4c-0.4-0.3-0.5-0.9-0.5-1.6c0-0.5,0-1.2-0.1-2.2c-0.1-1.1-0.1-1.8-0.2-2.1c0-0.1,0-0.2,0-0.2l1-0.8 c0.1-0.1,0.2-0.1,0.2-0.1l0,0c0,0,0,0.1,0,0.2v4.9c0,0.6,0.3,0.8,0.9,0.8h0.1l0,0h0.7c0.6,0,0.8-0.1,0.8-0.3s-0.2-0.5-0.7-1 c0-0.1,0-0.1,0-0.2l0.7-1c0.1-0.1,0.1-0.1,0.2,0c0.2,0.2,0.3,0.5,0.4,0.8C-205-94.5-205-94.2-205-93.9L-205-93.9z M-205.2-89.8 L-206-89l-0.8-0.8l0.8-0.8L-205.2-89.8L-205.2-89.8z M-210.6-93.7c0,1.4-0.9,2.1-2.7,2.1c-1,0-1.5-0.5-1.5-1.4c0-0.1,0-0.2,0-0.3 c0.1-0.5,0.2-0.8,0.4-0.8c0.1,0,0.2,0.1,0.2,0.3c0,0.2,0.1,0.4,0.2,0.5c0.2,0.2,0.5,0.3,1,0.3c0.3,0,0.6,0,1-0.1 c0.5-0.1,0.8-0.2,0.8-0.4c0-0.3-0.3-0.7-0.8-1.1c-0.5-0.4-0.9-0.7-1.2-0.7l0.4-1.3c0-0.1,0-0.1,0.1-0.1c0,0,0.1,0,0.1,0.1 c0.6,0.4,1.1,0.8,1.5,1.3C-210.8-94.9-210.6-94.3-210.6-93.7L-210.6-93.7z M-162.6-110.1h-1.9c-0.1,0.3-0.3,0.7-0.3,1 c0,0.4,0.4,0.4,0.7,0.4v0.1h-1.8v-0.1c0.5-0.1,0.7-0.6,0.9-1.1l1.9-4.3h0.1l1.9,4.4c0.2,0.4,0.3,0.7,0.5,0.8 c0.1,0.1,0.2,0.1,0.4,0.1v0.1h-2.6v-0.1c0.7,0,0.7-0.2,0.5-0.7L-162.6-110.1L-162.6-110.1z M-172.9-112.6v0.1h-2.8v-0.1 c0.7,0,0.8-0.1,0.8-0.8v-3.6c0-0.6,0-0.8-0.8-0.8v-0.1h2.8v0.1c-0.7,0-0.8,0.1-0.8,0.8v3.5C-173.7-112.8-173.6-112.6-172.9-112.6 L-172.9-112.6z M-148.1-118.3v1.9h-0.2c-0.1-0.5-0.3-0.9-0.6-1.1c-0.9-0.7-2.2-0.4-2.6,0.7c-0.3,0.8-0.3,1.8-0.1,2.7 c0.2,0.8,0.7,1.2,1.6,1.2c0.8,0,1.3-0.4,1.8-1v0.5c-0.6,0.6-1.2,0.9-2.1,0.9c-1,0-2-0.4-2.6-1.3c-0.8-1.4-0.3-3.1,1.1-3.9 c0.9-0.5,1.7-0.5,2.6-0.1c0.4,0.1,0.7,0.3,0.8-0.2h0.3V-118.3z M-162.7-110.4l-0.8-1.8l-0.8,1.8H-162.7L-162.7-110.4z M-127.7-147.8 l-73.4,27.6h-9.7l33.3-12.6c6.7-2.6,7.4-7.6,3.5-13.2c-0.5-0.8-0.6-1.7,0.6-1.8H-127.7L-127.7-147.8z M-161.9-161.8 c9.2,0,17.3,4.3,22.6,10.9h-4c-4.7-4.9-11.3-8-18.7-8c-14.9,0-26.7,12.5-25.9,27.4l-2.9,0.8C-192.1-147.3-178.8-161.8-161.9-161.8 L-161.9-161.8z M-133.3-136.8c2.4,17.3-11.1,32.8-28.6,32.8c-10.1,0-18.9-5.1-24.1-13h3.7c4.7,6.1,12.1,9.9,20.4,9.9 c15.6,0,27.6-13.6,25.7-29L-133.3-136.8z"></path> <g> <path style="fill:#0E52A0;" d="M45.2,86c0-20,0-39.9,0-59.9c19.9,0,39.7,0,59.6,0c0,20,0,39.9,0,59.9C85,86,65.2,86,45.2,86z M67.7,48.4c2,0.4,3.8,1.1,5.6,1.9c4.4,2,8.7,4.1,13,6.1c0.4,0.2,0.7,0.4,1.3-0.1c-7-5.5-14.7-9.6-23-12.5c1.9-0.2,3.7,0.5,5.5,0.7 c0.2-0.2,0.5-0.3,0.6-0.5c2.2-2.2,4.5-4.4,7.2-5.9c4.4-2.5,9-4,14-4.6c0.5-0.1,1.1-0.1,1.4-0.8c-12.8-3-23.6-0.1-32,10.2 c-1.8-0.5-3.5-0.7-5.1-0.7c-1.5,0-3,0.4-4.2,1.3c-1.3,1-1.7,2.1-1,3.7c0.6,1.4,1.6,2.5,2.9,3.3c0.2,0.1,0.4,0.1,0.6-0.1 c-0.1-0.5-0.5-0.9-0.8-1.4c-0.6-1-0.5-2.2,0.5-2.6c1.5-0.6,3.1-0.5,4.8,0.1c-2.4,5.8-4.1,11.7-3.1,17.8c1.4,7.8,5.2,15.6,7.5,16 c0-0.1,0.1-0.3,0.1-0.4c0.1-0.6-0.3-1.1-0.4-1.6c-0.9-4-1.3-8-1.2-12.1c0.2-4.8,1.1-9.5,3.2-13.8C65.9,50.9,66.7,49.6,67.7,48.4z"></path> <path style="fill:#0E52A0;" d="M33.1,117.4c0-0.7-0.4-0.8-1-0.8c-1.2,0.1-2.5,0.1-3.7-0.1c-2.4-0.4-2.3-2.1-1.3-3.6 c1.1-1.5,2.7-2.3,4.5-2.5c2.8-0.3,5.5-0.3,8.3-0.2c0.6,0,1.1,0,1.7-0.4c0.3-0.8,0.2-1.7,0.5-2.5c0.5-1.5,1.6-2.2,3-2.4 c1.7-0.3,3,0.2,3.9,1.7c0.4,0.7,0.9,1.5,1.1,2.3c0.3,0.8,0.8,1.2,1.7,1.3c1.9,0.3,3.3-0.7,3.8-2.6c0-0.2,0.1-0.4,0.1-0.6 c0.3-0.3,0.6-0.3,1.1-0.1c0.3,2.2,1.5,3.4,3.9,3.2c2-0.2,2.8-1.5,3-3.2c0.4-0.3,0.8-0.3,1.1-0.1c0.4,0.4,0.4,0.8,0.5,1.2 c0.2,0.8,0.5,1.7,1.6,1.8c0.9,0.1,1.5-0.5,1.8-1.7c0-0.1,0-0.3,0.1-0.4c0.2-0.9,0.5-1,1.5-0.7c0.1,0.5,0.2,1,0.4,1.5 c0.4,1.1,1.4,1.6,2.4,1.3c0.8-0.3,1-1,0.7-2.2c-0.1-0.4-0.2-0.7-0.3-1.1c0.5-0.8,1.1-1.3,1.8-1.8c0.5,0.4,0.6,0.9,0.7,1.4 c0.2,2.5,0.2,5-0.7,7.4c-1,2.6-3,3.1-5,1.2c-0.1-0.1-0.3-0.2-0.6-0.3c-1.8,2.2-3.6,1.8-5.3-0.2c-2.7,2.4-5.4,2-8.1,0.1 c-1,0.5-1.8,1.5-3,1.5c-1.1,0-2.3,0.4-2.9-0.9c-0.5-0.2-0.8-0.1-1.1,0.2c-1.9,1.7-3.4,1.7-5.3,0c-0.3-0.2-0.5-0.5-1-0.4 c-2.4,2.1-4.9,1.2-7.3-0.1c-1.9-1-3.9-1-5.9-0.8c-0.7,0.1-1.1,0.4-0.8,1.2c1.1,0.2,2.1,0.2,3.2,0.2c1.3,0,2.6,0,3.2,1.4 c0.6,1.1,0,3.4-0.9,4.4c-1,1.1-2.3,1.5-3.7,1.7c-2.1,0.4-4.3,0.7-6.5,0.6c-1.7-0.1-3.4-0.4-4.9-1.4c-1.7-1.1-2.2-2.8-2.2-4.6 c0-1.7,0.3-3.5,0.9-5.1c0.2-0.5,0.5-0.9,0.8-1.2c0.4-0.2,0.8-0.2,1.2,0c0.3,0.3,0.2,0.7,0.1,1c-0.8,3,1.4,5.3,3.7,5.8 c2.9,0.6,5.8,0.5,8.7,0.2C32.6,117.9,32.9,117.8,33.1,117.4z M46.5,107.5c-0.6,0.5-0.9,1.1-0.7,1.9c0.2,1,0.4,2.1,1.4,2.6 c0.6,0.3,1,0,1.2-0.6C48.9,110.1,47.9,108,46.5,107.5z"></path> <path style="fill:#0E52A0;" d="M110,122.5c-0.4-0.9,0.2-1.3,0.7-1.7c2-1.4,4.3-2.4,6.2-3.9c0.3-0.2,0.7-0.4,0.7-0.9 c-0.3-0.5-0.8-0.4-1.3-0.5c-2.9-0.2-4.2-1.8-3.7-4.7c0.3-1.7,0.7-3.4,1.6-4.9c1.3-2.2,4.1-2.2,5.5-0.1c0.7,1,1.1,2,1.3,3.1 c0.1,0.8,0.6,1.2,1.3,1.3c2.4,0.2,4.7-0.1,7-0.6c0.3-0.1,0.7-0.2,0.8-0.6c-0.1-0.6-0.5-0.6-1-0.5c-1,0.1-2.1,0.1-3.1,0 c-1.2-0.1-2-0.8-2.1-2.1c-0.2-2.3,0.5-4.3,1.9-6.1c1.1-1.5,3.8-1.2,5.1,0.4c1.8,2.2,2.3,4.8,2,7.6c-0.2,1.4-0.2,2.8-1.1,4.1 c-1.4,2.2-3.5,2.9-5.9,3.2c-1.1,0.1-2.3,0.1-3.4,0.1c-0.4,0-0.9-0.1-1.3,0.3c-0.5,0.9-0.4,2.1-0.8,3.2c-0.4,0.9-0.9,1.9-1.4,2.7 c-0.4,0.6-0.9,0.9-1.6,0.9C115,122.8,112.6,122.8,110,122.5z M117.6,110.1c-0.3-0.8-0.9-1.3-1.7-1.2c-0.6,0.1-1,0.5-0.9,1.1 C116.2,111,116.7,111,117.6,110.1z M128.8,104.6c-0.3-0.9-0.9-1.1-1.6-1c-0.6,0.1-0.9,0.4-0.6,1.2 C127.3,104.8,128.1,105.5,128.8,104.6z"></path> <path style="fill:#0E52A0;" d="M90.9,111.2c0.5-1.5,1.1-3,2-4.5c0.6,0.3,0.8,0.9,1.2,1.3c1.4,1.8,4.2,2.8,6.4,2.1 c0.9-0.3,0.9-0.9,0.9-1.6c0.1-2.3,1.7-3.8,4-3.8c1.2,0,2.1,0.5,2.8,1.5c1.5,2.1,2,4.5,1.6,7c-0.4,2.5-4.1,3.8-6.1,2.1 c-0.4-0.3-0.6-0.8-1.3-0.9c-1.4,1.6-3.4,1.2-5.3,1.1c-0.9,0-1.3,0.4-1.3,1.2c0,2.2-1,3.9-2.6,5.4c-1.1,1-2.4,1.3-3.7,1.5 c-2.6,0.4-5.2,0.2-7.6-1.2c-0.9-0.5-1.6-1.3-1.9-2.2c-0.9-2.7-1-5.4-0.2-8.1c0.3-0.8,0.5-1,1.3-1.1c0.5,0.5,0.3,1.1,0.2,1.7 c-0.4,3.3,1.1,5.1,4.4,5.3c1.8,0.1,3.6,0,5.4-0.4c1.2-0.3,2.3-0.7,2.6-2.2c0.3-1.5-0.7-2.3-1.7-3.1C91.7,112,91.2,111.8,90.9,111.2 z M105.1,109.1c0.1,0.8,0.3,1.7,0.9,2.4c0.4,0.5,0.9,0.6,1.4,0.4c0.5-0.2,0.6-0.7,0.5-1.2c-0.1-0.9-0.3-1.7-0.8-2.4 c-0.3-0.5-0.7-0.9-1.3-0.7C105.2,107.8,105.1,108.3,105.1,109.1z"></path> <path style="fill:#0E52A0;" d="M71,98.4c0.7,0.4,1.2,1,1.7,1.7c-0.4,0.8-1,1.3-1.6,1.8c-0.9-0.3-1.3-1.1-2.1-1.5 c-0.7,0.3-1.3,0.8-1.8,1.5c-0.9-0.3-1.5-0.8-2-1.6c0.4-0.9,1.1-1.3,1.7-1.8c0.9,0.3,1.2,1.2,2.1,1.5C69.9,99.8,70.1,98.6,71,98.4z"></path> <path style="fill:#0E52A0;" d="M54.3,122.5c-0.8-0.5-1.4-1-1.9-1.8c0.5-0.7,1-1.3,1.7-1.8c0.9,0.3,1.2,1.2,1.9,1.7 C55.6,121.4,55,121.9,54.3,122.5z"></path> <path style="fill:#0E52A0;" d="M128,94c0.9,0.4,1.3,1.1,1.9,1.8c-0.4,0.9-1.1,1.4-1.7,1.9c-0.9-0.4-1.3-1.2-1.8-1.9 C126.7,95,127.3,94.5,128,94z"></path> <path style="fill:#0E52A0;" d="M86.5,103.2c0.8,0.6,1.4,1.2,1.9,2c-0.7,0.6-1.3,1.1-1.9,1.7c-0.7-0.4-1.1-1.2-1.6-1.8 C85.3,104.4,85.9,103.9,86.5,103.2z"></path> <path style="fill:#0E52A0;" d="M56.4,120.8c0.7-0.7,1-1.5,1.9-1.9c0.7,0.5,1.3,1,1.7,1.7c-0.1,1.1-1.1,1.3-1.6,2 C57.5,122.1,57.1,121.4,56.4,120.8z"></path> <path style="fill:#0E52A0;" d="M70.6,96.3c-0.3,0.9-1,1.4-1.6,2.1c-0.7-0.6-1.5-1-1.8-1.9c0.4-0.7,0.9-1.2,1.6-1.7 C69.6,95.1,70,95.8,70.6,96.3z"></path> </g> </svg>