<svg xmlns="http://www.w3.org/2000/svg" xmlns:xlink="http://www.w3.org/1999/xlink" id="Layer_1" x="0px" y="0px" width="150px" height="150px" viewBox="0 0 150 150" style="enable-background:new 0 0 150 150;" xml:space="preserve"> <rect style="fill:#FFFFFF;" width="150" height="150"></rect> <g> <g> <g> <path d="M19.5,128.6c-0.5,0-0.9-0.1-1.3-0.2c-0.4-0.2-0.6-0.4-0.9-0.6c-0.2-0.3-0.4-0.6-0.5-0.9c-0.1-0.3-0.2-0.7-0.2-1.1v-2.7 H19v2.1c0,0.1,0,0.3,0,0.4c0,0.1,0.1,0.2,0.1,0.3c0.1,0.1,0.2,0.1,0.3,0.2c0.1,0,0.3,0.1,0.5,0.1h5.4c0.4,0,0.7-0.1,0.8-0.2 s0.2-0.4,0.2-0.8v-1.9h2.3v2.5c0,0.5-0.1,0.9-0.3,1.3c-0.2,0.4-0.4,0.7-0.7,0.9c-0.3,0.2-0.6,0.4-0.9,0.5s-0.7,0.2-1,0.2H19.5z M24,132.8h-2.4v-2.2H24V132.8z"></path> <path d="M33.4,128.6c-0.4,0-0.7,0-1-0.1s-0.6-0.2-0.8-0.5c-0.2-0.2-0.4-0.5-0.6-0.9s-0.2-0.8-0.2-1.3v-8.5h2.3v7.9 c0,0.6,0.3,0.9,0.8,0.9h0.5c0.3,0,0.4,0.4,0.4,1.2c0,0.9-0.1,1.3-0.4,1.3H33.4z"></path> <path d="M35.6,126.1c0.4,0,0.6-0.1,0.8-0.2c0.2-0.2,0.2-0.4,0.2-0.8v-1.9h2.3v1.9c0,0.4,0.1,0.6,0.3,0.8s0.5,0.2,0.9,0.2h0.4 c0.3,0,0.4,0.4,0.4,1.2c0,0.9-0.1,1.3-0.4,1.3H40c-0.5,0-0.9-0.1-1.3-0.2c-0.4-0.1-0.7-0.4-1-0.9c-0.3,0.5-0.6,0.8-1,0.9 c-0.3,0.1-0.7,0.2-1.1,0.2h-1.2c-0.2,0-0.3-0.1-0.3-0.3s-0.1-0.5-0.1-0.9c0-0.5,0-0.8,0.1-1c0.1-0.2,0.2-0.3,0.3-0.3H35.6z M37.1,121.2h-2.2v-2.1h2.2V121.2z M39.9,121.2h-2.2v-2.1h2.2V121.2z"></path> <path d="M41.2,126.1c0.2,0,0.4,0,0.6,0c0.2,0,0.3,0,0.4,0s0.3,0.1,0.4,0.1c0.1,0,0.3,0.1,0.4,0.1c-0.5-0.3-0.8-0.7-1-1.1 c-0.2-0.4-0.2-1-0.2-1.6c0-0.3,0.1-0.7,0.2-1c0.1-0.3,0.3-0.7,0.6-0.9c0.3-0.3,0.6-0.5,0.9-0.7c0.4-0.2,0.8-0.3,1.3-0.3 c0.5,0,0.9,0.1,1.3,0.2c0.4,0.1,0.7,0.3,1,0.6c0.3,0.3,0.5,0.7,0.7,1.1c0.2,0.5,0.2,1,0.2,1.7v1c0,1-0.3,1.8-0.8,2.4 c-0.6,0.6-1.5,0.8-2.7,0.8h-4c-0.2,0-0.3-0.1-0.3-0.3s-0.1-0.5-0.1-0.9c0-0.5,0-0.8,0.1-1c0.1-0.2,0.2-0.3,0.3-0.3H41.2z M46,119.5h-2.4v-2.2H46V119.5z M44.7,123.3c-0.3,0-0.6,0.1-0.7,0.3c-0.1,0.2-0.2,0.4-0.2,0.6c0,0.1,0,0.2,0.1,0.4 s0.1,0.2,0.2,0.4s0.3,0.3,0.5,0.4c0.2,0.2,0.5,0.3,0.9,0.5c0.1-0.1,0.1-0.2,0.1-0.4c0-0.2,0-0.3,0-0.5v-0.4c0-0.2,0-0.3,0-0.5 s-0.1-0.3-0.2-0.4s-0.2-0.2-0.3-0.3C45.1,123.4,44.9,123.3,44.7,123.3z"></path> <path d="M50.1,118.4c-0.3,0-0.4,0-0.6,0.1s-0.2,0.2-0.3,0.4l-0.4,0.9l-1.4-0.7l0.6-1.4c0.1-0.3,0.2-0.5,0.3-0.6 c0.1-0.2,0.2-0.3,0.4-0.4c0.1-0.1,0.3-0.2,0.5-0.2c0.2,0,0.5-0.1,0.8-0.1h3.9l-0.1,2.1H50.1z M50,120.2h2.3v8.4H50V120.2z"></path> <path d="M65.4,126.1c0.4,0,0.6-0.1,0.8-0.2c0.2-0.2,0.2-0.4,0.2-0.8v-1.9h2.3v1.9c0,0.4,0.1,0.6,0.3,0.8c0.2,0.2,0.5,0.2,0.9,0.2 h0.4c0.2,0,0.3,0.1,0.3,0.3s0.1,0.5,0.1,0.9c0,0.5,0,0.8-0.1,1c-0.1,0.2-0.2,0.3-0.3,0.3h-0.5c-0.5,0-0.9-0.1-1.3-0.2 c-0.4-0.1-0.7-0.4-1-0.9c-0.3,0.5-0.6,0.8-1,0.9c-0.4,0.1-0.7,0.2-1.1,0.2h-5.9c-0.5,0-0.9-0.1-1.3-0.2c-0.4-0.2-0.6-0.4-0.9-0.6 c-0.2-0.3-0.4-0.6-0.5-0.9c-0.1-0.3-0.2-0.7-0.2-1.1v-2.7H59v2.1c0,0.1,0,0.3,0,0.4c0,0.1,0.1,0.2,0.1,0.3 c0.1,0.1,0.2,0.1,0.3,0.2c0.1,0,0.3,0.1,0.5,0.1H65.4z M62.4,121.8h-2.2v-2.1h2.2V121.8z M65.2,121.8H63v-2.1h2.2V121.8z"></path> <path d="M72.3,126.1c-0.3-0.4-0.5-0.8-0.6-1.1c-0.1-0.3-0.1-0.7-0.1-1c0-0.4,0.1-0.8,0.2-1.2c0.2-0.4,0.4-0.7,0.7-1 s0.6-0.5,1-0.7c0.4-0.2,0.9-0.3,1.4-0.3c0.5,0,0.9,0.1,1.3,0.3c0.4,0.2,0.7,0.4,0.9,0.7c0.2,0.3,0.4,0.6,0.6,1 c0.1,0.4,0.2,0.7,0.2,1.1c0,0.5-0.1,0.9-0.2,1.2c-0.1,0.3-0.3,0.7-0.5,1h2c0.3,0,0.4,0.4,0.4,1.2c0,0.9-0.1,1.3-0.4,1.3h-1.7 c-0.6,0-1.1,0-1.5-0.1c-0.4-0.1-0.8-0.2-1-0.3c-0.2,0.1-0.4,0.2-0.6,0.2s-0.5,0.1-0.8,0.1c-0.3,0-0.5,0-0.8,0s-0.5,0-0.6,0h-1.9 c-0.2,0-0.3-0.1-0.3-0.3s-0.1-0.5-0.1-0.9c0-0.5,0-0.8,0.1-1c0.1-0.2,0.2-0.3,0.3-0.3H72.3z M76.1,119.7h-2.4v-2.2h2.4V119.7z M74.8,123.4c-0.3,0-0.5,0.1-0.7,0.3c-0.2,0.2-0.3,0.4-0.3,0.7c0,0.2,0.1,0.5,0.2,0.7c0.2,0.2,0.4,0.5,0.8,0.7 c0.4-0.2,0.6-0.4,0.7-0.7c0.1-0.2,0.2-0.5,0.2-0.7c0-0.3-0.1-0.5-0.3-0.7C75.3,123.5,75.1,123.4,74.8,123.4z"></path> <path d="M81,126.1c0.4,0,0.6-0.1,0.8-0.2c0.2-0.2,0.2-0.4,0.2-0.8v-1.9h2.3v2.1c0,1.1-0.3,1.9-0.8,2.5c-0.5,0.6-1.3,0.8-2.3,0.8 h-1.9c-0.2,0-0.3-0.1-0.3-0.3s-0.1-0.5-0.1-0.9c0-0.5,0-0.8,0.1-1c0.1-0.2,0.2-0.3,0.3-0.3H81z M83.7,121.2h-2.4V119h2.4V121.2z"></path> <path d="M98.5,125.1c0,0.4,0.1,0.6,0.3,0.8s0.5,0.2,0.8,0.2c0.4,0,0.7-0.1,0.9-0.2s0.3-0.4,0.3-0.8v-1.9h2.3v1.9 c0,0.4,0.1,0.6,0.3,0.8s0.4,0.2,0.6,0.2c0.6,0,0.9-0.3,0.9-1v-1.9h2.3v1.9c0,0.4,0.1,0.6,0.3,0.8s0.5,0.2,0.8,0.2h0.5 c0.2,0,0.3,0.1,0.3,0.3s0.1,0.5,0.1,0.9c0,0.5,0,0.8-0.1,1c-0.1,0.2-0.2,0.3-0.3,0.3h-0.5c-0.5,0-0.9-0.1-1.3-0.2 c-0.4-0.1-0.7-0.4-1-0.9c-0.3,0.5-0.6,0.8-1,0.9c-0.4,0.1-0.7,0.2-1,0.2c-0.4,0-0.8-0.1-1.1-0.2c-0.4-0.1-0.7-0.4-1-0.9 c-0.3,0.5-0.6,0.8-1,0.9c-0.4,0.1-0.7,0.2-1.1,0.2c-0.6,0-1-0.2-1.3-0.5v0.2c0,0.6-0.1,1.2-0.3,1.8c-0.2,0.6-0.5,1.1-0.9,1.5 c-0.4,0.4-0.9,0.8-1.4,1s-1.2,0.4-1.9,0.4h-1.2c-1.4,0-2.4-0.4-3.2-1.3c-0.8-0.8-1.1-2-1.1-3.4V125h2.3v3.2c0,0.4,0,0.7,0.1,1 c0.1,0.3,0.2,0.5,0.4,0.7c0.2,0.2,0.4,0.4,0.7,0.5c0.3,0.1,0.7,0.2,1.1,0.2h0.8c0.5,0,0.9-0.1,1.2-0.2c0.3-0.1,0.6-0.3,0.7-0.5 c0.2-0.2,0.3-0.5,0.4-0.8c0.1-0.3,0.1-0.6,0.1-0.9v-4.9h2.3V125.1z M101.5,121.2h-2.2v-2.1h2.2V121.2z M102.9,118.4h-2.2v-2.1 h2.2V118.4z M104.3,121.2h-2.2v-2.1h2.2V121.2z"></path> <path d="M110.5,126.1c0.4,0,0.6-0.1,0.8-0.2c0.2-0.2,0.2-0.4,0.2-0.8v-1.9h2.3v2.1c0,1.1-0.3,1.9-0.8,2.5 c-0.5,0.6-1.3,0.8-2.3,0.8h-1.9c-0.2,0-0.3-0.1-0.3-0.3s-0.1-0.5-0.1-0.9c0-0.5,0-0.8,0.1-1c0.1-0.2,0.2-0.3,0.3-0.3H110.5z M110.8,132.7h-2.2v-2.1h2.2V132.7z M113.6,132.7h-2.2v-2.1h2.2V132.7z"></path> <path d="M115.8,117.3h2.3v8.8h1.3c0.3,0,0.5-0.1,0.6-0.2s0.2-0.3,0.2-0.5v-8.1h2.3v8.5c0,0.5-0.1,0.9-0.2,1.2 c-0.2,0.4-0.4,0.6-0.6,0.9c-0.3,0.2-0.6,0.4-0.9,0.5s-0.7,0.2-1.1,0.2h-3.9V117.3z"></path> <path d="M127.3,128.6c-0.4,0-0.7,0-1-0.1c-0.3-0.1-0.6-0.2-0.8-0.5s-0.4-0.5-0.6-0.9s-0.2-0.8-0.2-1.3v-8.5h2.3v7.9 c0,0.6,0.3,0.9,0.8,0.9h0.5c0.3,0,0.4,0.4,0.4,1.2c0,0.9-0.1,1.3-0.4,1.3H127.3z"></path> <path d="M130,126.1c0.4,0,0.6-0.1,0.8-0.2c0.2-0.2,0.2-0.4,0.2-0.8v-1.9h2.3v2.1c0,1.1-0.3,1.9-0.8,2.5c-0.5,0.6-1.3,0.8-2.3,0.8 h-1.9c-0.2,0-0.3-0.1-0.3-0.3s-0.1-0.5-0.1-0.9c0-0.5,0-0.8,0.1-1c0.1-0.2,0.2-0.3,0.3-0.3H130z M130.4,132.7h-2.2v-2.1h2.2 V132.7z M131.8,135.5h-2.2v-2.1h2.2V135.5z M133.2,132.7H131v-2.1h2.2V132.7z"></path> </g> </g> <g> <path d="M93.8,84l3.5,6.1c-0.8,1-1.6,2-2.5,2.9c-5.3,5.6-12.8,9.3-21.6,9.3c-23.2,0-37.6-25.6-25.8-45.8l3.5-6h7.2l-5.4,9.2 c-1.2,2-2,4.1-2.6,6.3c-0.5,2.1-0.8,4.2-0.8,6.3c0.1,4.1,1.2,8.2,3.3,11.9c2,3.6,4.9,6.5,8.3,8.6c3.6,2.2,7.7,3.3,12.1,3.3 c4.4,0,8.5-1.1,12.1-3.3C88.9,90.6,91.7,87.6,93.8,84C93.8,84,93.8,84,93.8,84z"></path> <path d="M101.4,82.5c-0.4,1-0.8,2.1-1.3,3.1c0,0,0,0,0,0l-4-6.9c0,0,0,0,0,0c0.4-1.3,0.6-2.6,0.8-4c0.1-0.8,0.2-1.7,0.2-2.5 c0-2.1-0.2-4.3-0.8-6.3c-0.6-2.2-1.4-4.3-2.6-6.3l-19-32.5l-4.9-8.6l3.6-6.1l25.8,44.1C104.1,65,104.4,74.4,101.4,82.5z"></path> <path d="M96.9,74.7L70.7,29.3l-1.1-1.9l-2.5-4.4L55.7,42.6L55,43.6l-0.2,0.3c-0.4,0.7,0.1,1.5,0.8,1.5h10.7c0.7,0,1.3-0.4,1.6-0.9 l1.1-1.9h-6.2L69.1,32l14.6,25.4c-2.9-2.1-6.5-3.3-10.4-3.3c-10.1,0-18.2,8.2-18.2,18.2c0,10.1,8.2,18.2,18.2,18.2 c10.1,0,18.2-8.2,18.2-18.2c0-0.5,0-1-0.1-1.5l4.6,7.9C96.5,77.4,96.7,76,96.9,74.7z M73.4,84.2c-6.6,0-11.9-5.4-11.9-11.9 c0-6.6,5.4-11.9,11.9-11.9c6.6,0,11.9,5.4,11.9,11.9C85.3,78.9,80,84.2,73.4,84.2z"></path> <path style="fill:#C51824;" d="M50.4,51.6h12.4c0.7,0,1.3-0.4,1.6-0.9l1.1-1.9H52.6c-0.3,0-0.7,0.2-0.8,0.5L50.4,51.6z"></path> <path d="M105.6,94.2l-0.4,0.2l-5.1-8.8l-4-6.9c0.4-1.3,0.6-2.6,0.8-4l4.5,7.8l5,8.6C107,92.2,106.6,93.6,105.6,94.2z"></path> </g> </g> </svg>