<svg xmlns="http://www.w3.org/2000/svg" xmlns:xlink="http://www.w3.org/1999/xlink" id="Layer_1" x="0px" y="0px" width="150px" height="150px" viewBox="0 0 150 150" style="enable-background:new 0 0 150 150;" xml:space="preserve"> <rect style="fill:#FFFFFF;" width="150" height="150"></rect> <g> <g> <g> <path style="fill:#F6821F;" d="M55.8,17.5h38.4c1.8,0.1,3.6,0.8,4.9,2c1.6,1.4,2.6,3.5,2.7,5.7v10.5c-0.1,0.2-0.3,0.4-0.5,0.3 c-3.3-0.7-6.8-0.4-9.9,0.8c-2.2,0.9-4.3,2.2-6,3.9c-0.3,0.3,0,0.9,0.5,0.8c3.2-0.7,6.7-0.1,9.6,1.6c2.7,1.6,4.8,4.2,5.7,7.2 c0.4,1.2,0.6,2.5,0.7,3.8v4.2c-0.1,3-1.2,6-3.2,8.2c-1.3,1.5-3.1,2.8-5,3.5c-0.2,0.1-0.5-0.1-0.6-0.3c0-0.2,0.1-0.4,0.3-0.5 c2.3-2.5,3.9-5.8,4.4-9.2c0.5-3.2,0.1-6.5-1.1-9.5c-0.9-2.1-2.2-4.1-3.8-5.7c-0.3-0.4-1,0-0.8,0.4c0.5,2.5,0.4,5.1-0.5,7.4 c-1,2.6-2.8,4.9-5.2,6.4c-2.4,1.6-5.4,2.3-8.2,2.1c-0.4-0.1-0.7,0.5-0.4,0.8c1.9,2.7,3.8,5.4,5.7,8.2c0.2,0.2,0.2,0.6-0.1,0.8 H55.8c-2-0.1-4-1-5.4-2.5c-1.3-1.3-2.1-3.1-2.2-4.9c-0.1-0.7,0-1.4,0-2.2c0-11.5,0-23,0-34.5c0-1-0.1-2.1,0.1-3.1 c0.4-2,1.5-3.8,3.1-5C52.7,18.1,54.2,17.6,55.8,17.5z M87.8,19.4c-4.2,1.5-7.8,4.7-9.8,8.7c-1.7,3.5-2.3,7.6-1.4,11.4 c0.7,3.3,2.3,6.3,4.7,8.7c0.3,0.4,0.9,0,0.8-0.5c-0.5-2.3-0.4-4.8,0.4-7.1c0.9-2.7,2.7-5,5-6.6c2.5-1.7,5.5-2.5,8.4-2.2 c0.3,0.1,0.5-0.1,0.6-0.4c0.1-0.2-0.1-0.4-0.2-0.6c-2.7-3.8-5.3-7.6-8-11.3C88.3,19.4,88,19.3,87.8,19.4z M71.7,37.2 c-0.6,0.4-1.2,0.8-1.8,1.2c-3.2,2.3-6.4,4.6-9.7,6.8c-0.2,0.1-0.5,0.4-0.4,0.7c1.5,4.2,4.6,7.8,8.6,9.7c3.4,1.7,7.4,2.3,11.1,1.6 c3.4-0.6,6.7-2.3,9.1-4.8c0.3-0.3,0-0.9-0.4-0.8c-1.9,0.4-3.8,0.4-5.6,0c-3-0.6-5.7-2.3-7.5-4.7c-2-2.5-3-5.8-2.8-9 c0-0.2,0.1-0.4,0-0.6C72.2,37.2,71.9,37.1,71.7,37.2z"></path> </g> </g> <g> <path style="fill:#A7A9AD;" d="M93,88.9c1.2-1.2,2.3-2.3,3.4-3.4c1.2,1.2,2.3,2.3,3.4,3.4c-1.2,1.2-2.3,2.3-3.4,3.4 C95.3,91.2,94.2,90.1,93,88.9z"></path> <path style="fill:#A7A9AD;" d="M102.1,88.9c1.2-1.2,2.3-2.3,3.4-3.4c1.2,1.2,2.3,2.3,3.4,3.4c-1.2,1.2-2.3,2.3-3.4,3.4 C104.4,91.2,103.3,90.1,102.1,88.9z"></path> <path style="fill:#A7A9AD;" d="M59,90.6c1.8,0,3.6,0,5.4,0c-1.8,1.8-3.7,3.7-5.5,5.5c1.1,0,2.2-0.1,3.2,0.3c1.5,0.6,2.6,2,2.7,3.6 c0,1,0,2,0,3c0,0.7,0.7,1.3,1.4,1.3c2.3,0,4.7,0,7.1,0c-1.8,1.8-3.7,3.7-5.5,5.5c-0.8,0-1.7,0.1-2.5-0.1c-0.9-0.3-1.8-0.9-2.3-1.7 c-0.7,1.1-2.1,1.9-3.4,1.8c-6.6,0-13.2,0-19.8,0c1.8-1.8,3.7-3.7,5.5-5.5c5.1,0,10.3,0,15.4,0c0.7,0,1.4-0.7,1.4-1.4 c0-0.7-0.6-1.4-1.4-1.3c-4.2,0-8.5,0-12.7,0C51.6,97.9,55.3,94.3,59,90.6z"></path> <path style="fill:#A7A9AD;" d="M88.4,93.6c0.9-0.9,1.8-1.8,2.7-2.7c0,4,0,7.9,0,11.8c0,0.6,0.2,1.2,0.8,1.5 c0.6,0.4,1.3,0.2,1.9,0.2c0.6,0,1.1,0.1,1.7-0.1c0.6-0.2,1.1-0.8,1.1-1.4c0-0.7,0-1.5,0-2.2c0.9-0.9,1.8-1.8,2.7-2.7 c0,1.6,0,3.3,0,4.9c0,0.8,0.8,1.5,1.6,1.5c2,0,4,0,6,0c0.5,0,0.8-0.6,0.7-1.1c-1.5,0.3-3.2,0.3-4.7-0.5c-0.6-0.3-1.1-1-1.2-1.7 c-0.1-1.5,0-3,0.5-4.4c0.3-1,0.8-2,1.6-2.6c0.9-0.7,2.1-0.8,3.1-0.4c0.8,0.3,1.5,1,2,1.8c0.8,1.3,1.1,2.7,1.3,4.2 c0.3,2.2,0.2,4.5-0.4,6.7c-0.2,0.9-0.7,1.8-1.5,2.3c-0.7,0.5-1.6,0.7-2.5,0.9c-1.3,0.2-2.6,0.2-3.9,0.2c-1.3,0-2.6-0.7-3.3-1.8 c-0.7,1-1.8,1.7-3,1.8c-0.6,0-1.3,0-1.9,0c-0.8,0-1.7,0.1-2.5-0.2c-1.6-0.5-2.7-2.1-2.7-3.8C88.4,101.8,88.4,97.7,88.4,93.6z"></path> <path style="fill:#A7A9AD;" d="M65.8,100.5c0.9-1,1.9-1.9,2.9-2.9c1,1,1.9,1.9,2.9,2.9c-0.9,1-1.9,1.9-2.9,2.9 C67.7,102.4,66.7,101.4,65.8,100.5z"></path> <path style="fill:#A7A9AD;" d="M71.5,100.5c0.9-1,1.9-1.9,2.9-2.9c1,0.9,1.9,1.9,2.9,2.9c-1,0.9-1.9,1.9-2.9,2.9 C73.4,102.4,72.5,101.4,71.5,100.5z"></path> <path style="fill:#A7A9AD;" d="M84.2,100.8c0.9-0.9,1.8-1.8,2.7-2.7c0,2.7,0,5.4,0,8.1c0,1.5-1,2.9-2.4,3.5 c-0.5,0.2-1,0.3-1.5,0.3c-4.3,0-8.6,0-12.9,0c1.8-1.8,3.6-3.6,5.4-5.4c2.4,0,4.7,0,7.1,0c0.8,0,1.5-0.7,1.5-1.5 C84.2,102.2,84.2,101.5,84.2,100.8z"></path> <path style="fill:#A7A9AD;" d="M66.3,113.7c1-1,1.9-1.9,2.9-2.9c1,1,1.9,1.9,2.9,2.9c-0.9,1-1.9,1.9-2.9,2.9 C68.2,115.7,67.3,114.7,66.3,113.7z"></path> <path style="fill:#A7A9AD;" d="M72.1,113.7c0.9-1,1.9-1.9,2.9-2.9c1,0.9,1.9,1.9,2.9,2.9c-1,1-1.9,1.9-2.9,2.9 C74,115.7,73,114.7,72.1,113.7z"></path> <path style="fill:#A7A9AD;" d="M77.8,113.7c1-0.9,1.9-1.9,2.9-2.9c1,1,1.9,1.9,2.9,2.9c-1,1-1.9,1.9-2.9,2.9 C79.7,115.7,78.8,114.7,77.8,113.7z"></path> </g> <g> <g> <path style="fill:#A7A9AD;" d="M31.6,132.5c1.6-3.9,3.3-7.8,5-11.7c0.8,0,1.6,0,2.3,0c1.6,3.9,3.3,7.8,5,11.7c-0.9,0-1.8,0-2.7,0 c-0.4-0.9-0.7-1.7-1.1-2.6c-1.6,0-3.3,0-4.9,0c-0.4,0.9-0.7,1.7-1.1,2.6C33.3,132.5,32.4,132.5,31.6,132.5z M36.1,127.6 c1,0,2,0,3.1,0c-0.5-1.2-1-2.5-1.5-3.7C37.1,125.1,36.6,126.4,36.1,127.6z"></path> </g> <g> <path style="fill:#A7A9AD;" d="M57,132.5c1.6-3.9,3.3-7.8,5-11.7c0.8,0,1.6,0,2.3,0c1.6,3.9,3.3,7.8,5,11.7c-0.9,0-1.8,0-2.7,0 c-0.4-0.9-0.7-1.7-1.1-2.6c-1.6,0-3.3,0-4.9,0c-0.4,0.9-0.7,1.7-1.1,2.6C58.7,132.5,57.9,132.5,57,132.5z M61.6,127.6 c1,0,2,0,3.1,0c-0.5-1.3-1-2.5-1.5-3.7C62.6,125.1,62.1,126.4,61.6,127.6z"></path> </g> <path style="fill:#A7A9AD;" d="M107.6,121.5c1.4-0.7,3-0.8,4.5-0.4c1,0.2,2,0.8,2.7,1.5c-0.5,0.6-1.1,1.2-1.6,1.8 c-0.7-0.6-1.5-1.2-2.5-1.3c-1-0.1-2.1,0.2-2.7,1c-1.2,1.4-1.2,3.6,0,5c0.8,0.9,2.1,1.3,3.3,1c0.8-0.2,1.5-0.7,2.1-1.2 c0.5,0.5,1.1,1.1,1.6,1.6c-0.8,0.9-1.8,1.6-3,1.8c-1.5,0.3-3.1,0.2-4.5-0.5c-1.4-0.7-2.5-2.2-2.8-3.7c-0.3-1.3-0.2-2.8,0.5-4 C105.6,122.9,106.5,122,107.6,121.5z"></path> <path style="fill:#A7A9AD;" d="M23.8,120.9c2.9,0,5.9,0,8.8,0c0,0.8,0,1.5,0,2.3c-2.1,0-4.2,0-6.3,0c0,0.8,0,1.7,0,2.5 c1.8,0,3.7,0,5.5,0c0,0.8,0,1.5,0,2.3c-1.8,0-3.7,0-5.5,0c0,1.5,0,3,0,4.5c-0.8,0-1.7,0-2.6,0V120.9z"></path> <path style="fill:#A7A9AD;" d="M45.3,120.9c0.8,0,1.6,0,2.3,0c1.8,2.4,3.6,4.7,5.4,7.1c0-2.4,0-4.7,0-7.1c0.8,0,1.7,0,2.5,0 c0,3.9,0,7.7,0,11.6c-0.7,0-1.4,0-2.2,0c-1.9-2.5-3.7-4.9-5.6-7.4c0,2.5,0,4.9,0,7.4c-0.8,0-1.7,0-2.5,0 C45.3,128.6,45.3,124.8,45.3,120.9z"></path> <g> <path style="fill:#A7A9AD;" d="M70.6,120.9c1.6,0,3.2,0,4.8,0c1.2,0,2.4,0.4,3.2,1.2c0.8,0.8,1.1,2,1.1,3.1 c0,0.9-0.4,1.9-1.1,2.6c-0.9,0.8-2.1,1.2-3.3,1.2c-0.7,0-1.5,0-2.2,0c0,1.2,0,2.3,0,3.5c-0.8,0-1.7,0-2.6,0 C70.6,128.6,70.6,124.8,70.6,120.9z M73.1,123.2c0,1.2,0,2.3,0,3.5c0.8,0,1.6,0,2.4,0c0.7-0.1,1.4-0.5,1.6-1.2 c0.2-0.6,0.1-1.3-0.3-1.7c-0.4-0.4-1-0.6-1.6-0.6C74.5,123.2,73.8,123.2,73.1,123.2z"></path> </g> <path style="fill:#A7A9AD;" d="M83.9,120.9c3.2,0,6.4,0,9.6,0c0,0.8,0,1.6,0,2.3c-1.2,0-2.3,0-3.5,0c0,3.1,0,6.2,0,9.2 c-0.8,0-1.7,0-2.6,0c0-3.1,0-6.2,0-9.2c-1.2,0-2.3,0-3.5,0C83.9,122.5,83.9,121.7,83.9,120.9z"></path> <path style="fill:#A7A9AD;" d="M95,120.9c2.9,0,5.8,0,8.7,0c0,0.8,0,1.5,0,2.3c-2.1,0-4.1,0-6.2,0c0,0.8,0,1.6,0,2.3 c1.8,0,3.6,0,5.5,0c0,0.8,0,1.5,0,2.3c-1.8,0-3.6,0-5.5,0c0,0.8,0,1.6,0,2.4c2.1,0,4.2,0,6.3,0c0,0.8,0,1.5,0,2.3 c-2.9,0-5.9,0-8.8,0C95,128.6,95,124.8,95,120.9z"></path> <path style="fill:#A7A9AD;" d="M116.4,120.9c0.8,0,1.7,0,2.6,0c0,1.5,0,3,0,4.6c1.6,0,3.1,0,4.7,0c0-1.5,0-3,0-4.6 c0.8,0,1.7,0,2.6,0c0,3.9,0,7.7,0,11.6c-0.8,0-1.7,0-2.6,0c0-1.5,0-3.1,0-4.7c-1.6,0-3.1,0-4.7,0c0,1.5,0,3.1,0,4.7 c-0.8,0-1.7,0-2.6,0C116.4,128.6,116.4,124.8,116.4,120.9z"></path> </g> </g> </svg>