<svg width="30" height="20" viewBox="0 0 30 20" fill="none" xmlns="http://www.w3.org/2000/svg">
<path d="M1.95622 1.13438C5.51062 4.69598 9.06502 8.25758 12.6194 11.8192C13.0538 12.2536 13.4282 12.844 13.9514 13.06C14.261 13.1896 15.7346 13.1896 16.0466 13.06C16.5722 12.8416 16.9466 12.2536 17.3786 11.8192C20.933 8.25998 24.4874 4.69838 28.0418 1.13438L28.0442 1.13198C28.1882 0.987984 28.0826 0.740784 27.881 0.740784H15.0002H2.11702C1.91302 0.740784 1.80982 0.987984 1.95382 1.13198C1.95382 1.13438 1.95622 1.13438 1.95622 1.13438Z" fill="white"/>
<path d="M20.0636 11.68C19.9772 11.5912 19.8332 11.5888 19.7444 11.6728C19.7012 11.7112 19.658 11.7544 19.6148 11.7976C18.7988 12.6136 17.978 13.4224 17.174 14.248C17.0204 14.4064 16.8572 14.5216 16.6748 14.5888C16.4612 14.6704 16.2788 14.6656 16.1828 14.6656C15.8324 14.6632 14.1572 14.6632 13.8116 14.6656C13.7156 14.6656 13.5332 14.668 13.3196 14.5888C13.1372 14.5192 12.974 14.4064 12.8204 14.248C12.0164 13.4224 11.1956 12.6112 10.3796 11.7976C10.3364 11.7544 10.2932 11.7136 10.25 11.6728C10.1588 11.5888 10.0172 11.5912 9.93083 11.68C7.53563 14.0824 5.15483 16.4704 2.76683 18.8656C2.62283 19.0096 2.72363 19.2592 2.93003 19.2592C10.9748 19.2592 19.022 19.2592 27.0668 19.2592C27.2708 19.2592 27.374 19.012 27.23 18.8656C24.8396 16.4704 22.4588 14.0824 20.0636 11.68Z" fill="white"/>
<path d="M29.1644 2.37759C26.5484 4.99839 23.9348 7.61919 21.3908 10.168C21.302 10.2568 21.302 10.4032 21.3908 10.492C23.9708 13.0792 26.5844 15.6976 29.1644 18.2872C29.3084 18.4312 29.5556 18.3304 29.5556 18.124V2.5384C29.558 2.3344 29.3108 2.23119 29.1644 2.37759Z" fill="white"/>
<path d="M8.6575 10.1776C6.0751 7.59037 3.4615 4.97197 0.8311 2.33677C0.6871 2.19277 0.4375 2.29357 0.4375 2.49997V18.1792C0.4375 18.3832 0.6847 18.4864 0.8311 18.3424C3.4471 15.724 6.0655 13.1008 8.6575 10.504C8.7463 10.4104 8.7463 10.2664 8.6575 10.1776Z" fill="white"/>
</svg>
