<svg width="32" height="32" viewBox="0 0 32 32" fill="none" xmlns="http://www.w3.org/2000/svg">
<path d="M16.0095 8.96802C12.1335 8.96802 8.97506 12.1192 8.97266 15.9928C8.97026 19.8664 12.1263 23.0296 15.9975 23.032C19.8711 23.0344 23.0319 19.8784 23.0343 16.0072C23.0367 12.1312 19.8807 8.97042 16.0095 8.96802ZM16.0143 20.2168C13.6815 20.2216 11.7807 18.3208 11.7831 15.988C11.7879 13.6768 13.6767 11.788 15.9879 11.7808C18.3231 11.776 20.2215 13.6744 20.2167 16.0096C20.2143 18.3232 18.3279 20.212 16.0143 20.2168Z" fill="white"/>
<path d="M24.096 6.53201C23.3376 6.51521 22.6848 7.13681 22.6608 7.89521C22.6368 8.67281 23.28 9.33761 24.0576 9.34241C24.816 9.34721 25.4592 8.71601 25.4688 7.95521C25.4808 7.19681 24.8544 6.54881 24.096 6.53201Z" fill="white"/>
<path d="M22.9955 0.43839C18.3107 0.43119 13.6283 0.433591 8.94347 0.443191C8.35547 0.445591 7.76747 0.49359 7.19387 0.61839C3.15947 1.48479 0.445071 4.85199 0.440271 9.00639C0.435471 13.6456 0.437871 18.2872 0.440271 22.9264C0.442671 27.9664 4.30667 31.7248 9.39467 31.5568C13.8203 31.4104 18.2459 31.4488 22.6715 31.5592C27.7283 31.6864 31.5587 27.952 31.5635 22.9456C31.5659 20.6344 31.5635 18.3208 31.5635 16.0096C31.5635 13.6816 31.5659 11.3536 31.5635 9.02559C31.5563 4.15839 27.8531 0.44559 22.9955 0.43839ZM28.7507 22.9792C28.7459 26.2888 26.2883 28.7464 22.9715 28.7488C18.3179 28.7536 13.6619 28.7536 9.00827 28.7488C5.72507 28.7464 3.25547 26.2816 3.25067 23.0056C3.24587 18.3352 3.24587 13.6648 3.25067 8.99439C3.25307 5.71839 5.72267 3.25359 9.00587 3.24879C13.6763 3.24399 18.3467 3.24399 23.0147 3.24879C26.2691 3.25119 28.7411 5.71839 28.7483 8.96799C28.7531 11.3104 28.7483 13.6528 28.7483 15.9976C28.7531 18.3256 28.7555 20.6536 28.7507 22.9792Z" fill="white"/>
</svg>
