<svg width="30" height="30" viewBox="0 0 30 30" fill="none" xmlns="http://www.w3.org/2000/svg">
<path d="M28.6469 14.9064C28.1429 12.564 26.8589 10.812 24.4301 10.1688C23.7221 9.9816 22.9733 9.888 22.2413 9.876C19.9829 9.8376 17.9453 10.3656 16.4717 12.3504C16.4717 11.9856 16.4741 11.6184 16.4717 11.2536C16.4621 10.476 16.1621 10.1664 15.3989 10.164C14.0957 10.1592 12.7925 10.1592 11.4893 10.164C10.7693 10.1664 10.4549 10.4808 10.4549 11.1936C10.4525 16.86 10.4525 22.5264 10.4549 28.1928C10.4549 28.9224 10.7837 29.244 11.5205 29.244C12.7349 29.2464 13.9493 29.244 15.1637 29.244C16.2053 29.244 16.4525 28.9992 16.4525 27.9672C16.4525 25.1184 16.4477 22.272 16.4549 19.4232C16.4573 18.336 16.6949 17.3016 17.2973 16.3824C18.0317 15.2616 19.1093 14.916 20.3837 15.0912C21.5501 15.2496 22.3349 15.9408 22.6037 17.052C22.8317 17.9904 22.9325 18.9792 22.9469 19.9464C22.9901 22.6896 22.9565 25.4352 22.9589 28.1784C22.9589 28.9224 23.2757 29.2344 24.0149 29.2368C25.3469 29.2416 26.6789 29.2392 28.0133 29.2368C28.8029 29.2344 29.1173 28.92 29.1173 28.128C29.1149 25.0128 29.1509 21.8976 29.0885 18.7824C29.0573 17.4864 28.9205 16.1736 28.6469 14.9064Z" fill="white"/>
<path d="M4.83078 0.753598C2.66838 0.719998 0.889982 2.436 0.863582 4.5816C0.837182 6.7224 2.55318 8.4888 4.67718 8.5128C6.85638 8.5368 8.58438 6.8472 8.61078 4.668C8.63718 2.5488 6.93558 0.787198 4.83078 0.753598Z" fill="white"/>
<path d="M6.60085 10.1544C5.37205 10.1472 4.14325 10.1472 2.91445 10.1544C2.06965 10.1592 1.74325 10.4976 1.74325 11.352C1.74085 14.1264 1.74325 16.8984 1.74325 19.6728C1.74325 22.4904 1.74085 25.3104 1.74565 28.128C1.74565 28.884 2.10565 29.2416 2.86645 29.244C4.10965 29.2488 5.35285 29.2464 6.59605 29.244C7.38325 29.2416 7.74805 28.896 7.75045 28.1112C7.75525 22.5048 7.75525 16.8984 7.75045 11.292C7.74805 10.5 7.39765 10.1592 6.60085 10.1544Z" fill="white"/>
</svg>
