<svg width="24" height="24" viewBox="0 0 24 24" fill="none" xmlns="http://www.w3.org/2000/svg">
<path d="M20 0H4C1.791 0 0 1.791 0 4V20C0 22.209 1.791 24 4 24H20C22.209 24 24 22.209 24 20V4C24 1.791 22.209 0 20 0ZM8 19.5H5.5V9.5H8V19.5ZM8.0145 7.5045C7.691 7.8345 7.269 8 6.75 8C6.237 8 5.8175 7.8295 5.4905 7.4885C5.1635 7.1475 5 6.729 5 6.234C5 5.724 5.1635 5.308 5.4905 4.985C5.8175 4.6615 6.237 4.5 6.75 4.5C7.269 4.5 7.691 4.6615 8.0145 4.9845C8.338 5.3075 8.5 5.724 8.5 6.234C8.5 6.751 8.338 7.1745 8.0145 7.5045ZM19.5 19.5H17V13.9435C17 12.394 16.107 11.5 15 11.5C14.4665 11.5 13.863 11.824 13.5175 12.2345C13.172 12.645 13 13.1655 13 13.797V19.5H10.5V9.5H13V11.082H13.039C13.775 9.8645 14.8455 9.26 16.252 9.256C18.25 9.25 19.5 10.75 19.5 13.377V19.5Z" fill="#999999"/>
</svg>
