<svg width="24" height="30" viewBox="0 0 24 30" fill="none" xmlns="http://www.w3.org/2000/svg">
<path d="M22.0454 4.31039C20.1686 1.88879 17.6558 0.532786 14.6534 0.163186C10.4918 -0.348014 6.61818 0.429585 3.46938 3.37199C0.486178 6.16079 -0.644222 9.60478 0.483778 13.6248C0.939778 15.2544 1.91178 16.5264 3.49098 17.2536C4.10058 17.5344 4.38858 17.4048 4.58058 16.7736C4.69818 16.3848 4.80138 15.9936 4.91418 15.6048C5.01738 15.2496 4.92138 14.9592 4.71738 14.6424C4.35018 14.0712 3.92538 13.4904 3.74538 12.852C2.93898 9.97199 4.16298 6.61199 6.63018 4.79039C9.20538 2.89199 12.0758 2.55119 15.0854 3.40079C17.555 4.09679 19.1438 5.76719 19.499 8.33039C19.8998 11.2272 19.367 13.9968 17.7374 16.4784C17.0342 17.5512 16.0814 18.348 14.7782 18.6144C12.4598 19.0896 10.4654 17.3736 11.2934 14.9664C11.5958 14.0832 11.8454 13.1784 12.0974 12.2784C12.3974 11.2152 12.7838 10.1664 12.719 9.03359C12.6302 7.52639 11.543 6.59039 10.0622 6.74879C8.75898 6.89039 7.94538 7.68719 7.42698 8.80319C6.71178 10.3416 6.78858 11.9184 7.32138 13.5024C7.40298 13.7496 7.42698 14.052 7.36698 14.304C6.77658 16.7928 6.21738 19.2888 5.54058 21.7536C4.83258 24.3336 4.75578 26.9256 5.13498 29.5488C5.15658 29.6976 5.27658 29.8344 5.35098 29.976C5.45418 29.916 5.58618 29.88 5.65338 29.7936C7.05018 27.9792 8.31018 26.0928 8.89338 23.8344C9.25578 22.4328 9.63978 21.0336 10.0238 19.5912C11.1038 21.0072 12.5534 21.6264 14.231 21.6552C17.231 21.7056 19.6574 20.4864 21.4502 18.0912C23.4278 15.4488 24.083 12.4008 23.9246 9.16559C23.8358 7.36559 23.1518 5.74079 22.0454 4.31039Z" fill="white"/>
</svg>
