<svg width="28" height="32" viewBox="0 0 28 32" fill="none" xmlns="http://www.w3.org/2000/svg">
<path d="M20.3114 27.916L20.1338 27.8104C20.0714 27.7744 20.009 27.736 19.9466 27.7C19.7786 27.6016 19.6106 27.5032 19.4426 27.4048L19.1042 27.2056C18.8666 27.0664 18.629 26.9296 18.3938 26.7904L17.4266 26.2264C16.7594 25.84 16.0058 25.4008 15.2738 24.9712L15.0482 24.8416C14.8322 24.7168 14.5778 24.568 14.3594 24.4408V31.0192C14.741 30.964 15.1154 30.8392 15.449 30.652C17.069 29.752 18.7154 28.8376 20.3474 27.9352L20.3114 27.916Z" fill="white"/>
<path d="M20.6974 22.972L20.6998 21.376V20.5456L20.683 20.5552C20.5846 20.608 20.4838 20.6632 20.3806 20.7208C18.451 21.7792 15.6766 23.32 14.707 23.8576L15.6166 24.3832C16.3462 24.8128 17.0686 25.2328 17.7694 25.6384L19.0198 26.3656C19.1638 26.4496 19.3054 26.5312 19.4494 26.6152L19.9462 26.908C20.0638 26.9776 20.1814 27.0448 20.2966 27.1144C20.3782 27.1624 20.4622 27.2128 20.5438 27.2608L20.707 27.3568L20.6974 25.3192C20.695 24.532 20.695 23.7448 20.6974 22.972Z" fill="white"/>
<path d="M24.5282 22.408L24.3962 22.3312C23.1794 21.6256 22.0202 20.9536 21.3746 20.5744V21.6112C21.3746 22.0696 21.3746 22.528 21.3722 22.9768V23.1304C21.3722 23.86 21.3698 24.5968 21.3722 25.3384V25.3768C21.3722 25.5376 21.3722 25.6984 21.3722 25.8568L21.3794 27.3664C21.9266 27.0616 22.469 26.752 22.997 26.452L23.0042 26.4472C23.333 26.26 23.6618 26.0728 23.9906 25.888C24.1898 25.7728 24.3914 25.6576 24.617 25.5304C25.1354 25.2376 25.673 24.9328 26.1722 24.5968C26.477 24.3832 26.7866 24.148 27.0242 23.86C26.8946 23.7832 26.7554 23.704 26.6114 23.62C25.9874 23.2552 25.253 22.828 24.5282 22.408Z" fill="white"/>
<path d="M7.94581 27.7792L7.69141 27.928C8.82181 28.564 9.96181 29.1952 11.0658 29.8072L11.1234 29.8384C11.5674 30.0832 12.0114 30.3304 12.4554 30.5776C12.765 30.7552 13.1682 30.8896 13.6794 30.988V24.4456C12.549 25.1056 11.0706 25.9648 9.80821 26.6968C9.07861 27.1192 8.42101 27.5032 7.94581 27.7792Z" fill="white"/>
<path d="M21.7227 11.9992L21.7347 12.0064C22.3851 12.3856 23.5515 13.0648 24.7155 13.744C25.5939 14.2552 26.4699 14.7664 27.1299 15.1528C27.3531 15.2848 27.5523 15.4 27.7179 15.496V10.9768C27.7347 10.348 27.7155 9.54878 27.4371 8.83838C25.6803 9.81038 22.8771 11.3608 21.7227 11.9992Z" fill="white"/>
<path d="M27.7179 19.2232C27.7179 18.3832 27.7203 17.5216 27.7179 16.6648C25.8075 17.7232 22.8987 19.3336 21.7227 19.984C22.9179 20.68 25.3587 22.1008 26.9499 23.0296C27.0987 23.116 27.2427 23.2 27.3771 23.2792C27.7227 22.5112 27.7347 21.5992 27.7155 20.7976C27.7155 20.2672 27.7179 19.744 27.7179 19.2232Z" fill="white"/>
<path d="M20.695 11.3968C20.695 11.3488 20.695 11.3008 20.695 11.2624V4.58557C18.799 5.63677 15.8854 7.24957 14.707 7.90237L20.695 11.3968Z" fill="white"/>
<path d="M13.6858 4.42478C13.693 3.29918 13.7002 2.13998 13.693 0.987976C12.961 1.11278 12.2914 1.45118 11.7802 1.73918C10.4482 2.49278 9.09461 3.25838 7.75781 4.01918L13.681 7.31198C13.6714 6.32558 13.6786 5.31998 13.6858 4.42478Z" fill="white"/>
<path d="M21.3828 8.85282C21.3828 9.65682 21.3852 10.4608 21.3852 11.2672C21.3852 11.3104 21.3828 11.3608 21.3828 11.4136L21.738 11.2168C23.0388 10.4968 25.518 9.12642 27.1188 8.23842C26.7444 7.72482 26.1588 7.36722 25.4916 6.99282L25.0524 6.73602C23.8548 6.03762 22.6188 5.31522 21.3852 4.60962C21.3828 6.02802 21.3828 7.44642 21.3852 8.82162V8.85282H21.3828Z" fill="white"/>
<path d="M10.5667 6.36398C9.53227 5.79038 8.46427 5.20238 7.38907 4.59998L7.35547 11.392L13.3315 7.89998C12.3811 7.36478 11.4211 6.83438 10.5667 6.36398Z" fill="white"/>
<path d="M21.3768 18.136C21.3816 18.5512 21.384 18.9736 21.3816 19.396C22.5504 18.7504 25.4544 17.1424 27.3672 16.0816L21.372 12.5824V16.8784C21.3696 17.2912 21.372 17.7088 21.3768 18.1144V18.136Z" fill="white"/>
<path d="M1.05469 23.8408C1.47229 24.34 2.05549 24.7048 2.61949 25.0408C3.95869 25.8112 5.32189 26.5888 6.67069 27.352L6.67309 25.42L6.67069 22.528L6.67549 20.5624L1.05469 23.8408Z" fill="white"/>
<path d="M10.0804 25.7512C11.0284 25.2016 12.1948 24.5248 13.3348 23.86C12.358 23.32 11.374 22.7728 10.4188 22.2424L10.3732 22.216C9.38676 21.6688 8.37156 21.1024 7.35636 20.5408L7.35156 22.5232L7.35396 25.408L7.35156 27.3352C8.25876 26.8072 9.16836 26.2792 10.0804 25.7512Z" fill="white"/>
<path d="M2.79604 6.85842C2.08084 7.26162 1.40404 7.67202 0.964844 8.26002C2.64244 9.18882 5.34724 10.6816 6.67204 11.4112C6.67204 10.5616 6.67204 9.00162 6.67684 8.09202C6.67204 7.14162 6.69604 5.47602 6.71044 4.60962C5.74084 5.16162 3.86164 6.23442 2.79604 6.85842Z" fill="white"/>
<path d="M2.92163 13.9744C4.03283 13.3264 5.17763 12.6568 6.32483 11.992C5.17043 11.356 2.38403 9.81758 0.641631 8.85278C0.341631 9.63518 0.336831 10.5328 0.332031 11.4016V11.5528V15.4864C1.19603 14.9824 2.06723 14.476 2.91203 13.9816L2.92163 13.9744Z" fill="white"/>
<path d="M6.15292 19.8928L6.14572 19.8904C6.03772 19.8304 5.92732 19.7656 5.81932 19.708C5.02012 19.2688 4.21133 18.82 3.43133 18.3856L3.40013 18.3688C2.39452 17.8096 1.36013 17.2336 0.328125 16.6696V20.5648C0.328125 21.268 0.337725 21.9016 0.464925 22.5256C0.512925 22.7584 0.577725 23.0224 0.685724 23.2696C2.57212 22.168 4.46332 21.0664 6.31612 19.9864C6.26092 19.9528 6.20572 19.9216 6.15292 19.8928Z" fill="white"/>
<path d="M3.58096 14.3752L3.56656 14.3824C2.61856 14.9344 1.64176 15.5056 0.660156 16.0768C1.72096 16.6552 2.78416 17.248 3.81616 17.8192L3.84976 17.8384C4.59856 18.2536 5.37136 18.6856 6.14176 19.108C6.25456 19.168 6.36736 19.2328 6.47776 19.2952L6.48496 19.3C6.54496 19.3336 6.60736 19.3696 6.66736 19.4032C6.66496 17.1208 6.66496 14.8264 6.66736 12.5752C5.61136 13.1896 4.53616 13.816 3.58096 14.3752Z" fill="white"/>
<path d="M18.4538 5.04879L18.545 4.99839C19.1354 4.67199 19.7234 4.34319 20.3114 4.01679L19.685 3.67599H19.7306C18.6554 3.06399 17.5778 2.45439 16.517 1.85439C15.8114 1.45839 15.1154 1.09359 14.3714 0.978394C14.3858 2.92479 14.3666 6.04239 14.3594 7.31679C15.7346 6.55839 17.117 5.79039 18.4538 5.04879Z" fill="white"/>
</svg>
