<svg width="30" height="24" viewBox="0 0 30 24" fill="none" xmlns="http://www.w3.org/2000/svg">
<path d="M28.6796 0.532795C28.322 0.477595 27.9116 0.544795 27.566 0.669595C22.514 2.47919 17.4692 4.30799 12.4195 6.12959C8.62755 7.49999 4.83315 8.86559 1.03875 10.2336C0.49635 10.4304 0.237149 10.752 0.263549 11.1888C0.289949 11.628 0.57075 11.9064 1.13955 12.0624C3.19635 12.624 5.25075 13.1904 7.30995 13.7376C7.66755 13.8336 7.89075 13.9848 7.99395 14.3664C8.14995 14.9424 8.36595 15.504 8.55795 16.0728C9.14595 17.8032 9.72675 19.536 10.3243 21.264C10.6555 22.2216 11.6251 22.4688 12.3835 21.804C12.5107 21.6936 12.6307 21.5736 12.7531 21.4584C13.7899 20.4768 14.8268 19.4952 15.878 18.4992C16.0412 18.6072 16.1804 18.7008 16.3196 18.7944C18.4652 20.2536 20.6084 21.72 22.7612 23.1696C23.7523 23.8368 24.8852 23.4168 25.1396 22.296C26.6636 15.5688 28.1828 8.8392 29.6996 2.10959C29.87 1.33919 29.4524 0.650395 28.6796 0.532795ZM24.4555 5.08799C24.3979 5.18879 24.278 5.25119 24.1819 5.33039C20.2148 8.57999 16.25 11.8344 12.2755 15.0744C11.9036 15.3768 11.7019 15.696 11.6635 16.188C11.5747 17.2584 11.4235 18.3264 11.2939 19.392C11.2771 19.5408 11.2364 19.6848 11.2052 19.8312C11.1572 19.8408 11.1091 19.8504 11.0611 19.86C11.0035 19.7304 10.9339 19.608 10.8907 19.4736C10.2883 17.6688 9.68595 15.864 9.08835 14.0592C9.02835 13.8768 8.99235 13.7352 8.98995 13.6152C8.98035 13.3536 9.12435 13.2072 9.47955 13.0032C14.2676 10.2528 19.0556 7.50479 23.846 4.75679C23.9516 4.69679 24.062 4.60799 24.1747 4.60319C24.2948 4.59839 24.4676 4.64879 24.5227 4.73279C24.5347 4.752 24.542 4.77839 24.542 4.80719C24.5395 4.89119 24.5012 5.01119 24.4555 5.08799Z" fill="white"/>
</svg>
