<svg width="28" height="20" viewBox="0 0 28 20" fill="none" xmlns="http://www.w3.org/2000/svg">
<path d="M24.1649 0.016028C20.7833 0.076028 17.3993 0.0328279 14.0153 0.0328279C10.6313 0.0328279 7.24733 0.0808275 3.86573 0.0136275C2.09693 -0.0223725 0.716931 1.24243 0.738531 3.12883C0.786531 7.71523 0.752931 12.3016 0.755331 16.888C0.755331 18.8416 1.88573 19.984 3.82733 19.9864C10.6097 19.9888 17.3921 19.9912 24.1745 19.9864C26.1017 19.9864 27.2465 18.82 27.2465 16.8808C27.2489 12.2944 27.2201 7.70803 27.2609 3.12163C27.2753 1.30723 25.9649 -0.015172 24.1649 0.016028ZM18.2681 11.5576C16.4033 12.64 14.5385 13.7224 12.6689 14.7952C11.3033 15.58 10.0049 14.8192 9.99773 13.2352C9.99293 12.1456 9.99773 11.0584 9.99773 9.96883C9.99773 8.89603 9.99293 7.82323 9.99773 6.75043C10.0049 5.19283 11.3081 4.43203 12.6497 5.20243C14.5193 6.27523 16.3865 7.35523 18.2513 8.43763C19.6577 9.25603 19.6649 10.7464 18.2681 11.5576Z" fill="white"/>
</svg>
