<svg width="80" height="80" viewBox="0 0 80 80" fill="none" xmlns="http://www.w3.org/2000/svg">
<path d="M0 16C0 7.16344 7.16344 0 16 0H80V80H16C7.16344 80 0 72.8366 0 64V16Z" fill="#ED2224"/>
<path d="M46.0905 64.9884C45.7955 64.9884 45.1094 65.0008 44.4234 64.5845C43.5997 64.0839 43.2529 63.2487 43.1054 62.8844C42.5079 61.4024 40.6022 56.4807 38.1163 49.73C37.9835 49.3681 37.7032 48.5925 36.968 48.0423C36.2229 47.4872 35.3475 47.4128 34.7549 47.4326C31.3739 47.4525 27.9929 47.4698 24.6119 47.4896C23.8816 47.4698 22.7653 47.3211 22.2636 46.543C21.735 45.7251 22.1333 44.5926 22.3227 44.087C23.2103 41.7054 27.9339 30.4122 34.5164 15.0273C34.6049 14.8984 35.2197 14.0385 36.25 14.0013C36.7196 13.984 37.0762 14.145 37.2065 14.2144C37.8261 14.5366 38.1778 15.1859 38.4876 15.9219C44.8488 31.0763 51.2296 46.2208 57.6081 61.3677C57.7728 61.7568 58.3089 63.0356 57.7556 64.0318C57.5982 64.3119 57.3818 64.5225 57.1581 64.6811C56.863 64.8868 56.5089 64.9909 56.1524 64.9934C51.2026 65.0107 47.5708 64.9884 46.0905 64.9884Z" fill="white"/>
</svg>
