<svg width="41" height="48" viewBox="0 0 41 48" fill="none" xmlns="http://www.w3.org/2000/svg">
<path d="M39.9629 9.88176C39.471 8.76321 38.5775 7.86977 37.459 7.37785C36.8744 7.14668 36.251 7.02898 35.6224 7.03106H32.1519V6.4802C32.1524 6.09534 32.077 5.71417 31.9299 5.35851C31.7829 5.00285 31.5671 4.6797 31.295 4.40757C31.0229 4.13543 30.6997 3.91966 30.344 3.77261C29.9884 3.62556 29.6072 3.55013 29.2224 3.55062H26.2177C25.6856 2.4831 24.8665 1.58505 23.8523 0.957326C22.8381 0.329604 21.6689 -0.00292969 20.4762 -0.00292969C19.2834 -0.00292969 18.1143 0.329604 17.1001 0.957326C16.0859 1.58505 15.2668 2.4831 14.7347 3.55062H11.73C11.3452 3.55013 10.964 3.62556 10.6083 3.77261C10.2527 3.91966 9.92954 4.13543 9.6574 4.40757C9.38527 4.6797 9.16949 5.00285 9.02244 5.35851C8.87539 5.71417 8.79996 6.09534 8.80045 6.4802V7.0273H5.32502C4.40329 7.02876 3.50203 7.2993 2.73187 7.8057C1.9617 8.3121 1.35614 9.03233 0.989495 9.87801C0.756795 10.4619 0.637403 11.0848 0.637696 11.7134V43.314C0.638945 44.2359 0.909533 45.1374 1.4162 45.9077C1.92288 46.6779 2.64355 47.2833 3.48965 47.6495C4.07357 47.8822 4.69645 48.0016 5.32502 48.0013H35.6662C36.2825 48.0056 36.8935 47.8859 37.4627 47.6495C38.5818 47.1583 39.4755 46.2647 39.9666 45.1456C40.1993 44.5617 40.3187 43.9388 40.3185 43.3102V11.7171C40.3212 11.088 40.2004 10.4644 39.9629 9.88176ZM11.1391 6.4802C11.1426 6.3259 11.2055 6.1789 11.3146 6.06977C11.4237 5.96064 11.5707 5.89779 11.725 5.89428H16.3335L16.6076 5.11306C16.8901 4.3134 17.4136 3.62101 18.106 3.13128C18.7984 2.64154 19.6256 2.37856 20.4737 2.37856C21.3218 2.37856 22.149 2.64154 22.8414 3.13128C23.5338 3.62101 24.0573 4.3134 24.3397 5.11306L24.6139 5.89428H29.2224C29.3767 5.89779 29.5237 5.96064 29.6328 6.06977C29.7419 6.1789 29.8048 6.3259 29.8083 6.4802V11.7134H11.1391V6.4802ZM38.0098 43.314C38.0082 43.9351 37.7607 44.5302 37.3216 44.9694C36.8824 45.4086 36.2873 45.656 35.6662 45.6577H5.32502C4.70395 45.656 4.10879 45.4086 3.66963 44.9694C3.23046 44.5302 2.98301 43.9351 2.98136 43.314V11.7171C2.98334 11.0962 3.2309 10.5012 3.66999 10.0621C4.10908 9.623 4.70405 9.37545 5.32502 9.37347H8.80045V14.0608H32.1519V9.37347H35.6662C36.2871 9.37545 36.8821 9.623 37.3212 10.0621C37.7603 10.5012 38.0079 11.0962 38.0098 11.7171V43.314Z" fill="#BDBDBD"/>
</svg>
