<svg width="43" height="48" viewBox="0 0 43 48" fill="none" xmlns="http://www.w3.org/2000/svg">
<path d="M37.8573 33.6558C37.7335 33.612 37.6073 33.5752 37.4794 33.5455C37.3811 33.524 37.2843 33.4962 37.1894 33.4625C37.1772 33.3344 37.1772 33.2053 37.1894 33.0772C37.1981 32.9607 37.2056 32.8393 37.2043 32.7166C37.1151 27.4991 33.4711 23.3384 28.3415 22.5975L28.2883 22.59C27.9709 22.5625 27.6665 22.4513 27.4061 22.2679C27.1775 22.0926 26.9993 21.8601 26.8894 21.5938C26.7123 21.1616 26.6965 20.6801 26.8448 20.2371C27.5995 19.4336 28.0951 18.4217 28.2672 17.3328C28.3107 17.0346 28.3393 16.7344 28.3527 16.4333C28.7343 16.459 29.1169 16.3996 29.4728 16.2595C29.8287 16.1194 30.1491 15.902 30.4107 15.623C31.1108 14.9142 31.4949 13.8735 31.4651 12.7732C31.4354 11.6729 30.9869 10.626 30.2385 9.94573C30.1792 9.87552 30.1421 9.78927 30.1319 9.69793C30.1109 9.41295 30.1084 9.12673 30.1047 8.82317C30.108 8.38734 30.0856 7.95168 30.0378 7.51847C29.7773 5.60066 28.8837 3.82477 27.499 2.47259C26.1143 1.12041 24.3177 0.269383 22.3942 0.0545567C18.6895 -0.380343 14.96 1.85858 13.5141 5.38238C13.0185 6.58176 12.8202 7.91744 12.8747 9.58641C12.8847 9.67427 12.8723 9.76324 12.8384 9.84495C12.8046 9.92666 12.7506 9.99843 12.6814 10.0535C12.3084 10.4211 12.0134 10.8602 11.8141 11.3446C11.2776 12.6691 11.5068 14.3356 12.3717 15.395C12.6416 15.7369 12.9881 16.0106 13.3833 16.194C13.7784 16.3774 14.2112 16.4653 14.6465 16.4506L14.6589 16.7084C14.7055 18.0142 15.2281 19.2579 16.1284 20.2049C16.1705 20.2495 16.1966 20.2792 16.2114 20.2978C16.2193 20.3196 16.2288 20.3407 16.2399 20.361C16.5063 20.8703 16.1705 21.8156 15.5473 22.3088C15.5015 22.3435 15.4606 22.3806 15.4234 22.4166C15.391 22.4479 15.3558 22.4761 15.3181 22.5008C13.4468 22.6319 11.6501 23.2862 10.1328 24.3891C7.17147 26.5599 5.71437 29.572 5.79615 33.3411C5.79865 33.3782 5.79865 33.4155 5.79615 33.4526C5.76499 33.4655 5.73314 33.4767 5.70074 33.4861C4.15755 33.9399 2.8042 34.8841 1.84551 36.1757C0.886815 37.4674 0.374968 39.0361 0.387429 40.6446C0.399891 42.2531 0.935983 43.8138 1.91457 45.0904C2.89316 46.367 4.26098 47.2901 5.81102 47.72C6.05882 47.7894 6.30663 47.8439 6.55443 47.9059L6.88649 47.9852L6.94473 48H36.0706L36.135 47.9827L36.2589 47.9455C36.3135 47.9266 36.3694 47.9117 36.4262 47.9009C39.7716 47.3657 42.2496 44.6311 42.6003 41.0949C42.9088 37.9837 40.8756 34.7858 37.8573 33.6558ZM13.9638 14.1634C13.3976 13.5265 13.3939 12.2144 13.9552 11.611C14.0925 11.4831 14.2652 11.3998 14.4508 11.3719C14.4888 11.3652 14.5274 11.3619 14.566 11.3619H14.5933C14.6077 11.4278 14.6144 11.4952 14.6131 11.5627C14.6131 11.8898 14.6131 12.2156 14.6131 12.5415V12.9776C14.6131 13.109 14.6131 13.2416 14.6131 13.3729C14.6131 13.7025 14.6007 14.042 14.6255 14.3852C14.626 14.3934 14.626 14.4017 14.6255 14.41C14.5958 14.4184 14.5656 14.4246 14.535 14.4285C14.3863 14.4508 14.2067 14.436 13.9638 14.1634ZM28.3911 12.565C28.3776 12.287 28.383 12.0084 28.4072 11.7312C28.4193 11.6209 28.4425 11.5121 28.4766 11.4065C28.598 11.3921 28.7212 11.4048 28.8371 11.4437C29.1014 11.7165 29.2946 12.0501 29.3997 12.4151C29.4877 12.6859 29.5085 12.974 29.4604 13.2546C29.4122 13.5352 29.2966 13.7999 29.1234 14.0259C28.9917 14.2031 28.8138 14.3407 28.6092 14.4236C28.5575 14.4494 28.499 14.4585 28.4419 14.4496C28.4016 14.3863 28.3841 14.3111 28.3923 14.2365V13.4447H28.3998V12.9491C28.3973 12.8252 28.3936 12.7013 28.3911 12.565ZM16.6637 29.7194C17.2823 30.364 17.9447 30.9651 18.6461 31.5185L18.9955 31.8096C19.2768 32.0438 19.822 32.169 20.1862 31.9806C20.5505 31.7923 20.7512 31.3153 20.7537 30.9522C20.7599 30.1605 20.9953 29.4282 21.5058 28.639C21.8908 29.1911 22.1346 29.8293 22.2158 30.4975C22.2244 30.5805 22.2282 30.6722 22.2306 30.7689C22.2321 30.9349 22.2462 31.1006 22.2728 31.2645C22.2999 31.4402 22.3708 31.6062 22.4791 31.7472C22.5874 31.8882 22.7295 31.9996 22.8923 32.0711C23.0458 32.1319 23.2124 32.1524 23.3761 32.1307C23.5398 32.109 23.6953 32.0458 23.8277 31.9472C25.6367 30.6623 27.5733 28.9896 28.2275 26.3195C28.3332 25.8057 28.3781 25.2813 28.3614 24.7571C28.3614 24.71 28.3614 24.6629 28.3614 24.6171C30.1171 24.8513 31.8864 25.845 33.1799 27.3429C34.5693 28.9503 35.2844 31.0321 35.176 33.154H7.81205C7.74886 31.1443 8.26677 29.422 9.39181 27.8993C10.725 26.0952 12.4485 25.0148 14.6465 24.6121C14.4706 26.3976 15.1211 28.0368 16.6637 29.7194ZM16.6203 13.783L16.6513 13.2552C16.7165 12.1624 16.7839 11.0691 16.8532 9.97547V9.90484C16.8549 9.82998 16.8628 9.75538 16.8768 9.68182C16.9144 9.63266 16.9581 9.58852 17.0069 9.55048C19.2024 9.57526 21.4674 9.23453 24.3581 8.45022C24.5476 8.39818 24.5811 8.45022 24.6059 8.4812C24.9841 9.0116 25.334 9.56167 25.6541 10.1291C26.1721 11.034 26.4142 12.0707 26.3504 13.1115C26.3058 13.8004 26.3194 14.493 26.3318 15.1633C26.3393 15.535 26.3455 15.9265 26.343 16.3044C26.3244 18.4715 24.8004 20.0128 22.637 20.05C21.8998 20.0624 21.0263 20.0723 20.1404 20.0401C19.2225 20.0061 18.3521 19.624 17.7058 18.9713C17.0596 18.3186 16.6861 17.4444 16.6612 16.5262C16.6476 16.0095 16.6513 15.4792 16.655 14.9663C16.655 14.7259 16.655 14.4855 16.655 14.2452V13.7855L16.6203 13.783ZM21.5355 25.9032C21.5217 25.91 21.5061 25.9122 21.4909 25.9094C19.6448 25.1573 18.6511 24.093 18.3661 22.564C18.3248 22.2806 18.3148 21.9935 18.3364 21.7078C20.4228 22.2712 22.622 22.267 24.7062 21.6954C24.7508 23.6147 23.6865 25.0297 21.5355 25.9032ZM28.0962 9.26922C28.0962 9.31011 28.0962 9.351 28.0962 9.39312L27.6179 9.54428C27.5907 9.48853 27.5585 9.4303 27.5238 9.3733C27.411 9.18992 27.3007 9.00159 27.1917 8.81821C26.8779 8.2627 26.5299 7.72723 26.1497 7.21491C25.964 6.9636 25.7209 6.76029 25.4407 6.62193C25.1606 6.48357 24.8514 6.41414 24.5389 6.41945C24.2799 6.42188 24.0224 6.45897 23.7732 6.52973C21.0474 7.27314 18.9323 7.58662 16.9127 7.53582C15.9996 7.51228 15.3565 7.967 15.0542 8.84795C14.9987 9.01715 14.9524 9.18921 14.9154 9.36339H14.9092C14.8968 9.27418 14.8919 9.09824 14.8869 8.9384V8.87273C14.7804 5.16184 17.5198 2.67758 20.2792 2.13613C21.2059 1.96204 22.1593 1.98992 23.0742 2.21786C23.9892 2.4458 24.8442 2.86844 25.581 3.45693C26.3188 4.02686 26.9248 4.7493 27.3579 5.57491C27.7909 6.40052 28.0406 7.30986 28.09 8.24083C28.1049 8.57908 28.0999 8.92972 28.0962 9.26922ZM26.2042 26.0296C25.8325 27.2686 25.0606 28.2227 24.0062 29.199C23.9103 28.9129 23.7995 28.6321 23.6741 28.3577C23.5103 28.0258 23.3283 27.7032 23.1289 27.3913C24.5898 26.6132 25.607 25.586 26.1968 24.2776C26.3832 24.8463 26.3858 25.4593 26.2042 26.0296ZM19.8467 27.3789L18.9893 29.199C17.9485 28.2499 16.997 27.1608 16.7033 25.6232C16.6137 25.1686 16.6457 24.6984 16.7963 24.2602C17.3885 25.5872 18.3958 26.6132 19.8467 27.3789ZM25.6355 46.0002H21.4885H17.4381C14.2971 46.0002 11.0496 46.0002 7.85665 46.0002C5.28691 46.0002 3.04302 44.2198 2.52139 41.7764C2.34736 40.9962 2.34797 40.1873 2.52319 39.4074C2.69841 38.6275 3.0439 37.896 3.53492 37.2652C4.02594 36.6345 4.65035 36.1201 5.36343 35.7589C6.07652 35.3978 6.86064 35.1987 7.65965 35.1761C7.76001 35.1761 7.86037 35.1699 7.96073 35.1699H15.0567C21.7144 35.1699 28.3721 35.1699 35.0298 35.1699C37.5624 35.1699 39.7171 36.7323 40.3911 39.0555C40.6284 39.8625 40.6742 40.7138 40.5251 41.5417C40.3759 42.3696 40.0358 43.1513 39.5318 43.8248C39.0277 44.4983 38.3736 45.045 37.6214 45.4215C36.8692 45.7981 36.0395 45.9941 35.1983 45.9941C32.0091 46.0064 28.7653 46.0027 25.6355 46.0002Z" fill="#BDBDBD"/>
</svg>
