<svg width="40" height="48" viewBox="0 0 40 48" fill="none" xmlns="http://www.w3.org/2000/svg">
<path d="M39.6436 9.88041C39.1516 8.76186 38.2582 7.86842 37.1396 7.3765C36.555 7.14536 35.9317 7.02767 35.303 7.02971H31.8326V6.4826C31.8331 6.09781 31.7577 5.71669 31.6106 5.36111C31.4635 5.00552 31.2477 4.68246 30.9756 4.41042C30.7034 4.13838 30.3803 3.92273 30.0246 3.77582C29.669 3.62891 29.2878 3.55362 28.903 3.55428H25.8983C25.3663 2.48676 24.5472 1.58871 23.533 0.960988C22.5187 0.333266 21.3496 0.000732422 20.1569 0.000732422C18.9641 0.000732422 17.795 0.333266 16.7808 0.960988C15.7665 1.58871 14.9474 2.48676 14.4154 3.55428H11.4107C11.0259 3.55362 10.6448 3.62891 10.2891 3.77582C9.93345 3.92273 9.61029 4.13838 9.33814 4.41042C9.06599 4.68246 8.8502 5.00552 8.70313 5.36111C8.55607 5.71669 8.48062 6.09781 8.48112 6.4826V7.02971H5.00568C4.08395 7.03118 3.1827 7.3017 2.41253 7.8081C1.64237 8.3145 1.0368 9.03474 0.67016 9.88041C0.437333 10.4647 0.317939 11.088 0.31836 11.717V43.3127C0.319609 44.2346 0.590198 45.1361 1.09687 45.9063C1.60354 46.6766 2.32422 47.282 3.17032 47.6482C3.75423 47.8809 4.37711 48.0003 5.00568 48H35.3468C35.9632 48.0042 36.5742 47.8846 37.1434 47.6482C38.262 47.1563 39.1554 46.2628 39.6473 45.1443C39.8801 44.56 39.9995 43.9366 39.9991 43.3076V11.717C40.002 11.0875 39.8812 10.4634 39.6436 9.88041ZM10.8198 6.4826C10.8236 6.32841 10.8865 6.18158 10.9956 6.07252C11.1047 5.96345 11.2515 5.9005 11.4057 5.89669H16.0141L16.2883 5.11547C16.5714 4.31638 17.0951 3.62463 17.7874 3.1354C18.4797 2.64616 19.3066 2.38347 20.1544 2.38347C21.0021 2.38347 21.829 2.64616 22.5213 3.1354C23.2136 3.62463 23.7373 4.31638 24.0204 5.11547L24.2946 5.89669H28.903C29.0572 5.9005 29.204 5.96345 29.3131 6.07252C29.4222 6.18158 29.4851 6.32841 29.4889 6.4826V11.717H10.8198V6.4826ZM37.6905 43.3127C37.6889 43.9337 37.4414 44.5289 37.0022 44.968C36.5631 45.4072 35.9679 45.6547 35.3468 45.6563H5.00568C4.38461 45.6547 3.78946 45.4072 3.35029 44.968C2.91113 44.5289 2.66368 43.9337 2.66202 43.3127V11.717C2.66368 11.096 2.91113 10.5008 3.35029 10.0616C3.78946 9.62248 4.38461 9.37502 5.00568 9.37337H8.48112V14.0594H31.8326V9.37337H35.3468C35.9679 9.37502 36.5631 9.62248 37.0022 10.0616C37.4414 10.5008 37.6889 11.096 37.6905 11.717V43.3127Z" fill="#BDBDBD"/>
</svg>
