<svg width="53" height="48" viewBox="0 0 53 48" fill="none" xmlns="http://www.w3.org/2000/svg">
<g clip-path="url(#clip0_765_14)">
<path d="M33.1597 17.4553H19.0273C17.7305 17.4553 16.4868 17.9725 15.5698 18.8929C14.6529 19.8134 14.1377 21.0619 14.1377 22.3637V36.0028C14.1377 39.1859 15.3974 42.2387 17.6397 44.4896C19.8819 46.7404 22.9231 48.0049 26.0941 48.0049C29.2652 48.0049 32.3064 46.7404 34.5486 44.4896C36.7909 42.2387 38.0506 39.1859 38.0506 36.0028V22.3637C38.0503 21.0618 37.5348 19.8133 36.6176 18.8929C35.7005 17.9724 34.4566 17.4553 33.1597 17.4553ZM35.7155 36.0028C35.7155 38.5643 34.7019 41.0209 32.8975 42.8322C31.0931 44.6434 28.6459 45.661 26.0941 45.661C23.5424 45.661 21.0951 44.6434 19.2908 42.8322C17.4864 41.0209 16.4727 38.5643 16.4727 36.0028V22.3637C16.4737 21.6835 16.7433 21.0315 17.2224 20.5506C17.7015 20.0697 18.351 19.799 19.0286 19.7981H33.1597C33.8374 19.7987 34.4871 20.0692 34.9662 20.5502C35.4454 21.0312 35.7149 21.6834 35.7155 22.3637V36.0028Z" fill="#BDBDBD"/>
<path d="M43.4818 15.2735C44.7717 15.2737 46.0327 14.89 47.1053 14.1708C48.1779 13.4516 49.014 12.4293 49.5078 11.2331C50.0016 10.0369 50.1309 8.72053 49.8794 7.45054C49.6279 6.18056 49.0069 5.01397 48.0949 4.09829C47.1829 3.18262 46.0209 2.559 44.7558 2.3063C43.4907 2.0536 42.1793 2.18318 40.9876 2.67863C39.7959 3.17408 38.7773 4.01317 38.0606 5.08977C37.3439 6.16636 36.9614 7.43211 36.9614 8.72695C36.9614 10.463 37.6483 12.1279 38.8711 13.3556C40.0939 14.5833 41.7524 15.2731 43.4818 15.2735ZM43.4818 4.52563C44.3098 4.52563 45.1193 4.77214 45.8078 5.23398C46.4963 5.69581 47.0329 6.35224 47.3498 7.12023C47.6666 7.88821 47.7494 8.73327 47.5878 9.54852C47.4261 10.3638 47.0273 11.1126 46.4417 11.7003C45.8561 12.288 45.11 12.6881 44.2978 12.8501C43.4856 13.0122 42.6438 12.9288 41.8788 12.6105C41.1138 12.2922 40.4601 11.7534 40.0002 11.0621C39.5403 10.3708 39.295 9.55819 39.2952 8.72695C39.2975 7.61318 39.7394 6.5457 40.524 5.75826C41.3087 4.97082 42.3722 4.5276 43.4818 4.52563Z" fill="#BDBDBD"/>
<path d="M26.0866 15.2736C27.5914 15.2738 29.0625 14.8261 30.3139 13.9871C31.5652 13.148 32.5406 11.9553 33.1166 10.5598C33.6927 9.16422 33.8435 7.62856 33.5501 6.14696C33.2566 4.66537 32.5321 3.3044 31.4681 2.23617C30.4041 1.16793 29.0485 0.440415 27.5726 0.145624C26.0967 -0.149167 24.5668 0.00200608 23.1765 0.580027C21.7862 1.15805 20.5979 2.13695 19.7618 3.39294C18.9257 4.64894 18.4795 6.1256 18.4795 7.63619C18.4798 9.66144 19.2813 11.6037 20.7078 13.0358C22.1343 14.468 24.069 15.2729 26.0866 15.2736ZM26.0866 2.34399C27.1296 2.34375 28.1493 2.65403 29.0167 3.23558C29.8841 3.81714 30.5602 4.64385 30.9594 5.61114C31.3587 6.57844 31.4632 7.64288 31.2598 8.66982C31.0564 9.69676 30.5541 10.6401 29.8166 11.3804C29.079 12.1208 28.1393 12.625 27.1163 12.8292C26.0932 13.0334 25.0329 12.9285 24.0692 12.5277C23.1056 12.1269 22.2821 11.4482 21.7027 10.5775C21.1234 9.70684 20.8143 8.68324 20.8145 7.63619C20.8162 6.23311 21.3721 4.88798 22.3605 3.89585C23.3488 2.90373 24.6888 2.34563 26.0866 2.34399Z" fill="#BDBDBD"/>
<path d="M8.69271 15.2735C9.98261 15.2737 11.2436 14.89 12.3162 14.1708C13.3889 13.4516 14.225 12.4293 14.7187 11.2331C15.2125 10.0369 15.3419 8.72053 15.0904 7.45054C14.8389 6.18056 14.2178 5.01397 13.3058 4.09829C12.3938 3.18262 11.2318 2.559 9.9667 2.3063C8.7016 2.0536 7.39026 2.18318 6.19853 2.67863C5.00679 3.17408 3.98819 4.01317 3.27153 5.08977C2.55488 6.16636 2.17236 7.43211 2.17236 8.72695C2.17236 10.463 2.85929 12.1279 4.08205 13.3556C5.30482 14.5833 6.9633 15.2731 8.69271 15.2735ZM8.69271 4.52563C9.52079 4.52563 10.3303 4.77214 11.0188 5.23398C11.7073 5.69581 12.2439 6.35224 12.5607 7.12023C12.8775 7.88821 12.9604 8.73327 12.7987 9.54852C12.6371 10.3638 12.2382 11.1126 11.6526 11.7003C11.067 12.288 10.3209 12.6881 9.50871 12.8501C8.69652 13.0122 7.85471 12.9288 7.08974 12.6105C6.32477 12.2922 5.671 11.7534 5.21113 11.0621C4.75125 10.3708 4.50593 9.55819 4.50617 8.72695C4.50845 7.61318 4.95031 6.5457 5.73498 5.75826C6.51965 4.97082 7.58319 4.5276 8.69271 4.52563Z" fill="#BDBDBD"/>
<path d="M47.2785 17.4553H38.2578C38.9029 18.1302 39.4088 18.9264 39.7467 19.7981H47.2785C47.9561 19.7987 48.6059 20.0692 49.085 20.5502C49.5642 21.0312 49.8337 21.6834 49.8343 22.3637V33.8185C49.832 35.8 49.0469 37.6997 47.6511 39.1009C46.2553 40.502 44.3628 41.2902 42.3888 41.2925C42.3037 41.2925 42.2186 41.2925 42.1347 41.2925H42.0348L41.8843 41.2851L41.7548 41.2739L41.6389 41.264L41.4908 41.2467L41.3983 41.2355L41.2343 41.212L41.1627 41.2009L40.9839 41.1687L40.9308 41.1575C40.8667 41.1451 40.8025 41.1315 40.7384 41.1167L40.7076 41.1092C40.6373 41.0931 40.5669 41.077 40.4979 41.0585L39.4148 40.744C39.1894 41.382 38.9181 42.0027 38.6032 42.6013L38.4798 42.8217C39.9687 43.4721 41.5954 43.7405 43.2133 43.6025C44.8312 43.4646 46.3895 42.9248 47.7478 42.0316C49.1061 41.1385 50.2216 39.9202 50.9939 38.4864C51.7662 37.0526 52.171 35.4485 52.1718 33.8185V22.3637C52.1717 21.7188 52.045 21.0803 51.799 20.4847C51.5529 19.889 51.1924 19.3478 50.738 18.892C50.2836 18.4362 49.7442 18.0747 49.1506 17.8282C48.557 17.5817 47.9209 17.455 47.2785 17.4553Z" fill="#BDBDBD"/>
<path d="M4.88502 19.7981H12.4169C12.7547 18.9264 13.2606 18.1302 13.9057 17.4553H4.88502C3.58809 17.4553 2.34427 17.9724 1.42708 18.8929C0.5099 19.8133 -0.00553228 21.0618 -0.00585938 22.3637V33.8185C-0.00505244 35.4485 0.399746 37.0526 1.17206 38.4864C1.94437 39.9202 3.05993 41.1385 4.4182 42.0316C5.77647 42.9248 7.33478 43.4646 8.95269 43.6025C10.5706 43.7405 12.1973 43.4721 13.6861 42.8217L13.5628 42.6013C13.247 41.9999 12.9753 41.3763 12.7499 40.7353L11.6669 41.0498L11.8593 40.9966C10.7493 41.3197 9.57958 41.3793 8.44266 41.1706C7.30573 40.9619 6.23274 40.4907 5.30848 39.7941C4.38422 39.0975 3.63402 38.1946 3.11716 37.1569C2.60031 36.1192 2.33096 34.975 2.33042 33.8148V22.3637C2.33107 21.6836 2.60038 21.0316 3.07929 20.5507C3.55819 20.0697 4.20758 19.799 4.88502 19.7981Z" fill="#BDBDBD"/>
</g>
<defs>
<clipPath id="clip0_765_14">
<rect width="52.1739" height="48" fill="white" transform="translate(-0.00585938)"/>
</clipPath>
</defs>
</svg>
