<svg width="42" height="48" viewBox="0 0 42 48" fill="none" xmlns="http://www.w3.org/2000/svg">
<path d="M41.5445 39.6465L34.7303 27.675C35.0608 27.4547 35.3267 27.1503 35.5005 26.7932C35.6743 26.436 35.7499 26.039 35.7193 25.643L35.2144 21.4257L38.0859 18.4169C38.8421 17.6607 38.8703 16.3837 38.1485 15.5086L35.2634 12.3956L35.8615 8.13918C35.9694 7.06311 35.2083 6.01892 34.1641 5.81057L30.0106 4.98697L28.0043 1.29429C27.5337 0.313821 26.3988 -0.126163 25.3485 0.2697H25.2921L21.4082 2.07009L17.6751 0.250092C17.4346 0.1196 17.1707 0.0379821 16.8985 0.00994257C16.6264 -0.018097 16.3514 0.00799646 16.0894 0.0867174C15.8273 0.165438 15.5835 0.295232 15.3718 0.468618C15.1602 0.642005 14.985 0.855556 14.8562 1.09697L12.8034 4.79333L8.64497 5.52868C8.1055 5.63207 7.62507 5.93559 7.30003 6.37838C6.97499 6.82116 6.82937 7.37046 6.89238 7.91612L7.39487 12.1174L4.5221 15.1262C3.76714 15.8836 3.74018 17.1607 4.46082 18.0358L7.34707 21.1475L6.75144 25.3905V25.4028C6.71577 25.8238 6.80252 26.2462 7.00125 26.6191C7.19998 26.9919 7.50223 27.2995 7.87162 27.5046L1.01938 39.6514C0.774268 40.035 0.850254 40.5093 1.00958 40.828L1.01816 40.8439C1.12317 41.019 1.27065 41.1648 1.44695 41.2679C1.62325 41.3709 1.82269 41.4278 2.02681 41.4334H9.3889L12.7568 47.2696C12.8611 47.4449 13.008 47.5908 13.184 47.6939C13.36 47.797 13.5592 47.8539 13.763 47.8591C13.9683 47.8594 14.17 47.8047 14.3471 47.7009C14.5242 47.597 14.6704 47.4477 14.7704 47.2684L21.266 36.1842L27.7616 47.4106C27.8659 47.5858 28.0129 47.7318 28.1888 47.8349C28.3648 47.938 28.564 47.9948 28.7678 48.0001C28.9734 48.0003 29.1753 47.9452 29.3523 47.8406C29.5293 47.736 29.675 47.5858 29.774 47.4057L33.1358 41.4322H40.5003C40.7029 41.4321 40.9018 41.3787 41.0771 41.2774C41.2525 41.1761 41.398 41.0304 41.4992 40.8549C41.634 40.6843 41.711 40.4753 41.7192 40.2581C41.7273 40.0409 41.6662 39.8267 41.5445 39.6465ZM10.2223 28.126L12.6073 28.5439L14.6136 32.2329C15.083 33.2134 16.2179 33.6534 17.2694 33.2587H17.3246L19.0931 32.4401L19.8505 33.7649L13.7936 44.3049L11.0974 39.6477C10.9928 39.4729 10.8457 39.3274 10.6698 39.2248C10.4938 39.1221 10.2948 39.0657 10.0912 39.0607H4.0429L10.2223 28.126ZM14.6246 27.3196L14.6185 27.3085C14.2716 26.7301 13.7152 26.3538 13.1269 26.2999L9.05431 25.5474L9.63279 21.4699C9.68417 21.1566 9.66328 20.8357 9.57174 20.5318C9.48019 20.2278 9.3204 19.9488 9.10456 19.716L6.34945 16.7036L9.14011 13.7793C9.37264 13.5553 9.54749 13.2784 9.64972 12.9721C9.75196 12.6658 9.77852 12.3394 9.72716 12.0206L9.22835 7.89774L13.3279 7.17587C13.6381 7.1202 13.932 6.99634 14.1885 6.81321C14.445 6.63008 14.6575 6.39227 14.8109 6.11696L16.8098 2.51987L20.44 4.29084C20.7344 4.44771 21.0629 4.52975 21.3966 4.52975C21.7302 4.52975 22.0587 4.44771 22.3531 4.29084L26.0666 2.58973L28.0276 6.29712L28.0337 6.30815C28.3793 6.8854 28.9174 7.26166 29.475 7.31681L33.5035 8.11344L32.925 12.1946C32.8747 12.5091 32.8971 12.831 32.9906 13.1354C33.0841 13.4399 33.2461 13.7188 33.4643 13.9509L36.2611 16.9671L33.4263 19.8901C33.1947 20.1136 33.0203 20.3894 32.9177 20.6945C32.8151 20.9995 32.7874 21.3247 32.8368 21.6427L33.327 25.7275L29.3316 26.393C29.0215 26.4501 28.7277 26.5748 28.4712 26.7582C28.2147 26.9417 28.0017 27.1793 27.8474 27.4544L25.8497 31.0502L22.2195 29.2793C21.9238 29.1198 21.5934 29.0357 21.2575 29.0342C20.9275 29.0337 20.6026 29.1145 20.3113 29.2695L16.5819 31.0208L14.6246 27.3196ZM24.993 33.2845C25.4824 33.5204 26.0426 33.5638 26.5625 33.406C27.0823 33.2483 27.5239 32.9008 27.7996 32.4327L29.8537 28.7388L32.387 28.2731L38.5149 39.0582H32.4642C32.2586 39.058 32.0566 39.1128 31.8793 39.2168C31.7019 39.3209 31.5556 39.4705 31.4555 39.6502L28.7593 44.4373L22.3703 33.3887C22.3274 33.248 22.2537 33.1186 22.1546 33.01L21.2905 31.4767L24.993 33.2845Z" fill="#BDBDBD"/>
</svg>
