<svg width="37" height="48" viewBox="0 0 37 48" fill="none" xmlns="http://www.w3.org/2000/svg">
<path d="M36.0293 7.80787C35.9201 7.69808 35.7902 7.61108 35.647 7.55191C35.5039 7.49273 35.3505 7.46256 35.1956 7.46314H24.0822V6.26512C24.0819 5.95203 23.9574 5.65185 23.736 5.43046C23.5146 5.20907 23.2144 5.08455 22.9013 5.08422H19.5713V1.1809C19.5713 0.867706 19.4469 0.567339 19.2254 0.345877C19.004 0.124415 18.7036 0 18.3904 0C18.0772 0 17.7769 0.124415 17.5554 0.345877C17.3339 0.567339 17.2095 0.867706 17.2095 1.1809V5.08422H13.9627C13.6496 5.08455 13.3494 5.20907 13.128 5.43046C12.9066 5.65185 12.7821 5.95203 12.7818 6.26512V7.46314H1.90185C1.58908 7.46346 1.28921 7.58785 1.06804 7.80901C0.846883 8.03017 0.722492 8.33004 0.722168 8.64281V32.053C0.722492 32.3657 0.846883 32.6656 1.06804 32.8868C1.28921 33.1079 1.58908 33.2323 1.90185 33.2327H5.31863V33.8561C5.31863 34.1691 5.44288 34.4693 5.66407 34.6907C5.88527 34.9121 6.18532 35.0367 6.4983 35.037H9.42488L7.08998 46.5856C7.02836 46.8926 7.09107 47.2115 7.26434 47.4723C7.43761 47.7332 7.70728 47.9146 8.01416 47.9768C8.09101 47.9924 8.16923 48.0001 8.24765 48C8.51982 47.9993 8.78345 47.9049 8.9941 47.7325C9.20475 47.5602 9.34955 47.3205 9.4041 47.0538L10.0361 43.9292H17.212V46.8203C17.2218 47.1268 17.3505 47.4174 17.5708 47.6307C17.791 47.844 18.0856 47.9632 18.3923 47.9632C18.6989 47.9632 18.9935 47.844 19.2137 47.6307C19.434 47.4174 19.5627 47.1268 19.5725 46.8203V43.9292H26.7508L27.3816 47.0538C27.4359 47.3204 27.5805 47.56 27.7909 47.7324C28.0014 47.9048 28.2648 47.9993 28.5369 48C28.6157 48.0003 28.6943 47.9925 28.7716 47.9768C29.0785 47.9146 29.3481 47.7332 29.5214 47.4723C29.6947 47.2115 29.7574 46.8926 29.6958 46.5856L27.3645 35.037H30.285C30.5981 35.0367 30.8983 34.9122 31.1196 34.6908C31.341 34.4694 31.4656 34.1692 31.4659 33.8561V33.2327H35.1944C35.5074 33.2327 35.8076 33.1084 36.029 32.8872C36.2504 32.666 36.375 32.366 36.3753 32.053V8.64281C36.3758 8.48766 36.3455 8.33396 36.2861 8.19062C36.2267 8.04729 36.1394 7.91719 36.0293 7.80787ZM15.1423 7.44113H21.7216V9.36529H15.1423V7.44113ZM17.212 41.5686H10.5116L11.8295 35.037H17.2083L17.212 41.5686ZM19.5738 41.5686V35.037H24.9526L26.2704 41.5686H19.5738ZM29.109 32.6764H7.68043V31.3317H29.1065L29.109 32.6764ZM34.0783 30.877H3.01062V9.85061H34.0746L34.0783 30.877Z" fill="#BDBDBD"/>
</svg>
